<?xml version="1.0" encoding="utf-8"?>
<!-- Svg Vector Icons : http://www.onlinewebfonts.com/icon -->
<!DOCTYPE svg PUBLIC "-//W3C//DTD SVG 1.1//EN" "http://www.w3.org/Graphics/SVG/1.1/DTD/svg11.dtd">
<svg version="1.1" xmlns="http://www.w3.org/2000/svg" xmlns:xlink="http://www.w3.org/1999/xlink" x="0px" y="0px" viewBox="0 0 256 256" enable-background="new 0 0 256 256" xml:space="preserve">
<metadata> Svg Vector Icons : http://www.onlinewebfonts.com/icon </metadata>
<g><g><path fill="#000000" d="M142.1,11.4c-1.6-0.3-3.1-0.6-4.7-0.9c-19.1-2.9-35.7,0.3-50,7.2C42.2,34.2,10,77.6,10,128.5c0,23.8,7.1,45.9,19.2,64.4c4.6,9.6,10.1,17.1,16.2,19.7c21.3,20.9,50.5,33.8,82.7,33.8c65.2,0,118-52.8,118-118C246,68.2,200.6,18.4,142.1,11.4z M128,237.1c-27.8,0-53.2-10.5-72.4-27.7c6.2-2.5,12.8-5.2,18.9-7.9c9.9-4.3,12-6.9,21.9-11.3c0,0,1-5.1,0.7-8.2h7.8c0,0,1.8,1,0-11.1c0,0-9.5-2.5-9.9-21.8c0,0-7.1,2.4-7.6-9.2c-0.3-7.9-6.4-14.8,2.4-20.4l-4.5-12.1c0,0-8.9-48.8,16.7-41.6c-10.8-13,61.1-26,65.7,15.2c0,0,3.3,22.2,0,37.5c0,0,10.5-1.2,3.5,19.1c0,0-3.9,14.6-9.8,11.3c0,0,1,18.5-8.4,21.6c0,0,0.7,9.9,0.7,10.5l8.9,1.3c0,0-1.3,8.1,0.2,9c0,0,10.6,7.3,23.1,10.5c5.6,1.4,11.4,3.2,17.1,5.1C183.6,225.6,157.1,237.1,128,237.1z"/></g></g>
</svg>