<?xml version="1.0" encoding="UTF-8"?>
<svg version="1.1" xmlns="http://www.w3.org/2000/svg" width="500" height="500">
<path d="M0 0 C-1.29659313 10.07050468 -2.74928211 20.10154248 -4.375 30.125 C-4.48194183 30.78766876 -4.58888367 31.45033752 -4.69906616 32.13308716 C-6.5848198 43.79761296 -8.68762743 55.41230061 -11 67 C-15.22528092 67 -16.04518508 66.74375671 -19 64 C-19 63.34 -19 62.68 -19 62 C-19.66 62 -20.32 62 -21 62 C-21 61.34 -21 60.68 -21 60 C-21.556875 59.7525 -22.11375 59.505 -22.6875 59.25 C-25 58 -25 58 -27.625 55.875 C-29.75730599 53.7934519 -29.75730599 53.7934519 -32 54 C-32.66 55.32 -33.32 56.64 -34 58 C-34.66 58 -35.32 58 -36 58 C-36.26921831 58.59425781 -36.53843662 59.18851563 -36.81581306 59.80078125 C-38.00153524 62.00285118 -39.18344715 63.43016186 -40.94699097 65.1875 C-41.54977875 65.79303711 -42.15256653 66.39857422 -42.77362061 67.02246094 C-43.76328827 68.00134277 -43.76328827 68.00134277 -44.77294922 69 C-45.46907318 69.69641602 -46.16519714 70.39283203 -46.88241577 71.11035156 C-49.18513083 73.41167326 -51.49485201 75.70582698 -53.8046875 78 C-55.40694046 79.59852128 -57.00875128 81.19748586 -58.61013794 82.796875 C-62.82923851 87.00833829 -67.05430659 91.21376518 -71.28063965 95.41796875 C-75.57479433 99.69171645 -79.86334541 103.97107869 -84.15234375 108.25 C-91.08290307 115.16296723 -98.01694983 122.07241353 -104.95532227 128.97753906 C-105.86796341 129.88584473 -105.86796341 129.88584473 -106.79904175 130.8125 C-107.35847347 131.36679687 -107.9179052 131.92109375 -108.4942894 132.4921875 C-109.78780535 133.78750913 -111.05399593 135.11001652 -112.31448364 136.4375 C-114 138 -114 138 -116 138 C-116 137.34 -116 136.68 -116 136 C-116.66 136 -117.32 136 -118 136 C-118 135.34 -118 134.68 -118 134 C-118.8971875 133.5978125 -118.8971875 133.5978125 -119.8125 133.1875 C-121.99847854 132.00082594 -123.41332594 130.90400887 -125 129 C-125 128.34 -125 127.68 -125 127 C-125.66 127 -126.32 127 -127 127 C-127 126.34 -127 125.68 -127 125 C-127.86625 124.62875 -127.86625 124.62875 -128.75 124.25 C-131.3002997 122.83316683 -133.01785701 121.12372463 -135 119 C-137.84182471 120.29236488 -139.89915737 121.65000492 -142.1003418 123.85742188 C-142.67741379 124.43141724 -143.25448578 125.0054126 -143.8490448 125.59680176 C-144.4596022 126.21454468 -145.07015961 126.8322876 -145.69921875 127.46875 C-146.33487259 128.10486206 -146.97052643 128.74097412 -147.6254425 129.3963623 C-148.96499114 130.73892667 -150.30211386 132.08391529 -151.63696289 133.43115234 C-153.6851817 135.497661 -155.74132332 137.55602212 -157.79882812 139.61328125 C-159.09943189 140.91879923 -160.39957806 142.22477328 -161.69921875 143.53125 C-162.62416389 144.45786438 -162.62416389 144.45786438 -163.5677948 145.40319824 C-166.65685342 148.41912797 -166.65685342 148.41912797 -169 152 C-169.66 152 -170.32 152 -171 152 C-171 152.66 -171 153.32 -171 154 C-171.66 154 -172.32 154 -173 154 C-173 154.66 -173 155.32 -173 156 C-173.66 156 -174.32 156 -175 156 C-175 156.66 -175 157.32 -175 158 C-178.33155251 159.66577625 -182.06536059 159.12007856 -185.7265625 159.09765625 C-187.02078629 159.09553383 -187.02078629 159.09553383 -188.34115601 159.09336853 C-191.1024723 159.08776188 -193.86370812 159.07520827 -196.625 159.0625 C-198.4947905 159.05748586 -200.36458226 159.0529228 -202.234375 159.04882812 C-206.82294777 159.03779029 -211.41146023 159.0205212 -216 159 C-216 155 -216 155 -214.60206604 153.1277771 C-213.62063881 152.16419785 -213.62063881 152.16419785 -212.61938477 151.18115234 C-211.51307457 150.08013687 -211.51307457 150.08013687 -210.38441467 148.95687866 C-209.57822189 148.17446808 -208.77202911 147.3920575 -207.94140625 146.5859375 C-207.12252426 145.77508698 -206.30364227 144.96423645 -205.45994568 144.1288147 C-202.83670933 141.53463711 -200.20022924 138.95443291 -197.5625 136.375 C-194.93095668 133.7859048 -192.30221036 131.19402921 -189.67576599 128.59976196 C-188.03889391 126.98465586 -186.39855909 125.37305052 -184.75453186 123.76522827 C-184.01383957 123.03752228 -183.27314728 122.30981628 -182.51000977 121.56005859 C-181.85492935 120.91926361 -181.19984894 120.27846863 -180.5249176 119.61825562 C-178.91014777 118.06023658 -178.91014777 118.06023658 -178 116 C-177.34 116 -176.68 116 -176 116 C-176 115.34 -176 114.68 -176 114 C-175.34 114 -174.68 114 -174 114 C-174 113.34 -174 112.68 -174 112 C-173.34 112 -172.68 112 -172 112 C-171.62875 111.071875 -171.62875 111.071875 -171.25 110.125 C-169.79371361 107.64931313 -168.62187494 107.04874998 -166 106 C-166 105.34 -166 104.68 -166 104 C-165.34 104 -164.68 104 -164 104 C-163.7628125 103.43796875 -163.525625 102.8759375 -163.28125 102.296875 C-161.71052303 99.48105958 -159.78528536 97.52044584 -157.5 95.25 C-156.7059375 94.45078125 -155.911875 93.6515625 -155.09375 92.828125 C-153 91 -153 91 -151 91 C-150.66935547 90.18982422 -150.66935547 90.18982422 -150.33203125 89.36328125 C-148.55353346 86.20788194 -146.20247903 83.75591816 -143.6875 81.1875 C-143.21376953 80.67251953 -142.74003906 80.15753906 -142.25195312 79.62695312 C-140.82421875 78.16796875 -140.82421875 78.16796875 -138 76 C-133.58314521 76.20668903 -131.58507099 77.93766078 -128.57421875 81.03515625 C-127.77822266 81.84404297 -126.98222656 82.65292969 -126.16210938 83.48632812 C-125.34548828 84.33646484 -124.52886719 85.18660156 -123.6875 86.0625 C-122.85154297 86.91650391 -122.01558594 87.77050781 -121.15429688 88.65039062 C-119.09357656 90.75821312 -117.04276791 92.87479849 -115 95 C-103.14666056 85.59774789 -103.14666056 85.59774789 -94 74 C-93.34 74 -92.68 74 -92 74 C-92 73.34 -92 72.68 -92 72 C-91.34 72 -90.68 72 -90 72 C-90 71.34 -90 70.68 -90 70 C-89.34 70 -88.68 70 -88 70 C-88 69.34 -88 68.68 -88 68 C-87.34 68 -86.68 68 -86 68 C-86 67.34 -86 66.68 -86 66 C-85.34 66 -84.68 66 -84 66 C-84 65.34 -84 64.68 -84 64 C-82.625 62.375 -82.625 62.375 -81 61 C-80.34 61 -79.68 61 -79 61 C-78.34 59.68 -77.68 58.36 -77 57 C-76.34 57 -75.68 57 -75 57 C-75 56.34 -75 55.68 -75 55 C-74.34 55 -73.68 55 -73 55 C-73 54.34 -73 53.68 -73 53 C-72.34 53 -71.68 53 -71 53 C-70.61932373 52.13036621 -70.61932373 52.13036621 -70.23095703 51.24316406 C-68.86241385 48.74927777 -67.33002231 47.10256164 -65.3046875 45.109375 C-64.23154297 44.04589844 -64.23154297 44.04589844 -63.13671875 42.9609375 C-62.39035156 42.23132813 -61.64398438 41.50171875 -60.875 40.75 C-60.12089844 40.00492188 -59.36679687 39.25984375 -58.58984375 38.4921875 C-56.73099228 36.6568658 -54.86762995 34.8263809 -53 33 C-54.48839338 29.87526564 -56.01465536 27.73992348 -58.5 25.3125 C-59.1084375 24.71050781 -59.716875 24.10851562 -60.34375 23.48828125 C-61.9452691 21.91687598 -61.9452691 21.91687598 -64 21 C-64 20.34 -64 19.68 -64 19 C-64.66 19 -65.32 19 -66 19 C-66.33 18.01 -66.66 17.02 -67 16 C-64.7803126 13.7803126 -63.83482403 13.52886008 -60.85546875 12.80859375 C-59.96827148 12.59017822 -59.08107422 12.3717627 -58.16699219 12.14672852 C-57.18375977 11.91268311 -56.20052734 11.6786377 -55.1875 11.4375 C-54.16172852 11.18863037 -53.13595703 10.93976074 -52.07910156 10.68334961 C-49.73932093 10.11572358 -47.39894306 9.55055604 -45.05810547 8.98730469 C-41.3106787 8.08063725 -37.57116086 7.14381826 -33.83222961 6.20280457 C-30.47595839 5.35901921 -27.11771178 4.52326687 -23.75918579 3.68850708 C-22.08817507 3.27161306 -20.41790046 2.85175721 -18.74838257 2.42892456 C-16.38123401 1.83047903 -14.01140508 1.24402369 -11.640625 0.66015625 C-10.92802017 0.47715973 -10.21541534 0.29416321 -9.48121643 0.10562134 C-6.03030497 -0.73191677 -3.37214358 -1.33728529 0 0 Z " fill="#3EA1AA" transform="translate(360,131)"/>
<path d="M0 0 C1.29810104 -0.00058411 2.59620209 -0.00116821 3.93363953 -0.00177002 C7.48091522 -0.00291472 11.02764666 0.02055418 14.5747962 0.04852581 C18.2863369 0.07358065 21.99789095 0.07588467 25.70950317 0.08062744 C32.73240962 0.09304529 39.75506613 0.12585056 46.77786267 0.1660254 C54.7753959 0.21078037 62.77294126 0.23273948 70.77056861 0.25280714 C87.21714633 0.29458442 103.66347288 0.36491304 120.10986328 0.45410156 C119.44986328 1.77410156 118.78986328 3.09410156 118.10986328 4.45410156 C117.44986328 4.45410156 116.78986328 4.45410156 116.10986328 4.45410156 C116.10986328 5.11410156 116.10986328 5.77410156 116.10986328 6.45410156 C115.44986328 6.45410156 114.78986328 6.45410156 114.10986328 6.45410156 C113.71178467 7.33917389 113.71178467 7.33917389 113.30566406 8.24212646 C112.07461065 10.51931138 110.79923812 12.01831968 108.97705078 13.84570312 C108.34299316 14.48606506 107.70893555 15.126427 107.05566406 15.78619385 C106.3722998 16.46550964 105.68893555 17.14482544 104.98486328 17.84472656 C103.93081299 18.90164703 103.93081299 18.90164703 102.85546875 19.97991943 C101.37176224 21.4649851 99.88553436 22.94753538 98.39697266 24.42773438 C96.11142738 26.70254481 93.83677311 28.98785516 91.56298828 31.27441406 C90.12092109 32.71516024 88.67823393 34.15528621 87.23486328 35.59472656 C86.55149902 36.28213928 85.86813477 36.969552 85.1640625 37.67779541 C84.53000488 38.30554871 83.89594727 38.933302 83.24267578 39.58007812 C82.68467285 40.13648987 82.12666992 40.69290161 81.55175781 41.26617432 C80.10986328 42.45410156 80.10986328 42.45410156 78.10986328 42.45410156 C78.10986328 41.79410156 78.10986328 41.13410156 78.10986328 40.45410156 C77.44986328 40.45410156 76.78986328 40.45410156 76.10986328 40.45410156 C76.10986328 39.79410156 76.10986328 39.13410156 76.10986328 38.45410156 C75.44986328 38.45410156 74.78986328 38.45410156 74.10986328 38.45410156 C74.10986328 37.79410156 74.10986328 37.13410156 74.10986328 36.45410156 C73.44986328 36.45410156 72.78986328 36.45410156 72.10986328 36.45410156 C69.48486328 34.07910156 69.48486328 34.07910156 67.10986328 31.45410156 C67.10986328 30.79410156 67.10986328 30.13410156 67.10986328 29.45410156 C66.57361328 29.22722656 66.03736328 29.00035156 65.48486328 28.76660156 C62.32485465 27.020281 59.84216498 24.81381666 57.10986328 22.45410156 C56.61486328 23.13472656 56.11986328 23.81535156 55.60986328 24.51660156 C52.91535322 27.68265089 49.99775682 30.24178248 46.81689453 32.90332031 C45.00591739 34.36089931 45.00591739 34.36089931 44.10986328 36.45410156 C43.44986328 36.45410156 42.78986328 36.45410156 42.10986328 36.45410156 C42.10986328 37.11410156 42.10986328 37.77410156 42.10986328 38.45410156 C41.44986328 38.45410156 40.78986328 38.45410156 40.10986328 38.45410156 C40.10986328 39.11410156 40.10986328 39.77410156 40.10986328 40.45410156 C39.44986328 40.45410156 38.78986328 40.45410156 38.10986328 40.45410156 C37.84173828 41.09347656 37.57361328 41.73285156 37.29736328 42.39160156 C36.10986328 44.45410156 36.10986328 44.45410156 33.10986328 45.45410156 C33.10986328 46.11410156 33.10986328 46.77410156 33.10986328 47.45410156 C32.44986328 47.45410156 31.78986328 47.45410156 31.10986328 47.45410156 C31.10986328 48.11410156 31.10986328 48.77410156 31.10986328 49.45410156 C30.44986328 49.45410156 29.78986328 49.45410156 29.10986328 49.45410156 C29.10986328 50.11410156 29.10986328 50.77410156 29.10986328 51.45410156 C28.44986328 51.45410156 27.78986328 51.45410156 27.10986328 51.45410156 C27.10986328 52.11410156 27.10986328 52.77410156 27.10986328 53.45410156 C26.44986328 53.45410156 25.78986328 53.45410156 25.10986328 53.45410156 C25.10986328 54.11410156 25.10986328 54.77410156 25.10986328 55.45410156 C24.44986328 55.45410156 23.78986328 55.45410156 23.10986328 55.45410156 C23.10986328 56.11410156 23.10986328 56.77410156 23.10986328 57.45410156 C22.44986328 57.45410156 21.78986328 57.45410156 21.10986328 57.45410156 C21.10986328 58.11410156 21.10986328 58.77410156 21.10986328 59.45410156 C20.44986328 59.45410156 19.78986328 59.45410156 19.10986328 59.45410156 C19.10986328 60.11410156 19.10986328 60.77410156 19.10986328 61.45410156 C18.44986328 61.45410156 17.78986328 61.45410156 17.10986328 61.45410156 C17.10986328 62.11410156 17.10986328 62.77410156 17.10986328 63.45410156 C16.44986328 63.45410156 15.78986328 63.45410156 15.10986328 63.45410156 C14.8771875 64.01129883 14.64451172 64.56849609 14.40478516 65.14257812 C12.77416935 68.05333801 10.74747134 70.07591289 8.39111328 72.43847656 C6.993125 73.84033203 6.993125 73.84033203 5.56689453 75.27050781 C5.08172363 75.75148926 4.59655273 76.2324707 4.09667969 76.72802734 C2.6077999 78.20615004 1.12994678 79.69470068 -0.34716797 81.18457031 C-1.27916016 82.11398437 -2.21115234 83.04339844 -3.17138672 84.00097656 C-4.02796875 84.85530273 -4.88455078 85.70962891 -5.76708984 86.58984375 C-7.89013672 88.45410156 -7.89013672 88.45410156 -9.89013672 88.45410156 C-9.89013672 89.11410156 -9.89013672 89.77410156 -9.89013672 90.45410156 C-10.55013672 90.45410156 -11.21013672 90.45410156 -11.89013672 90.45410156 C-11.89013672 91.11410156 -11.89013672 91.77410156 -11.89013672 92.45410156 C-12.55013672 92.45410156 -13.21013672 92.45410156 -13.89013672 92.45410156 C-13.89013672 93.11410156 -13.89013672 93.77410156 -13.89013672 94.45410156 C-14.55013672 94.45410156 -15.21013672 94.45410156 -15.89013672 94.45410156 C-16.17888672 95.07285156 -16.46763672 95.69160156 -16.76513672 96.32910156 C-17.89013672 98.45410156 -17.89013672 98.45410156 -19.89013672 100.45410156 C-20.88013672 100.45410156 -21.87013672 100.45410156 -22.89013672 100.45410156 C-22.98285805 88.82325186 -23.05391275 77.19249023 -23.09738541 65.56134605 C-23.1182512 60.16039338 -23.14655079 54.75969376 -23.19189453 49.35888672 C-23.2353877 44.14581442 -23.25928141 38.93298538 -23.26964569 33.71974564 C-23.27703079 31.73182979 -23.29145221 29.74392712 -23.31305695 27.75611496 C-23.3421369 24.96944259 -23.34609078 22.1837726 -23.34423828 19.39697266 C-23.35861938 18.57697784 -23.37300049 17.75698303 -23.38781738 16.91213989 C-23.34988591 11.63132921 -22.48299971 8.57434829 -18.89013672 4.45410156 C-13.3726103 -0.84278442 -7.20043412 -0.08473298 0 0 Z " fill="#21354A" transform="translate(165.89013671875,176.5458984375)"/>
<path d="M0 0 C0.09272773 11.3700805 0.16377926 22.74007087 0.20724869 34.11045265 C0.22811311 39.39034009 0.25641012 44.6699686 0.30175781 49.94970703 C0.345256 55.04607052 0.36914573 60.14218513 0.37950897 65.23871994 C0.38689318 67.18197929 0.40131288 69.1252252 0.42292023 71.06837845 C0.45200697 73.79279135 0.4559538 76.51617917 0.45410156 79.24072266 C0.46848267 80.04201599 0.48286377 80.84330933 0.49768066 81.66888428 C0.45949117 86.86874018 -0.36175745 90.01301304 -4 94 C-10.12377351 97.81258873 -16.31259158 97.40651035 -23.36108398 97.34057617 C-25.2060421 97.34123329 -25.2060421 97.34123329 -27.08827209 97.34190369 C-30.44334255 97.34017781 -33.79785197 97.32518379 -37.15282321 97.30418181 C-40.66550957 97.28536534 -44.17820425 97.28366067 -47.69093323 97.28010559 C-54.33480704 97.27079966 -60.97853189 97.24620572 -67.62234026 97.21605712 C-75.18944759 97.18246773 -82.75656221 97.16601573 -90.32372558 97.15097082 C-105.88256984 97.11965472 -121.44126567 97.06692271 -137 97 C-136.22361451 93.40103658 -135.02788268 91.51778928 -132.5625 88.75 C-131.94503906 88.04359375 -131.32757813 87.3371875 -130.69140625 86.609375 C-129 85 -129 85 -127 85 C-127 84.34 -127 83.68 -127 83 C-126.34 83 -125.68 83 -125 83 C-125 82.34 -125 81.68 -125 81 C-123.125 78.875 -123.125 78.875 -121 77 C-120.34 77 -119.68 77 -119 77 C-119 76.34 -119 75.68 -119 75 C-117.390625 73.4140625 -117.390625 73.4140625 -115.25 71.625 C-112.90467846 69.65129631 -110.80531012 67.78367792 -108.75 65.5 C-108.1725 65.005 -107.595 64.51 -107 64 C-103.13927258 64.32343587 -101.30165132 66.34902758 -98.671875 69.03515625 C-97.47304687 70.24848633 -97.47304687 70.24848633 -96.25 71.48632812 C-95.425 72.33646484 -94.6 73.18660156 -93.75 74.0625 C-92.48929688 75.34350586 -92.48929688 75.34350586 -91.203125 76.65039062 C-89.12852403 78.76035412 -87.06124168 80.87699708 -85 83 C-81.47618313 80.45395403 -81.47618313 80.45395403 -79 77 C-78.34 77 -77.68 77 -77 77 C-77 76.34 -77 75.68 -77 75 C-76.34 75 -75.68 75 -75 75 C-75 74.34 -75 73.68 -75 73 C-74.34 73 -73.68 73 -73 73 C-73 72.34 -73 71.68 -73 71 C-71.125 68.875 -71.125 68.875 -69 67 C-68.34 67 -67.68 67 -67 67 C-66.505 65.515 -66.505 65.515 -66 64 C-65.34 64 -64.68 64 -64 64 C-63.68144043 63.19444672 -63.68144043 63.19444672 -63.35644531 62.37261963 C-61.49243951 59.11220308 -58.94140358 56.66317373 -56.296875 54.03808594 C-55.42343445 53.15938843 -55.42343445 53.15938843 -54.53234863 52.26293945 C-52.6098942 50.33169543 -50.68023189 48.40784337 -48.75 46.484375 C-47.41214187 45.14516979 -46.07458076 43.80566779 -44.73730469 42.46588135 C-41.93618463 39.66181409 -39.13148185 36.86139336 -36.32421875 34.06347656 C-32.71912923 30.46980329 -29.12312101 26.86719749 -25.52972412 23.26183701 C-22.77105754 20.49595976 -20.00766543 17.73484361 -17.24279785 14.97516632 C-15.91439817 13.64810419 -14.58749189 12.31954547 -13.26208496 10.98949432 C-11.41388198 9.1362368 -9.55943234 7.28947076 -7.703125 5.44433594 C-7.15241333 4.88957581 -6.60170166 4.33481567 -6.03430176 3.76324463 C-2.22853116 0 -2.22853116 0 0 0 Z " fill="#25394D" transform="translate(330,193)"/>
<path d="M0 0 C0.93312515 -0.00428513 1.86625031 -0.00857025 2.82765198 -0.01298523 C4.79695832 -0.01871645 6.76628582 -0.01923771 8.7355957 -0.01489258 C11.74011523 -0.01173325 14.743649 -0.03520473 17.74804688 -0.06054688 C19.66536335 -0.06282013 21.58268245 -0.06352324 23.5 -0.0625 C24.39391953 -0.07170975 25.28783905 -0.08091949 26.20884705 -0.09040833 C32.21078467 -0.0461293 36.44456153 0.90757731 41.19140625 4.86328125 C42.31640625 6.30078125 42.31640625 6.30078125 42.31640625 8.30078125 C42.97640625 8.30078125 43.63640625 8.30078125 44.31640625 8.30078125 C45.98314946 11.21902369 46.55960705 13.27672504 46.51171875 16.62890625 C46.50527344 17.428125 46.49882812 18.22734375 46.4921875 19.05078125 C46.46705078 20.28828125 46.46705078 20.28828125 46.44140625 21.55078125 C46.43238281 22.39125 46.42335938 23.23171875 46.4140625 24.09765625 C46.39056442 26.16548729 46.35469533 28.2331712 46.31640625 30.30078125 C44.33731227 30.32764678 42.35811654 30.347115 40.37890625 30.36328125 C39.27675781 30.37488281 38.17460937 30.38648438 37.0390625 30.3984375 C34.31640625 30.30078125 34.31640625 30.30078125 33.31640625 29.30078125 C33.03161503 26.52519702 32.86797606 23.7495028 32.6953125 20.96484375 C32.48056031 18.07900039 32.48056031 18.07900039 30.31640625 15.30078125 C27.50286183 14.99670732 24.91317171 14.88077563 22.09765625 14.90234375 C21.28397583 14.89947357 20.47029541 14.89660339 19.63195801 14.89364624 C17.91039332 14.89160334 16.18880554 14.89714899 14.46728516 14.90966797 C11.82662231 14.92571915 9.18749004 14.90982768 6.546875 14.890625 C4.87629869 14.89260739 3.20572334 14.89645099 1.53515625 14.90234375 C0.7424231 14.89627106 -0.05031006 14.89019836 -0.86706543 14.88394165 C-3.32519318 14.8805084 -3.32519318 14.8805084 -6.68359375 15.30078125 C-8.95314006 18.70510072 -9.04909324 20.46602327 -9.30859375 24.48828125 C-9.38335937 25.57496094 -9.458125 26.66164062 -9.53515625 27.78125 C-9.58414063 28.61269531 -9.633125 29.44414062 -9.68359375 30.30078125 C-12.80539776 31.26739488 -15.2044317 31.29067034 -18.43359375 30.86328125 C-19.2328125 30.76144531 -20.03203125 30.65960938 -20.85546875 30.5546875 C-21.45875 30.47089844 -22.06203125 30.38710937 -22.68359375 30.30078125 C-22.73799025 27.92546731 -22.77745239 25.55142242 -22.80859375 23.17578125 C-22.82535156 22.510625 -22.84210938 21.84546875 -22.859375 21.16015625 C-22.91923183 15.05476003 -21.92374038 10.21292883 -17.87109375 5.55078125 C-17.39027344 4.9784375 -16.90945312 4.40609375 -16.4140625 3.81640625 C-11.60304058 -0.39731047 -6.04335468 -0.00614766 0 0 Z " fill="#293C4E" transform="translate(224.68359375,140.69921875)"/>
<path d="M0 0 C1.58167969 0.02707031 1.58167969 0.02707031 3.1953125 0.0546875 C4.52175781 0.08949219 4.52175781 0.08949219 5.875 0.125 C7.25135197 0.125 8.62774191 0.1125694 10.00390625 0.08984375 C10.80699219 0.08082031 11.61007812 0.07179688 12.4375 0.0625 C13.24316406 0.05089844 14.04882812 0.03929687 14.87890625 0.02734375 C16.875 0.125 16.875 0.125 17.875 1.125 C18.11900131 5.11183345 18.10361641 9.10251649 18.11523438 13.09619141 C18.12482667 15.08898969 18.15596573 17.08164689 18.1875 19.07421875 C18.24417204 33.08638013 18.24417204 33.08638013 14.875 39.125 C9.88929078 43.27975768 5.6786665 44.40080405 -0.62890625 44.359375 C-4.74175885 43.97319166 -8.27547371 42.59148621 -12.125 41.125 C-11.465 38.155 -10.805 35.185 -10.125 32.125 C-8.083125 32.6509375 -8.083125 32.6509375 -6 33.1875 C-2.07569368 34.04652138 0.98283555 34.45403176 4.875 33.125 C6.31137698 31.17336882 6.31137698 31.17336882 6.875 29.125 C5.885 29.785 4.895 30.445 3.875 31.125 C-1.73376529 31.58473486 -5.29785329 31.30652851 -10.125 28.125 C-12.99901095 25.24049996 -14.04841001 23.63804033 -14.65625 19.56640625 C-14.6459375 18.28636719 -14.635625 17.00632812 -14.625 15.6875 C-14.64046875 13.77130859 -14.64046875 13.77130859 -14.65625 11.81640625 C-14.04225982 7.55007743 -12.87569776 5.41324609 -10.125 2.125 C-6.88375056 -0.2482998 -3.93696195 -0.08705813 0 0 Z M-2.9375 10.125 C-5.48709539 13.00278185 -5.48709539 13.00278185 -5.125 16.8125 C-4.43116669 20.38039113 -4.43116669 20.38039113 -1.125 22.125 C2.33811301 21.98070362 4.21334135 21.72262717 6.8125 19.375 C8.0777898 17.15256768 8.0777898 17.15256768 7.75 14.5625 C6.52989063 11.16362391 5.14988406 9.80493817 2 8.125 C-0.41155489 7.91975199 -0.41155489 7.91975199 -2.9375 10.125 Z " fill="#344456" transform="translate(370.125,325.875)"/>
<path d="M0 0 C1.25554687 -0.00128906 2.51109375 -0.00257813 3.8046875 -0.00390625 C4.46178711 -0.00181152 5.11888672 0.0002832 5.79589844 0.00244141 C7.80411335 0.00779016 9.81210459 0.00249559 11.8203125 -0.00390625 C13.07585937 -0.00261719 14.33140625 -0.00132812 15.625 0 C16.78644531 0.00112793 17.94789063 0.00225586 19.14453125 0.00341797 C21.8125 0.1328125 21.8125 0.1328125 22.8125 1.1328125 C22.95365161 3.80340101 22.85497107 6.45713488 22.8125 9.1328125 C20.41679729 9.3015664 18.02096637 9.46788086 15.625 9.6328125 C14.95146484 9.68050781 14.27792969 9.72820312 13.58398438 9.77734375 C9.98613248 10.02305071 6.41877694 10.18883234 2.8125 10.1328125 C2.8125 12.7728125 2.8125 15.4128125 2.8125 18.1328125 C8.0925 18.1328125 13.3725 18.1328125 18.8125 18.1328125 C18.91015625 25.06640625 18.91015625 25.06640625 18.8125 27.1328125 C17.8125 28.1328125 17.8125 28.1328125 14.43359375 28.23046875 C13.03902923 28.22379619 11.64448257 28.21183782 10.25 28.1953125 C9.53908203 28.19080078 8.82816406 28.18628906 8.09570312 28.18164062 C6.33459987 28.16982114 4.57353964 28.15188513 2.8125 28.1328125 C2.82410156 29.27621094 2.83570313 30.41960937 2.84765625 31.59765625 C2.85703288 33.08854004 2.86613321 34.57942559 2.875 36.0703125 C2.88337891 36.82505859 2.89175781 37.57980469 2.90039062 38.35742188 C2.90902441 40.28275563 2.86474333 42.20816831 2.8125 44.1328125 C1.8125 45.1328125 1.8125 45.1328125 0 45.265625 C-0.721875 45.26304687 -1.44375 45.26046875 -2.1875 45.2578125 C-2.909375 45.26039063 -3.63125 45.26296875 -4.375 45.265625 C-6.1875 45.1328125 -6.1875 45.1328125 -7.1875 44.1328125 C-7.28535341 42.78736923 -7.31547985 41.43688687 -7.31689453 40.08789062 C-7.32004669 39.23030151 -7.32319885 38.3727124 -7.32644653 37.48913574 C-7.3244223 36.55686157 -7.32239807 35.6245874 -7.3203125 34.6640625 C-7.32126923 33.71341919 -7.32222595 32.76277588 -7.32321167 31.7833252 C-7.32389357 29.76912368 -7.32203862 27.75491998 -7.31787109 25.74072266 C-7.31252298 22.64610895 -7.31781577 19.5516404 -7.32421875 16.45703125 C-7.32355797 14.50520801 -7.32227681 12.55338486 -7.3203125 10.6015625 C-7.32233673 9.66928833 -7.32436096 8.73701416 -7.32644653 7.77648926 C-7.32329437 6.91890015 -7.32014221 6.06131104 -7.31689453 5.17773438 C-7.31609894 4.41908081 -7.31530334 3.66042725 -7.31448364 2.87878418 C-7.01674726 -1.21496592 -3.29816437 0.00320299 0 0 Z " fill="#2E4053" transform="translate(272.1875,313.8671875)"/>
<path d="M0 0 C3.46048958 2.77269041 5.99713334 5.31865352 6.94921875 9.76171875 C7.13538696 12.48184315 7.0861131 15.02383166 6.94921875 17.76171875 C5.36518351 19.34575399 3.67205495 18.9814681 1.4765625 19.078125 C0.57744141 19.12001953 -0.32167969 19.16191406 -1.24804688 19.20507812 C-2.19357422 19.24439453 -3.13910156 19.28371094 -4.11328125 19.32421875 C-5.06267578 19.36740234 -6.01207031 19.41058594 -6.99023438 19.45507812 C-9.34359478 19.56151151 -11.69706479 19.66352883 -14.05078125 19.76171875 C-12.26215889 21.96936988 -12.26215889 21.96936988 -9.87890625 21.9921875 C-5.17078404 21.9137188 -0.67973122 21.73623453 3.94921875 20.76171875 C4.4375 26.71875 4.4375 26.71875 3.94921875 28.76171875 C-0.82772951 32.73356337 -5.79080561 32.24748966 -11.72265625 32.1171875 C-17.12775817 31.53988201 -19.24600185 29.75319947 -22.86328125 25.76171875 C-25.58655599 21.17515076 -25.55881487 15.95212891 -25.05078125 10.76171875 C-24.25182004 7.95141916 -23.22379313 5.44987097 -22.05078125 2.76171875 C-21.39078125 2.76171875 -20.73078125 2.76171875 -20.05078125 2.76171875 C-20.05078125 2.10171875 -20.05078125 1.44171875 -20.05078125 0.76171875 C-13.31871346 -2.05524579 -6.65464241 -4.01813647 0 0 Z M-11.05078125 6.76171875 C-12.37078125 8.08171875 -13.69078125 9.40171875 -15.05078125 10.76171875 C-11.09078125 10.76171875 -7.13078125 10.76171875 -3.05078125 10.76171875 C-4.37078125 9.44171875 -5.69078125 8.12171875 -7.05078125 6.76171875 C-8.37078125 6.76171875 -9.69078125 6.76171875 -11.05078125 6.76171875 Z " fill="#405162" transform="translate(417.05078125,327.23828125)"/>
<path d="M0 0 C4.0639849 1.84593928 6.34486158 4.91039791 8 9 C8.23046875 11.54296875 8.23046875 11.54296875 8.1875 14.1875 C8.18105469 15.06792969 8.17460937 15.94835937 8.16796875 16.85546875 C8 19 8 19 7 20 C5.65984779 20.15582303 4.31241097 20.25044142 2.96484375 20.31640625 C2.15595703 20.35830078 1.34707031 20.40019531 0.51367188 20.44335938 C-0.33646484 20.48267578 -1.18660156 20.52199219 -2.0625 20.5625 C-2.91650391 20.60568359 -3.77050781 20.64886719 -4.65039062 20.69335938 C-6.76672037 20.79976702 -8.88333813 20.90041731 -11 21 C-10.67 21.66 -10.34 22.32 -10 23 C-4.85238449 23.08995833 -0.046678 23.13957245 5 22 C6 23 6 23 6.0625 26.5625 C6.041875 27.696875 6.02125 28.83125 6 30 C0.21370775 33.96774326 -6.18270307 33.67820654 -13 33 C-15.3984375 31.98046875 -15.3984375 31.98046875 -17 31 C-17 30.34 -17 29.68 -17 29 C-17.66 29 -18.32 29 -19 29 C-19 28.34 -19 27.68 -19 27 C-19.66 27 -20.32 27 -21 27 C-24.16745652 21.80537131 -23.59203294 15.86916606 -23 10 C-18.15522789 -0.22785223 -10.46696057 -1.43567923 0 0 Z M-11.25 10 C-11.8275 10.66 -12.405 11.32 -13 12 C-9.37 12 -5.74 12 -2 12 C-2 11.34 -2 10.68 -2 10 C-5.75417945 7.4972137 -7.74061824 6.88054954 -11.25 10 Z " fill="#273A4D" transform="translate(252,326)"/>
<path d="M0 0 C9.57 0 19.14 0 29 0 C29 2.97 29 5.94 29 9 C22.73 9 16.46 9 10 9 C10 11.97 10 14.94 10 18 C14.95 18 19.9 18 25 18 C25 21.3 25 24.6 25 28 C20.05 28 15.1 28 10 28 C10 33.28 10 38.56 10 44 C7.01787087 45.49106457 4.28390342 45.11941467 1 45 C0 44 0 44 -0.12025452 42.20933533 C-0.11803391 41.42990067 -0.11581329 40.650466 -0.11352539 39.84741211 C-0.11341209 38.52615578 -0.11341209 38.52615578 -0.11329651 37.1782074 C-0.10555458 35.74227989 -0.10555458 35.74227989 -0.09765625 34.27734375 C-0.0962413 33.30213272 -0.09482635 32.32692169 -0.09336853 31.32215881 C-0.08775133 28.19390857 -0.07519593 25.06572877 -0.0625 21.9375 C-0.05748722 19.82226666 -0.05292393 17.70703219 -0.04882812 15.59179688 C-0.03862531 10.39448199 -0.01905331 5.19732025 0 0 Z " fill="#203347" transform="translate(78,314)"/>
<path d="M0 0 C4.4425556 4.55946496 6.58611145 8.10121106 6.875 14.4375 C6.6357015 20.26043019 4.57725822 23.77643798 0.875 28.25 C-4.41178924 32.43537481 -10.15678343 32.09873315 -16.625 31.4375 C-21.0273869 30.20201664 -23.7717554 27.72816725 -26.0625 23.8125 C-28.08868957 19.04343371 -28.6763239 14.52935979 -27.625 9.4375 C-25.72889581 5.41898241 -23.55318458 1.77109022 -19.8515625 -0.7890625 C-13.6634688 -2.93861084 -5.93670206 -2.5589233 0 0 Z M-15 7.875 C-17.26397588 10.05189988 -17.61490308 12.32481135 -17.85546875 15.390625 C-17.75119849 17.77280271 -17.75119849 17.77280271 -15.5 20.5 C-12.84865406 22.676177 -12.84865406 22.676177 -10.0625 22.4375 C-6.4741392 20.98027609 -6.4741392 20.98027609 -3.625 18.4375 C-3.15586911 14.05894505 -3.15556471 12.14165293 -5.625 8.4375 C-8.95573437 7.63565654 -11.61722616 7.25185745 -15 7.875 Z " fill="#3A4A5A" transform="translate(322.625,327.5625)"/>
<path d="M0 0 C3.3 0 6.6 0 10 0 C10.33 7.26 10.66 14.52 11 22 C15.71058562 23.3721042 15.71058562 23.3721042 19 22 C18.99214478 21.05362671 18.99214478 21.05362671 18.98413086 20.08813477 C18.96342174 17.24626653 18.95035934 14.40441412 18.9375 11.5625 C18.92912109 10.56927734 18.92074219 9.57605469 18.91210938 8.55273438 C18.90727539 7.13637695 18.90727539 7.13637695 18.90234375 5.69140625 C18.89448853 4.37958374 18.89448853 4.37958374 18.88647461 3.04125977 C19 1 19 1 20 0 C21.49738124 -0.0979057 22.99942892 -0.12974864 24.5 -0.125 C25.3146875 -0.12757813 26.129375 -0.13015625 26.96875 -0.1328125 C29 0 29 0 30 1 C30.1001491 3.19477691 30.13081219 5.392784 30.1328125 7.58984375 C30.13424759 8.57942833 30.13424759 8.57942833 30.13571167 9.58900452 C30.13639336 10.98699031 30.13453986 12.38497924 30.13037109 13.78295898 C30.12503106 15.92503982 30.13031199 18.06691017 30.13671875 20.20898438 C30.1360578 21.56510463 30.13477629 22.92122476 30.1328125 24.27734375 C30.13168457 25.51734131 30.13055664 26.75733887 30.12939453 28.03491211 C30 31 30 31 29 33 C27.741875 33.020625 26.48375 33.04125 25.1875 33.0625 C24.12595703 33.07990234 24.12595703 33.07990234 23.04296875 33.09765625 C21 33 21 33 18 32 C17.01 32.495 17.01 32.495 16 33 C13.9765625 33.16796875 13.9765625 33.16796875 11.625 33.1875 C10.85414063 33.20167969 10.08328125 33.21585937 9.2890625 33.23046875 C6.64257727 32.96401375 5.19782537 32.50591738 3 31 C0.20903652 27.17141974 -0.36243532 24.5247902 -0.29296875 19.82421875 C-0.28330078 18.66728516 -0.27363281 17.51035156 -0.26367188 16.31835938 C-0.23853516 15.12017578 -0.21339844 13.92199219 -0.1875 12.6875 C-0.17396484 11.46998047 -0.16042969 10.25246094 -0.14648438 8.99804688 C-0.11119261 5.99824655 -0.06188481 2.99935025 0 0 Z " fill="#394959" transform="translate(171,326)"/>
<path d="M0 0 C3.3 0 6.6 0 10 0 C10.33 7.26 10.66 14.52 11 22 C12.65 22.33 14.3 22.66 16 23 C18.48057628 20.51942372 18.29019005 19.63807536 18.4140625 16.2109375 C18.45273438 15.26992188 18.49140625 14.32890625 18.53125 13.359375 C18.5621875 12.37453125 18.593125 11.3896875 18.625 10.375 C18.66367188 9.38242187 18.70234375 8.38984375 18.7421875 7.3671875 C18.83662661 4.91177058 18.91940881 2.45591043 19 0 C22.3 0 25.6 0 29 0 C29.02465392 4.53897705 29.04283789 9.07791543 29.05493164 13.61694336 C29.0599714 15.16219766 29.0668032 16.70744716 29.07543945 18.25268555 C29.08752076 20.46925029 29.09323173 22.68575218 29.09765625 24.90234375 C29.10281754 25.5971434 29.10797882 26.29194305 29.11329651 27.00779724 C29.11349277 28.6722933 29.06189129 30.33665499 29 32 C28 33 28 33 24.1875 33.0625 C22.79163158 33.04416777 21.39579423 33.0233064 20 33 C17.86537068 33 15.72863775 33.01588462 13.59765625 33.140625 C6.71471068 33.43757797 6.71471068 33.43757797 2.9375 31.125 C-0.24277625 27.63695508 -0.11936644 25.54441747 -0.09765625 20.8984375 C-0.09443359 19.68671875 -0.09121094 18.475 -0.08789062 17.2265625 C-0.07951172 15.95554687 -0.07113281 14.68453125 -0.0625 13.375 C-0.05798828 12.09625 -0.05347656 10.8175 -0.04882812 9.5 C-0.03701203 6.33328708 -0.02053815 3.16666644 0 0 Z " fill="#1D3245" transform="translate(110,326)"/>
<path d="M0 0 C3.3 0 6.6 0 10 0 C10 2.97 10 5.94 10 9 C11.134375 8.979375 12.26875 8.95875 13.4375 8.9375 C17 9 17 9 18 10 C18.125 13.5 18.125 13.5 18 17 C17.67 17.33 17.34 17.66 17 18 C14.69 18 12.38 18 10 18 C10.495 24.93 10.495 24.93 11 32 C12.98 32 14.96 32 17 32 C17 34.97 17 37.94 17 41 C14.67404054 42.16297973 13.21276769 42.16600691 10.625 42.1875 C9.85414063 42.20167969 9.08328125 42.21585937 8.2890625 42.23046875 C5.71251912 41.97105568 4.17574327 41.39340154 2 40 C-0.10209857 36.84685215 -0.2434761 36.13896919 -0.1953125 32.55078125 C-0.18564453 31.27944336 -0.18564453 31.27944336 -0.17578125 29.98242188 C-0.15902344 29.10134766 -0.14226562 28.22027344 -0.125 27.3125 C-0.11597656 26.41982422 -0.10695312 25.52714844 -0.09765625 24.60742188 C-0.07409748 22.40467686 -0.04120329 20.20247412 0 18 C-0.804375 18.020625 -1.60875 18.04125 -2.4375 18.0625 C-5 18 -5 18 -6 17 C-6.14115161 14.32941149 -6.04247107 11.67567762 -6 9 C-4.02 9 -2.04 9 0 9 C0 6.03 0 3.06 0 0 Z " fill="#2D3E51" transform="translate(149,317)"/>
<path d="M0 0 C7 0 14 0 21 0 C22.6415049 3.2830098 21.51888624 6.42545033 21 10 C18.03 10 15.06 10 12 10 C11.97494385 10.6612085 11.9498877 11.32241699 11.92407227 12.00366211 C11.80846898 14.98182305 11.68558246 17.9596392 11.5625 20.9375 C11.52318359 21.97841797 11.48386719 23.01933594 11.44335938 24.09179688 C11.40146484 25.08115234 11.35957031 26.07050781 11.31640625 27.08984375 C11.26141968 28.46450806 11.26141968 28.46450806 11.20532227 29.86694336 C11 32 11 32 10 33 C8.50261876 33.0979057 7.00057108 33.12974864 5.5 33.125 C4.6853125 33.12757813 3.870625 33.13015625 3.03125 33.1328125 C1 33 1 33 0 32 C-0.0883967 29.6243148 -0.11530305 27.27791326 -0.09765625 24.90234375 C-0.0962413 24.19348526 -0.09482635 23.48462677 -0.09336853 22.75428772 C-0.08775443 20.48198288 -0.07519963 18.20977525 -0.0625 15.9375 C-0.05748681 14.40039204 -0.05292359 12.86328255 -0.04882812 11.32617188 C-0.03778042 7.55074358 -0.02050641 3.77538829 0 0 Z " fill="#25394D" transform="translate(333,326)"/>
<path d="M0 0 C7 0 14 0 21 0 C21.02689216 1.47906892 21.04634621 2.95827483 21.0625 4.4375 C21.07410156 5.26121094 21.08570313 6.08492188 21.09765625 6.93359375 C21 9 21 9 20 10 C17.9427083 10.31923492 15.88386479 10.51161352 13.8125 10.71875 C11.9832467 10.81998043 11.9832467 10.81998043 11 12 C10.85547282 13.47507118 10.77305075 14.9563604 10.71875 16.4375 C10.68136719 17.33210938 10.64398438 18.22671875 10.60546875 19.1484375 C10.57066406 20.08945312 10.53585938 21.03046875 10.5 22 C10.43141512 23.85433195 10.35872187 25.70851808 10.28125 27.5625 C10.23581055 28.80193359 10.23581055 28.80193359 10.18945312 30.06640625 C10 32 10 32 9 33 C6.03 33 3.06 33 0 33 C0 22.11 0 11.22 0 0 Z " fill="#3C4E5F" transform="translate(207,326)"/>
<path d="M0 0 C2.31 0 4.62 0 7 0 C7.33 0.66 7.66 1.32 8 2 C8.99 2.66 9.98 3.32 11 4 C10.67 6.97 10.34 9.94 10 13 C11.32 11.68 12.64 10.36 14 9 C14.66 9.33 15.32 9.66 16 10 C16 11.32 16 12.64 16 14 C16.66 14 17.32 14 18 14 C17.39340776 16.7296651 16.65445194 18.49916025 14.40234375 20.22265625 C8.44275977 23.52827042 2.99840536 24.06340568 -3.5703125 22.31640625 C-5.73518746 21.60722307 -7.87116713 20.81098395 -10 20 C-9.34 17.03 -8.68 14.06 -8 11 C-6.63875 11.350625 -5.2775 11.70125 -3.875 12.0625 C0.04930632 12.92152138 3.10783555 13.32903176 7 12 C8.43637698 10.04836882 8.43637698 10.04836882 9 8 C8.01 8.66 7.02 9.32 6 10 C3.95703125 10.1953125 3.95703125 10.1953125 1.8125 10.125 C-0.0746875 10.063125 -0.0746875 10.063125 -2 10 C-2 9.67 -2 9.34 -2 9 C-0.02 8.67 1.96 8.34 4 8 C3.01 7.34 2.02 6.68 1 6 C1.33 5.01 1.66 4.02 2 3 C1.34 2.67 0.68 2.34 0 2 C0 1.34 0 0.68 0 0 Z " fill="#3D4D5C" transform="translate(368,347)"/>
<path d="M0 0 C1.18851562 0.00902344 2.37703125 0.01804687 3.6015625 0.02734375 C4.51679688 0.03894531 5.43203125 0.05054688 6.375 0.0625 C6.045 2.7025 5.715 5.3425 5.375 8.0625 C2.405 8.7225 -0.565 9.3825 -3.625 10.0625 C-3.625 10.89394531 -3.625 11.72539062 -3.625 12.58203125 C-3.625 16.7421875 -3.625 20.90234375 -3.625 25.0625 C-4.615 25.0625 -5.605 25.0625 -6.625 25.0625 C-6.625 25.7225 -6.625 26.3825 -6.625 27.0625 C-7.615 26.7325 -8.605 26.4025 -9.625 26.0625 C-9.295 25.4025 -8.965 24.7425 -8.625 24.0625 C-9.945 23.4025 -11.265 22.7425 -12.625 22.0625 C-12.625 21.4025 -12.625 20.7425 -12.625 20.0625 C-13.285 20.0625 -13.945 20.0625 -14.625 20.0625 C-15.43713041 12.85860244 -14.40591307 8.65027666 -10.1328125 2.77734375 C-7.14903551 -0.61612283 -4.3211834 -0.04236454 0 0 Z " fill="#2B3E51" transform="translate(309.625,326.9375)"/>
<path d="M0 0 C4.06170325 1.8555263 6.34349652 4.90702503 8 9 C8.23046875 11.54296875 8.23046875 11.54296875 8.1875 14.1875 C8.18105469 15.06792969 8.17460937 15.94835937 8.16796875 16.85546875 C8 19 8 19 7 20 C5.43827255 20.08685603 3.87270656 20.10702219 2.30859375 20.09765625 C1.36435547 20.09443359 0.42011719 20.09121094 -0.55273438 20.08789062 C-1.54595703 20.07951172 -2.53917969 20.07113281 -3.5625 20.0625 C-4.55958984 20.05798828 -5.55667969 20.05347656 -6.58398438 20.04882812 C-9.05604849 20.03700007 -11.52799518 20.02051849 -14 20 C-14 19.67 -14 19.34 -14 19 C-7.4 19 -0.8 19 6 19 C5.5359375 16.586875 5.5359375 16.586875 5.0625 14.125 C4.88847656 13.22007812 4.71445312 12.31515625 4.53515625 11.3828125 C4.10036299 9.00043683 4.10036299 9.00043683 3 7 C2.34 7 1.68 7 1 7 C1 8.65 1 10.3 1 12 C-1.81566255 13.40783127 -4.2363707 13.2076814 -7.375 13.25 C-9.08816406 13.28867187 -9.08816406 13.28867187 -10.8359375 13.328125 C-14.32045689 12.96676743 -15.35336545 12.13983219 -18 10 C-19.32 10 -20.64 10 -22 10 C-20.92866347 6.25032215 -19.28621294 3.38528979 -16.171875 0.95703125 C-11.0948358 -1.28015329 -5.3755839 -0.80251608 0 0 Z M-11.25 10 C-11.8275 10.66 -12.405 11.32 -13 12 C-9.37 12 -5.74 12 -2 12 C-2 11.34 -2 10.68 -2 10 C-5.75417945 7.4972137 -7.74061824 6.88054954 -11.25 10 Z " fill="#53606F" transform="translate(252,326)"/>
<path d="M0 0 C2.62374802 5.24749603 3.09534716 8.08847633 3 14 C-0.27066566 14.08706892 -3.54103365 14.14041241 -6.8125 14.1875 C-7.74126953 14.21263672 -8.67003906 14.23777344 -9.62695312 14.26367188 C-10.9659668 14.27817383 -10.9659668 14.27817383 -12.33203125 14.29296875 C-13.15421143 14.3086792 -13.9763916 14.32438965 -14.82348633 14.34057617 C-17.51799961 13.91894454 -18.13332026 12.89668162 -20 11 C-21.32 11 -22.64 11 -24 11 C-23.67 12.98 -23.34 14.96 -23 17 C-23.66 17 -24.32 17 -25 17 C-25 13.04 -25 9.08 -25 5 C-23.35 4.67 -21.7 4.34 -20 4 C-18 6 -18 6 -17 8 C-10.565 7.505 -10.565 7.505 -4 7 C-3.34 5.35 -2.68 3.7 -2 2 C-1.34 2 -0.68 2 0 2 C0 1.34 0 0.68 0 0 Z " fill="#1F3244" transform="translate(255,331)"/>
<path d="M0 0 C0.60070312 0.30550781 1.20140625 0.61101562 1.8203125 0.92578125 C7.10002649 3.52779083 14.43250453 2.17210431 20 1 C20.48828125 6.95703125 20.48828125 6.95703125 20 9 C16.08147914 12.32480558 12.68710713 12.3276759 7.6875 12.1875 C6.43324219 12.16042969 5.17898438 12.13335937 3.88671875 12.10546875 C2.93410156 12.07066406 1.98148437 12.03585937 1 12 C0.49632243 10.54293274 -0.00282556 9.08429904 -0.5 7.625 C-0.7784375 6.81289063 -1.056875 6.00078125 -1.34375 5.1640625 C-2 3 -2 3 -2 1 C-1.34 0.67 -0.68 0.34 0 0 Z " fill="#4B5763" transform="translate(401,347)"/>
<path d="M0 0 C2.97 0 5.94 0 9 0 C9 6.93 9 13.86 9 21 C8.01 20.67 7.02 20.34 6 20 C5.34 20 4.68 20 4 20 C3.34 21.32 2.68 22.64 2 24 C1.34 24 0.68 24 0 24 C0 16.08 0 8.16 0 0 Z " fill="#1F3143" transform="translate(172,327)"/>
<path d="M0 0 C9.57 0 19.14 0 29 0 C29 0.33 29 0.66 29 1 C19.76 1 10.52 1 1 1 C1 14.2 1 27.4 1 41 C3.97 40.505 3.97 40.505 7 40 C7.33 40.33 7.66 40.66 8 41 C8.33 36.38 8.66 31.76 9 27 C13.95 27 18.9 27 24 27 C24 25.68 24 24.36 24 23 C23.34 23 22.68 23 22 23 C22 23.66 22 24.32 22 25 C21.01 25 20.02 25 19 25 C19.33 23.35 19.66 21.7 20 20 C21.32 19.67 22.64 19.34 24 19 C19.05 19 14.1 19 9 19 C9 15.7 9 12.4 9 9 C9.33 9 9.66 9 10 9 C10 11.97 10 14.94 10 18 C14.95 18 19.9 18 25 18 C25 21.3 25 24.6 25 28 C20.05 28 15.1 28 10 28 C10 33.28 10 38.56 10 44 C7.01787087 45.49106457 4.28390342 45.11941467 1 45 C0 44 0 44 -0.12025452 42.20933533 C-0.11803391 41.42990067 -0.11581329 40.650466 -0.11352539 39.84741211 C-0.11341209 38.52615578 -0.11341209 38.52615578 -0.11329651 37.1782074 C-0.10555458 35.74227989 -0.10555458 35.74227989 -0.09765625 34.27734375 C-0.0962413 33.30213272 -0.09482635 32.32692169 -0.09336853 31.32215881 C-0.08775133 28.19390857 -0.07519593 25.06572877 -0.0625 21.9375 C-0.05748722 19.82226666 -0.05292393 17.70703219 -0.04882812 15.59179688 C-0.03862531 10.39448199 -0.01905331 5.19732025 0 0 Z " fill="#5E6A74" transform="translate(78,314)"/>
<path d="M0 0 C3.3 0 6.6 0 10 0 C10.33 0.99 10.66 1.98 11 3 C10.34 3 9.68 3 9 3 C9 2.34 9 1.68 9 1 C6.36 1 3.72 1 1 1 C1.33 6.94 1.66 12.88 2 19 C2.33 18.01 2.66 17.02 3 16 C4.65 16.33 6.3 16.66 8 17 C8 20.3 8 23.6 8 27 C8.66 27.33 9.32 27.66 10 28 C10 22.72 10 17.44 10 12 C10.33 12 10.66 12 11 12 C11.02888146 15.31248187 11.04675799 18.62493167 11.0625 21.9375 C11.07087891 22.88302734 11.07925781 23.82855469 11.08789062 24.80273438 C11.09111328 25.70185547 11.09433594 26.60097656 11.09765625 27.52734375 C11.10289307 28.35999756 11.10812988 29.19265137 11.11352539 30.05053711 C11 32 11 32 10 33 C8.50261876 33.0979057 7.00057108 33.12974864 5.5 33.125 C4.6853125 33.12757813 3.870625 33.13015625 3.03125 33.1328125 C1 33 1 33 0 32 C-0.0883967 29.6243148 -0.11530305 27.27791326 -0.09765625 24.90234375 C-0.0962413 24.19348526 -0.09482635 23.48462677 -0.09336853 22.75428772 C-0.08775443 20.48198288 -0.07519963 18.20977525 -0.0625 15.9375 C-0.05748681 14.40039204 -0.05292359 12.86328255 -0.04882812 11.32617188 C-0.03778042 7.55074358 -0.02050641 3.77538829 0 0 Z " fill="#506473" transform="translate(333,326)"/>
<path d="M0 0 C12.56269053 -0.61952994 12.56269053 -0.61952994 17.625 1.5625 C22.32195774 6.38306189 24.2310994 9.75613827 24.25 16.4375 C24.18649757 17.95929036 24.11003792 19.48086534 24 21 C23.67 21 23.34 21 23 21 C23 18.03 23 15.06 23 12 C22.34 12 21.68 12 21 12 C20.67 13.98 20.34 15.96 20 18 C19.01 18.33 18.02 18.66 17 19 C16.67 18.34 16.34 17.68 16 17 C15.34 17.33 14.68 17.66 14 18 C13.89042969 17.43410156 13.78085937 16.86820312 13.66796875 16.28515625 C13.50941406 15.55167969 13.35085938 14.81820313 13.1875 14.0625 C13.03667969 13.33160156 12.88585937 12.60070312 12.73046875 11.84765625 C12.48941406 11.23792969 12.24835938 10.62820313 12 10 C11.01 9.67 10.02 9.34 9 9 C9.875 3.25 9.875 3.25 11 1 C7.37 1 3.74 1 0 1 C0 0.67 0 0.34 0 0 Z " fill="#3F4E5D" transform="translate(305,326)"/>
<path d="M0 0 C2.97 0 5.94 0 9 0 C9 7.26 9 14.52 9 22 C8.67 21.01 8.34 20.02 8 19 C6.35 18.67 4.7 18.34 3 18 C2.67 18.99 2.34 19.98 2 21 C-0.06723714 17.89914429 -0.24497423 17.27068319 -0.1953125 13.76953125 C-0.18886719 12.96708984 -0.18242188 12.16464844 -0.17578125 11.33789062 C-0.15902344 10.50451172 -0.14226562 9.67113281 -0.125 8.8125 C-0.11597656 7.96751953 -0.10695313 7.12253906 -0.09765625 6.25195312 C-0.07410703 4.16784757 -0.03823647 2.08388783 0 0 Z " fill="#1F3244" transform="translate(110,327)"/>
<path d="M0 0 C0 1.98 0 3.96 0 6 C0.66 6 1.32 6 2 6 C2.66 7.65 3.32 9.3 4 11 C5.65 11 7.3 11 9 11 C8.01 11.66 7.02 12.32 6 13 C5.77390663 15.12364481 5.77390663 15.12364481 7.5 16.625 C7.995 17.07875 8.49 17.5325 9 18 C-0.6402439 18.56707317 -0.6402439 18.56707317 -5 15 C-7.20914 11.68629 -7.22481553 10.6553979 -7.125 6.8125 C-7.10695313 5.91144531 -7.08890625 5.01039063 -7.0703125 4.08203125 C-7.04710937 3.39496094 -7.02390625 2.70789063 -7 2 C-1.125 0 -1.125 0 0 0 Z " fill="#2C3F52" transform="translate(364,338)"/>
<path d="M0 0 C-0.639375 0.5775 -1.27875 1.155 -1.9375 1.75 C-3.98223868 3.98062401 -4.58205199 5.07436391 -5 8 C-2.69 8.33 -0.38 8.66 2 9 C1.95875 9.763125 1.9175 10.52625 1.875 11.3125 C1.77919176 14.22718416 1.77919176 14.22718416 4 17 C3.625 19.6875 3.625 19.6875 3 22 C1.35 22.33 -0.3 22.66 -2 23 C-1.74605469 22.27296875 -1.49210937 21.5459375 -1.23046875 20.796875 C-0.6796085 17.87403969 -0.6796085 17.87403969 -2.80078125 15.578125 C-3.62964844 14.80984375 -4.45851563 14.0415625 -5.3125 13.25 C-6.54419922 12.08210937 -6.54419922 12.08210937 -7.80078125 10.890625 C-9.85027076 8.97321768 -9.85027076 8.97321768 -12 8 C-12 7.34 -12 6.68 -12 6 C-12.66 6 -13.32 6 -14 6 C-14.33 5.01 -14.66 4.02 -15 3 C-11.00349459 -0.99650541 -5.31261102 -0.09004425 0 0 Z " fill="#3EA593" transform="translate(308,144)"/>
<path d="M0 0 C2.29013653 3.4352048 2.17842973 4.985331 2 9 C0.68 8.34 -0.64 7.68 -2 7 C-3.1485532 9.21506688 -4.06139545 11.21488408 -4.75 13.625 C-6 16 -6 16 -8.75 16.875 C-12.75036176 18.25974061 -14.17094644 20.16727215 -16.703125 23.44140625 C-18 25 -18 25 -20 26 C-20 26.99 -20 27.98 -20 29 C-21.45381897 29.69699552 -22.91322953 30.38233866 -24.375 31.0625 C-25.18710938 31.44535156 -25.99921875 31.82820313 -26.8359375 32.22265625 C-27.55007812 32.47917969 -28.26421875 32.73570312 -29 33 C-29.66 32.67 -30.32 32.34 -31 32 C-30.3387915 31.34402832 -29.67758301 30.68805664 -28.99633789 30.01220703 C-26.54739147 27.58028964 -24.10070247 25.14614635 -21.65551758 22.71044922 C-20.59619526 21.6561597 -19.53597771 20.60276891 -18.47485352 19.55029297 C-16.95093039 18.03848143 -15.43024216 16.52348098 -13.91015625 15.0078125 C-12.99371338 14.09660645 -12.07727051 13.18540039 -11.13305664 12.24658203 C-8.97429864 10.19154633 -8.97429864 10.19154633 -8 8 C-7.34 8 -6.68 8 -6 8 C-6 7.34 -6 6.68 -6 6 C-5.34 6 -4.68 6 -4 6 C-4 5.34 -4 4.68 -4 4 C-3.34 4 -2.68 4 -2 4 C-1.34 2.68 -0.68 1.36 0 0 Z " fill="#4595B5" transform="translate(190,239)"/>
<path d="M0 0 C0.66 0.33 1.32 0.66 2 1 C1.71507769 3.35515568 1.42225086 5.70889434 1.125 8.0625 C1.00705078 9.04766602 1.00705078 9.04766602 0.88671875 10.05273438 C0.31282513 14.5335192 -0.66407776 18.68351175 -2 23 C-4.49361571 21.79618552 -6.68143083 20.54571278 -9 19 C-9 18.34 -9 17.68 -9 17 C-9.66 17 -10.32 17 -11 17 C-11 16.34 -11 15.68 -11 15 C-11.66 15 -12.32 15 -13 15 C-12.8125 13.1875 -12.8125 13.1875 -12 11 C-9.48798086 9.18576396 -7.27925493 8.08442591 -4.3125 7.1875 C-1.66525174 6.14140917 -1.66525174 6.14140917 -0.6875 2.875 C-0.460625 1.92625 -0.23375 0.9775 0 0 Z " fill="#4BA997" transform="translate(350,176)"/>
<path d="M0 0 C1.68274773 -0.002062 1.68274773 -0.002062 3.39949036 -0.00416565 C4.63594803 -0.00057037 5.8724057 0.0030249 7.14633179 0.00672913 C8.44384872 0.0065831 9.74136566 0.00643707 11.07820129 0.00628662 C14.64203255 0.00599902 18.20583034 0.01188977 21.7696538 0.01886058 C25.49192162 0.02510027 29.21419016 0.0256984 32.9364624 0.02688599 C39.98772231 0.02999748 47.03896676 0.03820843 54.09021986 0.04823548 C62.11671356 0.05940224 70.143208 0.06490849 78.16970754 0.06993091 C94.68324629 0.08039118 111.19676949 0.09798712 127.71029663 0.12025452 C127.05029663 1.44025452 126.39029663 2.76025452 125.71029663 4.12025452 C125.05029663 4.12025452 124.39029663 4.12025452 123.71029663 4.12025452 C123.38029663 3.46025452 123.05029663 2.80025452 122.71029663 2.12025452 C81.13029663 1.79025452 39.55029663 1.46025452 -3.28970337 1.12025452 C-3.61970337 1.78025452 -3.94970337 2.44025452 -4.28970337 3.12025452 C-5.27970337 2.46025452 -6.26970337 1.80025452 -7.28970337 1.12025452 C-4.71438421 -0.16740506 -2.88453188 -0.00271613 0 0 Z " fill="#34404C" transform="translate(158.28970336914063,176.87974548339844)"/>
<path d="M0 0 C0.66 0 1.32 0 2 0 C2.08133791 1.91595968 2.13934367 3.83291932 2.1875 5.75 C2.22230469 6.81734375 2.25710938 7.8846875 2.29296875 8.984375 C1.96808704 12.32849074 1.40833164 13.68710342 -1 16 C-1.99 16 -2.98 16 -4 16 C-4.33 16.66 -4.66 17.32 -5 18 C-7.64 17.67 -10.28 17.34 -13 17 C-12.62289462 11.5948229 -10.96290424 9.57627944 -7 6 C-6.34 5.01 -5.68 4.02 -5 3 C-4.67 4.32 -4.34 5.64 -4 7 C-1.64214682 6.10664203 -1.64214682 6.10664203 -0.875 2.9375 C-0.58625 1.968125 -0.2975 0.99875 0 0 Z " fill="#253849" transform="translate(326,338)"/>
<path d="M0 0 C0.66 1.32 1.32 2.64 2 4 C1.4946875 4.40992188 0.989375 4.81984375 0.46875 5.2421875 C-0.1809375 5.78101563 -0.830625 6.31984375 -1.5 6.875 C-2.1496875 7.40867187 -2.799375 7.94234375 -3.46875 8.4921875 C-4.22671875 9.23855469 -4.22671875 9.23855469 -5 10 C-5 10.66 -5 11.32 -5 12 C-5.66 12 -6.32 12 -7 12 C-6.67 12.66 -6.34 13.32 -6 14 C-4.05925139 13.72382467 -4.05925139 13.72382467 -2 13 C-1.34 12.01 -0.68 11.02 0 10 C0.66 10 1.32 10 2 10 C1.42655063 12.86724686 1.1385485 13.8614515 -1 16 C11.87 16.495 11.87 16.495 25 17 C25 17.33 25 17.66 25 18 C12.13 18 -0.74 18 -14 18 C-14 14 -14 14 -12.71484375 12.26074219 C-11.83505859 11.41237793 -11.83505859 11.41237793 -10.9375 10.546875 C-10.30585938 9.928125 -9.67421875 9.309375 -9.0234375 8.671875 C-8.35570312 8.03765625 -7.68796875 7.4034375 -7 6.75 C-6.33226562 6.1003125 -5.66453125 5.450625 -4.9765625 4.78125 C-3.32631982 3.17815711 -1.66748209 1.58512166 0 0 Z " fill="#82B9DD" transform="translate(158,272)"/>
<path d="M0 0 C3.3 0 6.6 0 10 0 C10.33 8.91 10.66 17.82 11 27 C7 29 7 29 6 29 C6.33 29.66 6.66 30.32 7 31 C9.12576782 31.46651207 9.12576782 31.46651207 11.5625 31.625 C12.38878906 31.69976562 13.21507813 31.77453125 14.06640625 31.8515625 C14.70449219 31.90054687 15.34257813 31.94953125 16 32 C16 32.33 16 32.66 16 33 C7.0247473 33.62739631 7.0247473 33.62739631 2.9375 31.125 C-0.69391711 27.14215542 -0.08399181 24.20749195 0 19 C0.66 19.66 1.32 20.32 2 21 C2.33 20.34 2.66 19.68 3 19 C4.65 19.33 6.3 19.66 8 20 C8.33 13.73 8.66 7.46 9 1 C6.03 1 3.06 1 0 1 C0 0.67 0 0.34 0 0 Z " fill="#495868" transform="translate(110,326)"/>
<path d="M0 0 C0.33 0 0.66 0 1 0 C1 4.95 1 9.9 1 15 C-2.63 15 -6.26 15 -10 15 C-10 11.7 -10 8.4 -10 5 C-8.68 4.67 -7.36 4.34 -6 4 C-6 3.01 -6 2.02 -6 1 C-4.35 1.33 -2.7 1.66 -1 2 C-0.67 1.34 -0.34 0.68 0 0 Z " fill="#1B3043" transform="translate(269,155)"/>
<path d="M0 0 C4.29 0 8.58 0 13 0 C12.67 2.64 12.34 5.28 12 8 C9.03 7.67 6.06 7.34 3 7 C2.7834375 8.0828125 2.7834375 8.0828125 2.5625 9.1875 C2.04166667 11.79166667 1.52083333 14.39583333 1 17 C0.34 16.67 -0.32 16.34 -1 16 C-1 13.36 -1 10.72 -1 8 C-1.66 7.67 -2.32 7.34 -3 7 C-1.125 2.25 -1.125 2.25 0 0 Z " fill="#273748" transform="translate(303,327)"/>
<path d="M0 0 C0.598125 0.185625 1.19625 0.37125 1.8125 0.5625 C4.16408762 1.22093687 4.16408762 1.22093687 7 0 C9.33299825 -0.03954234 11.66708189 -0.04401732 14 0 C14 1.32 14 2.64 14 4 C14.99 4.33 15.98 4.66 17 5 C16.01 5.495 16.01 5.495 15 6 C14.34786708 8.02463255 14.34786708 8.02463255 14 10 C13.15695312 9.71125 12.31390625 9.4225 11.4453125 9.125 C10.34960938 8.75375 9.25390625 8.3825 8.125 8 C6.48917969 7.443125 6.48917969 7.443125 4.8203125 6.875 C2.17379146 5.901228 2.17379146 5.901228 0 6 C-0.33 6.99 -0.66 7.98 -1 9 C-2.32 8.67 -3.64 8.34 -5 8 C-3.98379995 4.95139986 -3.22608429 4.13333078 -1 2 C-0.67 1.34 -0.34 0.68 0 0 Z " fill="#223547" transform="translate(402,327)"/>
<path d="M0 0 C1.16781006 0.00523682 2.33562012 0.01047363 3.53881836 0.01586914 C4.79887695 0.0190918 6.05893555 0.02231445 7.35717773 0.02563477 C8.6976732 0.03399136 10.03816799 0.04245632 11.37866211 0.05102539 C12.72306153 0.05603879 14.06746271 0.06060197 15.41186523 0.06469727 C18.71334151 0.07653051 22.01473014 0.09301568 25.31616211 0.11352539 C25.31616211 2.75352539 25.31616211 5.39352539 25.31616211 8.11352539 C24.32616211 7.78352539 23.33616211 7.45352539 22.31616211 7.11352539 C22.97616211 7.11352539 23.63616211 7.11352539 24.31616211 7.11352539 C24.31616211 5.46352539 24.31616211 3.81352539 24.31616211 2.11352539 C23.32616211 2.44352539 22.33616211 2.77352539 21.31616211 3.11352539 C19.61599367 3.19530654 17.91279914 3.2210204 16.21069336 3.21118164 C15.2277832 3.20795898 14.24487305 3.20473633 13.23217773 3.20141602 C12.20801758 3.19303711 11.18385742 3.1846582 10.12866211 3.17602539 C9.09290039 3.17151367 8.05713867 3.16700195 6.98999023 3.16235352 C4.43198945 3.15056549 1.87410478 3.13411054 -0.68383789 3.11352539 C-0.35383789 3.77352539 -0.02383789 4.43352539 0.31616211 5.11352539 C-0.67383789 5.60852539 -0.67383789 5.60852539 -1.68383789 6.11352539 C-2.01383789 18.65352539 -2.34383789 31.19352539 -2.68383789 44.11352539 C-3.01383789 44.11352539 -3.34383789 44.11352539 -3.68383789 44.11352539 C-3.70848302 38.00797829 -3.7266716 31.90245988 -3.73876953 25.796875 C-3.74381077 23.71809383 -3.75064363 21.63931623 -3.75927734 19.56054688 C-3.77135211 16.57949953 -3.77706813 13.5984989 -3.78149414 10.61743164 C-3.78923607 9.2143148 -3.78923607 9.2143148 -3.7971344 7.78285217 C-3.79720993 6.92203537 -3.79728546 6.06121857 -3.79736328 5.17431641 C-3.79958389 4.41264664 -3.8018045 3.65097687 -3.80409241 2.8662262 C-3.6027512 -0.06830719 -2.95041128 0.12480135 0 0 Z " fill="#67717B" transform="translate(268.683837890625,313.886474609375)"/>
<path d="M0 0 C4.62 0 9.24 0 14 0 C15 4 15 4 14.01171875 5.73828125 C10.96696092 7.64790606 8.36058952 7.28515384 4.8125 7.1875 C3.54019531 7.16042969 2.26789063 7.13335937 0.95703125 7.10546875 C-0.01878906 7.07066406 -0.99460938 7.03585937 -2 7 C-1.34 4.69 -0.68 2.38 0 0 Z " fill="#1F3346" transform="translate(237,327)"/>
<path d="M0 0 C3.3 0 6.6 0 10 0 C10 0.33 10 0.66 10 1 C7.03 1 4.06 1 1 1 C1 8.92 1 16.84 1 25 C1.99 24.01 2.98 23.02 4 22 C5 21 6 20 7 19 C7.33 19.66 7.66 20.32 8 21 C8.99 21.33 9.98 21.66 11 22 C11 22.99 11 23.98 11 25 C12.65 25.33 14.3 25.66 16 26 C16 26.99 16 27.98 16 29 C8.25 28.125 8.25 28.125 6 27 C4.67139075 26.64830932 3.33841672 26.31229724 2 26 C1.67 26.66 1.34 27.32 1 28 C-0.35700647 25.28598706 -0.1123861 23.15153684 -0.09765625 20.1171875 C-0.09443359 18.95058594 -0.09121094 17.78398437 -0.08789062 16.58203125 C-0.07951172 15.35871094 -0.07113281 14.13539063 -0.0625 12.875 C-0.05798828 11.64394531 -0.05347656 10.41289062 -0.04882812 9.14453125 C-0.0370133 6.09630608 -0.02054028 3.04817686 0 0 Z " fill="#566472" transform="translate(171,326)"/>
<path d="M0 0 C0.33 0 0.66 0 1 0 C1 2.31 1 4.62 1 7 C-5.93 7 -12.86 7 -20 7 C-20.33 5.02 -20.66 3.04 -21 1 C-16.38 1 -11.76 1 -7 1 C-7 2.32 -7 3.64 -7 5 C-4.55519921 4.81171228 -4.55519921 4.81171228 -2 4 C-0.63979849 2.03241727 -0.63979849 2.03241727 0 0 Z " fill="#213141" transform="translate(422,338)"/>
<path d="M0 0 C4.55727842 1.72862285 5.90834857 4.81669715 8 9 C8.13415472 11.6723621 8.04318541 14.32250488 8 17 C7.34 15.68 6.68 14.36 6 13 C5.401875 13.515625 4.80375 14.03125 4.1875 14.5625 C3.465625 15.036875 2.74375 15.51125 2 16 C1.01 15.67 0.02 15.34 -1 15 C-2.125 12.0625 -2.125 12.0625 -3 9 C-3.33 8.34 -3.66 7.68 -4 7 C-2.68 7.33 -1.36 7.66 0 8 C0.98120464 4.94736336 0.98120464 3.05263664 0 0 Z " fill="#3A4D5D" transform="translate(416,328)"/>
<path d="M0 0 C0.66 0 1.32 0 2 0 C2.33 0.66 2.66 1.32 3 2 C8.14761551 2.08995833 12.953322 2.13957245 18 1 C19 2 19 2 19.0625 5.5625 C19.041875 6.696875 19.02125 7.83125 19 9 C13.10104429 13.0449982 6.92696672 12.27748976 0 12 C0 11.67 0 11.34 0 11 C3.96 11 7.92 11 12 11 C11.67 8.69 11.34 6.38 11 4 C10.38511719 4.02320313 9.77023438 4.04640625 9.13671875 4.0703125 C7.92435547 4.09738281 7.92435547 4.09738281 6.6875 4.125 C5.88699219 4.14820313 5.08648437 4.17140625 4.26171875 4.1953125 C2 4 2 4 -1 2 C-0.67 1.34 -0.34 0.68 0 0 Z " fill="#505D69" transform="translate(239,347)"/>
<path d="M0 0 C0.33 0 0.66 0 1 0 C1 3.96 1 7.92 1 12 C2.29633621 10.93354885 2.29633621 10.93354885 2.0625 8.4375 C2.041875 7.633125 2.02125 6.82875 2 6 C3.75 5.3125 3.75 5.3125 6 5 C8.25 6.4375 8.25 6.4375 10 8 C9.34 9.98 8.68 11.96 8 14 C8.33 14.33 8.66 14.66 9 15 C8.71395102 16.67542976 8.38218767 18.34385343 8 20 C6.68 19.67 5.36 19.34 4 19 C4 18.34 4 17.68 4 17 C3.34 17 2.68 17 2 17 C-0.25998595 13.40537669 -0.20868087 10.43404325 -0.125 6.25 C-0.09792969 4.49429687 -0.09792969 4.49429687 -0.0703125 2.703125 C-0.04710937 1.81109375 -0.02390625 0.9190625 0 0 Z " fill="#1F3246" transform="translate(229,336)"/>
<path d="M0 0 C2.97 0 5.94 0 9 0 C10.6415049 3.2830098 9.51888624 6.42545033 9 10 C1.62722646 9.51653944 1.62722646 9.51653944 -1.125 7.25 C-2 5 -2 5 -1.1875 2.25 C-0.795625 1.5075 -0.40375 0.765 0 0 Z " fill="#1E2E3F" transform="translate(345,326)"/>
<path d="M0 0 C1.65 0.33 3.3 0.66 5 1 C5.33 2.32 5.66 3.64 6 5 C6.33 5 6.66 5 7 5 C7.99 5 8.98 5 10 5 C10 6.32 10 7.64 10 9 C12.31 9 14.62 9 17 9 C17 9.33 17 9.66 17 10 C15.741875 10.020625 14.48375 10.04125 13.1875 10.0625 C12.47980469 10.07410156 11.77210938 10.08570313 11.04296875 10.09765625 C9 10 9 10 6 9 C4.27204648 8.93197033 2.54164635 8.91504355 0.8125 8.9375 C-0.08855469 8.94652344 -0.98960938 8.95554687 -1.91796875 8.96484375 C-2.94857422 8.98224609 -2.94857422 8.98224609 -4 9 C-4.66 7.35 -5.32 5.7 -6 4 C-4.68 4.33 -3.36 4.66 -2 5 C-1.34 3.35 -0.68 1.7 0 0 Z " fill="#253747" transform="translate(121,349)"/>
<path d="M0 0 C0.66 0.33 1.32 0.66 2 1 C2.33 1.99 2.66 2.98 3 4 C-0.75 7 -0.75 7 -3 7 C-3 7.66 -3 8.32 -3 9 C-1.02 8.67 0.96 8.34 3 8 C4.10844919 11.32534757 3.84454356 13.62182575 3 17 C2.67 17 2.34 17 2 17 C1.67 15.35 1.34 13.7 1 12 C-0.65 12.66 -2.3 13.32 -4 14 C-4.33 16.64 -4.66 19.28 -5 22 C-5.33 22 -5.66 22 -6 22 C-6.10883596 19.62374823 -6.18766696 17.25256024 -6.25 14.875 C-6.28351563 14.20984375 -6.31703125 13.5446875 -6.3515625 12.859375 C-6.45212173 7.73085405 -5.22723319 4.9324434 -2 1 C-1.34 0.67 -0.68 0.34 0 0 Z " fill="#3C4A5B" transform="translate(362,327)"/>
<path d="M0 0 C0.33 0 0.66 0 1 0 C1 2.97 1 5.94 1 9 C5.95 9 10.9 9 16 9 C16 12.3 16 15.6 16 19 C11.05 19 6.1 19 1 19 C1 24.28 1 29.56 1 35 C0.67 35 0.34 35 0 35 C0 29.39 0 23.78 0 18 C4.95 18 9.9 18 15 18 C15 16.68 15 15.36 15 14 C14.34 14 13.68 14 13 14 C13 14.66 13 15.32 13 16 C12.01 16 11.02 16 10 16 C10.33 14.35 10.66 12.7 11 11 C12.32 10.67 13.64 10.34 15 10 C10.05 10 5.1 10 0 10 C0 6.7 0 3.4 0 0 Z " fill="#8A96A3" transform="translate(87,323)"/>
<path d="M0 0 C4.30246865 0.50288595 6.21278486 1.73073249 9.20703125 4.81640625 C9.95791016 5.58017578 10.70878906 6.34394531 11.48242188 7.13085938 C12.25134766 7.93330078 13.02027344 8.73574219 13.8125 9.5625 C14.60076172 10.36880859 15.38902344 11.17511719 16.20117188 12.00585938 C18.14342916 13.99520169 20.07573661 15.99327271 22 18 C21.34 18.66 20.68 19.32 20 20 C18.49403892 18.54782324 16.99537896 17.08807139 15.5 15.625 C14.6646875 14.81289062 13.829375 14.00078125 12.96875 13.1640625 C11 11 11 11 11 9 C10.278125 8.71125 9.55625 8.4225 8.8125 8.125 C7.02693752 7.41077501 5.25372504 6.66417627 3.5 5.875 C0.83747934 4.94311777 -1.20115212 4.84006584 -4 5 C-2.68 3.35 -1.36 1.7 0 0 Z " fill="#61A5B0" transform="translate(222,207)"/>
<path d="M0 0 C2.33333333 0 4.66666667 0 7 0 C7 0.66 7 1.32 7 2 C6.34 2 5.68 2 5 2 C5 2.66 5 3.32 5 4 C-8.2 4 -21.4 4 -35 4 C-35 3.67 -35 3.34 -35 3 C-34.16855469 2.93941406 -33.33710938 2.87882812 -32.48046875 2.81640625 C-31.39378906 2.73261719 -30.30710938 2.64882813 -29.1875 2.5625 C-27.56908203 2.44068359 -27.56908203 2.44068359 -25.91796875 2.31640625 C-22.94010095 2.09787539 -22.94010095 2.09787539 -20 1 C-18.44356451 0.98446183 -16.88599313 1.03201313 -15.33203125 1.12109375 C-13.99301758 1.19360352 -13.99301758 1.19360352 -12.62695312 1.26757812 C-11.23379883 1.35168945 -11.23379883 1.35168945 -9.8125 1.4375 C-8.40194336 1.51581055 -8.40194336 1.51581055 -6.96289062 1.59570312 C-4.64158499 1.72531918 -2.32071591 1.86028181 0 2 C0 1.34 0 0.68 0 0 Z " fill="#508FB1" transform="translate(180,285)"/>
<path d="M0 0 C0.66 1.32 1.32 2.64 2 4 C5.3 4 8.6 4 12 4 C10.68 5.65 9.36 7.3 8 9 C8.33 9.66 8.66 10.32 9 11 C6.03 11 3.06 11 0 11 C-0.66 7.7 -1.32 4.4 -2 1 C-1.34 0.67 -0.68 0.34 0 0 Z " fill="#1F3346" transform="translate(401,347)"/>
<path d="M0 0 C0.99 0 1.98 0 3 0 C3.66 0.99 4.32 1.98 5 3 C5.66 3.33 6.32 3.66 7 4 C7 7.3 7 10.6 7 14 C6.67 14 6.34 14 6 14 C6 11.03 6 8.06 6 5 C5.34 5 4.68 5 4 5 C3.67 6.98 3.34 8.96 3 11 C2.01 11.33 1.02 11.66 0 12 C-0.33 11.34 -0.66 10.68 -1 10 C-1.99 10.495 -1.99 10.495 -3 11 C-3.66 8.69 -4.32 6.38 -5 4 C-4.360625 3.525625 -3.72125 3.05125 -3.0625 2.5625 C-1.11706694 1.16261274 -1.11706694 1.16261274 0 0 Z " fill="#354858" transform="translate(322,333)"/>
<path d="M0 0 C0.66 0.99 1.32 1.98 2 3 C1.34 3 0.68 3 0 3 C0 4.32 0 5.64 0 7 C-0.9590625 6.7525 -0.9590625 6.7525 -1.9375 6.5 C-4.4781165 5.88409297 -5.13358544 6.01452016 -7.875 6.3125 C-8.90625 6.209375 -9.9375 6.10625 -11 6 C-14 2.1 -14 2.1 -14 0 C-9.42373037 -1.32859441 -4.5913716 -1.2628527 0 0 Z " fill="#1A2E40" transform="translate(374,362)"/>
<path d="M0 0 C0 0.99 0 1.98 0 3 C-3 5 -3 5 -6 6 C-6.33 6.99 -6.66 7.98 -7 9 C-7.66 9 -8.32 9 -9 9 C-9.33 11.64 -9.66 14.28 -10 17 C-10.66 17 -11.32 17 -12 17 C-11.67 20.96 -11.34 24.92 -11 29 C-11.66 29 -12.32 29 -13 29 C-13.0543965 26.62468606 -13.09385864 24.25064117 -13.125 21.875 C-13.14175781 21.20984375 -13.15851563 20.5446875 -13.17578125 19.859375 C-13.23651739 13.66428882 -12.21786668 8.87153929 -8.0625 4.1875 C-7.55847656 3.60355469 -7.05445313 3.01960937 -6.53515625 2.41796875 C-4.5099885 0.54739396 -2.74554583 0 0 0 Z " fill="#4A5462" transform="translate(215,142)"/>
<path d="M0 0 C2.31 0 4.62 0 7 0 C7.33 0.66 7.66 1.32 8 2 C8.99 2.66 9.98 3.32 11 4 C10.67 6.64 10.34 9.28 10 12 C9.01 12 8.02 12 7 12 C7.66 10.68 8.32 9.36 9 8 C8.01 8.66 7.02 9.32 6 10 C3.95703125 10.1953125 3.95703125 10.1953125 1.8125 10.125 C-0.0746875 10.063125 -0.0746875 10.063125 -2 10 C-2 9.67 -2 9.34 -2 9 C-0.02 8.67 1.96 8.34 4 8 C3.01 7.34 2.02 6.68 1 6 C1.33 5.01 1.66 4.02 2 3 C1.34 2.67 0.68 2.34 0 2 C0 1.34 0 0.68 0 0 Z " fill="#505E6D" transform="translate(368,347)"/>
<path d="M0 0 C3.3 0 6.6 0 10 0 C10 10.56 10 21.12 10 32 C9.67 32 9.34 32 9 32 C9 21.77 9 11.54 9 1 C6.36 1 3.72 1 1 1 C1 8.59 1 16.18 1 24 C0.34 24.33 -0.32 24.66 -1 25 C-1.66 24.34 -2.32 23.68 -3 23 C-2.34 22.34 -1.68 21.68 -1 21 C-0.62995706 18.77341846 -0.62995706 18.77341846 -0.5859375 16.2109375 C-0.54726562 15.26992188 -0.50859375 14.32890625 -0.46875 13.359375 C-0.4378125 12.37453125 -0.406875 11.3896875 -0.375 10.375 C-0.33632812 9.38242187 -0.29765625 8.38984375 -0.2578125 7.3671875 C-0.16337339 4.91177058 -0.08059119 2.45591043 0 0 Z " fill="#828B94" transform="translate(129,326)"/>
<path d="M0 0 C0 3.63 0 7.26 0 11 C-1.32 11.33 -2.64 11.66 -4 12 C-4 11.34 -4 10.68 -4 10 C-4.99 10.33 -5.98 10.66 -7 11 C-7.99 10.01 -8.98 9.02 -10 8 C-8.71451591 6.66070495 -7.42141845 5.32871357 -6.125 4 C-5.04605469 2.88625 -5.04605469 2.88625 -3.9453125 1.75 C-2 0 -2 0 0 0 Z " fill="#304253" transform="translate(330,193)"/>
<path d="M0 0 C2.00720923 0.28674418 4.0085944 0.61866701 6 1 C5.34 1.66 4.68 2.32 4 3 C3.01 3 2.02 3 1 3 C0.34 4.32 -0.32 5.64 -1 7 C-1.66 7 -2.32 7 -3 7 C-3.24492187 7.57234375 -3.48984375 8.1446875 -3.7421875 8.734375 C-5.21110099 11.38024402 -6.95348244 13.14853139 -9.125 15.25 C-9.84945313 15.95640625 -10.57390625 16.6628125 -11.3203125 17.390625 C-11.87460937 17.92171875 -12.42890625 18.4528125 -13 19 C-15 15.25 -15 15.25 -15 13 C-14.01 13 -13.02 13 -12 13 C-11.67 12.34 -11.34 11.68 -11 11 C-10.01 11.33 -9.02 11.66 -8 12 C-8 11.01 -8 10.02 -8 9 C-7.34 9 -6.68 9 -6 9 C-5.67 8.01 -5.34 7.02 -5 6 C-4.01 6 -3.02 6 -2 6 C-1.855625 5.195625 -1.71125 4.39125 -1.5625 3.5625 C-1 1 -1 1 0 0 Z " fill="#70B6AE" transform="translate(327,182)"/>
<path d="M0 0 C2.31 0 4.62 0 7 0 C6.01 0.33 5.02 0.66 4 1 C4.33 2.65 4.66 4.3 5 6 C6.65 5.67 8.3 5.34 10 5 C10 5.66 10 6.32 10 7 C8.54293274 7.50367757 7.08429904 8.00282556 5.625 8.5 C4.81289063 8.7784375 4.00078125 9.056875 3.1640625 9.34375 C1 10 1 10 -1 10 C-1 9.34 -1 8.68 -1 8 C-2.32 8.33 -3.64 8.66 -5 9 C-5 8.34 -5 7.68 -5 7 C-4.175 6.360625 -3.35 5.72125 -2.5 5.0625 C-1.675 4.381875 -0.85 3.70125 0 3 C0 2.01 0 1.02 0 0 Z " fill="#28394B" transform="translate(364,327)"/>
<path d="M0 0 C0 0.66 0 1.32 0 2 C-0.99 2.66 -1.98 3.32 -3 4 C-2.88693303 5.95894361 -2.88693303 5.95894361 -2 8 C0.49034386 9.29660434 0.49034386 9.29660434 3 10 C3 10.66 3 11.32 3 12 C3.66 12 4.32 12 5 12 C5.33 13.98 5.66 15.96 6 18 C5.55269531 17.61328125 5.10539062 17.2265625 4.64453125 16.828125 C4.03996094 16.30734375 3.43539063 15.7865625 2.8125 15.25 C2.17828125 14.7034375 1.5440625 14.156875 0.890625 13.59375 C-0.68220486 12.26789342 -2.30440766 11.00087924 -3.9375 9.75 C-4.618125 9.1725 -5.29875 8.595 -6 8 C-6 7.34 -6 6.68 -6 6 C-6.66 6 -7.32 6 -8 6 C-8.33 5.01 -8.66 4.02 -9 3 C-6.31795079 0.31795079 -3.73391546 0 0 0 Z " fill="#62A99D" transform="translate(302,144)"/>
<path d="M0 0 C0.33 0.99 0.66 1.98 1 3 C-0.6875 5.375 -0.6875 5.375 -3 8 C-3.70125 8.928125 -4.4025 9.85625 -5.125 10.8125 C-5.74375 11.534375 -6.3625 12.25625 -7 13 C-7.66 13 -8.32 13 -9 13 C-9.33 14.32 -9.66 15.64 -10 17 C-11.98 17 -13.96 17 -16 17 C-15.67 16.34 -15.34 15.68 -15 15 C-14.34 15 -13.68 15 -13 15 C-13 14.34 -13 13.68 -13 13 C-12.34 13 -11.68 13 -11 13 C-10.76539063 12.43796875 -10.53078125 11.8759375 -10.2890625 11.296875 C-8.69337 8.45364109 -6.71075457 6.51901873 -4.375 4.25 C-3.55773437 3.45078125 -2.74046875 2.6515625 -1.8984375 1.828125 C-0.95871094 0.92320312 -0.95871094 0.92320312 0 0 Z " fill="#72AABE" transform="translate(207,222)"/>
<path d="M0 0 C0 0.33 0 0.66 0 1 C-1.98 1 -3.96 1 -6 1 C-6.33 1.66 -6.66 2.32 -7 3 C-9.16874252 2.49396008 -10.99967627 2.00016187 -13 1 C-13.28875 1.763125 -13.5775 2.52625 -13.875 3.3125 C-15 6 -15 6 -17 9 C-19.125 9.6875 -19.125 9.6875 -21 10 C-20.67 8.02 -20.34 6.04 -20 4 C-19.34 4 -18.68 4 -18 4 C-18 3.34 -18 2.68 -18 2 C-11.50023898 -0.71975816 -6.95047184 -1.21357445 0 0 Z " fill="#4B5863" transform="translate(415,326)"/>
<path d="M0 0 C-0.66 4.95 -1.32 9.9 -2 15 C-2.33 15 -2.66 15 -3 15 C-3.33 11.7 -3.66 8.4 -4 5 C-7.28976808 3.90341064 -8.71303767 4.20046862 -12 5 C-11 2 -11 2 -7.6875 0.25 C-4 -1 -4 -1 0 0 Z " fill="#4EA792" transform="translate(360,131)"/>
<path d="M0 0 C0.33 0 0.66 0 1 0 C1 9.24 1 18.48 1 28 C2.65 28 4.3 28 6 28 C6.33 24.04 6.66 20.08 7 16 C7.33 16 7.66 16 8 16 C8 20.62 8 25.24 8 30 C5.36 30 2.72 30 0 30 C0 20.1 0 10.2 0 0 Z " fill="#223141" transform="translate(208,328)"/>
<path d="M0 0 C3.3125 -0.25 3.3125 -0.25 7 0 C8.6875 1.9375 8.6875 1.9375 10 4 C12.09415804 4.79623822 12.09415804 4.79623822 14 5 C14 5.66 14 6.32 14 7 C12.58376784 7.05447047 11.16691809 7.09300508 9.75 7.125 C8.96109375 7.14820313 8.1721875 7.17140625 7.359375 7.1953125 C4.74146957 6.97859847 3.18661486 6.44472767 1 5 C0.25 2.375 0.25 2.375 0 0 Z " fill="#364453" transform="translate(173,352)"/>
<path d="M0 0 C1.7074998 1.28062485 3.37373596 2.61767557 5 4 C5 4.66 5 5.32 5 6 C5.66 6 6.32 6 7 6 C8.66674321 8.91824244 9.2432008 10.97594379 9.1953125 14.328125 C9.18564453 15.52695313 9.18564453 15.52695313 9.17578125 16.75 C9.15902344 17.575 9.14226562 18.4 9.125 19.25 C9.11597656 20.09046875 9.10695313 20.9309375 9.09765625 21.796875 C9.07415817 23.86470604 9.03828908 25.93238995 9 28 C5.04 28 1.08 28 -3 28 C-3 27.67 -3 27.34 -3 27 C0.63 27 4.26 27 8 27 C7.91283383 24.41507211 7.80594881 21.83352498 7.6875 19.25 C7.66494141 18.52039063 7.64238281 17.79078125 7.61914062 17.0390625 C7.40678653 12.7919805 7.09029124 10.03086256 4 7 C1.41556677 5.26509754 1.41556677 5.26509754 -1 4 C-0.67 2.68 -0.34 1.36 0 0 Z " fill="#5C6770" transform="translate(262,143)"/>
<path d="M0 0 C1.51400391 0.01740234 1.51400391 0.01740234 3.05859375 0.03515625 C4.07050781 0.04417969 5.08242188 0.05320312 6.125 0.0625 C7.29869141 0.07990234 7.29869141 0.07990234 8.49609375 0.09765625 C8.16609375 2.73765625 7.83609375 5.37765625 7.49609375 8.09765625 C6.17609375 7.76765625 4.85609375 7.43765625 3.49609375 7.09765625 C3.49609375 6.43765625 3.49609375 5.77765625 3.49609375 5.09765625 C2.17609375 5.42765625 0.85609375 5.75765625 -0.50390625 6.09765625 C-0.83390625 5.10765625 -1.16390625 4.11765625 -1.50390625 3.09765625 C-2.16390625 2.43765625 -2.82390625 1.77765625 -3.50390625 1.09765625 C-2.50390625 0.09765625 -2.50390625 0.09765625 0 0 Z " fill="#1D2F42" transform="translate(307.50390625,326.90234375)"/>
<path d="M0 0 C2.80662124 1.28828516 4.13482432 3.40765709 5.90625 5.875 C4.875 5.813125 3.84375 5.75125 2.78125 5.6875 C-1.32843973 5.88635595 -3.58257496 6.81967803 -7.09375 8.875 C-7.75375 8.215 -8.41375 7.555 -9.09375 6.875 C-8.02658928 5.67294536 -6.93936663 4.48867667 -5.84375 3.3125 C-5.24046875 2.65121094 -4.6371875 1.98992187 -4.015625 1.30859375 C-2.09375 -0.125 -2.09375 -0.125 0 0 Z " fill="#304252" transform="translate(225.09375,257.125)"/>
<path d="M0 0 C4.93049798 4.77144966 4.93049798 4.77144966 5.1328125 8.34765625 C5.13023437 9.24355469 5.12765625 10.13945312 5.125 11.0625 C5.12886719 12.41021484 5.12886719 12.41021484 5.1328125 13.78515625 C5 16 5 16 4 17 C2.43827255 17.08685603 0.87270656 17.10702219 -0.69140625 17.09765625 C-1.63564453 17.09443359 -2.57988281 17.09121094 -3.55273438 17.08789062 C-5.04256836 17.07532227 -5.04256836 17.07532227 -6.5625 17.0625 C-7.55958984 17.05798828 -8.55667969 17.05347656 -9.58398438 17.04882812 C-12.05604849 17.03700007 -14.52799518 17.02051849 -17 17 C-17 16.67 -17 16.34 -17 16 C-10.4 16 -3.8 16 3 16 C2.690625 14.47375 2.38125 12.9475 2.0625 11.375 C1.30497745 7.59275974 0.60169335 3.81072452 0 0 Z " fill="#8C939E" transform="translate(255,329)"/>
<path d="M0 0 C0.66 0.33 1.32 0.66 2 1 C1.67 3.97 1.34 6.94 1 10 C1.99 10.33 2.98 10.66 4 11 C2.35 12.65 0.7 14.3 -1 16 C-1.99 15.67 -2.98 15.34 -4 15 C-4.66 15.66 -5.32 16.32 -6 17 C-6 14.36 -6 11.72 -6 9 C-4.02 9 -2.04 9 0 9 C0 6.03 0 3.06 0 0 Z " fill="#414F5C" transform="translate(149,317)"/>
<path d="M0 0 C0.99 0.66 1.98 1.32 3 2 C-2.75 6.875 -2.75 6.875 -5 8 C-5.45375 8.763125 -5.9075 9.52625 -6.375 10.3125 C-8.00377149 13.00623747 -9.63188747 14.93745038 -12 17 C-12.66 17 -13.32 17 -14 17 C-13.4194679 13.69881206 -12.45131901 12.08865924 -10.05859375 9.765625 C-9.18364258 8.90517578 -9.18364258 8.90517578 -8.29101562 8.02734375 C-7.67935547 7.44082031 -7.06769531 6.85429687 -6.4375 6.25 C-5.82197266 5.64800781 -5.20644531 5.04601562 -4.57226562 4.42578125 C-3.05485187 2.94365619 -1.52829404 1.4709033 0 0 Z " fill="#68B1A6" transform="translate(305,166)"/>
<path d="M0 0 C-0.66 0 -1.32 0 -2 0 C-2 0.66 -2 1.32 -2 2 C-6.53701494 3.45184478 -10.18061476 4.23509196 -15 4 C-15.33 4.99 -15.66 5.98 -16 7 C-20.09765533 6.52194021 -24.00520466 6.02796474 -28 5 C-24.08724073 3.96377062 -20.16929224 2.94871327 -16.25 1.9375 C-15.13882812 1.64294922 -14.02765625 1.34839844 -12.8828125 1.04492188 C-11.81289063 0.77099609 -10.74296875 0.49707031 -9.640625 0.21484375 C-8.65610352 -0.04176025 -7.67158203 -0.29836426 -6.65722656 -0.56274414 C-4.01666408 -0.99725787 -2.49796143 -0.87325 0 0 Z " fill="#6EB2A5" transform="translate(335,137)"/>
<path d="M0 0 C0.33 0 0.66 0 1 0 C1.04241723 2.33294775 1.04092937 4.66702567 1 7 C0 8 0 8 -3.5625 8.0625 C-4.696875 8.041875 -5.83125 8.02125 -7 8 C-7 12.29 -7 16.58 -7 21 C-7.33 21 -7.66 21 -8 21 C-8.33 16.05 -8.66 11.1 -9 6 C-7.35 5.34 -5.7 4.68 -4 4 C-3.67 3.34 -3.34 2.68 -3 2 C-2.01 2 -1.02 2 0 2 C0 1.34 0 0.68 0 0 Z " fill="#707C86" transform="translate(166,327)"/>
<path d="M0 0 C6.52307692 0.49230769 6.52307692 0.49230769 8.9375 3.0625 C9.288125 3.701875 9.63875 4.34125 10 5 C7 5 7 5 3 3 C0.36 5.64 -2.28 8.28 -5 11 C-5.66 10.67 -6.32 10.34 -7 10 C-7 9.34 -7 8.68 -7 8 C-6.34 8 -5.68 8 -5 8 C-5 7.01 -5 6.02 -5 5 C-4.01 5 -3.02 5 -2 5 C-2 4.01 -2 3.02 -2 2 C-1.34 2 -0.68 2 0 2 C0 1.34 0 0.68 0 0 Z " fill="#63A3B3" transform="translate(220,247)"/>
<path d="M0 0 C0.33 0.99 0.66 1.98 1 3 C-0.32 2.67 -1.64 2.34 -3 2 C-2.34 2.66 -1.68 3.32 -1 4 C-0.34 4 0.32 4 1 4 C0.67 5.32 0.34 6.64 0 8 C-4.62 8 -9.24 8 -14 8 C-14 7.67 -14 7.34 -14 7 C-10.535 6.505 -10.535 6.505 -7 6 C-7.33 5.34 -7.66 4.68 -8 4 C-5.31752816 1.31752816 -3.87224464 0 0 0 Z " fill="#384755" transform="translate(416,351)"/>
<path d="M0 0 C0.66 0.99 1.32 1.98 2 3 C0.73755365 4.65227538 -0.53525235 6.29663951 -1.8125 7.9375 C-2.87404297 9.31228516 -2.87404297 9.31228516 -3.95703125 10.71484375 C-6 13 -6 13 -9 14 C-9.66 13.67 -10.32 13.34 -11 13 C-11 12.34 -11 11.68 -11 11 C-10.34 11 -9.68 11 -9 11 C-9 10.34 -9 9.68 -9 9 C-7.625 7.375 -7.625 7.375 -6 6 C-5.34 6 -4.68 6 -4 6 C-3.34 4.68 -2.68 3.36 -2 2 C-1.34 2 -0.68 2 0 2 C0 1.34 0 0.68 0 0 Z " fill="#62ACA9" transform="translate(285,186)"/>
<path d="M0 0 C1.134375 0.020625 2.26875 0.04125 3.4375 0.0625 C3.4375 2.0425 3.4375 4.0225 3.4375 6.0625 C2.4475 6.0625 1.4575 6.0625 0.4375 6.0625 C-0.8606424 7.2115712 -0.8606424 7.2115712 -1.5625 10.0625 C-2.5525 10.0625 -3.5425 10.0625 -4.5625 10.0625 C-4.58939216 8.58343108 -4.60884621 7.10422517 -4.625 5.625 C-4.63660156 4.80128906 -4.64820313 3.97757812 -4.66015625 3.12890625 C-4.49001835 -0.47121162 -3.73687179 0.06555915 0 0 Z " fill="#20303F" transform="translate(154.5625,316.9375)"/>
<path d="M0 0 C2.31 0 4.62 0 7 0 C7 0.66 7 1.32 7 2 C7.66 2.33 8.32 2.66 9 3 C8.67 4.32 8.34 5.64 8 7 C4.37 7 0.74 7 -3 7 C-1.35 5.68 0.3 4.36 2 3 C1.34 2.01 0.68 1.02 0 0 Z " fill="#1C2E40" transform="translate(243,351)"/>
<path d="M0 0 C1.65 0 3.3 0 5 0 C5 2.64 5 5.28 5 8 C2.69 8 0.38 8 -2 8 C-2 6.02 -2 4.04 -2 2 C-1.34 2 -0.68 2 0 2 C0 1.34 0 0.68 0 0 Z " fill="#1E2B37" transform="translate(222,327)"/>
<path d="M0 0 C0.99 0.33 1.98 0.66 3 1 C-1.62 5.62 -6.24 10.24 -11 15 C-11.33 14.01 -11.66 13.02 -12 12 C-10.6875 9.8125 -10.6875 9.8125 -9 8 C-8.34 8 -7.68 8 -7 8 C-7 7.01 -7 6.02 -7 5 C-6.01 4.67 -5.02 4.34 -4 4 C-2.62804426 2.70644173 -1.28817344 1.37701298 0 0 Z " fill="#66A8AC" transform="translate(279,232)"/>
<path d="M0 0 C0 3 0 3 -1 5 C0.98 4.67 2.96 4.34 5 4 C5.33 4.99 5.66 5.98 6 7 C6.66 7 7.32 7 8 7 C7.67 8.65 7.34 10.3 7 12 C4.69 10.35 2.38 8.7 0 7 C-0.99 7.66 -1.98 8.32 -3 9 C-3.1875 5.625 -3.1875 5.625 -3 2 C-2.01 1.34 -1.02 0.68 0 0 Z " fill="#374A59" transform="translate(223,192)"/>
<path d="M0 0 C0.33 0.99 0.66 1.98 1 3 C0.34 3 -0.32 3 -1 3 C-0.67 3.99 -0.34 4.98 0 6 C-0.66 6.66 -1.32 7.32 -2 8 C-1.67 8.66 -1.34 9.32 -1 10 C-1.33 10.66 -1.66 11.32 -2 12 C-4.32156597 12.40729228 -6.6568787 12.74438677 -9 13 C-8.40300869 9.66864109 -7.27987719 7.78724333 -5.0625 5.25 C-4.27552734 4.32960938 -4.27552734 4.32960938 -3.47265625 3.390625 C-2 2 -2 2 0 2 C0 1.34 0 0.68 0 0 Z " fill="#425162" transform="translate(203,276)"/>
<path d="M0 0 C4.29 0.99 8.58 1.98 13 3 C10 5 10 5 7.5625 4.5625 C6.716875 4.376875 5.87125 4.19125 5 4 C2.76832815 4.36856864 2.76832815 4.36856864 1 5 C1 5.99 1 6.98 1 8 C1.99 8.33 2.98 8.66 4 9 C0.25 10.125 0.25 10.125 -2 9 C-1.34 6.03 -0.68 3.06 0 0 Z " fill="#4F5A65" transform="translate(360,358)"/>
<path d="M0 0 C2.64 0 5.28 0 8 0 C8 1.65 8 3.3 8 5 C7.67 4.34 7.34 3.68 7 3 C3.97065509 2.34227572 3.97065509 2.34227572 1 2 C1 5.63 1 9.26 1 13 C1.66 13.33 2.32 13.66 3 14 C2.34 15.98 1.68 17.96 1 20 C0.67 20 0.34 20 0 20 C0 13.4 0 6.8 0 0 Z " fill="#1E2F3C" transform="translate(334,327)"/>
<path d="M0 0 C0.99 0.33 1.98 0.66 3 1 C0.49653351 5.85967024 -3.08552441 9.27856704 -7 13 C-8.0859375 9.265625 -8.0859375 9.265625 -7.3125 6.875 C-5.7635558 4.66222257 -4.41196971 4.1306108 -2 3 C-1.34 2.01 -0.68 1.02 0 0 Z " fill="#535F6D" transform="translate(179,238)"/>
<path d="M0 0 C0.66 0 1.32 0 2 0 C2 0.66 2 1.32 2 2 C3.65 2 5.3 2 7 2 C6.01 2.66 5.02 3.32 4 4 C3.77390663 6.12364481 3.77390663 6.12364481 5.5 7.625 C5.995 8.07875 6.49 8.5325 7 9 C4.69 9 2.38 9 0 9 C-1.125 3.375 -1.125 3.375 0 0 Z " fill="#1D2F42" transform="translate(366,347)"/>
<path d="M0 0 C0.66 0.66 1.32 1.32 2 2 C1.01 2.66 0.02 3.32 -1 4 C-1 4.99 -1 5.98 -1 7 C-2.45381897 7.69699552 -3.91322953 8.38233866 -5.375 9.0625 C-6.18710938 9.44535156 -6.99921875 9.82820313 -7.8359375 10.22265625 C-8.55007812 10.47917969 -9.26421875 10.73570312 -10 11 C-10.66 10.67 -11.32 10.34 -12 10 C-8.17957309 5.8157229 -5.67023649 3.35005631 0 2 C0 1.34 0 0.68 0 0 Z " fill="#3F95BD" transform="translate(171,261)"/>
<path d="M0 0 C1.08784335 3.31395986 1.07262544 3.83580335 -0.4375 7.25 C-0.953125 8.1575 -1.46875 9.065 -2 10 C-3.98 10 -5.96 10 -8 10 C-6.34908222 5.70761377 -3.26245434 3.1206085 0 0 Z " fill="#65A3B8" transform="translate(217,212)"/>
<path d="M0 0 C2.625 0.9375 2.625 0.9375 5 2 C5 3.65 5 5.3 5 7 C2.36 6.67 -0.28 6.34 -3 6 C-2.625 3.5625 -2.625 3.5625 -2 1 C-1.34 0.67 -0.68 0.34 0 0 Z " fill="#1C3146" transform="translate(316,349)"/>
<path d="M0 0 C4.91935902 4.11619836 9.52647956 8.40410362 14 13 C13.34 13.66 12.68 14.32 12 15 C10.49403892 13.54782324 8.99537896 12.08807139 7.5 10.625 C6.6646875 9.81289062 5.829375 9.00078125 4.96875 8.1640625 C3 6 3 6 3 4 C2.01 3.67 1.02 3.34 0 3 C0 2.01 0 1.02 0 0 Z " fill="#6BA8B5" transform="translate(230,212)"/>
<path d="M0 0 C0.99 0.33 1.98 0.66 3 1 C3.66 1 4.32 1 5 1 C5 2.65 5 4.3 5 6 C2.59454362 7.20272819 1.05003047 7.10071472 -1.625 7.0625 C-2.85089844 7.04896484 -2.85089844 7.04896484 -4.1015625 7.03515625 C-5.04128906 7.01775391 -5.04128906 7.01775391 -6 7 C-4.68 6.34 -3.36 5.68 -2 5 C-2 4.34 -2 3.68 -2 3 C-1.34 2.34 -0.68 1.68 0 1 C0 0.67 0 0.34 0 0 Z " fill="#45545F" transform="translate(161,352)"/>
<path d="M0 0 C0.66 0.33 1.32 0.66 2 1 C0.089998 5.1065043 -1.77824938 8.77824938 -5 12 C-7.75 12.3125 -7.75 12.3125 -10 12 C-9.61328125 11.55269531 -9.2265625 11.10539063 -8.828125 10.64453125 C-5.81609925 7.1478974 -2.85678969 3.62592537 0 0 Z " fill="#62A6AB" transform="translate(266,205)"/>
<path d="M0 0 C0.66 0 1.32 0 2 0 C2.33 1.65 2.66 3.3 3 5 C2.34 5 1.68 5 1 5 C1 5.66 1 6.32 1 7 C0.34 7 -0.32 7 -1 7 C-1 7.66 -1 8.32 -1 9 C-1.66 9 -2.32 9 -3 9 C-3 9.66 -3 10.32 -3 11 C-3.66 11 -4.32 11 -5 11 C-5.33 11.66 -5.66 12.32 -6 13 C-6.33 11.02 -6.66 9.04 -7 7 C-6.360625 6.896875 -5.72125 6.79375 -5.0625 6.6875 C-4.381875 6.460625 -3.70125 6.23375 -3 6 C-2.67 5.01 -2.34 4.02 -2 3 C-1.34 3 -0.68 3 0 3 C0 2.01 0 1.02 0 0 Z " fill="#415264" transform="translate(196,219)"/>
<path d="M0 0 C0.66 0.33 1.32 0.66 2 1 C2.33 1.99 2.66 2.98 3 4 C-0.75 7 -0.75 7 -3 7 C-3.33 7.66 -3.66 8.32 -4 9 C-4.66 9 -5.32 9 -6 9 C-4.68775452 5.06326356 -3.08089673 2.77280706 0 0 Z " fill="#4D5967" transform="translate(362,327)"/>
<path d="M0 0 C0.99 0 1.98 0 3 0 C2.67 2.64 2.34 5.28 2 8 C1.34 8 0.68 8 0 8 C0.33 11.96 0.66 15.92 1 20 C0.34 20 -0.32 20 -1 20 C-1.02712351 17.60408962 -1.0468982 15.20849043 -1.0625 12.8125 C-1.07087891 12.13896484 -1.07925781 11.46542969 -1.08789062 10.77148438 C-1.10606538 7.04565869 -0.89299392 3.6211958 0 0 Z " fill="#5D6671" transform="translate(203,151)"/>
<path d="M0 0 C0.99 0.33 1.98 0.66 3 1 C3.1799928 6.21979128 2.97094808 10.07262981 1 15 C-0.41705815 10.14151492 -1.61692164 4.85076492 0 0 Z " fill="#3EA28C" transform="translate(354,138)"/>
<path d="M0 0 C2.64 0 5.28 0 8 0 C6.68 1.65 5.36 3.3 4 5 C4.33 5.66 4.66 6.32 5 7 C2.36 7 -0.28 7 -3 7 C-1.68 6.34 -0.36 5.68 1 5 C0.67 3.35 0.34 1.7 0 0 Z " fill="#1A2B3C" transform="translate(405,351)"/>
<path d="M0 0 C1.23556641 0.01740234 1.23556641 0.01740234 2.49609375 0.03515625 C3.32238281 0.04417969 4.14867187 0.05320312 5 0.0625 C5.63808594 0.07410156 6.27617187 0.08570313 6.93359375 0.09765625 C8.57509865 3.38066605 7.45247999 6.52310658 6.93359375 10.09765625 C5.94359375 9.76765625 4.95359375 9.43765625 3.93359375 9.09765625 C4.59359375 9.09765625 5.25359375 9.09765625 5.93359375 9.09765625 C5.60359375 7.77765625 5.27359375 6.45765625 4.93359375 5.09765625 C3.61359375 4.76765625 2.29359375 4.43765625 0.93359375 4.09765625 C1.26359375 3.43765625 1.59359375 2.77765625 1.93359375 2.09765625 C0.94359375 2.09765625 -0.04640625 2.09765625 -1.06640625 2.09765625 C-1.72640625 1.76765625 -2.38640625 1.43765625 -3.06640625 1.09765625 C-2.06640625 0.09765625 -2.06640625 0.09765625 0 0 Z " fill="#69757F" transform="translate(347.06640625,325.90234375)"/>
<path d="M0 0 C1.65 0 3.3 0 5 0 C1.6189962 4.13621084 -1.66590534 7.81316569 -6 11 C-6 9.68 -6 8.36 -6 7 C-4.37064759 5.62131719 -2.70250393 4.28725907 -1 3 C-0.67 2.01 -0.34 1.02 0 0 Z " fill="#64A3B5" transform="translate(209,258)"/>
<path d="M0 0 C0.66 0.66 1.32 1.32 2 2 C1.88925275 5.21167037 0.72600008 6.30912812 -1.4375 8.75 C-4 11 -4 11 -6 11 C-6 9.02 -6 7.04 -6 5 C-5.01 4.67 -4.02 4.34 -3 4 C-1.31461399 2.00334686 -1.31461399 2.00334686 0 0 Z " fill="#1C3042" transform="translate(299,224)"/>
<path d="M0 0 C1.32 0.33 2.64 0.66 4 1 C1.03 3.97 -1.94 6.94 -5 10 C-5.66 9.67 -6.32 9.34 -7 9 C-7 8.34 -7 7.68 -7 7 C-6.34 7 -5.68 7 -5 7 C-4.67 5.68 -4.34 4.36 -4 3 C-2.68 3 -1.36 3 0 3 C0 2.01 0 1.02 0 0 Z " fill="#74B4B1" transform="translate(296,214)"/>
<path d="M0 0 C0.99 0.33 1.98 0.66 3 1 C-0.63 4.63 -4.26 8.26 -8 12 C-8.33 11.01 -8.66 10.02 -9 9 C-8.34 9 -7.68 9 -7 9 C-6.95875 8.443125 -6.9175 7.88625 -6.875 7.3125 C-5.49042634 3.65326962 -3.19027233 2.23319063 0 0 Z " fill="#475761" transform="translate(258,203)"/>
<path d="M0 0 C2.0625 0.4375 2.0625 0.4375 4 1 C3 4 3 4 1 5 C4.96 5.33 8.92 5.66 13 6 C13 6.33 13 6.66 13 7 C8.38 7 3.76 7 -1 7 C-1 1 -1 1 0 0 Z " fill="#616C77" transform="translate(402,332)"/>
<path d="M0 0 C0.3125 2.25 0.3125 2.25 0 5 C-3.0802463 8.16825333 -5.62179908 9.49963418 -10 10 C-9.06409496 8.8944811 -8.12620142 7.79064547 -7.1875 6.6875 C-6.66542969 6.07261719 -6.14335937 5.45773438 -5.60546875 4.82421875 C-1.35974304 0 -1.35974304 0 0 0 Z " fill="#58626D" transform="translate(314,208)"/>
<path d="M0 0 C7.26 0 14.52 0 22 0 C21.34 1.32 20.68 2.64 20 4 C19.34 4 18.68 4 18 4 C17.67 3.34 17.34 2.68 17 2 C11.39 1.67 5.78 1.34 0 1 C0 0.67 0 0.34 0 0 Z " fill="#414D57" transform="translate(264,177)"/>
<path d="M0 0 C0 1.65 0 3.3 0 5 C-0.66 5 -1.32 5 -2 5 C-2.33 8.63 -2.66 12.26 -3 16 C-3.33 16 -3.66 16 -4 16 C-4.04898437 15.25234375 -4.09796875 14.5046875 -4.1484375 13.734375 C-4.22320312 12.74953125 -4.29796875 11.7646875 -4.375 10.75 C-4.44460938 9.77546875 -4.51421875 8.8009375 -4.5859375 7.796875 C-4.98465249 5.10366811 -5.63507063 3.33036721 -7 1 C-4.50935112 0.31292445 -2.62113708 0 0 0 Z " fill="#576470" transform="translate(262,154)"/>
<path d="M0 0 C-0.33 1.32 -0.66 2.64 -1 4 C-3.31 4 -5.62 4 -8 4 C-8 2.68 -8 1.36 -8 0 C-4.71023192 -1.09658936 -3.28696233 -0.79953138 0 0 Z " fill="#555F69" transform="translate(87,355)"/>
<path d="M0 0 C0.99 0 1.98 0 3 0 C3 0.66 3 1.32 3 2 C4.65 2.33 6.3 2.66 8 3 C8 3.99 8 4.98 8 6 C5.36 5.67 2.72 5.34 0 5 C0 3.35 0 1.7 0 0 Z " fill="#1C3248" transform="translate(179,349)"/>
<path d="M0 0 C2.75 -0.25 2.75 -0.25 6 0 C8.375 2 8.375 2 10 4 C8.35 4.66 6.7 5.32 5 6 C5 5.34 5 4.68 5 4 C4.34 4 3.68 4 3 4 C3 3.34 3 2.68 3 2 C2.01 1.67 1.02 1.34 0 1 C0 0.67 0 0.34 0 0 Z " fill="#71ACB5" transform="translate(239,263)"/>
<path d="M0 0 C1.98 0.66 3.96 1.32 6 2 C5.67 2.66 5.34 3.32 5 4 C4.34 4 3.68 4 3 4 C3 4.66 3 5.32 3 6 C3.66 6.33 4.32 6.66 5 7 C3.02 7 1.04 7 -1 7 C-0.7525 6.1028125 -0.7525 6.1028125 -0.5 5.1875 C0.1114124 2.88655664 0.1114124 2.88655664 0 0 Z " fill="#1A2F42" transform="translate(156,351)"/>
<path d="M0 0 C0.33 0 0.66 0 1 0 C1 4.95 1 9.9 1 15 C-0.32 14.34 -1.64 13.68 -3 13 C-2.34 13 -1.68 13 -1 13 C-1.01160156 12.22914063 -1.02320313 11.45828125 -1.03515625 10.6640625 C-1.04417969 9.66117187 -1.05320312 8.65828125 -1.0625 7.625 C-1.07410156 6.62726563 -1.08570313 5.62953125 -1.09765625 4.6015625 C-1 2 -1 2 0 0 Z " fill="#1B2B37" transform="translate(342,339)"/>
<path d="M0 0 C0.33 0 0.66 0 1 0 C1.12375 0.969375 1.2475 1.93875 1.375 2.9375 C1.58125 3.948125 1.7875 4.95875 2 6 C2.66 6.33 3.32 6.66 4 7 C4 9.97 4 12.94 4 16 C0.60856851 12.60856851 0.0931223 11.24983482 -0.09765625 6.640625 C-0.08605469 5.85171875 -0.07445312 5.0628125 -0.0625 4.25 C-0.05347656 3.45078125 -0.04445313 2.6515625 -0.03515625 1.828125 C-0.02355469 1.22484375 -0.01195312 0.6215625 0 0 Z " fill="#5C6A76" transform="translate(392,338)"/>
<path d="M0 0 C0.33 0 0.66 0 1 0 C1 3.96 1 7.92 1 12 C1.99 11.67 2.98 11.34 4 11 C4.66666667 13.66666667 5.33333333 16.33333333 6 19 C5.34 19 4.68 19 4 19 C4 18.34 4 17.68 4 17 C3.34 17 2.68 17 2 17 C-0.25998595 13.40537669 -0.20868087 10.43404325 -0.125 6.25 C-0.09792969 4.49429687 -0.09792969 4.49429687 -0.0703125 2.703125 C-0.04710937 1.81109375 -0.02390625 0.9190625 0 0 Z " fill="#626C76" transform="translate(229,336)"/>
<path d="M0 0 C0.66 0 1.32 0 2 0 C2 1.32 2 2.64 2 4 C-3.28 4 -8.56 4 -14 4 C-14 3.67 -14 3.34 -14 3 C-9.38 2.67 -4.76 2.34 0 2 C0 1.34 0 0.68 0 0 Z " fill="#1F2C3C" transform="translate(100,337)"/>
<path d="M0 0 C0 2.97 0 5.94 0 9 C-0.33 9 -0.66 9 -1 9 C-1 6.36 -1 3.72 -1 1 C-2.65 1 -4.3 1 -6 1 C-6 1.66 -6 2.32 -6 3 C-7.65 3.33 -9.3 3.66 -11 4 C-11 3.01 -11 2.02 -11 1 C-7.57067929 -0.71466036 -3.78283935 -0.05404056 0 0 Z " fill="#848D97" transform="translate(228,326)"/>
<path d="M0 0 C0.66 1.32 1.32 2.64 2 4 C-0.97 6.475 -0.97 6.475 -4 9 C-4.99 8.34 -5.98 7.68 -7 7 C-4.69 4.69 -2.38 2.38 0 0 Z " fill="#64A0C3" transform="translate(158,272)"/>
<path d="M0 0 C0.33 0.99 0.66 1.98 1 3 C0.01 3.495 0.01 3.495 -1 4 C-3.125 3.0625 -3.125 3.0625 -5 2 C-5 2.66 -5 3.32 -5 4 C-5.99 4.33 -6.98 4.66 -8 5 C-7.625 2.5625 -7.625 2.5625 -7 0 C-4.3333581 -1.33332095 -2.83319697 -0.67102033 0 0 Z " fill="#1C2F41" transform="translate(270,259)"/>
<path d="M0 0 C0.33 0.99 0.66 1.98 1 3 C-0.3125 5.1875 -0.3125 5.1875 -2 7 C-2.66 7 -3.32 7 -4 7 C-4 7.66 -4 8.32 -4 9 C-5.32 8.67 -6.64 8.34 -8 8 C-6.81775332 5.63550664 -5.45903319 4.56573685 -3.4375 2.875 C-2.79683594 2.33617187 -2.15617188 1.79734375 -1.49609375 1.2421875 C-0.75552734 0.62730469 -0.75552734 0.62730469 0 0 Z " fill="#65A6B1" transform="translate(252,220)"/>
<path d="M0 0 C1.32 0.66 2.64 1.32 4 2 C0.535 4.97 0.535 4.97 -3 8 C-3.66 7.67 -4.32 7.34 -5 7 C-4.67 5.68 -4.34 4.36 -4 3 C-2.515 3.99 -2.515 3.99 -1 5 C-0.67 3.35 -0.34 1.7 0 0 Z " fill="#71B7B1" transform="translate(309,200)"/>
<path d="M0 0 C-0.95117134 1.1725131 -1.91117009 2.33787015 -2.875 3.5 C-3.40867188 4.1496875 -3.94234375 4.799375 -4.4921875 5.46875 C-4.98976562 5.9740625 -5.48734375 6.479375 -6 7 C-6.66 7 -7.32 7 -8 7 C-8.3125 4.6875 -8.3125 4.6875 -8 2 C-3.92125984 -1.30708661 -3.92125984 -1.30708661 0 0 Z " fill="#43505E" transform="translate(216,206)"/>
<path d="M0 0 C0.99 0.495 0.99 0.495 2 1 C4.00800456 0.71887936 6.01014051 0.38932033 8 0 C8 1.32 8 2.64 8 4 C5.36 4 2.72 4 0 4 C0 2.68 0 1.36 0 0 Z " fill="#58606D" transform="translate(266,355)"/>
<path d="M0 0 C0.66 0.66 1.32 1.32 2 2 C2.66 2 3.32 2 4 2 C4 2.99 4 3.98 4 5 C1.03 4.67 -1.94 4.34 -5 4 C-5 3.01 -5 2.02 -5 1 C-2.625 0.375 -2.625 0.375 0 0 Z " fill="#435261" transform="translate(188,353)"/>
<path d="M0 0 C0.66 0.66 1.32 1.32 2 2 C0.38405168 4.04119788 -1.2856382 6.04072937 -3 8 C-3.66 8 -4.32 8 -5 8 C-5.33 8.66 -5.66 9.32 -6 10 C-6 8.35 -6 6.7 -6 5 C-5.34 5 -4.68 5 -4 5 C-3.67 4.01 -3.34 3.02 -3 2 C-2.01 2 -1.02 2 0 2 C0 1.34 0 0.68 0 0 Z " fill="#609DB5" transform="translate(194,275)"/>
<path d="M0 0 C2.875 0.3125 2.875 0.3125 6 1 C8 4 8 4 7.625 6.1875 C7.41875 6.785625 7.2125 7.38375 7 8 C5.5 6.625 5.5 6.625 4 5 C4 4.34 4 3.68 4 3 C3.34 3 2.68 3 2 3 C2 2.34 2 1.68 2 1 C1.34 0.67 0.68 0.34 0 0 Z " fill="#72B1C0" transform="translate(231,255)"/>
<path d="M0 0 C0.66 1.32 1.32 2.64 2 4 C-1.25179812 6.21713508 -4.4213696 8.34832443 -8 10 C-8 9.34 -8 8.68 -8 8 C-7.34 8 -6.68 8 -6 8 C-6 7.34 -6 6.68 -6 6 C-5.34 6 -4.68 6 -4 6 C-4 5.34 -4 4.68 -4 4 C-3.34 4 -2.68 4 -2 4 C-1.34 2.68 -0.68 1.36 0 0 Z " fill="#7AAABB" transform="translate(190,239)"/>
<path d="M0 0 C0.66 0.33 1.32 0.66 2 1 C1.34 3.31 0.68 5.62 0 8 C-1.32 7.67 -2.64 7.34 -4 7 C-3.43628586 3.73045798 -2.50037734 2.17424117 0 0 Z " fill="#414F5A" transform="translate(149,179)"/>
<path d="M0 0 C0 3 0 3 -2.375 5.6875 C-5 8 -5 8 -7 8 C-6.4376049 4.73810844 -5.5859495 3.08865152 -3 1 C-2.01 0.67 -1.02 0.34 0 0 Z " fill="#59A6A0" transform="translate(298,175)"/>
<path d="M0 0 C0.33 0 0.66 0 1 0 C1 3.3 1 6.6 1 10 C1.99 9.67 2.98 9.34 4 9 C6.1875 9.4375 6.1875 9.4375 8 10 C8 10.66 8 11.32 8 12 C5.66705225 12.04241723 3.33297433 12.04092937 1 12 C0 11 0 11 -0.09765625 8.49609375 C-0.08605469 7.48675781 -0.07445312 6.47742188 -0.0625 5.4375 C-0.05347656 4.42558594 -0.04445312 3.41367188 -0.03515625 2.37109375 C-0.02355469 1.58863281 -0.01195312 0.80617187 0 0 Z " fill="#1F2B38" transform="translate(203,159)"/>
<path d="M0 0 C0.33 0 0.66 0 1 0 C1 3.3 1 6.6 1 10 C-1.64 10 -4.28 10 -7 10 C-5.6875 8.5 -5.6875 8.5 -4 7 C-3.01 7 -2.02 7 -1 7 C-0.67 4.69 -0.34 2.38 0 0 Z " fill="#5A6278" transform="translate(199,349)"/>
<path d="M0 0 C3.63 0 7.26 0 11 0 C9.68 1.65 8.36 3.3 7 5 C3.90837736 3.61410019 2.50816459 2.50816459 0 0 Z " fill="#182A3C" transform="translate(404,339)"/>
<path d="M0 0 C0.66 0.33 1.32 0.66 2 1 C1.34 2.98 0.68 4.96 0 7 C-1.65 7.33 -3.3 7.66 -5 8 C-3.8141763 4.62496331 -2.72426311 2.35277269 0 0 Z " fill="#44515F" transform="translate(235,328)"/>
<path d="M0 0 C-0.33 1.65 -0.66 3.3 -1 5 C-2.65 5 -4.3 5 -6 5 C-6 3.68 -6 2.36 -6 1 C-4 0 -4 0 0 0 Z " fill="#1D3345" transform="translate(226,328)"/>
<path d="M0 0 C0.66 0.99 1.32 1.98 2 3 C-0.97 5.475 -0.97 5.475 -4 8 C-4.66 7.34 -5.32 6.68 -6 6 C-4.02 4.02 -2.04 2.04 0 0 Z " fill="#57616C" transform="translate(284,237)"/>
<path d="M0 0 C1.32 0 2.64 0 4 0 C3.67 0.99 3.34 1.98 3 3 C3.33 3.66 3.66 4.32 4 5 C3.01 5 2.02 5 1 5 C1 5.66 1 6.32 1 7 C0.01 6.67 -0.98 6.34 -2 6 C-1.34 4.02 -0.68 2.04 0 0 Z " fill="#1C3147" transform="translate(302,347)"/>
<path d="M0 0 C2.475 0.99 2.475 0.99 5 2 C4.360625 2.165 3.72125 2.33 3.0625 2.5 C0.83880759 3.781786 0.83880759 3.781786 0.51171875 5.9140625 C0.2724022 7.93575155 0.13106972 9.96841939 0 12 C-0.33 12 -0.66 12 -1 12 C-1.02698189 10.37509046 -1.04638757 8.75005367 -1.0625 7.125 C-1.07410156 6.22007812 -1.08570313 5.31515625 -1.09765625 4.3828125 C-1 2 -1 2 0 0 Z " fill="#57636D" transform="translate(305,333)"/>
<path d="M0 0 C0 0.33 0 0.66 0 1 C-1.98 1 -3.96 1 -6 1 C-6.33 1.66 -6.66 2.32 -7 3 C-9.96175123 2.38722388 -11.38058783 1.74627478 -14 0 C-9.20699867 -1.39151652 -4.84864218 -0.68662689 0 0 Z " fill="#636D77" transform="translate(415,326)"/>
<path d="M0 0 C-0.33 3.63 -0.66 7.26 -1 11 C-1.33 11 -1.66 11 -2 11 C-2.33 8.03 -2.66 5.06 -3 2 C-4.65 1.67 -6.3 1.34 -8 1 C-4.59449725 -1.06762667 -4.18836538 -1.04709135 0 0 Z " fill="#8ABEB2" transform="translate(360,131)"/>
<path d="M0 0 C0.66 0.33 1.32 0.66 2 1 C0.75 4.4375 0.75 4.4375 -1 8 C-3.1875 8.9375 -3.1875 8.9375 -5 9 C-3.7508258 5.54074837 -2.32472205 2.85306797 0 0 Z " fill="#636D75" transform="translate(301,328)"/>
<path d="M0 0 C0.66 1.32 1.32 2.64 2 4 C-0.64738916 5.4606285 -1.89448334 6 -5 6 C-5 6.66 -5 7.32 -5 8 C-5.66 7.67 -6.32 7.34 -7 7 C-6.67 6.34 -6.34 5.68 -6 5 C-5.34 5 -4.68 5 -4 5 C-4 4.34 -4 3.68 -4 3 C-2 1.375 -2 1.375 0 0 Z " fill="#576370" transform="translate(215,265)"/>
<path d="M0 0 C3.25543229 0.34879632 4.01873107 1.02133261 6.25 3.5625 C6.8275 4.366875 7.405 5.17125 8 6 C5.69 5.67 3.38 5.34 1 5 C1.33 3.68 1.66 2.36 2 1 C1.34 0.67 0.68 0.34 0 0 Z " fill="#4E5F6D" transform="translate(223,257)"/>
<path d="M0 0 C0.99 0.33 1.98 0.66 3 1 C1.60667426 4.36720387 0.0210714 5.9859524 -3 8 C-3 6.68 -3 5.36 -3 4 C-2.34 4 -1.68 4 -1 4 C-0.67 2.68 -0.34 1.36 0 0 Z " fill="#5B9FAD" transform="translate(252,257)"/>
<path d="M0 0 C0.99 0.33 1.98 0.66 3 1 C0.36 3.64 -2.28 6.28 -5 9 C-5.33 8.01 -5.66 7.02 -6 6 C-5.34 6 -4.68 6 -4 6 C-3.34 4.68 -2.68 3.36 -2 2 C-1.34 2 -0.68 2 0 2 C0 1.34 0 0.68 0 0 Z " fill="#495B65" transform="translate(267,194)"/>
<path d="M0 0 C0.66 0 1.32 0 2 0 C1.67 3.3 1.34 6.6 1 10 C-0.32 10 -1.64 10 -3 10 C-2.34 9.67 -1.68 9.34 -1 9 C-0.53348793 6.87423218 -0.53348793 6.87423218 -0.375 4.4375 C-0.30023438 3.61121094 -0.22546875 2.78492188 -0.1484375 1.93359375 C-0.09945313 1.29550781 -0.05046875 0.65742188 0 0 Z " fill="#6AA999" transform="translate(348,188)"/>
<path d="M0 0 C0.99 0 1.98 0 3 0 C3 1.32 3 2.64 3 4 C5.31 4 7.62 4 10 4 C10 4.33 10 4.66 10 5 C8.741875 5.04125 7.48375 5.0825 6.1875 5.125 C5.47980469 5.14820313 4.77210938 5.17140625 4.04296875 5.1953125 C2 5 2 5 -1 3 C-0.67 2.01 -0.34 1.02 0 0 Z " fill="#82919B" transform="translate(128,354)"/>
<path d="M0 0 C0.99 0.33 1.98 0.66 3 1 C3 1.66 3 2.32 3 3 C2.34 3 1.68 3 1 3 C1 3.66 1 4.32 1 5 C-0.98 5 -2.96 5 -5 5 C-3.35 3.35 -1.7 1.7 0 0 Z " fill="#424F5E" transform="translate(319,345)"/>
<path d="M0 0 C0.66 0 1.32 0 2 0 C2.33 0.99 2.66 1.98 3 3 C2.34 3.66 1.68 4.32 1 5 C-1.625 4.625 -1.625 4.625 -4 4 C-3.01 3.67 -2.02 3.34 -1 3 C-0.67 2.01 -0.34 1.02 0 0 Z M-4 5 C-3.34 5 -2.68 5 -2 5 C-2.33 5.66 -2.66 6.32 -3 7 C-3.33 6.34 -3.66 5.68 -4 5 Z " fill="#1D3241" transform="translate(324,281)"/>
<path d="M0 0 C0.99 0 1.98 0 3 0 C1.60667426 3.36720387 0.0210714 4.9859524 -3 7 C-2.25 2.25 -2.25 2.25 0 0 Z " fill="#5396B1" transform="translate(199,269)"/>
<path d="M0 0 C0.99 0.33 1.98 0.66 3 1 C1.60667426 4.36720387 0.0210714 5.9859524 -3 8 C-2.625 5.5625 -2.625 5.5625 -2 3 C-1.34 2.67 -0.68 2.34 0 2 C0 1.34 0 0.68 0 0 Z " fill="#599FAB" transform="translate(260,249)"/>
<path d="M0 0 C0.625 1.8125 0.625 1.8125 1 4 C0.01 5.485 0.01 5.485 -1 7 C-2.32 6.34 -3.64 5.68 -5 5 C-3.35 3.35 -1.7 1.7 0 0 Z " fill="#71AEBC" transform="translate(217,212)"/>
<path d="M0 0 C0.66 0.66 1.32 1.32 2 2 C1.67 2.99 1.34 3.98 1 5 C-0.98 5.33 -2.96 5.66 -5 6 C-3.35 4.02 -1.7 2.04 0 0 Z " fill="#3E4B59" transform="translate(319,202)"/>
<path d="M0 0 C0.33 1.32 0.66 2.64 1 4 C-1.375 5.5625 -1.375 5.5625 -4 7 C-4.66 6.67 -5.32 6.34 -6 6 C-4.02 4.02 -2.04 2.04 0 0 Z " fill="#6CA4C3" transform="translate(165,265)"/>
<path d="M0 0 C0.66 0.33 1.32 0.66 2 1 C1.67 4.96 1.34 8.92 1 13 C0.67 13 0.34 13 0 13 C-0.19658808 11.58456585 -0.38187546 10.16755969 -0.5625 8.75 C-0.66691406 7.96109375 -0.77132813 7.1721875 -0.87890625 6.359375 C-1.00027349 3.99467126 -0.69633257 2.2488963 0 0 Z " fill="#6FB5A2" transform="translate(352,164)"/>
<path d="M0 0 C-0.33 1.65 -0.66 3.3 -1 5 C-2.65 5.33 -4.3 5.66 -6 6 C-3.84615385 0 -3.84615385 0 0 0 Z " fill="#55A89C" transform="translate(312,161)"/>
<path d="M0 0 C2 2 2 2 2 5 C2.99 5.33 3.98 5.66 5 6 C1.25 7.125 1.25 7.125 -1 6 C-0.67 4.02 -0.34 2.04 0 0 Z " fill="#5E6A72" transform="translate(359,361)"/>
<path d="M0 0 C1.32 0 2.64 0 4 0 C2.25 4.875 2.25 4.875 0 6 C-0.38218767 4.34385343 -0.71395102 2.67542976 -1 1 C-0.67 0.67 -0.34 0.34 0 0 Z " fill="#5C6872" transform="translate(382,361)"/>
<path d="M0 0 C0.33 0 0.66 0 1 0 C1.33 2.31 1.66 4.62 2 7 C0.0625 6.625 0.0625 6.625 -2 6 C-2.33 5.34 -2.66 4.68 -3 4 C-2.67 3.34 -2.34 2.68 -2 2 C-1.34 2 -0.68 2 0 2 C0 1.34 0 0.68 0 0 Z " fill="#495663" transform="translate(399,350)"/>
<path d="M0 0 C2.3125 0.1875 2.3125 0.1875 4 1 C3 3 3 3 0.625 4.125 C-2 5 -2 5 -5 5 C-2.75 2.4375 -2.75 2.4375 0 0 Z " fill="#609DB8" transform="translate(171,259)"/>
<path d="M0 0 C0.99 0.33 1.98 0.66 3 1 C-0.465 3.97 -0.465 3.97 -4 7 C-3.6875 4.625 -3.6875 4.625 -3 2 C-2.01 1.34 -1.02 0.68 0 0 Z " fill="#73AFB5" transform="translate(279,232)"/>
<path d="M0 0 C1.8125 0.1875 1.8125 0.1875 4 1 C5.75 3.5625 5.75 3.5625 7 6 C6.01 6.495 6.01 6.495 5 7 C5 6.34 5 5.68 5 5 C4.34 5 3.68 5 3 5 C3 4.34 3 3.68 3 3 C2.34 3 1.68 3 1 3 C0.67 2.01 0.34 1.02 0 0 Z " fill="#65737D" transform="translate(237,210)"/>
<path d="M0 0 C0.93423645 3.01031744 1.04449911 3.86650268 0 7 C-1.32 6.67 -2.64 6.34 -4 6 C-3.0022242 3.00667261 -2.2477975 2.05233685 0 0 Z " fill="#45A48D" transform="translate(347,190)"/>
<path d="M0 0 C0.33 0 0.66 0 1 0 C1 1.65 1 3.3 1 5 C-1.31 5 -3.62 5 -6 5 C-6 4.34 -6 3.68 -6 3 C-5.195625 2.87625 -4.39125 2.7525 -3.5625 2.625 C-2.716875 2.41875 -1.87125 2.2125 -1 2 C-0.67 1.34 -0.34 0.68 0 0 Z " fill="#212C39" transform="translate(137,353)"/>
<path d="M0 0 C0.66 1.32 1.32 2.64 2 4 C-1.75 6 -1.75 6 -4 6 C-2.84826645 3.53199953 -1.95216435 1.95216435 0 0 Z " fill="#6F9EBC" transform="translate(147,283)"/>
<path d="M0 0 C1.32 0.66 2.64 1.32 4 2 C3.34 2.66 2.68 3.32 2 4 C1.01 4 0.02 4 -1 4 C-0.67 2.68 -0.34 1.36 0 0 Z M-6 7 C-5.34 7 -4.68 7 -4 7 C-4.33 7.66 -4.66 8.32 -5 9 C-5.33 8.34 -5.66 7.68 -6 7 Z " fill="#3E9CBA" transform="translate(204,228)"/>
<path d="M0 0 C0 1.65 0 3.3 0 5 C-1.98 5 -3.96 5 -6 5 C-3.74193548 0 -3.74193548 0 0 0 Z " fill="#1E2F41" transform="translate(308,217)"/>
<path d="M0 0 C0.66 0 1.32 0 2 0 C1.42655063 2.86724686 1.1385485 3.8614515 -1 6 C-1.99 6 -2.98 6 -4 6 C-4 5.34 -4 4.68 -4 4 C-3.34 4 -2.68 4 -2 4 C-2 3.34 -2 2.68 -2 2 C-1.34 2 -0.68 2 0 2 C0 1.34 0 0.68 0 0 Z " fill="#71B3B9" transform="translate(272,199)"/>
<path d="M0 0 C0.66 0 1.32 0 2 0 C2 1.65 2 3.3 2 5 C0.02 5 -1.96 5 -4 5 C-2.71937515 3.2925002 -1.38232443 1.62626404 0 0 Z " fill="#616A74" transform="translate(328,193)"/>
<path d="M0 0 C0.99 0.33 1.98 0.66 3 1 C-0.465 3.97 -0.465 3.97 -4 7 C-3.67 5.35 -3.34 3.7 -3 2 C-2.01 2 -1.02 2 0 2 C0 1.34 0 0.68 0 0 Z " fill="#56616A" transform="translate(275,186)"/>
<path d="M0 0 C0.99 0 1.98 0 3 0 C2.67 0.99 2.34 1.98 2 3 C1.34 3 0.68 3 0 3 C0.33 4.32 0.66 5.64 1 7 C0.01 7 -0.98 7 -2 7 C-1.34 4.69 -0.68 2.38 0 0 Z " fill="#26394B" transform="translate(237,327)"/>
<path d="M0 0 C1.32 0.66 2.64 1.32 4 2 C2.35 3.32 0.7 4.64 -1 6 C-1.33 5.01 -1.66 4.02 -2 3 C-1.34 3 -0.68 3 0 3 C0 2.01 0 1.02 0 0 Z " fill="#67A9BA" transform="translate(215,252)"/>
<path d="M0 0 C1.32 0.33 2.64 0.66 4 1 C4.33 2.32 4.66 3.64 5 5 C2.525 4.01 2.525 4.01 0 3 C0 2.01 0 1.02 0 0 Z " fill="#5C9FAA" transform="translate(225,209)"/>
<path d="M0 0 C-0.33 0.99 -0.66 1.98 -1 3 C-3.31 2.67 -5.62 2.34 -8 2 C-4.77208445 -0.1519437 -3.71599191 -0.20086443 0 0 Z " fill="#6EB3A1" transform="translate(344,134)"/>
</svg>
