<?xml version="1.0" encoding="UTF-8"?>
<svg version="1.1" xmlns="http://www.w3.org/2000/svg" width="512" height="512">
<path d="M0 0 C79.86 0 159.72 0 242 0 C242 23.43 242 46.86 242 71 C256.85 71 271.7 71 287 71 C287 94.1 287 117.2 287 141 C301.85 141 316.7 141 332 141 C332 164.43 332 187.86 332 212 C192.74 212 53.48 212 -90 212 C-90 188.57 -90 165.14 -90 141 C-75.15 141 -60.3 141 -45 141 C-45 117.9 -45 94.8 -45 71 C-30.15 71 -15.3 71 0 71 C0 47.57 0 24.14 0 0 Z " fill="#FB6666" transform="translate(135,300)"/>
<path d="M0 0 C0.66 0 1.32 0 2 0 C5.33290906 6.64223509 8.66340796 13.28567435 11.99115467 19.93049717 C13.53784714 23.01875061 15.08524893 26.10664351 16.63452148 29.19360352 C24.22929306 44.32782805 31.71014968 59.50693228 38.94979858 74.81466675 C39.86882827 76.72704859 40.83098687 78.61858165 41.80004883 80.50610352 C43 83 43 83 43 85 C43.73287231 85.04354614 44.46574463 85.08709229 45.2208252 85.13195801 C54.80024469 85.77751716 64.22518006 87.07175552 73.71875 88.46875 C75.3920811 88.71188832 77.06546264 88.95467968 78.7388916 89.19714355 C82.21856997 89.70220173 85.69782479 90.21004826 89.17675781 90.72021484 C93.62906848 91.37308804 98.08208892 92.02095475 102.53539276 92.66701508 C106.80510031 93.28667721 111.0744335 93.90890043 115.34375 94.53125 C116.15226913 94.64887192 116.96078827 94.76649384 117.79380798 94.88768005 C120.08345194 95.22122799 122.37281945 95.55660992 124.66210938 95.89257812 C125.96192749 96.08275513 127.26174561 96.27293213 128.60095215 96.46887207 C131.42139089 96.90958778 134.20751765 97.41071158 137 98 C135.45615972 101.68994791 133.21186057 104.0239451 130.375 106.8125 C129.14910156 108.02873047 129.14910156 108.02873047 127.8984375 109.26953125 C125.73012227 111.3121894 123.54467645 113.26659597 121.28759766 115.20581055 C117.18417411 118.78800261 113.32516495 122.56223434 109.5 126.4375 C108.82001953 127.12126709 108.14003906 127.80503418 107.43945312 128.50952148 C105.29049074 130.67057055 103.14482721 132.83484726 101 135 C98.16966163 137.85716017 95.33587327 140.71083454 92.5 143.5625 C91.54963867 144.52530884 91.54963867 144.52530884 90.58007812 145.50756836 C86.9114582 149.19591722 83.14476918 152.68948173 79.16992188 156.04663086 C78.45384766 156.69124268 77.73777344 157.33585449 77 158 C76.39713386 158.48405524 75.79426771 158.96811049 75.1731329 159.46683407 C71.42942231 162.63271097 71.42942231 162.63271097 69.6094532 167.02087593 C69.73895078 169.34453036 70.10426272 171.49983633 70.58227539 173.77758789 C70.72755676 174.62728653 70.87283813 175.47698517 71.02252197 176.35243225 C71.51037612 179.15060182 72.05362661 181.93491374 72.59765625 184.72265625 C72.94758741 186.67061224 73.29384266 188.61923185 73.63658142 190.56846619 C74.54726959 195.69391083 75.5045572 200.80953133 76.47277832 205.92437744 C77.63975923 212.13430534 78.75356606 218.35393866 79.87356472 224.57247829 C80.74599824 229.41202257 81.62675321 234.24952738 82.53346252 239.08277893 C82.69882004 239.97361176 82.86417755 240.86444458 83.0345459 241.78227234 C83.34215443 243.43787045 83.65377186 245.09273124 83.97032166 246.74664307 C84.73576618 250.89354073 85.16031794 254.76032052 85 259 C74.25592012 253.65210607 63.54504573 248.24414462 52.875 242.75 C52.16509918 242.38482269 51.45519836 242.01964539 50.7237854 241.6434021 C41.65193593 236.97289394 32.63028959 232.22700599 23.6875 227.3125 C22.36951416 226.59151123 22.36951416 226.59151123 21.02490234 225.85595703 C14.68678344 222.3870468 14.68678344 222.3870468 12.02197266 220.88525391 C10.35752212 219.94802093 8.67935914 219.03524947 7 218.125 C6.154375 217.65320313 5.30875 217.18140625 4.4375 216.6953125 C-0.62226185 215.251983 -5.71908065 218.75182676 -10.15625 221.0546875 C-10.73138336 221.35203293 -11.30651672 221.64937836 -11.89907837 221.95573425 C-13.76849528 222.92419959 -15.63433831 223.89932279 -17.5 224.875 C-18.81097227 225.5566802 -20.12200816 226.23823805 -21.43310547 226.91967773 C-29.91394938 231.33786889 -38.32758276 235.86933769 -46.70385742 240.48291016 C-54.35070549 244.6810404 -62.07031854 248.73138081 -69.8125 252.75 C-70.41765442 253.06494415 -71.02280884 253.37988831 -71.64630127 253.70437622 C-73.3527877 254.59179699 -75.06111602 255.47567316 -76.76953125 256.359375 C-77.75542236 256.86952148 -78.74131348 257.37966797 -79.75708008 257.90527344 C-82 259 -82 259 -83 259 C-82.55527909 249.43746318 -80.80650939 240.29301224 -78.90417862 230.94252205 C-77.81238167 225.50859287 -76.79744522 220.05961825 -75.76819038 214.61356449 C-74.86397729 209.8527325 -73.93333776 205.10001613 -72.94580078 200.35571289 C-71.98448743 195.72971194 -71.0975077 191.09468971 -70.25820541 186.44506645 C-69.92792804 184.68942976 -69.57153682 182.93848029 -69.18768692 181.19377327 C-66.9465292 171.95805621 -66.9465292 171.95805621 -69.08290863 163.04508591 C-72.45816098 158.67131503 -76.65020551 155.35311469 -81 152 C-82.45636357 150.72704766 -83.9060961 149.44638927 -85.34375 148.15234375 C-85.95992187 147.62753418 -86.57609375 147.10272461 -87.2109375 146.56201172 C-90.46356354 143.72217801 -93.46814531 140.63406489 -96.5 137.5625 C-97.17998047 136.87873291 -97.85996094 136.19496582 -98.56054688 135.49047852 C-101.43225143 132.60262227 -104.29788438 129.70876925 -107.1640625 126.81542969 C-109.27392787 124.68734275 -111.38689645 122.56237083 -113.5 120.4375 C-114.45036133 119.47469116 -114.45036133 119.47469116 -115.41992188 118.49243164 C-119.20256413 114.68944726 -123.10072928 111.08621373 -127.171875 107.59326172 C-129.93719883 105.18320519 -132.50051241 102.68694916 -135 100 C-135 99.34 -135 98.68 -135 98 C-124.66424144 96.44722113 -114.32774106 94.89948551 -103.99029255 93.35799503 C-99.18904288 92.64188874 -94.38805507 91.92411725 -89.58764648 91.20239258 C-84.94574528 90.50456406 -80.30318197 89.81130255 -75.66014671 89.12106133 C-73.89830943 88.85835165 -72.1367071 88.5940607 -70.37536049 88.32808113 C-60.5889482 86.85138391 -50.8895353 85.55910729 -41 85 C-40.69569565 84.06574692 -40.3913913 83.13149384 -40.0778656 82.16893005 C-39.04174161 79.12272053 -37.80626666 76.39946098 -36.34765625 73.53515625 C-35.82445801 72.50036133 -35.30125977 71.46556641 -34.76220703 70.39941406 C-34.20130371 69.29823242 -33.64040039 68.19705078 -33.0625 67.0625 C-31.87205555 64.70525579 -30.68328144 62.34716736 -29.49609375 59.98828125 C-29.19751465 59.39506073 -28.89893555 58.80184021 -28.59130859 58.19064331 C-25.85838248 52.74656254 -23.23012607 47.25606508 -20.625 41.75 C-13.97687368 27.72119911 -6.97913442 13.86615843 0 0 Z " fill="#FFB64B" transform="translate(255,0)"/>
<path d="M0 0 C139.26 0 278.52 0 422 0 C422 23.43 422 46.86 422 71 C282.74 71 143.48 71 0 71 C0 47.57 0 24.14 0 0 Z " fill="#0C5767" transform="translate(45,441)"/>
<path d="M0 0 C79.86 0 159.72 0 242 0 C242 23.43 242 46.86 242 71 C162.14 71 82.28 71 0 71 C0 47.57 0 24.14 0 0 Z " fill="#FFDA2C" transform="translate(135,300)"/>
<path d="M0 0 C0.33 0 0.66 0 1 0 C1 70.95 1 141.9 1 215 C-23.86662946 228.56361607 -23.86662946 228.56361607 -34.65350342 234.05895996 C-45.5209123 239.59737632 -56.31234609 245.24708386 -66.96289062 251.1953125 C-72.19653474 254.09962824 -77.4971323 256.6477578 -83 259 C-82.55527909 249.43746318 -80.80650939 240.29301224 -78.90417862 230.94252205 C-77.81238167 225.50859287 -76.79744522 220.05961825 -75.76819038 214.61356449 C-74.86397729 209.8527325 -73.93333776 205.10001613 -72.94580078 200.35571289 C-71.98448743 195.72971194 -71.0975077 191.09468971 -70.25820541 186.44506645 C-69.92792804 184.68942976 -69.57153682 182.93848029 -69.18768692 181.19377327 C-66.9465292 171.95805621 -66.9465292 171.95805621 -69.08290863 163.04508591 C-72.45816098 158.67131503 -76.65020551 155.35311469 -81 152 C-82.45636357 150.72704766 -83.9060961 149.44638927 -85.34375 148.15234375 C-85.95992187 147.62753418 -86.57609375 147.10272461 -87.2109375 146.56201172 C-90.46356354 143.72217801 -93.46814531 140.63406489 -96.5 137.5625 C-97.17998047 136.87873291 -97.85996094 136.19496582 -98.56054688 135.49047852 C-101.43225143 132.60262227 -104.29788438 129.70876925 -107.1640625 126.81542969 C-109.27392787 124.68734275 -111.38689645 122.56237083 -113.5 120.4375 C-114.45036133 119.47469116 -114.45036133 119.47469116 -115.41992188 118.49243164 C-119.20256413 114.68944726 -123.10072928 111.08621373 -127.171875 107.59326172 C-129.93719883 105.18320519 -132.50051241 102.68694916 -135 100 C-135 99.34 -135 98.68 -135 98 C-124.66424144 96.44722113 -114.32774106 94.89948551 -103.99029255 93.35799503 C-99.18904288 92.64188874 -94.38805507 91.92411725 -89.58764648 91.20239258 C-84.94574528 90.50456406 -80.30318197 89.81130255 -75.66014671 89.12106133 C-73.89830943 88.85835165 -72.1367071 88.5940607 -70.37536049 88.32808113 C-60.5889482 86.85138391 -50.8895353 85.55910729 -41 85 C-40.69569565 84.06574692 -40.3913913 83.13149384 -40.0778656 82.16893005 C-39.04174161 79.12272053 -37.80626666 76.39946098 -36.34765625 73.53515625 C-35.82445801 72.50036133 -35.30125977 71.46556641 -34.76220703 70.39941406 C-34.20130371 69.29823242 -33.64040039 68.19705078 -33.0625 67.0625 C-31.87205555 64.70525579 -30.68328144 62.34716736 -29.49609375 59.98828125 C-29.19751465 59.39506073 -28.89893555 58.80184021 -28.59130859 58.19064331 C-25.85838248 52.74656254 -23.23012607 47.25606508 -20.625 41.75 C-13.97687368 27.72119911 -6.97913442 13.86615843 0 0 Z " fill="#FFDA2C" transform="translate(255,0)"/>
<path d="M0 0 C40.72643864 -0.0742675 81.44925893 0.18686068 122.17462909 0.44538212 C133.71763242 0.51858828 145.26064969 0.58952916 156.80366611 0.66063499 C174.86912221 0.77197614 192.93455875 0.88621474 211 1 C211 24.1 211 47.2 211 71 C141.37 71 71.74 71 0 71 C0 47.57 0 24.14 0 0 Z " fill="#007580" transform="translate(45,441)"/>
<path d="M0 0 C54.78 0 109.56 0 166 0 C166 23.1 166 46.2 166 70 C111.22 70 56.44 70 0 70 C0 46.9 0 23.8 0 0 Z " fill="#FF9962" transform="translate(90,371)"/>
<path d="M0 0 C39.93 0 79.86 0 121 0 C121 23.43 121 46.86 121 71 C81.07 71 41.14 71 0 71 C0 47.57 0 24.14 0 0 Z " fill="#FFB54B" transform="translate(256,300)"/>
<path d="M0 0 C3.35999018 1.45868754 5.55203106 3.30868948 8.12597656 5.89892578 C8.92650452 6.6996048 9.72703247 7.50028381 10.55181885 8.32522583 C11.40612488 9.18985443 12.26043091 10.05448303 13.140625 10.9453125 C14.02280701 11.8303244 14.90498901 12.7153363 15.81390381 13.62716675 C18.15194543 15.97450131 20.48555874 18.32606785 22.81713867 20.67980957 C25.19996526 23.08313927 27.58850348 25.48077767 29.9765625 27.87890625 C34.65631862 32.58071467 39.33031867 37.28818664 44 42 C42.3413812 45.52344644 40.43342692 47.79901878 37.6484375 50.546875 C36.79765625 51.39121094 35.946875 52.23554688 35.0703125 53.10546875 C34.18085938 53.97816406 33.29140625 54.85085938 32.375 55.75 C31.4778125 56.63816406 30.580625 57.52632813 29.65625 58.44140625 C27.44192996 60.63216969 25.22307565 62.81812763 23 65 C19.64000982 63.54131246 17.44796894 61.69131052 14.87402344 59.10107422 C14.07349548 58.3003952 13.27296753 57.49971619 12.44818115 56.67477417 C11.59387512 55.81014557 10.73956909 54.94551697 9.859375 54.0546875 C8.97719299 53.1696756 8.09501099 52.2846637 7.18609619 51.37283325 C4.84805457 49.02549869 2.51444126 46.67393215 0.18286133 44.32019043 C-2.19996526 41.91686073 -4.58850348 39.51922233 -6.9765625 37.12109375 C-11.65631862 32.41928533 -16.33031867 27.71181336 -21 23 C-19.3413812 19.47655356 -17.43342692 17.20098122 -14.6484375 14.453125 C-13.79765625 13.60878906 -12.946875 12.76445312 -12.0703125 11.89453125 C-11.18085938 11.02183594 -10.29140625 10.14914063 -9.375 9.25 C-8.4778125 8.36183594 -7.580625 7.47367188 -6.65625 6.55859375 C-4.44192996 4.36783031 -2.22307565 2.18187237 0 0 Z " fill="#FFB64B" transform="translate(434,202)"/>
<path d="M0 0 C3.52344644 1.6586188 5.79901878 3.56657308 8.546875 6.3515625 C9.81337891 7.62773437 9.81337891 7.62773437 11.10546875 8.9296875 C12.41451172 10.26386719 12.41451172 10.26386719 13.75 11.625 C14.63816406 12.5221875 15.52632812 13.419375 16.44140625 14.34375 C18.63216969 16.55807004 20.81812763 18.77692435 23 21 C21.54131246 24.35999018 19.69131052 26.55203106 17.10107422 29.12597656 C16.3003952 29.92650452 15.49971619 30.72703247 14.67477417 31.55181885 C13.81014557 32.40612488 12.94551697 33.26043091 12.0546875 34.140625 C11.1696756 35.02280701 10.2846637 35.90498901 9.37283325 36.81390381 C7.02549869 39.15194543 4.67393215 41.48555874 2.32019043 43.81713867 C-0.08313927 46.19996526 -2.48077767 48.58850348 -4.87890625 50.9765625 C-9.58071467 55.65631862 -14.28818664 60.33031867 -19 65 C-22.52344644 63.3413812 -24.79901878 61.43342692 -27.546875 58.6484375 C-28.39121094 57.79765625 -29.23554687 56.946875 -30.10546875 56.0703125 C-30.97816406 55.18085938 -31.85085937 54.29140625 -32.75 53.375 C-34.08224609 52.02921875 -34.08224609 52.02921875 -35.44140625 50.65625 C-37.63216969 48.44192996 -39.81812763 46.22307565 -42 44 C-40.54131246 40.64000982 -38.69131052 38.44796894 -36.10107422 35.87402344 C-34.90005569 34.67323151 -34.90005569 34.67323151 -33.67477417 33.44818115 C-32.81014557 32.59387512 -31.94551697 31.73956909 -31.0546875 30.859375 C-30.1696756 29.97719299 -29.2846637 29.09501099 -28.37283325 28.18609619 C-26.02549869 25.84805457 -23.67393215 23.51444126 -21.32019043 21.18286133 C-18.91686073 18.80003474 -16.51922233 16.41149652 -14.12109375 14.0234375 C-9.41928533 9.34368138 -4.71181336 4.66968133 0 0 Z " fill="#FFDA2C" transform="translate(76,202)"/>
<path d="M0 0 C3.52344644 1.6586188 5.79901878 3.56657308 8.546875 6.3515625 C9.81337891 7.62773437 9.81337891 7.62773437 11.10546875 8.9296875 C12.41451172 10.26386719 12.41451172 10.26386719 13.75 11.625 C14.63816406 12.5221875 15.52632813 13.419375 16.44140625 14.34375 C18.63216969 16.55807004 20.81812763 18.77692435 23 21 C18.37508621 26.55439924 13.44639036 31.68525669 8.3203125 36.77734375 C7.10116653 37.99436729 7.10116653 37.99436729 5.85739136 39.23597717 C3.28228262 41.8055259 0.7037038 44.37155968 -1.875 46.9375 C-3.63043946 48.68791929 -5.38565017 50.438568 -7.140625 52.18945312 C-11.42444082 56.46229302 -15.71110472 60.73225899 -20 65 C-23.76672156 61.81597912 -27.49002591 58.63838094 -30.96484375 55.1328125 C-31.61904297 54.47539063 -32.27324219 53.81796875 -32.94726562 53.140625 C-33.60404297 52.47546875 -34.26082031 51.8103125 -34.9375 51.125 C-35.62134766 50.43664063 -36.30519531 49.74828125 -37.00976562 49.0390625 C-38.67551464 47.36166489 -40.3388622 45.68196209 -42 44 C-40.54131246 40.64000982 -38.69131052 38.44796894 -36.10107422 35.87402344 C-34.90005569 34.67323151 -34.90005569 34.67323151 -33.67477417 33.44818115 C-32.81014557 32.59387512 -31.94551697 31.73956909 -31.0546875 30.859375 C-30.1696756 29.97719299 -29.2846637 29.09501099 -28.37283325 28.18609619 C-26.02549869 25.84805457 -23.67393215 23.51444126 -21.32019043 21.18286133 C-18.91686073 18.80003474 -16.51922233 16.41149652 -14.12109375 14.0234375 C-9.41928533 9.34368138 -4.71181336 4.66968133 0 0 Z " fill="#FFB54C" transform="translate(455,4)"/>
<path d="M0 0 C3.35999018 1.45868754 5.55203106 3.30868948 8.12597656 5.89892578 C8.92650452 6.6996048 9.72703247 7.50028381 10.55181885 8.32522583 C11.40612488 9.18985443 12.26043091 10.05448303 13.140625 10.9453125 C14.02280701 11.8303244 14.90498901 12.7153363 15.81390381 13.62716675 C18.15194543 15.97450131 20.48555874 18.32606785 22.81713867 20.67980957 C25.19996526 23.08313927 27.58850348 25.48077767 29.9765625 27.87890625 C34.65631862 32.58071467 39.33031867 37.28818664 44 42 C42.3413812 45.52344644 40.43342692 47.79901878 37.6484375 50.546875 C36.79765625 51.39121094 35.946875 52.23554687 35.0703125 53.10546875 C34.18085937 53.97816406 33.29140625 54.85085937 32.375 55.75 C31.4778125 56.63816406 30.580625 57.52632812 29.65625 58.44140625 C27.44192996 60.63216969 25.22307565 62.81812763 23 65 C17.44560076 60.37508621 12.31474331 55.44639036 7.22265625 50.3203125 C6.41130722 49.50754852 5.59995819 48.69478455 4.76402283 47.85739136 C2.1944741 45.28228262 -0.37155968 42.7037038 -2.9375 40.125 C-4.68791929 38.36956054 -6.438568 36.61434983 -8.18945312 34.859375 C-12.46229302 30.57555918 -16.73225899 26.28889528 -21 22 C-17.81597912 18.23327844 -14.63838094 14.50997409 -11.1328125 11.03515625 C-10.47539063 10.38095703 -9.81796875 9.72675781 -9.140625 9.05273438 C-8.47546875 8.39595703 -7.8103125 7.73917969 -7.125 7.0625 C-6.43664063 6.37865234 -5.74828125 5.69480469 -5.0390625 4.99023438 C-3.36166489 3.32448536 -1.68196209 1.6611378 0 0 Z " fill="#FFD92C" transform="translate(55,4)"/>
<path d="M0 0 C20.13 0 40.26 0 61 0 C61 10.23 61 20.46 61 31 C40.87 31 20.74 31 0 31 C0 20.77 0 10.54 0 0 Z " fill="#FFB64B" transform="translate(451,120)"/>
<path d="M0 0 C20.13 0 40.26 0 61 0 C61 10.23 61 20.46 61 31 C40.87 31 20.74 31 0 31 C0 20.77 0 10.54 0 0 Z " fill="#FFD92D" transform="translate(0,120)"/>
</svg>
