<?xml version="1.0" encoding="UTF-8"?>
<svg version="1.1" xmlns="http://www.w3.org/2000/svg" width="512" height="512">
<path d="M0 0 C1.88270594 -0.00321985 3.76541163 -0.00658445 5.64811707 -0.01008606 C9.58255594 -0.01605022 13.51697294 -0.01792874 17.45141602 -0.01733398 C22.46078911 -0.01723247 27.47002014 -0.03088627 32.47935963 -0.04810619 C36.36501189 -0.0592944 40.25063052 -0.06125112 44.13629723 -0.06072426 C45.98163022 -0.06189405 47.82696438 -0.06625869 49.67228127 -0.07405663 C69.82858765 -0.15127049 87.39208558 1.29438507 102.6015625 16.04296875 C113.0182518 27.154104 115.89809797 40.26939336 115.7421875 55.0859375 C115.73682983 56.05736694 115.73147217 57.02879639 115.72595215 58.02966309 C115.7120539 60.40919016 115.69258409 62.78853246 115.66796875 65.16796875 C116.38119514 65.16428158 117.09442152 65.16059441 117.82926083 65.1567955 C135.20708752 65.0683455 152.58485682 65.0022111 169.96285915 64.96072006 C178.36684201 64.94012047 186.77067433 64.91204988 195.17456055 64.86621094 C202.50189428 64.8262632 209.82911896 64.80051702 217.15655857 64.79161477 C221.03416612 64.78641339 224.91146175 64.77424317 228.78896904 64.74504852 C232.44402721 64.71775358 236.09864711 64.70955184 239.75379753 64.71553802 C241.72379035 64.71392522 243.69373622 64.69247643 245.66360474 64.67028809 C252.91787972 64.70379811 258.34987267 65.52158005 264.66796875 69.16796875 C265.46589844 69.61398438 266.26382812 70.06 267.0859375 70.51953125 C273.38675756 75.05389624 278.12120796 81.45238772 279.66796875 89.16796875 C279.75999552 90.93655123 279.7988052 92.70822656 279.80218983 94.47919846 C279.80664767 95.56208169 279.81110551 96.64496492 279.81569844 97.76066279 C279.8154219 99.54429127 279.8154219 99.54429127 279.81513977 101.36395264 C279.81881646 102.62762704 279.82249315 103.89130145 279.82628125 105.19326901 C279.83629187 108.70327618 279.84001652 112.21326625 279.84267056 115.72328568 C279.84657632 119.50800553 279.85615437 123.29271187 279.86488342 127.0774231 C279.88463868 136.21787896 279.8947122 145.35833592 279.90361121 154.49880779 C279.90799507 158.80333648 279.91336157 163.10786394 279.91860008 167.41239166 C279.93561033 181.7212384 279.95010504 196.03008437 279.95734882 210.33893967 C279.95925871 214.05148062 279.96117904 217.76402157 279.96313477 221.4765625 C279.96361851 222.39929259 279.96410225 223.32202268 279.96460065 224.27271429 C279.97290302 239.22416945 279.99824433 254.17554466 280.03071544 269.1269649 C280.06378102 284.47722022 280.08179707 299.8274349 280.08499306 315.17772603 C280.08715847 323.79641889 280.09591175 332.4149951 280.12145424 341.03365326 C280.14315427 348.37268962 280.15121506 355.711581 280.14148746 363.0506458 C280.13694089 366.79447067 280.13884941 370.53799635 280.1582489 374.28178024 C280.17911011 378.3427477 280.16890154 382.40305084 280.15571594 386.46405029 C280.17216981 388.23429443 280.17216981 388.23429443 280.18895608 390.04030108 C280.1268893 397.94839436 278.84619638 402.9821911 273.9921875 409.375 C265.64434584 417.56345566 256.53905827 418.31427474 245.33959961 418.32910156 C243.97726952 418.33654892 243.97726952 418.33654892 242.5874176 418.34414673 C239.60254137 418.35867512 236.61771818 418.3655526 233.6328125 418.37109375 C231.5496877 418.37685025 229.4665629 418.38260792 227.38343811 418.3883667 C223.02507278 418.39884828 218.66672576 418.4047104 214.30834961 418.40820312 C208.72756222 418.41370013 203.14701729 418.43776592 197.56630611 418.46617508 C193.26745392 418.48480237 188.96866034 418.49000698 184.66977119 418.491539 C182.61210356 418.49456281 180.55443689 418.50258214 178.49680901 418.51572418 C175.6199986 418.5327961 172.743784 418.53090225 169.86694336 418.52441406 C169.02054291 418.53362885 168.17414246 418.54284363 167.30209351 418.55233765 C162.42041219 418.51788304 158.76896911 418.11933061 154.66796875 415.16796875 C154.33796875 413.51796875 154.00796875 411.86796875 153.66796875 410.16796875 C144.75796875 410.16796875 135.84796875 410.16796875 126.66796875 410.16796875 C126.33796875 411.48796875 126.00796875 412.80796875 125.66796875 414.16796875 C123.69783265 416.58586305 122.71289184 417.15299439 119.66796875 418.16796875 C117.85383366 418.26133912 116.03641404 418.29530646 114.2198782 418.2966032 C113.08100169 418.29982765 111.94212518 418.3030521 110.76873726 418.30637425 C108.8835667 418.30405135 108.8835667 418.30405135 106.96031189 418.30168152 C105.61603928 418.3035489 104.27176722 418.30584931 102.92749602 418.30854684 C99.22525938 418.31468069 95.52304528 418.31452938 91.82080472 418.31335247 C87.83085029 418.31314885 83.84090318 418.31866361 79.85095215 418.32341003 C72.02938468 418.33172675 64.20782475 418.33446537 56.38625323 418.33502241 C50.0272364 418.33549726 43.66822205 418.33755047 37.30920601 418.34072304 C19.28221403 418.34953381 1.25522801 418.35414197 -16.77176613 418.35339256 C-17.74419024 418.35335261 -18.71661435 418.35331265 -19.71850586 418.35327148 C-21.17892299 418.35321016 -21.17892299 418.35321016 -22.6688435 418.3531476 C-38.43699869 418.35274142 -54.20512996 418.36230289 -69.97327823 418.37640985 C-86.16198085 418.39077874 -102.35067181 418.39767969 -118.53938097 418.39681607 C-127.62871747 418.39648419 -136.71802893 418.39922714 -145.8073597 418.40999413 C-153.54927718 418.41910605 -161.29115827 418.42126883 -169.0330788 418.4144847 C-172.98160852 418.41122248 -176.93006847 418.41115196 -180.87859154 418.41983795 C-184.49784817 418.42771748 -188.11697988 418.42625673 -191.73623352 418.41755382 C-193.65635807 418.4152998 -195.57648654 418.42283626 -197.49659592 418.43079346 C-216.00262543 418.35724477 -216.00262543 418.35724477 -223.33203125 412.16796875 C-228.92169727 406.53103282 -232.57691128 401.95591288 -232.58930016 393.73927784 C-232.59574905 392.65563696 -232.60219794 391.57199607 -232.60884225 390.45551759 C-232.60574505 389.27070902 -232.60264785 388.08590046 -232.59945679 386.8651886 C-232.6039879 385.6020709 -232.60851901 384.3389532 -232.61318743 383.03755921 C-232.62542134 379.53364792 -232.62515651 376.02983208 -232.62279868 372.5259043 C-232.6223906 368.74592786 -232.63342891 364.96598206 -232.64291382 361.1860199 C-232.65952777 353.78048607 -232.66502357 346.37498407 -232.66613857 338.96943317 C-232.66708902 332.94846605 -232.67119915 326.92750943 -232.67753983 320.90654564 C-232.69515461 303.83210387 -232.70437852 286.75768725 -232.70287888 269.68323634 C-232.70279897 268.76272196 -232.70271905 267.84220758 -232.70263672 266.89379883 C-232.70255496 265.97215886 -232.7024732 265.05051889 -232.70238896 264.10095044 C-232.70157636 249.17030447 -232.72070671 234.23975946 -232.74891345 219.30914269 C-232.77765425 203.97466063 -232.79145303 188.64022779 -232.7897259 173.30571812 C-232.78906233 164.69816176 -232.7945399 156.09071118 -232.816082 147.48317909 C-232.83430971 140.15299953 -232.83862825 132.82297369 -232.82506315 125.49278126 C-232.818541 121.75478317 -232.81838864 118.01707985 -232.83576965 114.27910995 C-232.85444427 110.22107354 -232.84192606 106.16371712 -232.82650757 102.10566711 C-232.83679469 100.93201216 -232.84708182 99.7583572 -232.85768068 98.54913694 C-232.7774728 88.98550856 -230.69069913 80.82535557 -224.03515625 73.69921875 C-216.76191882 67.15997776 -209.19886707 64.85605114 -199.57421875 64.8671875 C-198.74874542 64.86290237 -197.92327209 64.85861725 -197.07278442 64.85420227 C-195.33645543 64.8484837 -193.60010248 64.84794038 -191.86376953 64.85229492 C-189.20824605 64.8554673 -186.5538245 64.83192301 -183.8984375 64.80664062 C-182.20703265 64.8043686 -180.51562482 64.80366368 -178.82421875 64.8046875 C-178.0324826 64.79547775 -177.24074646 64.78626801 -176.42501831 64.77677917 C-173.16318404 64.80419346 -170.76119706 64.9358117 -167.86376953 66.50317383 C-166.33203125 68.16796875 -166.33203125 68.16796875 -165.33203125 71.16796875 C-158.73203125 71.49796875 -152.13203125 71.82796875 -145.33203125 72.16796875 C-144.67203125 70.51796875 -144.01203125 68.86796875 -143.33203125 67.16796875 C-139.62983377 64.6998371 -137.80024374 64.9254968 -133.38208008 64.94091797 C-132.67938492 64.94062592 -131.97668976 64.94033386 -131.25270081 64.94003296 C-128.93136218 64.94142567 -126.61034502 64.95698388 -124.2890625 64.97265625 C-122.67909419 64.97638659 -121.06912361 64.97923347 -119.45915222 64.98123169 C-115.22256193 64.98886648 -110.98610885 65.00851362 -106.74957275 65.03063965 C-102.42616634 65.0511014 -98.10273775 65.06023411 -93.77929688 65.0703125 C-85.29681204 65.09175969 -76.81443872 65.12589374 -68.33203125 65.16796875 C-68.33824997 64.56683762 -68.34446869 63.96570648 -68.35087585 63.34635925 C-68.37573311 60.59290064 -68.39106363 57.83946575 -68.40625 55.0859375 C-68.41619995 54.14036987 -68.4261499 53.19480225 -68.43640137 52.22058105 C-68.50028867 36.76321515 -63.679207 24.84486979 -53.00390625 13.6484375 C-37.85550024 -0.41477568 -19.33637794 0.00780553 0 0 Z M-20.33203125 49.16796875 C-20.33203125 54.44796875 -20.33203125 59.72796875 -20.33203125 65.16796875 C8.70796875 65.16796875 37.74796875 65.16796875 67.66796875 65.16796875 C67.66796875 59.88796875 67.66796875 54.60796875 67.66796875 49.16796875 C65.88188818 47.38188818 63.4753334 48.04170914 61.09698486 48.03244019 C60.29798767 48.03446442 59.49899048 48.03648865 58.67578125 48.03857422 C57.83843445 48.0368219 57.00108765 48.03506958 56.1383667 48.03326416 C53.35654661 48.02884474 50.57478954 48.03178395 47.79296875 48.03515625 C45.86865222 48.03448324 43.94433577 48.03351323 42.02001953 48.03225708 C37.9814371 48.03077998 33.94287675 48.03293504 29.90429688 48.03759766 C24.71528364 48.04329495 19.52632212 48.04001601 14.33731079 48.03402519 C10.36205655 48.03041989 6.38681466 48.03155802 2.41156006 48.03415298 C0.49770095 48.03482234 -1.41615927 48.03399353 -3.33001709 48.03167343 C-5.99998975 48.02914742 -8.66987745 48.03298677 -11.33984375 48.03857422 C-12.13884094 48.03654999 -12.93783813 48.03452576 -13.76104736 48.03244019 C-17.34267329 47.71179866 -17.34267329 47.71179866 -20.33203125 49.16796875 Z " fill="#AB7A63" transform="translate(232.33203125,46.83203125)"/>
<path d="M0 0 C3.17230819 3.14230692 6.13590674 6.32651353 9 9.75 C23.78813052 26.20026751 45.32492256 34.55258247 67 36 C77.66095757 36.49698915 88.33056654 36.76121901 99 37 C99.0093457 37.87736816 99.01869141 38.75473633 99.02832031 39.65869141 C99.07251603 42.93567422 99.13420652 46.21138143 99.20751953 49.48779297 C99.23562392 50.90173448 99.25689067 52.31583002 99.27099609 53.72998047 C99.29257456 55.77130384 99.33929086 57.81079599 99.390625 59.8515625 C99.4220459 61.68968506 99.4220459 61.68968506 99.45410156 63.56494141 C100.28348417 68.78382033 102.71987279 71.87226889 106.625 75.3125 C111.93189349 79.08318748 117.67229947 78.26022457 123.95605469 78.29516602 C125.39137672 78.30663696 126.82665774 78.32701097 128.26171875 78.35668945 C139.73619804 78.62478083 139.73619804 78.62478083 150 74 C156.14321789 66.28159804 155.22083395 61.90832464 156 51 C212.1 51 268.2 51 326 51 C326.33 55.95 326.66 60.9 327 66 C329.57011783 71.35441214 331.99103848 74.70463058 337 78 C341.92329603 79.64109868 347.01997053 79.2642478 352.17700195 79.29516602 C354.16315908 79.31229014 356.14902687 79.35617576 358.13476562 79.40039062 C365.56430262 79.44944293 370.76645566 79.1959451 377 75 C381.13722688 69.80194571 382.11680669 65.89303839 382.31640625 59.36328125 C382.35830078 58.06455078 382.40019531 56.76582031 382.44335938 55.42773438 C382.48316987 54.05599239 382.52288216 52.68424756 382.5625 51.3125 C382.60570835 49.92902355 382.64932339 48.54555973 382.69335938 47.16210938 C382.79958028 43.77484281 382.90162358 40.38750201 383 37 C384.25937378 36.97812622 384.25937378 36.97812622 385.54418945 36.95581055 C417.56860165 36.33587015 448.8906083 34.4738704 472.71484375 10.23828125 C474.85632157 7.86078967 476.93121692 5.44044757 479 3 C479.99373769 1.99377666 480.99266976 0.99261563 482 0 C484.47256451 18.60915022 486.11316496 37.25210422 487 56 C487.03302184 56.69104372 487.06604368 57.38208743 487.10006618 58.09407187 C488.80613115 95.29215287 486.2117224 124.78628368 459.97674561 153.62606812 C454.73401951 159.16637057 449.22624377 164.38831389 443.625 169.5625 C442.72126648 170.41265686 441.81753296 171.26281372 440.88641357 172.13873291 C434.7736519 177.87118516 428.49921709 183.35461606 422.0390625 188.69140625 C421.22205494 189.38466066 420.40504738 190.07791508 419.56328201 190.7921772 C406.40896746 201.72668343 395.50058109 203.81593061 378.52281761 202.66529751 C375.15157623 203.11256047 374.07887901 204.37690452 372 207 C371.67 207.99 371.34 208.98 371 210 C362.09 210 353.18 210 344 210 C343.34 208.02 342.68 206.04 342 204 C339.13965741 203.04655247 337.73470313 202.92437194 334.80942249 203.08479977 C333.52116746 203.15059196 333.52116746 203.15059196 332.20688707 203.2177133 C330.79021581 203.2981005 330.79021581 203.2981005 329.34492493 203.38011169 C327.25627579 203.48728956 325.16761119 203.59416633 323.07893372 203.70079041 C321.95689356 203.75995573 320.8348534 203.81912106 319.67881203 203.88007927 C302.46830975 204.77901326 285.25787058 205.53646872 268.03056335 206.0080719 C267.32194481 206.02749424 266.61332626 206.04691659 265.88323442 206.06692749 C258.53879579 206.26623878 251.19405508 206.44999348 243.84886612 206.61932668 C240.06965534 206.706949 236.29054214 206.79825806 232.51147461 206.8918457 C231.75958672 206.91040542 231.00769884 206.92896515 230.23302647 206.94808728 C219.72119986 207.21486768 209.23266411 207.66997884 198.73535107 208.27939864 C86.43949388 214.79222696 86.43949388 214.79222696 45.22866064 178.86868638 C20.25678375 156.14647909 -5.4310958 126.72923982 -7.68364525 91.53123283 C-8.12846722 80.90167022 -6.95879868 70.4675387 -5.49316406 59.95227051 C-4.72809335 53.8209105 -4.38135006 47.67601131 -4.02588844 41.5096817 C-3.21385548 27.60405255 -1.83446149 13.80662441 0 0 Z " fill="#AC7A63" transform="translate(15,247)"/>
<path d="M0 0 C1.88270594 -0.00321985 3.76541163 -0.00658445 5.64811707 -0.01008606 C9.58255594 -0.01605022 13.51697294 -0.01792874 17.45141602 -0.01733398 C22.46078911 -0.01723247 27.47002014 -0.03088627 32.47935963 -0.04810619 C36.36501189 -0.0592944 40.25063052 -0.06125112 44.13629723 -0.06072426 C45.98163022 -0.06189405 47.82696438 -0.06625869 49.67228127 -0.07405663 C69.82858765 -0.15127049 87.39208558 1.29438507 102.6015625 16.04296875 C113.0182518 27.154104 115.89809797 40.26939336 115.7421875 55.0859375 C115.73682983 56.05736694 115.73147217 57.02879639 115.72595215 58.02966309 C115.7120539 60.40919016 115.69258409 62.78853246 115.66796875 65.16796875 C116.38119514 65.16428158 117.09442152 65.16059441 117.82926083 65.1567955 C135.20708752 65.0683455 152.58485682 65.0022111 169.96285915 64.96072006 C178.36684201 64.94012047 186.77067433 64.91204988 195.17456055 64.86621094 C202.50189428 64.8262632 209.82911896 64.80051702 217.15655857 64.79161477 C221.03416612 64.78641339 224.91146175 64.77424317 228.78896904 64.74504852 C232.44402721 64.71775358 236.09864711 64.70955184 239.75379753 64.71553802 C241.72379035 64.71392522 243.69373622 64.69247643 245.66360474 64.67028809 C252.91787972 64.70379811 258.34987267 65.52158005 264.66796875 69.16796875 C265.46589844 69.61398438 266.26382812 70.06 267.0859375 70.51953125 C273.38675756 75.05389624 278.12120796 81.45238772 279.66796875 89.16796875 C279.75999552 90.93655123 279.7988052 92.70822656 279.80218983 94.47919846 C279.80664767 95.56208169 279.81110551 96.64496492 279.81569844 97.76066279 C279.8154219 99.54429127 279.8154219 99.54429127 279.81513977 101.36395264 C279.81881646 102.62762704 279.82249315 103.89130145 279.82628125 105.19326901 C279.83629187 108.70327618 279.84001652 112.21326625 279.84267056 115.72328568 C279.84657632 119.50800553 279.85615437 123.29271187 279.86488342 127.0774231 C279.88463868 136.21787896 279.8947122 145.35833592 279.90361121 154.49880779 C279.90799507 158.80333648 279.91336157 163.10786394 279.91860008 167.41239166 C279.93561033 181.7212384 279.95010504 196.03008437 279.95734882 210.33893967 C279.95925871 214.05148062 279.96117904 217.76402157 279.96313477 221.4765625 C279.96361851 222.39929259 279.96410225 223.32202268 279.96460065 224.27271429 C279.97290302 239.22416945 279.99824433 254.17554466 280.03071544 269.1269649 C280.06378102 284.47722022 280.08179707 299.8274349 280.08499306 315.17772603 C280.08715847 323.79641889 280.09591175 332.4149951 280.12145424 341.03365326 C280.14315427 348.37268962 280.15121506 355.711581 280.14148746 363.0506458 C280.13694089 366.79447067 280.13884941 370.53799635 280.1582489 374.28178024 C280.17911011 378.3427477 280.16890154 382.40305084 280.15571594 386.46405029 C280.17216981 388.23429443 280.17216981 388.23429443 280.18895608 390.04030108 C280.1268893 397.94839436 278.84619638 402.9821911 273.9921875 409.375 C265.64434584 417.56345566 256.53905827 418.31427474 245.33959961 418.32910156 C243.97726952 418.33654892 243.97726952 418.33654892 242.5874176 418.34414673 C239.60254137 418.35867512 236.61771818 418.3655526 233.6328125 418.37109375 C231.5496877 418.37685025 229.4665629 418.38260792 227.38343811 418.3883667 C223.02507278 418.39884828 218.66672576 418.4047104 214.30834961 418.40820312 C208.72756222 418.41370013 203.14701729 418.43776592 197.56630611 418.46617508 C193.26745392 418.48480237 188.96866034 418.49000698 184.66977119 418.491539 C182.61210356 418.49456281 180.55443689 418.50258214 178.49680901 418.51572418 C175.6199986 418.5327961 172.743784 418.53090225 169.86694336 418.52441406 C169.02054291 418.53362885 168.17414246 418.54284363 167.30209351 418.55233765 C162.36072498 418.51746178 158.94499677 417.92363147 154.66796875 415.16796875 C153.2236602 412.27935166 153.29108369 410.37149174 153.66796875 407.16796875 C155.4367981 404.46826172 155.4367981 404.46826172 158.66796875 402.16796875 C162.69739363 401.71805557 166.69702393 402.01879352 170.74169922 402.17578125 C185.37607066 402.12217779 193.56267662 397.31206249 204.48828125 388.04296875 C205.3376507 387.34180498 206.18702015 386.64064121 207.06212807 385.91823006 C213.51772994 380.55420171 219.68142324 374.91820748 225.79296875 369.16796875 C226.69513752 368.3346339 227.59730629 367.50129906 228.52681351 366.64271164 C253.9904926 342.97458091 267.57612475 320.47936395 268.99736786 285.82236862 C269.31887811 276.11208704 269.0666322 266.4317584 268.60546875 256.73046875 C268.5730222 256.04112244 268.54057566 255.35177612 268.50714588 254.64154053 C267.63951879 236.74142586 266.01709261 218.93535558 263.66796875 201.16796875 C263.12042435 201.85852859 262.57287994 202.54908844 262.00874329 203.26057434 C261.28954208 204.16434311 260.57034088 205.06811188 259.8293457 205.99926758 C259.1168013 206.89607742 258.4042569 207.79288727 257.67012024 208.71687317 C243.26333379 226.35410531 221.54913194 234.64496862 199.44726562 236.98266602 C193.1786215 237.40061233 186.88488944 237.26845634 180.60546875 237.23046875 C179.15299634 237.22544289 177.70052224 237.22088191 176.24804688 237.21679688 C172.7213186 237.20587917 169.19465473 237.18867461 165.66796875 237.16796875 C165.68891602 238.00457031 165.70986328 238.84117187 165.73144531 239.703125 C165.80008841 242.84159184 165.84999438 245.97967291 165.88769531 249.11865234 C165.9174292 251.13144502 165.96828604 253.14389009 166.01953125 255.15625 C166.09494006 262.65942647 165.86947005 267.85419531 161.66796875 274.16796875 C154.50076952 281.15139364 146.76026243 280.53365055 137.29296875 280.54296875 C135.99101562 280.56746094 134.6890625 280.59195312 133.34765625 280.6171875 C125.12611748 280.64235548 120.14065162 280.26195765 113.9609375 274.60546875 C109.83468738 269.23988555 108.41267686 266.27124448 108.47265625 259.43359375 C108.48232422 257.49033203 108.48232422 257.49033203 108.4921875 255.5078125 C108.50889682 254.14452856 108.52582669 252.78124731 108.54296875 251.41796875 C108.55300535 250.0390689 108.56213002 248.6601621 108.5703125 247.28125 C108.59388782 243.90997993 108.62679605 240.53906239 108.66796875 237.16796875 C107.65176956 237.17463058 106.63557037 237.18129242 105.58857727 237.18815613 C96.00995906 237.24898195 86.43138005 237.29394847 76.8526125 237.32340527 C71.92810832 237.33905843 67.00376012 237.36029043 62.0793457 237.39428711 C57.32664139 237.42689287 52.57408706 237.44482439 47.82127953 237.45260048 C46.00839057 237.45814179 44.19550978 237.46896263 42.38268471 237.48515892 C39.84258943 237.50694945 37.30311322 237.50993501 34.76293945 237.50854492 C34.01415527 237.51933075 33.26537109 237.53011658 32.49389648 237.54122925 C28.0456011 237.51490341 25.20072646 236.92282201 21.66796875 234.16796875 C20.24755054 231.32713234 20.35344603 229.31319597 20.66796875 226.16796875 C22.24419022 224.00341034 22.24419022 224.00341034 24.66796875 222.16796875 C27.87974167 221.67133331 27.87974167 221.67133331 31.76092529 221.67590332 C32.47584271 221.67122433 33.19076012 221.66654534 33.9273417 221.66172457 C36.32399777 221.65078841 38.71960446 221.66828646 41.11621094 221.68554688 C42.834664 221.68336093 44.55311558 221.67936408 46.27156067 221.6736908 C49.97498278 221.66511869 53.67811524 221.66892052 57.38152313 221.68211365 C63.25039632 221.70245994 69.11897808 221.69246582 74.987854 221.67785645 C88.52132682 221.64880867 102.0547146 221.65951412 115.58820343 221.67055511 C127.96099559 221.68025196 140.3336347 221.68135592 152.70640111 221.65067434 C158.52602589 221.63738026 164.3452108 221.64314962 170.16480875 221.66403961 C173.80938663 221.67310493 177.45379979 221.66547962 181.09836388 221.6536274 C182.77193718 221.6515185 184.44553641 221.65608742 186.11906624 221.66833305 C199.95660015 221.7637614 213.48040737 220.15946216 225.91796875 213.54296875 C226.57216797 213.20305908 227.22636719 212.86314941 227.90039062 212.51293945 C245.62592926 202.92169373 255.74638147 187.7305461 261.87109375 168.9296875 C263.29492983 163.99511836 263.80254183 159.5217303 263.8449707 154.37744141 C263.8515419 153.71495895 263.8581131 153.0524765 263.86488342 152.36991882 C263.88449784 150.19062159 263.89625058 148.01139278 263.90625 145.83203125 C263.91032553 145.08410686 263.91440105 144.33618248 263.91860008 143.56559372 C263.93940746 139.60883618 263.9537337 135.6521128 263.96313477 131.6953125 C263.97420529 127.62105439 264.00862733 123.54734147 264.04830647 119.47327614 C264.07451005 116.32816588 264.08282974 113.18318511 264.08641624 110.03797531 C264.09127031 108.53653647 264.10285061 107.03510295 264.12145424 105.53377151 C264.52825944 94.56345876 264.52825944 94.56345876 259.66796875 85.16796875 C252.9130491 79.74157934 245.17772404 80.61665927 236.93330383 80.67590332 C235.30906259 80.6728914 233.68482382 80.66811352 232.06059235 80.66172457 C227.60318334 80.64922147 223.14613468 80.66151205 218.68875062 80.67779946 C213.87960524 80.69097358 209.07050258 80.68100656 204.26135254 80.6736908 C195.9302384 80.66401084 187.59922885 80.66847519 179.26812172 80.68211365 C167.21839699 80.70146995 155.16878998 80.69504113 143.11906221 80.68153983 C123.56333711 80.65995756 104.00763978 80.6532455 84.4519043 80.65869141 C83.28160044 80.65901204 82.11129659 80.65933267 80.90552898 80.65966302 C72.59717543 80.66203654 64.28882209 80.66494133 55.98046875 80.66796875 C46.48461923 80.6714283 36.98876972 80.6746465 27.49291992 80.67724609 C26.32313134 80.6775716 25.15334275 80.67789712 23.94810603 80.67823249 C4.46191439 80.68316999 -15.02423866 80.67251766 -34.51041824 80.65067434 C-46.53445058 80.63795721 -58.55832426 80.639459 -70.58234809 80.65912521 C-78.81470769 80.67170474 -87.04698663 80.67029641 -95.27934607 80.65775168 C-100.0332764 80.65101991 -104.78697163 80.65099828 -109.5408802 80.66833305 C-113.88882751 80.68408662 -118.23636279 80.68164871 -122.58430121 80.66448301 C-124.16087131 80.66155325 -125.7374713 80.66546436 -127.31400379 80.67674118 C-129.45043326 80.69106847 -131.58538441 80.68097987 -133.72176647 80.66460419 C-135.50455746 80.6655783 -135.50455746 80.6655783 -137.32336444 80.66657209 C-140.96538975 80.06300709 -142.11015621 79.06085461 -144.33203125 76.16796875 C-145.39453125 73.23046875 -145.39453125 73.23046875 -145.33203125 70.16796875 C-142.72888737 66.80416782 -141.2334535 65.33050367 -136.99736023 64.56669617 C-135.72939102 64.57779922 -134.46142181 64.58890228 -133.1550293 64.6003418 C-132.10054848 64.5992466 -132.10054848 64.5992466 -131.02476501 64.59812927 C-128.71362681 64.60159784 -126.40453363 64.64041866 -124.09375 64.6796875 C-122.48664959 64.68901837 -120.87953491 64.69613319 -119.27241516 64.7011261 C-115.05195531 64.72017474 -110.83236215 64.76925601 -106.61224365 64.824646 C-102.3021619 64.87588523 -97.99193946 64.89865005 -93.68164062 64.92382812 C-85.23137405 64.97737784 -76.7818106 65.0626635 -68.33203125 65.16796875 C-68.34135933 64.26627205 -68.34135933 64.26627205 -68.35087585 63.34635925 C-68.37573311 60.59290064 -68.39106363 57.83946575 -68.40625 55.0859375 C-68.41619995 54.14036987 -68.4261499 53.19480225 -68.43640137 52.22058105 C-68.50028867 36.76321515 -63.679207 24.84486979 -53.00390625 13.6484375 C-37.85550024 -0.41477568 -19.33637794 0.00780553 0 0 Z M-20.33203125 49.16796875 C-20.33203125 54.44796875 -20.33203125 59.72796875 -20.33203125 65.16796875 C8.70796875 65.16796875 37.74796875 65.16796875 67.66796875 65.16796875 C67.66796875 59.88796875 67.66796875 54.60796875 67.66796875 49.16796875 C65.88188818 47.38188818 63.4753334 48.04170914 61.09698486 48.03244019 C60.29798767 48.03446442 59.49899048 48.03648865 58.67578125 48.03857422 C57.83843445 48.0368219 57.00108765 48.03506958 56.1383667 48.03326416 C53.35654661 48.02884474 50.57478954 48.03178395 47.79296875 48.03515625 C45.86865222 48.03448324 43.94433577 48.03351323 42.02001953 48.03225708 C37.9814371 48.03077998 33.94287675 48.03293504 29.90429688 48.03759766 C24.71528364 48.04329495 19.52632212 48.04001601 14.33731079 48.03402519 C10.36205655 48.03041989 6.38681466 48.03155802 2.41156006 48.03415298 C0.49770095 48.03482234 -1.41615927 48.03399353 -3.33001709 48.03167343 C-5.99998975 48.02914742 -8.66987745 48.03298677 -11.33984375 48.03857422 C-12.13884094 48.03654999 -12.93783813 48.03452576 -13.76104736 48.03244019 C-17.34267329 47.71179866 -17.34267329 47.71179866 -20.33203125 49.16796875 Z " fill="#010100" transform="translate(232.33203125,46.83203125)"/>
<path d="M0 0 C0.82547333 -0.00428513 1.65094666 -0.00857025 2.50143433 -0.01298523 C4.23776332 -0.0187038 5.97411627 -0.01924712 7.71044922 -0.01489258 C10.3659727 -0.0117202 13.02039425 -0.03526449 15.67578125 -0.06054688 C17.3671861 -0.0628189 19.05859393 -0.06352382 20.75 -0.0625 C21.93760422 -0.07631462 21.93760422 -0.07631462 23.14920044 -0.09040833 C26.45811307 -0.06259837 28.80966145 0.05350757 31.71435547 1.71411133 C33.63180128 3.70539933 34.16483471 4.5160808 34.2421875 7.30078125 C31.8607442 13.9915029 31.8607442 13.9915029 29.2421875 15.30078125 C26.71138433 15.39701518 24.20303366 15.43784532 21.671875 15.44140625 C20.11977715 15.45974781 18.56769344 15.47931935 17.015625 15.5 C14.57332739 15.52885374 12.13193169 15.55077828 9.68945312 15.55126953 C-1.90382915 15.27802424 -1.90382915 15.27802424 -12.34326172 19.64746094 C-16.14133705 24.08663356 -17.13542581 28.36726111 -17.16186523 34.09375 C-17.16872849 34.74513443 -17.17559174 35.39651886 -17.18266296 36.06764221 C-17.20086754 38.20808126 -17.19709879 40.3477818 -17.19140625 42.48828125 C-17.19597507 43.99316644 -17.20128271 45.49804955 -17.20729065 47.00292969 C-17.21621234 50.15682442 -17.21381418 53.31046592 -17.20385742 56.46435547 C-17.19244018 60.46736203 -17.21247101 64.46947685 -17.24177456 68.47236633 C-17.26031413 71.58348989 -17.25980806 74.69440745 -17.25413704 77.80557251 C-17.2539856 79.27887207 -17.25988037 80.75218722 -17.27242851 82.22543335 C-17.34591262 92.27714183 -16.02355119 100.78163337 -12.7578125 110.30078125 C-12.29096291 111.70650391 -12.29096291 111.70650391 -11.81468201 113.140625 C-9.42504568 120.0934775 -5.25312569 125.55626338 -0.7578125 131.30078125 C0.3559375 132.84765625 0.3559375 132.84765625 1.4921875 134.42578125 C15.04948516 148.59931971 33.25690108 156.17729881 52.78323364 156.67259216 C55.52214424 156.68663845 58.25798419 156.68532503 60.99658203 156.66967773 C62.5192339 156.67215287 64.04188405 156.67599844 65.56452942 156.68109131 C68.81158309 156.68935314 72.05846092 156.68868799 75.30551529 156.6809063 C80.4409711 156.66922413 85.57620518 156.68156425 90.7116394 156.69752502 C103.45156578 156.73353528 116.19148479 156.73994162 128.93145752 156.73742676 C138.86608682 156.73571609 148.80053246 156.74278259 158.73511016 156.77740532 C163.84053665 156.79419728 168.94551414 156.79240941 174.05093884 156.7765826 C177.2185903 156.77079575 180.38602736 156.78150524 183.55364037 156.79682922 C185.02262328 156.80056152 186.49164194 156.79742982 187.96059227 156.78695869 C189.96401601 156.77362666 191.96756494 156.78710655 193.97097778 156.80198669 C195.65270679 156.80167277 195.65270679 156.80167277 197.36841011 156.8013525 C200.90952085 157.41675595 202.08996668 158.46976191 204.2421875 161.30078125 C204.7421875 164.30078125 204.7421875 164.30078125 204.2421875 167.30078125 C202.3750884 169.60353681 200.88571009 170.97901996 198.2421875 172.30078125 C196.33236804 172.39197796 194.41931564 172.41830662 192.50732422 172.41430664 C191.30623016 172.41423111 190.10513611 172.41415558 188.86764526 172.41407776 C187.56554108 172.40891647 186.26343689 172.40375519 184.921875 172.3984375 C183.57951917 172.39657263 182.23716266 172.39514905 180.89480591 172.39414978 C177.36023075 172.39033003 173.82569663 172.38050437 170.2911377 172.3694458 C166.68498286 172.35922003 163.0788214 172.35464966 159.47265625 172.34960938 C152.39581654 172.33888163 145.3190047 172.3218117 138.2421875 172.30078125 C138.26313477 173.10708984 138.28408203 173.91339844 138.30566406 174.74414062 C138.38927923 178.42955852 138.44099299 182.11477619 138.4921875 185.80078125 C138.52570313 187.06921875 138.55921875 188.33765625 138.59375 189.64453125 C138.67080524 197.04183391 138.3515765 202.06532811 134.2421875 208.30078125 C127.38911685 214.97813214 119.97508902 214.67345932 110.94995117 214.67138672 C108.81413111 214.6757619 106.68037724 214.71212598 104.54492188 214.75 C103.17448617 214.75586902 101.80404073 214.75983784 100.43359375 214.76171875 C99.19810791 214.76993652 97.96262207 214.7781543 96.68969727 214.78662109 C89.89373602 213.82890118 86.1790192 209.47490291 82.2421875 204.30078125 C80.78119905 201.37880435 81.13083849 198.8018465 81.14453125 195.54296875 C81.1459462 194.8799173 81.14736115 194.21686584 81.14881897 193.53372192 C81.15441996 191.41436262 81.1669725 189.29510866 81.1796875 187.17578125 C81.18470238 185.73958486 81.18926531 184.30338681 81.19335938 182.8671875 C81.20438968 179.3450178 81.22165491 175.8229098 81.2421875 172.30078125 C80.35660156 172.31125488 79.47101563 172.32172852 78.55859375 172.33251953 C47.27788006 172.65395246 18.73019553 171.55402248 -5.7578125 149.30078125 C-14.5875729 140.64126044 -14.5875729 140.64126044 -16.7578125 136.30078125 C-18.65954541 150.6843669 -20.01975393 165.05098746 -20.85097408 179.53694248 C-21.24915088 186.28671281 -21.78778567 192.94067544 -22.7175293 199.64428711 C-27.01981351 231.65899738 -20.74810573 255.58583039 -1.50237036 281.58730268 C21.13437338 311.04428261 48.93144433 336.79836692 86.92515669 341.907564 C118.75263597 345.82938412 151.14667557 344.0727928 183.06009585 342.21016079 C193.57831283 341.6026247 204.09140139 341.19154991 214.62329102 340.91137695 C215.3739061 340.89134718 216.12452119 340.87131741 216.89788219 340.85068067 C221.41504844 340.73151797 225.93235296 340.61840999 230.44971071 340.50678073 C237.01241948 340.3432699 243.57480778 340.16800026 250.13703918 339.98640442 C251.19445487 339.95732093 251.19445487 339.95732093 252.2732325 339.92764989 C262.63076571 339.63875719 272.97733771 339.22160525 283.32670593 338.72148132 C284.60803331 338.66145357 285.88936069 338.60142581 287.20951617 338.53957903 C293.20333228 338.25794789 299.19478004 337.95680886 305.18559265 337.61720276 C307.27706304 337.5150786 309.36857298 337.41375995 311.46012878 337.31340027 C312.40234557 337.25175239 313.34456235 337.19010452 314.31533116 337.12658852 C320.60334004 336.85452886 320.60334004 336.85452886 323.79106617 339.08124256 C325.84363229 342.2207112 326.2421875 344.56526269 326.2421875 348.30078125 C324.07165251 351.2465073 322.72035927 352.14139066 319.2421875 353.30078125 C317.42805241 353.39415162 315.61063279 353.42811896 313.79409695 353.4294157 C312.65522044 353.43264015 311.51634393 353.4358646 310.34295601 353.43918675 C308.45778545 353.43686385 308.45778545 353.43686385 306.53453064 353.43449402 C305.19025803 353.4363614 303.84598597 353.43866181 302.50171477 353.44135934 C298.79947813 353.44749319 295.09726403 353.44734188 291.39502347 353.44616497 C287.40506904 353.44596135 283.41512193 353.45147611 279.4251709 353.45622253 C271.60360343 353.46453925 263.7820435 353.46727787 255.96047198 353.46783491 C249.60145515 353.46830976 243.2424408 353.47036297 236.88342476 353.47353554 C218.85643278 353.48234631 200.82944676 353.48695447 182.80245262 353.48620506 C181.83002851 353.48616511 180.8576044 353.48612515 179.85571289 353.48608398 C178.39529576 353.48602266 178.39529576 353.48602266 176.90537525 353.4859601 C161.13722006 353.48555392 145.36908879 353.49511539 129.60094052 353.50922235 C113.4122379 353.52359124 97.22354694 353.53049219 81.03483778 353.52962857 C71.94550128 353.52929669 62.85618982 353.53203964 53.76685905 353.54280663 C46.02494157 353.55191855 38.28306048 353.55408133 30.54113995 353.5472972 C26.59261023 353.54403498 22.64415028 353.54396446 18.69562721 353.55265045 C15.07637058 353.56052998 11.45723887 353.55906923 7.83798523 353.55036632 C5.91786068 353.5481123 3.99773221 353.55564876 2.07762283 353.56360596 C-16.42840668 353.49005727 -16.42840668 353.49005727 -23.7578125 347.30078125 C-29.34747852 341.66384532 -33.00269253 337.08872538 -33.01508141 328.87209034 C-33.0215303 327.78844946 -33.02797919 326.70480857 -33.0346235 325.58833009 C-33.0315263 324.40352152 -33.0284291 323.21871296 -33.02523804 321.9980011 C-33.02976915 320.7348834 -33.03430026 319.4717657 -33.03896868 318.17037171 C-33.05120259 314.66646042 -33.05093776 311.16264458 -33.04857993 307.6587168 C-33.04817185 303.87874036 -33.05921016 300.09879456 -33.06869507 296.3188324 C-33.08530902 288.91329857 -33.09080482 281.50779657 -33.09191982 274.10224567 C-33.09287027 268.08127855 -33.0969804 262.06032193 -33.10332108 256.03935814 C-33.12093586 238.96491637 -33.13015977 221.89049975 -33.12866013 204.81604884 C-33.12858022 203.89553446 -33.1285003 202.97502008 -33.12841797 202.02661133 C-33.12833621 201.10497136 -33.12825445 200.18333139 -33.12817021 199.23376294 C-33.12735761 184.30311697 -33.14648796 169.37257196 -33.1746947 154.44195519 C-33.2034355 139.10747313 -33.21723428 123.77304029 -33.21550715 108.43853062 C-33.21484358 99.83097426 -33.22032115 91.22352368 -33.24186325 82.61599159 C-33.26009096 75.28581203 -33.2644095 67.95578619 -33.2508444 60.62559376 C-33.24432225 56.88759567 -33.24416989 53.14989235 -33.2615509 49.41192245 C-33.28022552 45.35388604 -33.26770731 41.29652962 -33.25228882 37.23847961 C-33.26257594 36.06482466 -33.27286307 34.8911697 -33.28346193 33.68194944 C-33.20325405 24.11832106 -31.11648038 15.95816807 -24.4609375 8.83203125 C-17.18770007 2.29279026 -9.62464832 -0.01113636 0 0 Z " fill="#010000" transform="translate(32.7578125,111.69921875)"/>
<path d="M0 0 C0.86763474 -0.00571014 1.73526947 -0.01142029 2.62919617 -0.01730347 C4.0528801 -0.01898026 4.0528801 -0.01898026 5.50532532 -0.02069092 C6.50728439 -0.02565582 7.50924347 -0.03062073 8.54156494 -0.03573608 C11.86323225 -0.05036521 15.18485176 -0.05716177 18.50654602 -0.06268311 C20.81479901 -0.06843492 23.12305198 -0.07419265 25.43130493 -0.07995605 C30.27596764 -0.09046885 35.12061374 -0.09630937 39.96528625 -0.09979248 C46.16477533 -0.10527094 52.36404409 -0.12928413 58.56346416 -0.15776443 C63.33421462 -0.17641653 68.10491235 -0.18159784 72.87569618 -0.18312836 C75.16057855 -0.18615072 77.44546009 -0.19416517 79.73030663 -0.20731354 C82.93282532 -0.22442375 86.13481034 -0.22248117 89.33735657 -0.21600342 C90.27635803 -0.2252182 91.2153595 -0.23443298 92.18281555 -0.243927 C99.18033749 -0.19972969 104.44780655 1.11727009 110.49482727 4.82794189 C116.55963044 11.06121182 117.23839049 17.06597873 117.24287415 25.45489502 C117.22289368 26.69175049 117.20291321 27.92860596 117.18232727 29.20294189 C117.18941711 30.44366455 117.19650696 31.68438721 117.20381165 32.96270752 C117.15095563 40.56177676 117.00578275 46.32324668 111.91279602 52.28497314 C111.25924133 52.83540283 110.60568665 53.38583252 109.93232727 53.95294189 C109.28650696 54.51626221 108.64068665 55.07958252 107.97529602 55.65997314 C102.21560598 59.4829548 96.39851371 59.43747001 89.73554993 59.43096924 C88.74290634 59.43768646 87.75026276 59.44440369 86.72753906 59.45132446 C83.45460469 59.47028179 80.18187559 59.47422743 76.90888977 59.47637939 C74.62734392 59.48280849 72.34579889 59.48953694 70.06425476 59.49655151 C65.2845824 59.50851833 60.5049823 59.5122329 55.72529602 59.51104736 C49.60987333 59.51084412 43.49491507 59.53815479 37.37960243 59.57259178 C32.66803369 59.59486085 27.95657676 59.59888491 23.24496078 59.59782791 C20.9907763 59.60018352 18.73658872 59.60900473 16.48245621 59.62449265 C13.32560702 59.64415366 10.16976003 59.63831373 7.01289368 59.62628174 C6.08795609 59.63752075 5.16301849 59.64875977 4.21005249 59.66033936 C-2.886221 59.59183354 -8.16091926 57.85786518 -13.53251648 53.14044189 C-14.08036804 52.48044189 -14.6282196 51.82044189 -15.19267273 51.14044189 C-15.75857117 50.48044189 -16.3244696 49.82044189 -16.90751648 49.14044189 C-20.6939065 43.5212196 -19.51818409 35.87015383 -19.56767273 29.39044189 C-19.59667664 28.14005127 -19.62568054 26.88966064 -19.65556335 25.60137939 C-19.70358413 18.61250944 -19.58649078 12.86393601 -15.25517273 7.14044189 C-13.22001648 5.08184814 -13.22001648 5.08184814 -11.19267273 3.70294189 C-10.52107117 3.22985596 -9.8494696 2.75677002 -9.15751648 2.26934814 C-6.06845297 0.43620779 -3.51378892 0.01386664 0 0 Z " fill="#050504" transform="translate(207.2551727294922,166.85955810546875)"/>
<path d="M0 0 C0.88433212 -0.00350464 1.76866425 -0.00700928 2.67979431 -0.01062012 C5.56908287 -0.01933895 8.45812157 -0.0136239 11.34741211 -0.00683594 C13.37422227 -0.0081853 15.40103212 -0.01012809 17.42784119 -0.01263428 C21.6615611 -0.0155721 25.89519624 -0.01133075 30.12890625 -0.00195312 C35.53776061 0.00944787 40.94641659 0.00286924 46.35526371 -0.00909805 C50.53585793 -0.01634671 54.7164056 -0.01401506 58.89700127 -0.00884247 C60.89077211 -0.00751466 62.88454727 -0.00912301 64.87831306 -0.01380157 C67.67029039 -0.01891722 70.46195224 -0.01108658 73.25390625 0 C74.47220627 -0.00607269 74.47220627 -0.00607269 75.71511841 -0.01226807 C86.55773515 0.06693758 95.39473323 2.77393115 103.60913086 10.07910156 C110.53315331 17.38779192 113.04142883 25.35986015 112.91381836 35.31347656 C112.86354492 36.83328125 112.86354492 36.83328125 112.81225586 38.38378906 C112.79420898 39.43566406 112.77616211 40.48753906 112.75756836 41.57128906 C112.71097012 44.13419238 112.63924929 46.69661873 112.56225586 49.25878906 C107.28225586 49.25878906 102.00225586 49.25878906 96.56225586 49.25878906 C96.50618164 47.30585937 96.50618164 47.30585937 96.44897461 45.31347656 C96.38328912 43.58688649 96.31684268 41.86032525 96.24975586 40.13378906 C96.21591797 38.84988281 96.21591797 38.84988281 96.18139648 37.54003906 C95.96234101 32.36236426 95.25477282 28.81322649 92.56225586 24.25878906 C92.23225586 23.26878906 91.90225586 22.27878906 91.56225586 21.25878906 C89.18600241 20.07487683 89.18600241 20.07487683 86.56225586 19.25878906 C85.07725586 18.76378906 85.07725586 18.76378906 83.56225586 18.25878906 C80.57149534 18.14651157 77.60345476 18.09106954 74.61206055 18.08178711 C73.69627731 18.07521591 72.78049408 18.06864471 71.83695984 18.06187439 C68.80268269 18.04214482 65.76845503 18.03047934 62.73413086 18.02050781 C61.69752571 18.01643229 60.66092056 18.01235676 59.59290314 18.00815773 C54.10596414 17.98729815 48.61905015 17.9729961 43.13208008 17.96362305 C37.46825096 17.95256068 31.80481493 17.9181622 26.14112473 17.87845135 C21.78303299 17.85229055 17.42503499 17.84393166 13.06687164 17.84034157 C10.97931515 17.83547401 8.89176288 17.82385525 6.80428314 17.80530357 C3.87921613 17.78092465 0.95516706 17.78187507 -1.9699707 17.78881836 C-2.8284108 17.7760083 -3.68685089 17.76319824 -4.57130432 17.75 C-10.34134769 17.79979436 -13.67879855 18.95980749 -18.43774414 22.25878906 C-22.82158864 27.37746536 -23.07866286 33.80316026 -23.18774414 40.25878906 C-23.2322168 41.56396484 -23.2322168 41.56396484 -23.27758789 42.89550781 C-23.34749822 45.01612122 -23.3949753 47.13745469 -23.43774414 49.25878906 C-28.71774414 49.25878906 -33.99774414 49.25878906 -39.43774414 49.25878906 C-39.54670053 45.63296239 -39.62552152 42.01047912 -39.68774414 38.38378906 C-39.72125977 37.37058594 -39.75477539 36.35738281 -39.78930664 35.31347656 C-39.92636933 24.62258713 -36.96864269 16.96102814 -29.57055664 9.23535156 C-20.96126128 1.25677381 -11.42110361 -0.05707145 0 0 Z " fill="#B2E0E6" transform="translate(219.437744140625,62.7412109375)"/>
<path d="M0 0 C0.84120392 -0.00845947 1.68240784 -0.01691895 2.54910278 -0.02563477 C3.46867767 -0.01956207 4.38825256 -0.01348938 5.33569336 -0.00723267 C6.79215775 -0.0151181 6.79215775 -0.0151181 8.27804565 -0.02316284 C11.49403881 -0.03638825 14.70953874 -0.02761561 17.92553711 -0.01748657 C20.15608821 -0.01950657 22.38663867 -0.02241739 24.6171875 -0.02618408 C29.29457886 -0.03061089 33.9717985 -0.0241648 38.64916992 -0.01016235 C44.65189788 0.00692958 50.65422346 -0.00290968 56.65693665 -0.02087975 C61.26366216 -0.03170788 65.8702919 -0.02827568 70.47702026 -0.02049637 C72.69066414 -0.01849168 74.90431664 -0.02096301 77.11795044 -0.02793503 C80.2089957 -0.03553341 83.29938462 -0.02396761 86.39038086 -0.00723267 C87.30995575 -0.01330536 88.22953064 -0.01937805 89.17697144 -0.02563477 C90.01817535 -0.01717529 90.85937927 -0.00871582 91.72607422 0 C92.82223305 0.00169662 92.82223305 0.00169662 93.9405365 0.00342751 C96.42951237 0.49219026 97.32353192 1.3998879 98.86303711 3.38095093 C99.23535156 5.80111694 99.23535156 5.80111694 99.22631836 8.63485718 C99.22535156 10.16336304 99.22535156 10.16336304 99.22436523 11.7227478 C99.20825195 12.78557983 99.19213867 13.84841187 99.17553711 14.94345093 C99.17875977 16.01015015 99.18198242 17.07684937 99.18530273 18.1758728 C99.13000239 26.11398565 99.13000239 26.11398565 96.86303711 28.38095093 C95.02955627 28.63263321 95.02955627 28.63263321 92.76367188 28.63491821 C91.47651779 28.64337769 91.47651779 28.64337769 90.1633606 28.65200806 C89.21991791 28.64795959 88.27647522 28.64391113 87.30444336 28.63973999 C85.81652786 28.64499695 85.81652786 28.64499695 84.29855347 28.65036011 C81.0074776 28.65918941 77.7166153 28.653324 74.42553711 28.64657593 C72.14632119 28.64792223 69.86710556 28.64986247 67.58789062 28.65237427 C62.80620597 28.65532716 58.02459592 28.65102256 53.24291992 28.64169312 C47.10225994 28.63029854 40.96177478 28.63685712 34.82112122 28.64883804 C30.11322707 28.65605217 25.40537462 28.65377077 20.69747925 28.64858246 C18.43276957 28.64724472 16.16805615 28.64889798 13.90335083 28.65354156 C10.74267493 28.65859943 7.58228534 28.65090691 4.42163086 28.63973999 C3.00646683 28.64581268 3.00646683 28.64581268 1.56271362 28.65200806 C0.7046109 28.64636841 -0.15349182 28.64072876 -1.03759766 28.63491821 C-1.78533951 28.63416416 -2.53308136 28.63341011 -3.30348206 28.63263321 C-5.13696289 28.38095093 -5.13696289 28.38095093 -7.13696289 26.38095093 C-7.59179056 22.58748602 -7.46099639 18.76103964 -7.44946289 14.94345093 C-7.46557617 13.8806189 -7.48168945 12.81778687 -7.49829102 11.7227478 C-7.49893555 10.7037439 -7.49958008 9.68473999 -7.50024414 8.63485718 C-7.50471558 7.23215576 -7.50471558 7.23215576 -7.50927734 5.80111694 C-6.81778077 1.30616248 -4.32435143 0.00669315 0 0 Z " fill="#B4E2E8" transform="translate(210.136962890625,181.61904907226563)"/>
<path d="M0 0 C5.28 0.33 10.56 0.66 16 1 C16.99 3.475 16.99 3.475 18 6 C21.46732866 8.75604671 25.74875663 8.30669501 29.98144531 8.31884766 C30.7818222 8.32889328 31.5821991 8.3389389 32.40682983 8.34928894 C35.04725438 8.38013199 37.68757748 8.39715914 40.328125 8.4140625 C42.16087721 8.43277325 43.99362081 8.45234659 45.82635498 8.4727478 C50.64643268 8.52408483 55.46653831 8.56370217 60.28674316 8.60089111 C65.20685749 8.64092088 70.12685546 8.69201792 75.046875 8.7421875 C84.69783494 8.8389654 94.34886057 8.92336427 104 9 C104 13.62 104 18.24 104 23 C47.9 23 -8.2 23 -66 23 C-66 18.38 -66 13.76 -66 9 C-63.30505371 8.970271 -63.30505371 8.970271 -60.55566406 8.93994141 C-54.61637433 8.87214175 -48.67725742 8.79536427 -42.73816299 8.71247292 C-39.13765559 8.66254924 -35.53717697 8.61621905 -31.93652344 8.578125 C-28.46100834 8.54122226 -24.98573632 8.49484914 -21.51042938 8.44193649 C-19.54074545 8.41441352 -17.57093272 8.39667292 -15.60113525 8.37905884 C-14.40019226 8.35918915 -13.19924927 8.33931946 -11.96191406 8.31884766 C-10.90490295 8.30552399 -9.84789185 8.29220032 -8.7588501 8.2784729 C-5.87118355 7.98699752 -4.29646908 7.77580225 -2 6 C-1.34 4.02 -0.68 2.04 0 0 Z " fill="#966653" transform="translate(237,275)"/>
<path d="M0 0 C6.76717352 5.55559138 12.88143244 11.73587695 19.05859375 17.92578125 C20.21429604 19.08080904 21.37014667 20.23568843 22.52613831 21.39042664 C24.93401006 23.79683185 27.34008283 26.20501739 29.74487305 28.61450195 C32.83406336 31.7094276 35.92777356 34.79979032 39.02281094 37.88886738 C41.40339924 40.2658546 43.78161618 42.64520283 46.1591053 45.02528954 C47.29991231 46.16676509 48.44146664 47.30749425 49.58376884 48.44747353 C51.17081931 50.03200077 52.75465692 51.61966919 54.33764648 53.20825195 C55.24030746 54.11170853 56.14296844 55.0151651 57.07298279 55.94599915 C59 58 59 58 59 59 C51.70445362 59.12693664 44.40919275 59.21440916 37.11279297 59.2746582 C34.63156492 59.29977841 32.15041069 59.33388069 29.66943359 59.37719727 C26.09974946 59.43795481 22.53104495 59.4662358 18.9609375 59.48828125 C17.85446869 59.51408768 16.74799988 59.5398941 15.60800171 59.56648254 C6.9991702 59.56960679 6.9991702 59.56960679 3.31494141 56.59448242 C0.18821742 53.09019052 -0.12458881 51.57976562 -0.11352539 46.99951172 C-0.11344986 45.95858368 -0.11337433 44.91765564 -0.11329651 43.84518433 C-0.10813522 42.71807037 -0.10297394 41.59095642 -0.09765625 40.4296875 C-0.0962413 39.27832306 -0.09482635 38.12695862 -0.09336853 36.94070435 C-0.08775716 33.25211014 -0.0752027 29.56357595 -0.0625 25.875 C-0.05748647 23.37890712 -0.05292331 20.8828133 -0.04882812 18.38671875 C-0.03778403 12.25779191 -0.0210348 6.12890024 0 0 Z " fill="#FCD82C" transform="translate(15,390)"/>
<path d="M0 0 C0.12693664 7.29554638 0.21440916 14.59080725 0.2746582 21.88720703 C0.29977841 24.36843508 0.33388069 26.84958931 0.37719727 29.33056641 C0.43795481 32.90025054 0.4662358 36.46895505 0.48828125 40.0390625 C0.51408768 41.14553131 0.5398941 42.25200012 0.56648254 43.39199829 C0.56960739 52.00248268 0.56960739 52.00248268 -2.34301758 55.68505859 C-5.94624444 58.82443166 -8.41009564 59.12491334 -13.0222168 59.11352539 C-14.04304855 59.11344986 -15.06388031 59.11337433 -16.11564636 59.11329651 C-17.21572525 59.10813522 -18.31580414 59.10297394 -19.44921875 59.09765625 C-20.5769722 59.0962413 -21.70472565 59.09482635 -22.86665344 59.09336853 C-26.47362912 59.0877647 -30.08054304 59.07521153 -33.6875 59.0625 C-36.13085848 59.05748549 -38.57421793 59.0529225 -41.01757812 59.04882812 C-47.01173987 59.03779403 -53.00586552 59.02105215 -59 59 C-53.44440862 52.23282648 -47.26412305 46.11856756 -41.07421875 39.94140625 C-39.91919096 38.78570396 -38.76431157 37.62985333 -37.60957336 36.47386169 C-35.20316815 34.06598994 -32.79498261 31.65991717 -30.38549805 29.25512695 C-27.2905724 26.16593664 -24.20020968 23.07222644 -21.11113262 19.97718906 C-18.7341454 17.59660076 -16.35479717 15.21838382 -13.97471046 12.8408947 C-12.83323491 11.70008769 -11.69250575 10.55853336 -10.55252647 9.41623116 C-8.96799923 7.82918069 -7.38033081 6.24534308 -5.79174805 4.66235352 C-4.88829147 3.75969254 -3.9848349 2.85703156 -3.05400085 1.92701721 C-1 0 -1 0 0 0 Z " fill="#FCD92C" transform="translate(497,390)"/>
<path d="M0 0 C0.33 0 0.66 0 1 0 C2.20855252 7.59661584 -1.7487822 12.95645692 -6 19 C-15.72657884 31.1963371 -27.277989 40.46324369 -42 46 C-42.60972656 46.24266602 -43.21945312 46.48533203 -43.84765625 46.73535156 C-60.70984395 53.19919018 -79.26919343 51.46845884 -97 51 C-97 54.96 -97 58.92 -97 63 C-97.33 63 -97.66 63 -98 63 C-98 54.42 -98 45.84 -98 37 C-94.97392578 36.94392578 -94.97392578 36.94392578 -91.88671875 36.88671875 C-60.85176588 36.18587375 -31.32508892 33.41170151 -8.25 10.23828125 C-5.24945224 6.94441071 -2.47277191 3.70915786 0 0 Z " fill="#946452" transform="translate(496,247)"/>
<path d="M0 0 C2.41463072 2.3367394 4.71855199 4.66413481 6.87890625 7.2421875 C21.22582249 24.20483985 42.1426737 33.88592498 64.07519531 35.8046875 C75.69242312 36.58046231 87.36242689 36.7316579 99 37 C99 45.25 99 53.5 99 62 C98.67 62 98.34 62 98 62 C98 58.37 98 54.74 98 51 C96.998479 51.02094727 95.99695801 51.04189453 94.96508789 51.06347656 C91.16120363 51.13723059 87.35737862 51.18227799 83.55297852 51.21972656 C81.92298677 51.23954021 80.29306304 51.26659923 78.66333008 51.30175781 C64.13803004 51.60670391 49.62524569 50.38852777 36.625 43.25 C35.97273438 42.90710938 35.32046875 42.56421875 34.6484375 42.2109375 C19.28385889 33.92374352 7.81100908 22.62201816 0 7 C-0.04022391 4.6670134 -0.04320247 2.33293334 0 0 Z " fill="#946552" transform="translate(15,247)"/>
<path d="M0 0 C8.91 0 17.82 0 27 0 C27.020625 4.269375 27.04125 8.53875 27.0625 12.9375 C27.071604 14.28577881 27.08070801 15.63405762 27.09008789 17.02319336 C27.09258545 18.07643799 27.09508301 19.12968262 27.09765625 20.21484375 C27.10551147 21.84087524 27.10551147 21.84087524 27.11352539 23.49975586 C27 26 27 26 26 27 C24.15840977 27.09959621 22.31303033 27.13080411 20.46875 27.1328125 C19.34855469 27.13410156 18.22835937 27.13539063 17.07421875 27.13671875 C15.89472656 27.13285156 14.71523437 27.12898438 13.5 27.125 C11.73076172 27.13080078 11.73076172 27.13080078 9.92578125 27.13671875 C8.24548828 27.13478516 8.24548828 27.13478516 6.53125 27.1328125 C5.49548828 27.13168457 4.45972656 27.13055664 3.39257812 27.12939453 C1 27 1 27 0 26 C-0.08748207 24.07332493 -0.10697334 22.14348139 -0.09765625 20.21484375 C-0.09515869 19.16159912 -0.09266113 18.10835449 -0.09008789 17.02319336 C-0.08098389 15.67491455 -0.07187988 14.32663574 -0.0625 12.9375 C-0.041875 8.668125 -0.02125 4.39875 0 0 Z " fill="#FEC74F" transform="translate(129,284)"/>
<path d="M0 0 C8.91 0 17.82 0 27 0 C27 8.58 27 17.16 27 26 C22.99700128 28.00149936 17.90083269 27.18485209 13.5 27.1875 C11.89318359 27.20586914 11.89318359 27.20586914 10.25390625 27.22460938 C9.23167969 27.22654297 8.20945312 27.22847656 7.15625 27.23046875 C5.74569336 27.23663208 5.74569336 27.23663208 4.30664062 27.24291992 C2 27 2 27 0 25 C-0.22705078 22.47802734 -0.22705078 22.47802734 -0.1953125 19.3359375 C-0.19031738 18.3257959 -0.18532227 17.3156543 -0.18017578 16.27490234 C-0.16196777 14.98793457 -0.14375977 13.7009668 -0.125 12.375 C-0.08375 8.29125 -0.0425 4.2075 0 0 Z " fill="#FEC74F" transform="translate(356,285)"/>
<path d="M0 0 C8.6753443 4.24914823 13.75243574 10.16200435 17.20825195 19.16455078 C18.59593858 24.13420619 18.41936547 29.00495147 18.25 34.125 C18.23195313 35.176875 18.21390625 36.22875 18.1953125 37.3125 C18.14870351 39.87599422 18.0833027 42.43748094 18 45 C15.69 45 13.38 45 11 45 C11.00112793 44.34628418 11.00225586 43.69256836 11.00341797 43.01904297 C11.02062969 22.34318548 11.02062969 22.34318548 1.80078125 4.26171875 C0 2 0 2 0 0 Z " fill="#94D3E9" transform="translate(314,67)"/>
<path d="M0 0 C0.8971875 0.309375 0.8971875 0.309375 1.8125 0.625 C1.49539062 1.24761719 1.17828125 1.87023437 0.8515625 2.51171875 C-0.58240088 6.80821806 -0.65133986 10.93508848 -0.8125 15.4375 C-0.85117188 16.32115234 -0.88984375 17.20480469 -0.9296875 18.11523438 C-1.02350784 20.28482972 -1.10657326 22.45488547 -1.1875 24.625 C-3.4975 24.625 -5.8075 24.625 -8.1875 24.625 C-8.26922936 22.1034979 -8.32833373 19.58470083 -8.375 17.0625 C-8.41270508 16.00579102 -8.41270508 16.00579102 -8.45117188 14.92773438 C-8.52284254 9.74355626 -7.66612301 6.20669708 -5.1875 1.625 C-2.1875 -0.375 -2.1875 -0.375 0 0 Z " fill="#96D6ED" transform="translate(197.1875,87.375)"/>
<path d="M0 0 C8.91 0 17.82 0 27 0 C27 8.58 27 17.16 27 26 C26.67 26 26.34 26 26 26 C26 17.75 26 9.5 26 1 C18.74 1 11.48 1 4 1 C4 9.58 4 18.16 4 27 C2.68 26.67 1.36 26.34 0 26 C0 17.42 0 8.84 0 0 Z " fill="#F1B434" transform="translate(129,284)"/>
<path d="M0 0 C1.65 0 3.3 0 5 0 C5 8.58 5 17.16 5 26 C11.6 26 18.2 26 25 26 C25 26.33 25 26.66 25 27 C21.20839703 27.05786668 17.41690689 27.09355054 13.625 27.125 C12.00464844 27.15013672 12.00464844 27.15013672 10.3515625 27.17578125 C9.3203125 27.18222656 8.2890625 27.18867188 7.2265625 27.1953125 C5.79691162 27.21102295 5.79691162 27.21102295 4.33837891 27.22705078 C2 27 2 27 0 25 C-0.22705078 22.47802734 -0.22705078 22.47802734 -0.1953125 19.3359375 C-0.18886719 18.21445312 -0.18242187 17.09296875 -0.17578125 15.9375 C-0.15902344 14.761875 -0.14226562 13.58625 -0.125 12.375 C-0.11597656 11.19164062 -0.10695313 10.00828125 -0.09765625 8.7890625 C-0.07402812 5.85917477 -0.04108514 2.9296866 0 0 Z " fill="#EDAD2A" transform="translate(356,285)"/>
</svg>
