<?xml version="1.0" encoding="UTF-8"?>
<svg version="1.1" xmlns="http://www.w3.org/2000/svg" width="512" height="512">
<path d="M0 0 C0.89969668 -0.04330987 1.79939337 -0.08661974 2.72635359 -0.13124204 C3.72149097 -0.17403122 4.71662836 -0.2168204 5.74192142 -0.26090622 C6.79483295 -0.30903355 7.84774448 -0.35716089 8.93256241 -0.40674663 C12.48718744 -0.56617674 16.04210464 -0.7170758 19.59716129 -0.86655807 C20.8397332 -0.92002018 22.08230511 -0.97348228 23.36253071 -1.02856445 C47.33201857 -2.05044123 71.3072308 -2.70350809 95.29307201 -3.19489475 C99.24198311 -3.27598603 103.19082872 -3.35993218 107.13964176 -3.44565964 C107.92541133 -3.46266893 108.71118091 -3.47967823 109.52076168 -3.49720296 C120.53765517 -3.74187591 131.53804652 -4.147957 142.54437291 -4.68580522 C262.27595844 -10.53204141 262.27595844 -10.53204141 297.96440983 20.86597061 C321.55251323 42.81964729 337.01412149 69.18030669 338.23417592 101.7613492 C338.46238098 112.42536537 337.63125759 122.99719341 336.5658986 133.598719 C335.79141346 141.44549451 335.44285857 149.29851487 335.11166513 157.17443311 C334.42639699 173.26407319 333.26468539 189.27679564 331.73998356 205.31019974 C332.35602451 205.30430832 332.97206547 205.2984169 333.60677433 205.29234695 C336.45064296 205.2686805 339.29449075 205.25423787 342.13842106 205.23988724 C343.59139591 205.22574783 343.59139591 205.22574783 345.07372379 205.21132278 C370.03302063 205.11721567 399.89913413 212.66536042 419.73998356 228.31019974 C423.4967866 226.76527572 425.72040548 224.46536422 428.47826481 221.52113724 C429.38125309 220.58012161 430.28424137 219.63910599 431.21459293 218.66957474 C432.63803095 217.17809663 434.05530864 215.68216239 435.45946598 214.17250443 C436.82420413 212.71060895 438.21351998 211.27178114 439.60326481 209.83363724 C440.42093327 208.96658157 441.23860172 208.09952591 442.08104801 207.20619583 C445.51431221 204.75805243 447.60982736 204.84553063 451.73998356 205.31019974 C454.06810856 206.77113724 454.06810856 206.77113724 455.98998356 208.68519974 C458.22084612 210.85359815 460.12954598 212.56990802 462.73998356 214.31019974 C463.20372379 213.83598587 463.66746403 213.361772 464.145257 212.87318802 C466.25487372 210.72192719 468.37230556 208.57852436 470.48998356 206.43519974 C471.21959293 205.68883255 471.94920231 204.94246536 472.70092106 204.17348099 C473.40990543 203.4580513 474.11888981 202.74262161 474.84935856 202.00551224 C475.49872379 201.34567337 476.14808903 200.6858345 476.817132 200.00600052 C480.04982423 197.15502537 481.88557792 196.27968525 486.23998356 196.43519974 C490.17819694 197.41975308 491.59027712 197.87066944 493.73998356 201.31019974 C494.49174732 204.46484279 494.48446926 207.15179432 493.73998356 210.31019974 C491.33727158 213.80445353 488.37119854 216.53270268 485.23998356 219.37269974 C484.42916325 220.14291458 483.61834293 220.91312943 482.78295231 221.70668411 C480.78745702 223.59653554 478.77415959 225.46219282 476.73998356 227.31019974 C478.25437069 230.5006081 479.89359782 232.65279213 482.36498356 235.18519974 C484.57147105 237.69762877 485.66791691 239.06311408 486.61498356 242.31019974 C484.36731984 250.01647534 475.88853084 256.29059217 470.30248356 261.81019974 C469.20516911 262.90074661 469.20516911 262.90074661 468.08568668 264.01332474 C466.30608532 265.78129472 464.52417438 267.54686351 462.73998356 269.31019974 C463.86604085 272.4457405 465.25481375 275.31652129 466.87670231 278.21644974 C476.07000009 294.68619113 482.06071537 311.61715171 484.73998356 330.31019974 C484.92303043 331.54641068 485.10607731 332.78262161 485.29467106 334.05629349 C489.84578475 371.78693361 478.68726691 410.33433224 455.61498356 440.31019974 C431.2200928 470.90666756 397.68271261 489.83429777 359.05248356 495.56019974 C320.61031536 499.7642201 281.31999013 490.59305404 250.73998356 466.31019974 C247.75339088 463.80896122 244.88832153 461.1937291 242.07201481 458.50160599 C239.78205222 456.27694824 239.78205222 456.27694824 237.25170231 454.40004349 C234.73998356 452.31019974 234.73998356 452.31019974 232.67132664 449.22579098 C231.08258366 447.30970717 230.17439654 446.43205241 227.76003265 445.75482428 C225.26488912 445.54490683 222.83053825 445.52685017 220.32677555 445.57089615 C219.37456356 445.56380274 218.42235156 445.55670934 217.44128466 445.54940099 C214.24791248 445.53282079 211.05631994 445.5589906 207.86303043 445.58485794 C205.57486299 445.58159949 203.28669802 445.57566443 200.99854374 445.5672493 C196.07001865 445.55483305 191.14200451 445.5613015 186.21350956 445.58231926 C178.42366837 445.61533512 170.63422904 445.60609687 162.84435368 445.59100723 C151.92587918 445.57426258 141.00757485 445.57627451 130.08910465 445.59511185 C129.39643047 445.59630117 128.70375629 445.5974905 127.99009198 445.59871586 C127.29655112 445.59990803 126.60301026 445.60110019 125.88845301 445.60232848 C116.05592199 445.61917581 106.22340752 445.63020325 96.39086246 445.63417435 C95.35311846 445.63460268 95.35311846 445.63460268 94.29440993 445.63503966 C82.76017825 445.63930732 71.22597653 445.63145889 59.69175291 445.61747617 C51.94483085 445.60937263 44.19815734 445.61801826 36.45126438 445.64003909 C31.63602479 445.65110678 26.82083973 445.65014332 22.00559139 445.64616394 C19.76944966 445.64695185 17.53330293 445.65293455 15.29719067 445.66444206 C12.2490139 445.67950054 9.20138309 445.6762782 6.15319157 445.6685524 C4.82026735 445.68196284 4.82026735 445.68196284 3.46041536 445.6956442 C-1.26241079 445.66242962 -4.45289937 445.42274516 -8.26001644 442.31019974 C-10.75086147 438.5739322 -10.51248625 436.66019246 -10.51728535 432.19270134 C-10.52079142 431.45967198 -10.5242975 430.72664263 -10.52790982 429.97140026 C-10.53727194 427.49576839 -10.5322882 425.02036929 -10.52744198 422.54472733 C-10.53117582 420.7596611 -10.53577627 418.97459652 -10.54117262 417.18953454 C-10.55345095 412.26906558 -10.55313649 407.34866436 -10.55078387 402.42818356 C-10.55037692 397.12746689 -10.56140314 391.8267723 -10.57089901 386.52606583 C-10.58753632 376.13539339 -10.59300978 365.74474364 -10.59412377 355.354059 C-10.59507292 346.91118659 -10.59917658 338.46832169 -10.60552502 330.02545166 C-10.62314467 306.10735081 -10.63236272 282.18926794 -10.63086407 258.27116056 C-10.63078416 256.9808013 -10.63070424 255.69044204 -10.63062191 254.36098099 C-10.63054015 253.06905285 -10.63045839 251.77712471 -10.63037415 250.44604723 C-10.62956098 229.50127244 -10.64870446 208.55656952 -10.67689864 187.61181553 C-10.70559579 166.12450547 -10.7194407 144.63723051 -10.71771109 123.14990079 C-10.7170461 111.07889929 -10.72258588 99.00797312 -10.74406719 86.93698883 C-10.76223731 76.66050822 -10.76666072 66.38413711 -10.75304835 56.10764743 C-10.74649765 50.86149019 -10.74647701 45.61554326 -10.76375484 40.36940575 C-10.77939804 35.57037099 -10.77671214 30.77171482 -10.75918658 25.97268979 C-10.75609728 24.23313105 -10.75982104 22.49354466 -10.77090673 20.7540185 C-10.78494701 18.39534254 -10.77450675 16.03800952 -10.75779438 13.67938042 C-10.75844648 11.71164081 -10.75844648 11.71164081 -10.75911176 9.70414889 C-10.17802935 5.75267092 -9.05027105 4.11116466 -6.26001644 1.31019974 C-3.98030515 0.17034409 -2.53850897 0.11695194 0 0 Z " fill="#F8E9AF" transform="translate(18.260016441345215,7.689800262451172)"/>
<path d="M0 0 C2.67447379 1.64583003 3.71886007 2.82161468 4.45141602 5.89208984 C4.75796884 9.68120084 4.60808249 12.1031993 2.43530273 15.30761719 C0.21908123 17.70518237 -2.08987408 19.92264355 -4.5 22.125 C-5.29148437 22.88425781 -6.08296875 23.64351562 -6.8984375 24.42578125 C-9.78544004 27.17553285 -12.69833456 29.88383454 -15.72546387 32.47956848 C-21.40247695 37.35776761 -26.69312177 42.56443206 -31.96875 47.87109375 C-32.88966431 48.793423 -33.81057861 49.71575226 -34.75939941 50.66603088 C-37.18147554 53.09188477 -39.60053079 55.52072852 -42.0189209 57.95025635 C-44.49773837 60.43939116 -46.97946797 62.92561895 -49.4609375 65.41210938 C-54.31010924 70.27193458 -59.15608863 75.13493178 -64 80 C-62.54550576 83.82171334 -60.91548261 86.59894132 -58.375 89.8125 C-50.81893859 100.00631376 -45.29628084 111.75439632 -42 124 C-41.70222656 125.04285156 -41.40445313 126.08570313 -41.09765625 127.16015625 C-34.09501256 155.78386573 -39.84728191 187.15971794 -54.890625 212.23876953 C-68.95511232 234.56738123 -90.2532327 250.91068746 -115.1875 259.375 C-115.88705811 259.61371826 -116.58661621 259.85243652 -117.30737305 260.09838867 C-127.9873037 263.51423694 -138.65013433 264.36603286 -149.8125 264.3125 C-151.66343262 264.30404053 -151.66343262 264.30404053 -153.55175781 264.29541016 C-182.42515466 263.91078696 -207.20008246 251.65592207 -228 232 C-228.7115625 231.34128906 -229.423125 230.68257812 -230.15625 230.00390625 C-235.2328295 225.15186777 -239.21211144 219.90185826 -243 214 C-243.86431641 212.67742187 -243.86431641 212.67742187 -244.74609375 211.328125 C-261.12213203 184.92221917 -263.6644957 154.35953443 -257.2109375 124.328125 C-250.83777206 100.86058124 -236.49631803 79.49359713 -217 65 C-216.22398437 64.39800781 -215.44796875 63.79601562 -214.6484375 63.17578125 C-189.85958151 44.72922454 -159.32107831 39.72340555 -129.06445312 43.66992188 C-113.53414361 46.23052901 -98.91594351 53.21114323 -86 62 C-84.43798946 63.04414817 -82.87502277 64.08686688 -81.3112793 65.12841797 C-80.50321335 65.66675262 -79.6951474 66.20508728 -78.8625946 66.75973511 C-77.94061028 67.37366623 -77.94061028 67.37366623 -77 68 C-70.7290886 61.75236208 -64.46095893 55.50195 -58.19626522 49.24807739 C-55.2865576 46.34356597 -52.37593668 43.43998277 -49.46313477 40.53857422 C-46.64687558 37.73326071 -43.83313825 34.9254396 -41.02105904 32.11593628 C-39.95316722 31.04987781 -38.88440261 29.98469282 -37.81471062 28.92044067 C-32.50385392 23.63549582 -27.25697527 18.33764105 -22.39703369 12.62875366 C-20.30551406 10.19032266 -18.07435929 7.9048391 -15.8125 5.625 C-14.99394531 4.79226562 -14.17539062 3.95953125 -13.33203125 3.1015625 C-8.77302368 -1.00688988 -6.0442804 -1.5110701 0 0 Z " fill="#E54D3D" transform="translate(508,205)"/>
<path d="M0 0 C3.75680304 -1.54492402 5.98042192 -3.84483551 8.73828125 -6.7890625 C10.09276367 -8.20058594 10.09276367 -8.20058594 11.47460938 -9.640625 C12.89804739 -11.1321031 14.31532509 -12.62803735 15.71948242 -14.13769531 C17.08422057 -15.59959078 18.47353642 -17.0384186 19.86328125 -18.4765625 C20.68094971 -19.34361816 21.49861816 -20.21067383 22.34106445 -21.10400391 C25.77359669 -23.55162537 27.87066969 -23.45911773 32 -23 C34.328125 -21.609375 34.328125 -21.609375 36.25 -19.75 C37.21679688 -18.84507812 37.21679688 -18.84507812 38.203125 -17.921875 C40 -16 40 -16 43 -12 C26.5 4.5 10 21 -7 38 C-9.97 36.02 -12.94 34.04 -16 32 C-43.44806781 14.03564997 -73.56635706 8.52442247 -106 15 C-109.01749702 15.73078139 -111.94125147 16.6114051 -114.875 17.625 C-115.63256592 17.88442383 -116.39013184 18.14384766 -117.1706543 18.41113281 C-130.34353351 23.10303203 -141.2673582 30.14667167 -152 39 C-152.72574219 39.56074219 -153.45148438 40.12148438 -154.19921875 40.69921875 C-172.34766067 55.31368415 -185.67940667 81.20941354 -188.609375 104.1875 C-191.73458782 136.49058468 -186.16499303 165.08509055 -166.1875 191.125 C-147.65652388 213.36217135 -122.96291217 228.25533788 -94 232 C-89.41271048 232.28848718 -84.84545021 232.33438161 -80.25 232.3125 C-78.39121216 232.30404053 -78.39121216 232.30404053 -76.49487305 232.29541016 C-67.61716296 232.17763926 -59.54163307 231.58099517 -51 229 C-50.33532715 228.80132324 -49.6706543 228.60264648 -48.98583984 228.39794922 C-19.42988953 219.35435681 3.16311034 200.99007929 18.1875 173.8125 C31.7133659 148.27622474 34.29055779 117.06151124 25.93359375 89.48046875 C21.12443046 75.08472252 14.07190833 63.01069554 5 51 C6.53956134 47.34118823 8.74089057 45.0170821 11.54150391 42.23144531 C12.00021378 41.77244339 12.45892365 41.31344147 12.93153381 40.8405304 C14.4418491 39.33160325 15.95911388 37.82987546 17.4765625 36.328125 C18.5278917 35.28052776 19.57877885 34.23248672 20.62924194 33.184021 C23.39001016 30.4308748 26.15673249 27.68378873 28.92474365 24.93792725 C31.75032928 22.13283084 34.57023445 19.32203679 37.390625 16.51171875 C42.92154374 11.00222468 48.45876589 5.49912123 54 0 C57.12473436 1.48839338 59.26007652 3.01465536 61.6875 5.5 C62.28949219 6.1084375 62.89148438 6.716875 63.51171875 7.34375 C65.42043896 9.46789008 65.96257446 10.80351593 66.5 13.625 C65.33312573 21.5014013 56.04498599 28.08272198 50.5625 33.5 C49.83095703 34.22703125 49.09941406 34.9540625 48.34570312 35.703125 C46.56610176 37.47109499 44.78419082 39.23666378 43 41 C44.1260573 44.13554076 45.51483019 47.00632155 47.13671875 49.90625 C56.33001653 66.37599139 62.32073182 83.30695198 65 102 C65.27457031 103.85431641 65.27457031 103.85431641 65.5546875 105.74609375 C70.10580119 143.47673387 58.94728335 182.02413251 35.875 212 C11.48010924 242.59646782 -22.05727095 261.52409803 -60.6875 267.25 C-99.1296682 271.45402036 -138.41999342 262.28285431 -169 238 C-171.98659268 235.49876148 -174.85166203 232.88352936 -177.66796875 230.19140625 C-179.95697752 227.96510332 -179.95697752 227.96510332 -182.49609375 226.09765625 C-185.40858278 223.65770834 -187.62079692 220.90390452 -189.875 217.875 C-190.31062256 217.29661377 -190.74624512 216.71822754 -191.19506836 216.12231445 C-192.4709081 214.42033248 -193.73611844 212.71087037 -195 211 C-195.62261719 210.17113281 -196.24523437 209.34226562 -196.88671875 208.48828125 C-219.43191056 177.53462629 -228.64808786 139.63245147 -223.56738281 101.77661133 C-216.97501561 61.08436409 -195.62509149 26.69695046 -162.24316406 2.55859375 C-117.3962272 -28.60192485 -44.99785707 -35.48155769 0 0 Z " fill="#EBEFF0" transform="translate(438,236)"/>
<path d="M0 0 C1.02480469 -0.00773437 2.04960937 -0.01546875 3.10546875 -0.0234375 C18.39758339 0.01542429 33.40604663 4.58604396 46.125 13.25 C47.1522629 14.5624438 48.15651641 15.89360135 49.125 17.25 C45.96026553 20.56302792 42.77632752 23.85586524 39.57299805 27.1315918 C38.48611139 28.24865623 37.40466989 29.37104569 36.32885742 30.4987793 C34.78143276 32.11897359 33.21543677 33.7190097 31.64453125 35.31640625 C31.16724075 35.82466446 30.68995026 36.33292267 30.19819641 36.85658264 C28.80395508 38.25219727 28.80395508 38.25219727 26.125 40.25 C22.40088895 40.06868258 19.3216163 38.56122278 15.875 37.1875 C4.93121289 33.52160087 -6.77230295 33.60488336 -17.2265625 38.703125 C-28.58894925 45.33956328 -36.46186184 54.33817098 -39.875 67.25 C-41.69859974 80.57231923 -39.16267024 93.07823904 -30.98046875 103.9296875 C-23.70133826 111.95158641 -14.2983734 117.51190459 -3.45703125 118.58984375 C9.46459558 118.94212365 19.13837304 115.4505943 29.8125 108.5 C38.94263507 99.61662533 43.08827107 87.71356087 43.5 75.1875 C43.48529107 68.77440818 41.80778519 63.84548116 39.21875 58.02734375 C38.125 55.25 38.125 55.25 38.125 51.25 C40.14453125 48.77636719 40.14453125 48.77636719 42.9375 46.046875 C43.42581299 45.5642218 43.91412598 45.0815686 44.41723633 44.58428955 C45.97734929 43.0465476 47.5507953 41.52329997 49.125 40 C50.18580491 38.95925913 51.24571234 37.91760263 52.3046875 36.875 C54.90113265 34.32263095 57.50971784 31.78308035 60.125 29.25 C64.45303004 31.12598747 66.01003071 33.90561563 68.1875 37.9375 C68.52587891 38.53755859 68.86425781 39.13761719 69.21289062 39.75585938 C78.59715738 56.6548001 81.25952145 77.45926443 76.125 96.25 C70.09039982 117.04127431 57.70398705 133.64292411 38.73828125 144.12109375 C23.65460068 152.09110931 9.89189025 153.61543222 -6.875 153.25 C-8.16664063 153.22486328 -8.16664063 153.22486328 -9.484375 153.19921875 C-24.94686106 152.18194993 -39.50855159 143.16874241 -50.875 133.25 C-51.48988281 132.73050781 -52.10476563 132.21101562 -52.73828125 131.67578125 C-61.80432938 123.40170973 -67.79600461 111.65152929 -71.875 100.25 C-72.40287109 98.81140625 -72.40287109 98.81140625 -72.94140625 97.34375 C-77.75490571 81.39273923 -76.35082801 62.45708951 -69.875 47.25 C-69.41738281 46.16460937 -68.95976562 45.07921875 -68.48828125 43.9609375 C-65.22620706 36.90055776 -61.04175017 31.03752422 -55.875 25.25 C-55.20855469 24.48945313 -54.54210937 23.72890625 -53.85546875 22.9453125 C-39.77950653 7.85086693 -20.50346473 -0.15358401 0 0 Z " fill="#EBEEEF" transform="translate(356.875,281.75)"/>
<path d="M0 0 C3.27155869 2.36665948 4.70646942 3.89926032 5.75 7.8125 C4.22655213 14.28715346 -1.54539219 18.74018317 -6.57714844 22.77612305 C-13.56525514 28.54328894 -19.98137814 33.92356534 -21.45507812 43.24853516 C-21.9811873 50.12218067 -21.65216756 56.94078429 -21.25 63.8125 C-21.11068034 67.34924286 -20.99773092 70.88423602 -20.91595459 74.42277527 C-20.85867238 76.60551986 -20.76486257 78.78770174 -20.62945557 80.96699524 C-20.44484505 85.67487696 -20.44799509 88.17409807 -23.11230469 92.16040039 C-28.40382885 95.56840657 -35.32486752 94.7149237 -41.375 94.6640625 C-42.78695086 94.66743481 -44.19889887 94.67229089 -45.61083984 94.67855835 C-48.56310801 94.68591039 -51.51461729 94.67527987 -54.46679688 94.65185547 C-58.23994351 94.6233666 -62.01131183 94.63977985 -65.78439331 94.66971779 C-68.69797014 94.68783723 -71.61112942 94.68201195 -74.52471924 94.66907883 C-75.91530572 94.66575754 -77.30593085 94.66978683 -78.69647217 94.68147659 C-90.8292803 94.76110353 -90.8292803 94.76110353 -94.85083008 92.39404297 C-99.07062434 87.79230253 -97.830107 79.89342763 -97.76171875 74.03125 C-97.76322207 72.54821463 -97.76665429 71.06518008 -97.77192688 69.58215332 C-97.7762535 66.47835644 -97.75945958 63.37560029 -97.72729492 60.27197266 C-97.68751172 56.30026604 -97.69681568 52.33051029 -97.72152996 48.35874176 C-97.73573578 45.29762882 -97.72560884 42.236969 -97.70801735 39.17588806 C-97.70218134 37.71191999 -97.70344956 36.24790529 -97.71204185 34.78395081 C-97.72006542 32.73448229 -97.69572007 30.68783966 -97.6628418 28.63867188 C-97.65584763 27.47460815 -97.64885345 26.31054443 -97.64164734 25.11120605 C-96.78768465 20.97052982 -95.38360724 19.4877725 -92 17 C-88.96281433 16.50639343 -88.96281433 16.50639343 -85.53588867 16.6862793 C-84.24651901 16.73830002 -82.95714935 16.79032074 -81.62870789 16.84391785 C-80.94348242 16.88235495 -80.25825695 16.92079205 -79.55226707 16.96039391 C-77.38411218 17.07602436 -75.21826951 17.14959131 -73.04792786 17.21064758 C-66.88116625 17.38683448 -60.71827383 17.59823738 -54.55786133 17.93237305 C-36.03749149 19.61808369 -36.03749149 19.61808369 -19.36572266 13.42431641 C-15.82145021 10.14625502 -12.83734185 6.58128436 -10.15327454 2.57136536 C-7.55870038 -0.96380673 -4.0388721 -0.41073276 0 0 Z " fill="#EFC41A" transform="translate(140,316)"/>
<path d="M0 0 C3.27155869 2.36665948 4.70646942 3.89926032 5.75 7.8125 C4.44872191 13.34293187 0.28149553 17.44361813 -4.35595703 20.60717773 C-5.17563965 21.11450439 -5.99532227 21.62183105 -6.83984375 22.14453125 C-12.98221876 26.33081883 -18.48135002 30.77726128 -21 38 C-22.96698814 48.96415563 -22.15575151 60.40805003 -21.61499023 71.47387695 C-21.53474609 73.1497438 -21.53474609 73.1497438 -21.45288086 74.85946655 C-21.33803388 76.99342001 -21.19861479 79.12622815 -21.03173828 81.25674438 C-20.57871051 88.4064076 -20.57871051 88.4064076 -22.85766602 91.61743164 C-26.50138943 93.96893087 -28.65793357 94.1426845 -33.00683594 94.19287109 C-34.26864685 94.20893402 -35.53045776 94.22499695 -36.83050537 94.24154663 C-38.21512173 94.25303482 -39.59974562 94.26364324 -40.984375 94.2734375 C-41.68113594 94.27876118 -42.37789688 94.28408485 -43.09577179 94.28956985 C-46.78551635 94.31629951 -50.47522715 94.33567277 -54.16503906 94.35009766 C-57.21482414 94.36342543 -60.26393827 94.39125476 -63.31347656 94.43212891 C-66.99873633 94.48152285 -70.68338851 94.50622695 -74.36896515 94.51332474 C-75.77078125 94.52002615 -77.17258439 94.53521966 -78.57421112 94.55921555 C-90.85991302 94.75750397 -90.85991302 94.75750397 -94.85961914 92.40283203 C-99.06554734 87.78946248 -97.83013467 79.89579961 -97.76171875 74.03125 C-97.76322207 72.54821463 -97.76665429 71.06518008 -97.77192688 69.58215332 C-97.7762535 66.47835644 -97.75945958 63.37560029 -97.72729492 60.27197266 C-97.68751172 56.30026604 -97.69681568 52.33051029 -97.72152996 48.35874176 C-97.73573578 45.29762882 -97.72560884 42.236969 -97.70801735 39.17588806 C-97.70218134 37.71191999 -97.70344956 36.24790529 -97.71204185 34.78395081 C-97.72006542 32.73448229 -97.69572007 30.68783966 -97.6628418 28.63867188 C-97.65584763 27.47460815 -97.64885345 26.31054443 -97.64164734 25.11120605 C-96.78768465 20.97052982 -95.38360724 19.4877725 -92 17 C-88.96281433 16.50639343 -88.96281433 16.50639343 -85.53588867 16.6862793 C-84.24651901 16.73830002 -82.95714935 16.79032074 -81.62870789 16.84391785 C-80.94348242 16.88235495 -80.25825695 16.92079205 -79.55226707 16.96039391 C-77.38411218 17.07602436 -75.21826951 17.14959131 -73.04792786 17.21064758 C-66.88116625 17.38683448 -60.71827383 17.59823738 -54.55786133 17.93237305 C-36.03749149 19.61808369 -36.03749149 19.61808369 -19.36572266 13.42431641 C-15.82145021 10.14625502 -12.83734185 6.58128436 -10.15327454 2.57136536 C-7.55870038 -0.96380673 -4.0388721 -0.41073276 0 0 Z " fill="#EFC41A" transform="translate(140,205)"/>
<path d="M0 0 C3.27155869 2.36665948 4.70646942 3.89926032 5.75 7.8125 C3.87501903 15.78116912 -5.19868062 22.2965482 -10.875 27.875 C-12.39550816 29.37008161 -13.91385411 30.86736644 -15.4296875 32.3671875 C-16.09210449 33.01800293 -16.75452148 33.66881836 -17.43701172 34.33935547 C-20.09444183 37.16282308 -20.12708616 39.07202702 -20.1418457 42.84521484 C-20.14888016 43.85321136 -20.15591461 44.86120789 -20.16316223 45.89974976 C-20.16940865 47.53878769 -20.16940865 47.53878769 -20.17578125 49.2109375 C-20.19897655 51.51042585 -20.22309376 53.80990505 -20.24804688 56.109375 C-20.2832019 59.74583071 -20.31252561 63.38194952 -20.32592773 67.01855469 C-20.34137095 70.52059986 -20.38155735 74.02165319 -20.42578125 77.5234375 C-20.42387283 78.61208099 -20.42196442 79.70072449 -20.41999817 80.82235718 C-20.43648911 81.83665802 -20.45298004 82.85095886 -20.4699707 83.89599609 C-20.47877007 85.23263809 -20.47877007 85.23263809 -20.48774719 86.59628296 C-21.1621703 89.76097489 -22.54956309 90.95765048 -25 93 C-27.73508259 94.3675413 -29.94522342 94.1575399 -33.00683594 94.19287109 C-34.26864685 94.20893402 -35.53045776 94.22499695 -36.83050537 94.24154663 C-38.21512173 94.25303482 -39.59974562 94.26364324 -40.984375 94.2734375 C-41.68113594 94.27876118 -42.37789688 94.28408485 -43.09577179 94.28956985 C-46.78551635 94.31629951 -50.47522715 94.33567277 -54.16503906 94.35009766 C-57.21482414 94.36342543 -60.26393827 94.39125476 -63.31347656 94.43212891 C-66.99873633 94.48152285 -70.68338851 94.50622695 -74.36896515 94.51332474 C-75.77078125 94.52002615 -77.17258439 94.53521966 -78.57421112 94.55921555 C-90.85991302 94.75750397 -90.85991302 94.75750397 -94.85961914 92.40283203 C-99.06554734 87.78946248 -97.83013467 79.89579961 -97.76171875 74.03125 C-97.76322207 72.54821463 -97.76665429 71.06518008 -97.77192688 69.58215332 C-97.7762535 66.47835644 -97.75945958 63.37560029 -97.72729492 60.27197266 C-97.68751172 56.30026604 -97.69681568 52.33051029 -97.72152996 48.35874176 C-97.73573578 45.29762882 -97.72560884 42.236969 -97.70801735 39.17588806 C-97.70218134 37.71191999 -97.70344956 36.24790529 -97.71204185 34.78395081 C-97.72006542 32.73448229 -97.69572007 30.68783966 -97.6628418 28.63867188 C-97.65584763 27.47460815 -97.64885345 26.31054443 -97.64164734 25.11120605 C-96.78759551 20.97009761 -95.38386897 19.48827524 -92 17 C-88.95608521 16.49966431 -88.95608521 16.49966431 -85.52001953 16.67041016 C-84.22742218 16.71920319 -82.93482483 16.76799622 -81.60305786 16.81826782 C-80.91621037 16.85508289 -80.22936287 16.89189796 -79.52170181 16.92982864 C-77.3495963 17.04075886 -75.17972066 17.11058828 -73.00558472 17.16830444 C-66.82810528 17.33543765 -60.6542363 17.54122311 -54.48242188 17.85693359 C-36.17704768 19.54016445 -36.17704768 19.54016445 -19.62792969 13.68652344 C-16.33255837 10.65561463 -13.59954522 7.35625683 -11.17599487 3.59408569 C-8.10807958 -0.56453778 -4.78847806 -0.57791977 0 0 Z " fill="#EFC419" transform="translate(140,94)"/>
<path d="M0 0 C1.66634902 0.66746024 3.33292009 1.33436737 5 2 C1.83756338 5.16572019 -1.33097278 8.32514075 -4.50494385 11.47929382 C-6.81534786 13.77627026 -9.12305053 16.075953 -11.43066406 18.37573242 C-12.64983619 19.58983284 -13.86989792 20.80304055 -15.09082031 22.01538086 C-16.859763 23.77224319 -18.62549922 25.53227266 -20.390625 27.29296875 C-20.9384967 27.83567917 -21.48636841 28.37838959 -22.05084229 28.93754578 C-26.16555201 32.9541067 -26.16555201 32.9541067 -27.125 38.4375 C-27.1693943 41.9630948 -27.1693943 41.9630948 -26 45 C-22.92619102 45.84672053 -20.18880009 46.20821487 -17 46 C-15.11696568 44.94705388 -15.11696568 44.94705388 -13.46875 43.28125 C-12.78296875 42.6411499 -12.0971875 42.0010498 -11.390625 41.34155273 C-10.60171875 40.56884033 -9.8128125 39.79612793 -9 39 C-8.53851563 38.54916046 -8.07703125 38.09832092 -7.6015625 37.63381958 C-3.86774914 33.97629221 -0.18127523 30.27277457 3.5 26.5625 C4.61955632 25.4379167 5.73934629 24.31356595 6.859375 23.18945312 C9.57561534 20.46230656 12.28868292 17.73204093 15 15 C21.18259906 20.96650669 23.22195259 27.89771684 23.4375 36.4375 C22.98206749 49.23515354 19.04945367 60.74487693 10 70 C-1.31022169 78.97172655 -13.69565843 82.27611346 -28 81 C-40.15519798 78.05745207 -49.7801742 71.18732908 -56.52734375 60.67578125 C-62.47415726 49.87056307 -64.25084483 37.51489809 -61.08203125 25.52734375 C-56.49013006 13.77267113 -48.72702832 4.4380546 -37.1875 -0.875 C-24.88357471 -6.11588214 -12.20604044 -5.19325323 0 0 Z " fill="#E54D3D" transform="translate(378,320)"/>
<path d="M0 0 C2.67447379 1.64583003 3.71886007 2.82161468 4.45141602 5.89208984 C4.75796884 9.68120084 4.60808249 12.1031993 2.43530273 15.30761719 C0.21908123 17.70518237 -2.08987408 19.92264355 -4.5 22.125 C-5.29148437 22.88425781 -6.08296875 23.64351562 -6.8984375 24.42578125 C-9.73371132 27.12626336 -12.58389036 29.80036626 -15.57229042 32.3319397 C-22.10753061 37.90307371 -28.11469719 43.98862741 -34.16748047 50.06982422 C-35.3769989 51.28126494 -36.58674752 52.49247589 -37.79670715 53.70347595 C-40.38718346 56.29709695 -42.97610216 58.89225897 -45.56380844 61.48864365 C-49.65363338 65.5920471 -53.74732034 69.69158314 -57.84158325 73.79055786 C-66.52236251 82.48240556 -75.19888634 91.17849552 -83.875 99.875 C-93.26326644 109.28529272 -102.65226777 118.69484535 -112.04613221 128.09955037 C-116.11888443 132.1772926 -120.18918456 136.25746221 -124.25764155 140.3394897 C-126.78112179 142.87040614 -129.30665133 145.39926983 -131.83275414 147.92756844 C-133.00674651 149.10343929 -134.17987094 150.28017739 -135.35207939 151.45782661 C-136.94702738 153.05994676 -138.54499215 154.65899511 -140.14376831 156.2572937 C-141.48598355 157.60283986 -141.48598355 157.60283986 -142.85531425 158.97556877 C-145.37472601 161.35371478 -146.38388277 161.91785104 -149.8125 162.375 C-153 162 -153 162 -155.875 159.9375 C-158 157 -158 157 -158.75 153.6875 C-156.95182257 144.84646095 -146.60369308 137.41744647 -140.32788086 131.14257812 C-138.66816402 129.48063812 -137.01665543 127.8108039 -135.36523438 126.140625 C-134.31038386 125.08284643 -133.2550629 124.02553675 -132.19921875 122.96875 C-131.70653 122.46887573 -131.21384125 121.96900146 -130.70622253 121.45397949 C-127.22887123 118 -127.22887123 118 -125 118 C-124.74837443 117.42319614 -124.49674887 116.84639229 -124.23749828 116.25210953 C-122.83917679 113.70731961 -121.25749768 112.01434255 -119.20002747 109.96624756 C-118.40804962 109.17296555 -117.61607178 108.37968353 -116.8000946 107.56236267 C-115.92996231 106.70099197 -115.05983002 105.83962128 -114.16333008 104.95214844 C-113.24769287 104.03782547 -112.33205566 103.1235025 -111.38867188 102.18147278 C-109.3983099 100.19404212 -107.4048342 98.20980752 -105.40888405 96.2279892 C-102.24706659 93.08848159 -99.09239195 89.94186155 -95.93864441 86.79425049 C-90.94301281 81.8100006 -85.94273498 76.830442 -80.94040841 71.85291219 C-71.99999633 62.95675806 -63.06502603 54.05514754 -54.13540953 45.14815736 C-51.00558094 42.02668957 -47.87296621 38.90805387 -44.73801291 35.79173326 C-43.25268978 34.3145403 -41.76853023 32.8361896 -40.28485107 31.35734558 C-38.48437752 29.56284484 -36.68209239 27.77015888 -34.87754822 25.97975159 C-30.5723813 21.68267962 -26.41859982 17.32019443 -22.46448803 12.6967659 C-20.34468876 10.2407519 -18.0968824 7.92754124 -15.8125 5.625 C-14.99394531 4.79226562 -14.17539062 3.95953125 -13.33203125 3.1015625 C-8.77302368 -1.00688988 -6.0442804 -1.5110701 0 0 Z " fill="#814537" transform="translate(508,205)"/>
<path d="M0 0 C1.54779081 -0.00677959 3.09557355 -0.01568465 4.64334106 -0.02655029 C8.83767161 -0.04931005 13.03138601 -0.04052134 17.22572708 -0.02465487 C21.61916999 -0.01197852 26.01256084 -0.02374079 30.40600586 -0.03158569 C37.78346204 -0.04067722 45.16066779 -0.02870746 52.53808594 -0.00488281 C61.06226261 0.02232763 69.58584129 0.0135131 78.11000347 -0.01401484 C85.4342011 -0.03671914 92.75821892 -0.03989957 100.08244038 -0.02682149 C104.45446382 -0.0190342 108.82620637 -0.01796539 113.19821167 -0.03450394 C117.30903938 -0.04896881 121.41909763 -0.03889093 125.52984238 -0.01003265 C127.03666787 -0.0034325 128.54355835 -0.00530131 130.05035782 -0.01634598 C142.84582345 -0.10147422 142.84582345 -0.10147422 146.81420898 2.96865845 C148.91015625 5.64697266 148.91015625 5.64697266 149.53515625 9.14697266 C148.82578946 13.11942667 147.73783918 14.81928973 144.91015625 17.64697266 C142.12243947 19.04083105 139.83203861 18.78582551 136.71173096 18.8008728 C136.06905423 18.80525506 135.4263775 18.80963731 134.76422572 18.81415236 C132.60095225 18.82755517 130.43771953 18.83372252 128.27441406 18.83984375 C126.72722183 18.84774359 125.18003145 18.85601247 123.63284302 18.86462402 C118.54300703 18.89085911 113.45316276 18.90615373 108.36328125 18.92041016 C106.61194605 18.92576934 104.86061091 18.93114684 103.10927582 18.93654251 C95.82447142 18.95817395 88.53966925 18.97691082 81.25484085 18.9881649 C70.81095762 19.00440468 60.36744641 19.03757994 49.92370343 19.09456575 C42.58265336 19.13325739 35.24170283 19.1527967 27.90055346 19.15808547 C23.51498729 19.16174019 19.12981776 19.17377374 14.74436188 19.2061882 C10.61727221 19.2362552 6.49081946 19.24258585 2.36364365 19.23080444 C0.85033418 19.23058359 -0.66300471 19.2388989 -2.17621231 19.25645828 C-15.03671226 19.39754761 -15.03671226 19.39754761 -18.98712158 16.2394104 C-21.91209182 12.6332263 -21.91209182 12.6332263 -21.83984375 9.64697266 C-21.8553125 9.00759766 -21.87078125 8.36822266 -21.88671875 7.70947266 C-18.28298844 -1.61782931 -8.26279594 -0.06056535 0 0 Z " fill="#5C7A82" transform="translate(175.08984375,118.35302734375)"/>
<path d="M0 0 C4.28454303 1.65729195 7.15819806 4.87742984 10.32910156 8.0703125 C10.95391418 8.69162048 11.57872681 9.31292847 12.22247314 9.95306396 C14.28357967 12.00537694 16.3372954 14.0649084 18.390625 16.125 C19.81951115 17.55253916 21.24869409 18.97978129 22.67816162 20.40673828 C25.67054221 23.39617111 28.65927687 26.3891901 31.64550781 29.38476562 C35.48131679 33.23198948 39.326061 37.07013868 43.17355728 40.90567017 C46.12472656 43.84962911 49.07113626 46.79831431 52.01610565 49.74847412 C53.43248247 51.16618866 54.85035623 52.58240924 56.26972198 53.99713135 C58.24750847 55.96986399 60.21881229 57.94884983 62.18847656 59.9296875 C62.78063965 60.51780212 63.37280273 61.10591675 63.98291016 61.71185303 C68 65.77146944 68 65.77146944 68 68 C60.18979054 68.15267411 52.37996872 68.25743609 44.56860352 68.32958984 C41.91326588 68.35628478 39.25988936 68.40055241 36.60473633 68.45263672 C32.77921118 68.52577703 28.95500531 68.5595343 25.12890625 68.5859375 C23.36118614 68.63238907 23.36118614 68.63238907 21.55775452 68.67977905 C13.82212431 68.68290778 8.68394134 67.43318215 3 62 C-1.30412765 56.58295746 -0.37858098 49.76564259 -0.29296875 43.1640625 C-0.28872391 41.92957367 -0.28447906 40.69508484 -0.28010559 39.42318726 C-0.26334731 35.49023394 -0.22569883 31.55779779 -0.1875 27.625 C-0.1707574 24.95443458 -0.15876183 22.28387401 -0.14648438 19.61328125 C-0.11345298 13.07534514 -0.06328112 6.53770953 0 0 Z " fill="#F3D65D" transform="translate(282,9)"/>
<path d="M0 0 C1.2102887 -0.0087616 2.42057739 -0.01752319 3.6675415 -0.02655029 C6.98007697 -0.04476955 10.29104803 -0.04052462 13.60349536 -0.02465487 C17.07471959 -0.01197246 20.54587817 -0.02374271 24.0171051 -0.03158569 C29.84697431 -0.04067676 35.6765266 -0.02871025 41.50634766 -0.00488281 C48.23840047 0.02231515 54.9696958 0.01352261 61.70173019 -0.01401484 C67.48877917 -0.03673601 73.27560064 -0.03989108 79.06267983 -0.02682149 C82.51589079 -0.01904166 85.96874626 -0.01794403 89.42193413 -0.03450394 C93.27377417 -0.05168583 97.12477238 -0.0278438 100.9765625 0 C102.68568565 -0.01518173 102.68568565 -0.01518173 104.42933655 -0.03067017 C113.05110349 0.08479367 113.05110349 0.08479367 116.76478577 2.96865845 C119.05297852 5.64697266 119.05297852 5.64697266 119.74047852 9.14697266 C118.8402992 13.7297037 117.84788995 14.90262401 114.05297852 17.64697266 C110.0402735 18.40112403 106.07123456 18.32971785 101.99829102 18.29394531 C100.77664246 18.30270691 99.5549939 18.31146851 98.29632568 18.32049561 C94.95287171 18.33871471 91.61096766 18.33447062 88.26760101 18.31860018 C84.76521252 18.30592055 81.2628892 18.31768699 77.76049805 18.32553101 C71.87935528 18.33462166 65.99852668 18.32265537 60.11743164 18.29882812 C53.32287734 18.2716175 46.52907324 18.28043211 39.73453712 18.30796015 C33.89570009 18.33066724 28.0570886 18.33384364 22.21822166 18.32076681 C18.73318565 18.3129809 15.24850199 18.31190643 11.76348877 18.32844925 C7.87791904 18.34560587 3.99318619 18.32181205 0.10766602 18.29394531 C-1.62087616 18.30912704 -1.62087616 18.30912704 -3.38433838 18.32461548 C-11.15189438 18.22128229 -11.15189438 18.22128229 -15.16137695 15.32528687 C-17.53682659 11.76231539 -17.69730985 9.84858752 -16.94702148 5.64697266 C-12.60383774 -0.84297473 -7.10302939 -0.06298262 0 0 Z " fill="#557680" transform="translate(170.947021484375,161.35302734375)"/>
<path d="M0 0 C1.71564903 -0.00832352 1.71564903 -0.00832352 3.46595764 -0.01681519 C7.24067278 -0.02861078 11.01418746 -0.0043363 14.78881836 0.02148438 C17.41385341 0.02319542 20.03889016 0.02312985 22.66392517 0.0213623 C28.16249115 0.02141581 33.66071269 0.0411318 39.15917969 0.07324219 C45.50998078 0.11015055 51.86033122 0.11891456 58.21122557 0.11194468 C64.33019613 0.10563323 70.44898785 0.11661851 76.56793022 0.13591003 C79.16787398 0.14294431 81.76783136 0.14606405 84.3677845 0.1452179 C87.99934671 0.14701398 91.63026735 0.16838048 95.26171875 0.1953125 C96.8756955 0.1909166 96.8756955 0.1909166 98.52227783 0.18643188 C107.83945087 0.29313243 107.83945087 0.29313243 111.56616211 3.61523438 C111.56616211 4.27523437 111.56616211 4.93523437 111.56616211 5.61523438 C109.51190093 7.17967895 107.46459555 8.62887966 105.31616211 10.05273438 C100.86999193 12.98794124 100.86999193 12.98794124 96.64865112 16.22796726 C94.20648374 17.85483707 92.91971809 17.99394285 90.01196289 18.00291443 C88.64929291 18.01777138 88.64929291 18.01777138 87.25909424 18.03292847 C86.26987976 18.02842682 85.28066528 18.02392517 84.26147461 18.01928711 C83.21393005 18.02615036 82.1663855 18.03301361 81.08709717 18.04008484 C77.62164793 18.05839842 74.15664939 18.05450905 70.69116211 18.04882812 C68.28507336 18.0533874 65.87898592 18.05869221 63.47290039 18.06471252 C58.42906403 18.07365237 53.38538594 18.07121008 48.34155273 18.0612793 C41.87142728 18.04978291 35.40184703 18.07000755 28.93179321 18.09919643 C23.96301797 18.1175229 18.99437427 18.11727313 14.02557373 18.11155891 C11.63970169 18.1114053 9.25382095 18.11748293 6.86798096 18.12985039 C3.53525346 18.14469268 0.20354475 18.1341326 -3.12915039 18.11694336 C-4.11836487 18.12661133 -5.10757935 18.1362793 -6.12677002 18.14624023 C-12.763854 18.07439233 -12.763854 18.07439233 -16.03881836 15.82997131 C-17.70993834 13.17689652 -17.99969459 10.8219298 -18.16040039 7.71289062 C-15.29744873 -0.55272789 -7.29000812 -0.09003048 0 0 Z " fill="#587881" transform="translate(171.433837890625,229.384765625)"/>
<path d="M0 0 C3.27155869 2.36665948 4.70646942 3.89926032 5.75 7.8125 C3.73261644 16.38638012 -6.56976182 23.64007019 -12.68359375 29.64453125 C-16.03234534 32.95694919 -19.29831695 36.28056586 -22.3671875 39.85546875 C-26.86975654 45.08529666 -31.74913625 49.93322178 -36.625 54.8125 C-37.56259828 55.76227278 -38.50009882 56.71214206 -39.4375 57.66210938 C-40.33726563 58.56380859 -41.23703125 59.46550781 -42.1640625 60.39453125 C-42.97311035 61.20768799 -43.7821582 62.02084473 -44.61572266 62.85864258 C-47.7963617 65.71522511 -50.61902274 67.69311616 -54.8125 68.625 C-59.77210449 67.65252853 -62.53090167 64.52620283 -66 61 C-66.78503906 60.23042969 -66.78503906 60.23042969 -67.5859375 59.4453125 C-69.96874638 56.89722208 -71.07273265 54.76967995 -72.125 51.4375 C-72 48 -72 48 -70.0625 45.0625 C-65.89717837 42.25728339 -63.9485966 42.36147141 -59 43 C-57 44.5 -57 44.5 -56 46 C-52.56862971 44.52180621 -50.35736924 42.59537543 -47.73803711 39.94921875 C-46.49170753 38.69782104 -46.49170753 38.69782104 -45.22019958 37.42114258 C-44.33155716 36.51904053 -43.44291473 35.61693848 -42.52734375 34.6875 C-41.12267675 33.27488652 -39.71800724 31.86227552 -38.3131876 30.44981384 C-36.34926948 28.47277568 -34.3899296 26.49123064 -32.43060303 24.50964355 C-28.99919968 21.04022727 -25.56296271 17.57561375 -22.1231842 14.11450195 C-20.29297931 12.27202606 -18.46545402 10.42688385 -16.64085388 8.57885742 C-15.81311966 7.74459229 -14.98538544 6.91032715 -14.13256836 6.05078125 C-13.04147011 4.94730347 -13.04147011 4.94730347 -11.92832947 3.8215332 C-7.94392614 0.05779725 -5.42349456 -0.65455969 0 0 Z " fill="#29AE5E" transform="translate(140,94)"/>
<path d="M0 0 C3.27155869 2.36665948 4.70646942 3.89926032 5.75 7.8125 C3.66824235 16.65997001 -6.80037587 23.94742019 -13.11328125 30.24609375 C-14.17480293 31.30829045 -15.23617624 32.37063543 -16.29740906 33.43312073 C-18.50532963 35.64250511 -20.71502254 37.85009677 -22.92602539 40.05639648 C-25.76187442 42.8865068 -28.59315327 45.72114035 -31.42315388 48.55709743 C-33.6063066 50.74385573 -35.79182539 52.92823672 -37.97807884 55.11189461 C-39.02383021 56.15697887 -40.06883917 57.20280656 -41.11309242 58.24938774 C-42.56558764 59.70441392 -44.02123425 61.15621109 -45.4777832 62.60717773 C-46.71852348 63.84672462 -46.71852348 63.84672462 -47.98432922 65.11131287 C-50.43440384 67.40703718 -51.4588486 67.93819719 -54.8046875 68.3203125 C-61.2033223 67.67888456 -65.37533321 61.82757121 -69.56640625 57.3125 C-71.73614691 54.53039351 -72 52.85825866 -72 49.3125 C-71 46 -71 46 -69.4375 44.0625 C-65.72271629 42.44323531 -63.0510756 42.61418328 -59 43 C-57 44.5 -57 44.5 -56 46 C-52.51821534 44.50781097 -50.28570661 42.52332699 -47.63037109 39.84155273 C-46.77623627 38.98403915 -45.92210144 38.12652557 -45.04208374 37.24302673 C-44.12843048 36.31591385 -43.21477722 35.38880096 -42.2734375 34.43359375 C-41.32038643 33.47426895 -40.36681616 32.51545969 -39.41275024 31.55714417 C-36.90713443 29.03824926 -34.40715343 26.51384196 -31.90875244 23.98779297 C-27.90405009 19.93990249 -23.89255163 15.89877416 -19.87782669 11.86082649 C-18.47616499 10.4489324 -17.07807294 9.03349745 -15.68002319 7.61802673 C-14.83219269 6.76366531 -13.98436218 5.90930389 -13.11083984 5.02905273 C-12.36345551 4.27341537 -11.61607117 3.51777802 -10.84603882 2.73924255 C-7.39997163 -0.50746419 -4.65499854 -0.47338968 0 0 Z " fill="#27AE5E" transform="translate(140,316)"/>
<path d="M0 0 C3.27155869 2.36665948 4.70646942 3.89926032 5.75 7.8125 C3.66824235 16.65997001 -6.80037587 23.94742019 -13.11328125 30.24609375 C-14.17480293 31.30829045 -15.23617624 32.37063543 -16.29740906 33.43312073 C-18.50532963 35.64250511 -20.71502254 37.85009677 -22.92602539 40.05639648 C-25.76187442 42.8865068 -28.59315327 45.72114035 -31.42315388 48.55709743 C-33.6063066 50.74385573 -35.79182539 52.92823672 -37.97807884 55.11189461 C-39.02383021 56.15697887 -40.06883917 57.20280656 -41.11309242 58.24938774 C-42.56558764 59.70441392 -44.02123425 61.15621109 -45.4777832 62.60717773 C-46.71852348 63.84672462 -46.71852348 63.84672462 -47.98432922 65.11131287 C-50.31339522 67.29365189 -51.49614998 67.90402857 -54.625 68.5 C-59.77508279 67.73702477 -62.43789354 64.62074195 -66 61 C-66.78503906 60.23042969 -66.78503906 60.23042969 -67.5859375 59.4453125 C-69.96874638 56.89722208 -71.07273265 54.76967995 -72.125 51.4375 C-72 48 -72 48 -70.0625 45.0625 C-65.89717837 42.25728339 -63.9485966 42.36147141 -59 43 C-57 44.5 -57 44.5 -56 46 C-52.51821534 44.50781097 -50.28570661 42.52332699 -47.63037109 39.84155273 C-46.77623627 38.98403915 -45.92210144 38.12652557 -45.04208374 37.24302673 C-44.12843048 36.31591385 -43.21477722 35.38880096 -42.2734375 34.43359375 C-41.32038643 33.47426895 -40.36681616 32.51545969 -39.41275024 31.55714417 C-36.90713443 29.03824926 -34.40715343 26.51384196 -31.90875244 23.98779297 C-27.90405009 19.93990249 -23.89255163 15.89877416 -19.87782669 11.86082649 C-18.47616499 10.4489324 -17.07807294 9.03349745 -15.68002319 7.61802673 C-14.83219269 6.76366531 -13.98436218 5.90930389 -13.11083984 5.02905273 C-12.36345551 4.27341537 -11.61607117 3.51777802 -10.84603882 2.73924255 C-7.39997163 -0.50746419 -4.65499854 -0.47338968 0 0 Z " fill="#27AE5E" transform="translate(140,205)"/>
<path d="M0 0 C1.15207443 -0.00591408 1.15207443 -0.00591408 2.3274231 -0.01194763 C4.85607961 -0.0186395 7.38291492 0.01045676 9.91137695 0.04077148 C11.67063548 0.04502277 13.42989961 0.04735029 15.18916321 0.0478363 C18.87034643 0.0539953 22.55091963 0.07666894 26.23193359 0.11230469 C30.95673786 0.15767667 35.68099146 0.17233613 40.40599346 0.1760416 C44.03562374 0.18046314 47.66513784 0.19575281 51.29471779 0.21491814 C53.03748429 0.22381183 54.78026322 0.23053624 56.52304649 0.23507881 C58.95307811 0.24409207 61.38260446 0.26645397 63.8125 0.29296875 C64.53616257 0.29363342 65.25982513 0.2942981 66.00541687 0.29498291 C70.98297836 0.37018539 70.98297836 0.37018539 73.2121582 2.59936523 C70.88214021 8.00170513 68.45746755 13.41868711 64.2121582 17.59936523 C58.70647217 19.72302739 53.58559625 19.48646529 47.7590332 19.23999023 C46.16966235 19.22467363 44.58022403 19.21531479 42.99078369 19.21160889 C39.67325299 19.18869143 36.36186325 19.11703546 33.04614258 19.00561523 C28.8030149 18.86372168 24.56468359 18.80951192 20.31940842 18.78720474 C16.25700398 18.76140236 12.19579606 18.68874589 8.1340332 18.61499023 C7.36374535 18.60558662 6.59345749 18.59618301 5.79982758 18.58649445 C3.61369152 18.55199268 1.43127252 18.4838057 -0.75366211 18.4050293 C-1.99448547 18.37088928 -3.23530884 18.33674927 -4.51373291 18.30157471 C-8.66078061 17.41214302 -10.19281725 15.89767259 -12.7878418 12.59936523 C-13.4128418 9.09936523 -13.4128418 9.09936523 -12.7878418 5.59936523 C-9.03305171 0.69385919 -5.9219305 -0.12242039 0 0 Z " fill="#557580" transform="translate(166.787841796875,272.400634765625)"/>
<path d="M0 0 C1.25809982 0.00707474 2.51619965 0.01414948 3.81242371 0.0214386 C7.14546202 0.04465755 10.4767685 0.08951577 13.80932617 0.1449585 C17.2145293 0.19625391 20.61991189 0.21897434 24.02539062 0.24414062 C30.69839321 0.29924355 37.37058105 0.38289833 44.04296875 0.48828125 C44.55041298 2.38213562 45.04861449 4.27846791 45.54296875 6.17578125 C45.82140625 7.23152344 46.09984375 8.28726562 46.38671875 9.375 C46.98214025 12.19970797 47.17083367 14.61664833 47.04296875 17.48828125 C39.3064877 17.60426929 31.5700971 17.69304392 23.83294392 17.74734211 C20.23996015 17.77340669 16.64757239 17.80874454 13.05493164 17.86547852 C9.58598689 17.9199146 6.11761436 17.94972541 2.64827538 17.96266747 C0.68445824 17.97636574 -1.2791295 18.01538143 -3.24259949 18.05476379 C-13.1788571 18.0578886 -13.1788571 18.0578886 -16.26879883 15.17651367 C-18.51685753 11.59684999 -18.69863973 9.64128875 -17.95703125 5.48828125 C-13.59794856 -1.28820605 -7.42465604 -0.15692383 0 0 Z " fill="#547580" transform="translate(171.95703125,383.51171875)"/>
<path d="M0 0 C3.12473436 1.48839338 5.26007652 3.01465536 7.6875 5.5 C8.28949219 6.1084375 8.89148438 6.716875 9.51171875 7.34375 C11.42043896 9.46789008 11.96257446 10.80351593 12.5 13.625 C11.32188779 21.57725738 1.82846431 28.32559257 -3.6875 33.8125 C-4.43322266 34.56208984 -5.17894531 35.31167969 -5.94726562 36.08398438 C-6.66978516 36.80521484 -7.39230469 37.52644531 -8.13671875 38.26953125 C-8.78342529 38.91510986 -9.43013184 39.56068848 -10.09643555 40.22583008 C-14.17203088 44.02438738 -16.41712627 45.4792575 -22.20703125 45.3046875 C-27.89245019 44.68445998 -33.44441563 43.32765032 -39 42 C-39 39 -39 39 -37.51940918 37.15864563 C-36.82657837 36.47247665 -36.13374756 35.78630768 -35.41992188 35.0793457 C-34.63911255 34.29876297 -33.85830322 33.51818024 -33.05383301 32.71394348 C-32.20075562 31.87634995 -31.34767822 31.03875641 -30.46875 30.17578125 C-29.60310425 29.31438034 -28.7374585 28.45297943 -27.84558105 27.56547546 C-25.07065947 24.80738835 -22.28550377 22.05989543 -19.5 19.3125 C-17.62041202 17.4479526 -15.74149674 15.58272681 -13.86328125 13.71679688 C-9.2499735 9.13662174 -4.62821377 4.56510957 0 0 Z " fill="#EEC21A" transform="translate(492,236)"/>
<path d="M0 0 C3.39715504 0.80964137 4.94106977 1.60012543 7.4296875 4.0078125 C8.39648438 4.91273438 8.39648438 4.91273438 9.3828125 5.8359375 C11.14400635 7.71964918 12.64968391 9.68514753 14.1796875 11.7578125 C8.8541511 17.10647217 3.52595022 22.45246479 -1.80570889 27.79502106 C-4.28106159 30.27560263 -6.75547134 32.75711008 -9.2277832 35.24072266 C-12.06707915 38.09291605 -14.91036915 40.94109732 -17.75390625 43.7890625 C-18.64556992 44.68588745 -19.53723358 45.5827124 -20.45591736 46.50671387 C-21.27669266 47.3275647 -22.09746796 48.14841553 -22.94311523 48.99414062 C-23.66925522 49.72250122 -24.3953952 50.45086182 -25.14353943 51.20129395 C-26.8203125 52.7578125 -26.8203125 52.7578125 -27.8203125 52.7578125 C-28.4935781 49.86337155 -29.15911654 46.96751237 -29.8203125 44.0703125 C-30.01109375 43.25369141 -30.201875 42.43707031 -30.3984375 41.59570312 C-32.32802695 33.08483539 -32.32802695 33.08483539 -31.8203125 29.7578125 C-29.82107878 26.6719082 -27.14595026 24.17660752 -24.57275391 21.55859375 C-22.4328211 19.35963243 -20.33922713 17.11904171 -18.23828125 14.8828125 C-16.55907789 13.13109846 -14.87806661 11.38111585 -13.1953125 9.6328125 C-12.38408936 8.76640137 -11.57286621 7.89999023 -10.73706055 7.00732422 C-4.81175105 0.95447823 -4.81175105 0.95447823 0 0 Z " fill="#EFC41A" transform="translate(466.8203125,212.2421875)"/>
<path d="M0 0 C1.08096954 0.00007553 2.16193909 0.00015106 3.27566528 0.00022888 C5.03195755 0.00797081 5.03195755 0.00797081 6.82373047 0.01586914 C8.019487 0.01728409 9.21524353 0.01869904 10.44723511 0.02015686 C14.27848784 0.02576876 18.10968281 0.03832331 21.94091797 0.05102539 C24.53336504 0.05603886 27.12581303 0.06060203 29.71826172 0.06469727 C36.0841695 0.07574206 42.45003393 0.09301471 48.81591797 0.11352539 C48.81591797 5.72352539 48.81591797 11.33352539 48.81591797 17.11352539 C40.91393698 17.21231915 33.0123146 17.28496027 25.10986328 17.33325195 C22.42087331 17.35112439 19.73225971 17.37897014 17.04345703 17.4152832 C13.18104236 17.46374154 9.31920589 17.48648165 5.45654297 17.50415039 C4.25225647 17.52479553 3.04796997 17.54544067 1.80718994 17.56671143 C0.12589996 17.56716461 0.12589996 17.56716461 -1.58935547 17.56762695 C-2.57530701 17.5765094 -3.56125854 17.58539185 -4.5770874 17.59454346 C-7.91351159 16.97893793 -9.08898289 15.72269591 -11.18408203 13.11352539 C-11.91179436 10.37390251 -11.7637978 7.881384 -11.18408203 5.11352539 C-7.83853235 0.76431081 -5.31187378 -0.01235319 0 0 Z " fill="#587881" transform="translate(165.18408203125,340.886474609375)"/>
</svg>
