<?xml version="1.0" encoding="UTF-8"?>
<svg version="1.1" xmlns="http://www.w3.org/2000/svg" width="512" height="512">
<path d="M0 0 C0.72155273 0.30921387 1.44310547 0.61842773 2.18652344 0.93701172 C21.64652129 9.35571458 39.62454975 20.93496874 57 33 C57.82177734 33.56847656 58.64355469 34.13695312 59.49023438 34.72265625 C62.0025968 36.46921836 64.50334238 38.23107664 67 40 C67.7724707 40.54011719 68.54494141 41.08023438 69.34082031 41.63671875 C70.05334961 42.14847656 70.76587891 42.66023438 71.5 43.1875 C72.1290625 43.63480469 72.758125 44.08210938 73.40625 44.54296875 C75.2555819 46.23365698 76.10327137 47.66759978 77 50 C76.85149673 53.56407856 76.41197374 55.45560613 74.25 58.3125 C71.56524887 60.32606335 70.37354454 61 67 61 C61.56587483 58.85874368 56.95911211 55.67819449 52.375 52.125 C25.35418103 31.83944357 -12.20271663 5.99489858 -47.4375 5.75 C-48.17548828 5.729375 -48.91347656 5.70875 -49.67382812 5.6875 C-54.53183164 5.6529542 -57.77137776 6.3603146 -62 9 C-67.46378856 15.02900807 -66.49217452 23.11264667 -66.17041016 30.75732422 C-65.71494629 36.7514375 -63.98283012 42.35997982 -62 48 C-61.7421875 48.73524902 -61.484375 49.47049805 -61.21875 50.22802734 C-53.56134971 71.52074054 -42.5106437 91.21090553 -30 110 C-29.5373877 110.69673828 -29.07477539 111.39347656 -28.59814453 112.11132812 C-21.7642552 122.34881942 -14.45862099 132.2113735 -7 142 C-6.33355469 140.92363281 -5.66710937 139.84726563 -4.98046875 138.73828125 C14.53897879 107.63095053 40.89602883 86.98105673 76.9375 78.25 C87.07835155 75.95194141 97.09130996 75.75819253 107.4375 75.75 C108.58191559 75.74898788 108.58191559 75.74898788 109.74945068 75.74795532 C120.78873869 75.76349053 131.2817203 76.10980886 142 79 C142.63357422 79.16097168 143.26714844 79.32194336 143.91992188 79.48779297 C179.26011191 88.6030402 204.60753401 111.16326979 223 142 C247.67211503 110.41001742 281.95910756 66.41465016 282.25 24.5625 C282.270625 23.82451172 282.29125 23.08652344 282.3125 22.32617188 C282.3470458 17.46816836 281.6396854 14.22862224 279 10 C272.97099193 4.53621144 264.88735333 5.50782548 257.24267578 5.82958984 C223.4588378 8.39666136 188.78996421 34.07383586 162.22265625 53.00390625 C151.13283888 60.89079066 151.13283888 60.89079066 146 61 C142.76215093 59.67542538 141.37992129 58.65622768 139.625 55.625 C138.88445708 52.51471973 138.8750596 50.99984107 140 48 C143.90929891 43.65881664 148.38619206 40.32691414 153.125 36.9375 C154.30328369 36.09203613 154.30328369 36.09203613 155.50537109 35.22949219 C182.25941855 16.23385334 212.15006484 -1.3591248 244 -10 C245.03821899 -10.28254639 245.03821899 -10.28254639 246.09741211 -10.57080078 C252.06284284 -12.05272263 257.80580335 -12.36648966 263.9375 -12.375 C264.86240234 -12.39949219 265.78730469 -12.42398438 266.74023438 -12.44921875 C275.42701559 -12.48574341 283.44080119 -9.92906907 290.40234375 -4.61328125 C299.11729937 4.18690621 300.41552886 14.53655398 300.36132812 26.27294922 C299.95464113 47.73270007 290.81708283 67.4145423 280.97363281 86.13818359 C280.03493894 87.93318848 279.12239604 89.74179477 278.2109375 91.55078125 C266.72039846 114.11650129 251.62821515 134.72779023 236.04858398 154.60864258 C235.53239502 155.27275146 235.01620605 155.93686035 234.484375 156.62109375 C233.79939941 157.49399048 233.79939941 157.49399048 233.10058594 158.38452148 C231.80628135 160.12649641 231.80628135 160.12649641 231 163 C231.55009855 165.7910263 232.16520358 168.50012646 232.875 171.25 C233.2504335 172.73360961 233.62286624 174.21798204 233.9921875 175.703125 C234.16089355 176.35958008 234.32959961 177.01603516 234.50341797 177.69238281 C236.26887733 185.89647419 236.24300277 194.09407715 236.25 202.4375 C236.25067474 203.15686737 236.25134949 203.87623474 236.25204468 204.61740112 C236.23649018 215.03528005 235.90178729 224.90224828 233 235 C232.6596875 236.22589844 232.319375 237.45179688 231.96875 238.71484375 C225.25434286 260.6954536 212.58193622 279.48528451 197.82861328 296.83154297 C194.70795049 300.53217407 191.66906899 304.29883181 188.625 308.0625 C187.53394807 309.40762826 186.44281157 310.75268792 185.3515625 312.09765625 C184.18753906 313.53431641 184.18753906 313.53431641 183 315 C198.93614696 329.45291251 231.04143998 342.20087419 253.0078125 341.2890625 C257.67996673 340.61114208 261.53767757 339.03901857 265.375 336.3125 C270.41473566 329.14056849 269.35641927 320.24623125 268 312 C265.03128735 297.0523931 259.00223735 283.34276118 251.78125 270 C251.22896729 268.97350342 250.67668457 267.94700684 250.10766602 266.8894043 C249.01454717 264.87557929 247.90365244 262.87127749 246.77319336 260.87817383 C242.55070002 253.14672439 242.55070002 253.14672439 243.0234375 248.9765625 C244.26943234 245.17877023 245.51874723 243.93402932 249 242 C252 241.4375 252 241.4375 255 242 C259.42917122 245.76334809 262.02728576 250.028989 264.75 255.0625 C265.17829102 255.84761963 265.60658203 256.63273926 266.04785156 257.44165039 C278.70143543 281.01465331 292.53970162 310.00086347 284.97265625 337.20703125 C282.18125151 345.22251074 277.19470675 351.41913776 269.5390625 355.22265625 C249.43351429 363.64525077 227.32338144 356.68150927 208 349 C195.94709022 343.81646102 184.10907829 337.99991385 173 331 C170.44837454 334.21574716 169.16730489 337.04912191 168 341 C168.99 341.33 169.98 341.66 171 342 C172.59901147 345.19802294 172.50072781 348.52920172 172 352 C170.25 354.5 170.25 354.5 168 356 C166.68 356 165.36 356 164 356 C164 361.28 164 366.56 164 372 C165.98 372.33 167.96 372.66 170 373 C172.45122505 376.67683758 172.70497355 379.72717253 172 384 C170.25 386.5 170.25 386.5 168 388 C166.68 388 165.36 388 164 388 C164.04640625 388.99 164.0928125 389.98 164.140625 391 C164.6208247 405.36233644 164.6208247 405.36233644 160 411 C156.28901721 414.88917194 152.3562998 418.73140268 147 420 C145.00012467 420.02233111 142.99984802 420.02465566 141 420 C140.97421875 420.99 140.9484375 421.98 140.921875 423 C140.60137729 431.52070687 140.24634087 438.54045373 134.1328125 444.9609375 C126.57179553 451.95131168 120.35114731 452.37302179 110.24487305 452.37060547 C108.20340714 452.37496602 106.1641292 452.41128866 104.12304688 452.44921875 C95.33734761 452.47525045 89.53596878 451.97489947 82.7578125 446.03515625 C75.93749513 437.79529914 74.81464423 430.56527903 75 420 C74.41992188 419.97421875 73.83984375 419.9484375 73.2421875 419.921875 C65.89324058 419.38828809 61.70875434 417.04700178 56.75 411.5625 C52.36082844 406.47719639 51.71139418 401.76319556 51.875 395.1875 C51.88402344 394.49462891 51.89304688 393.80175781 51.90234375 393.08789062 C51.92573843 391.39177605 51.96160359 389.69584129 52 388 C51.05125 387.896875 50.1025 387.79375 49.125 387.6875 C46 387 46 387 44 384 C43.32934132 376.95808383 43.32934132 376.95808383 45.75 373.5 C48 372 48 372 52 372 C52 366.72 52 361.44 52 356 C50.02 355.67 48.04 355.34 46 355 C44.00174039 352.00261059 43.72449602 351.36652492 43.75 348 C43.74226563 346.9790625 43.74226563 346.9790625 43.734375 345.9375 C44 344 44 344 46 341 C46.66 341 47.32 341 48 341 C46.02 336.05 46.02 336.05 44 331 C36.00799543 334.92591896 36.00799543 334.92591896 28.15625 339.12109375 C5.67658711 351.56105748 -23.14030094 364.22485849 -49.13671875 357.04296875 C-56.92681839 354.20537447 -63.50354931 349.17907737 -67.15234375 341.609375 C-75.23518008 322.39466087 -69.52540384 301.42216636 -62.17626953 282.82470703 C-59.94040508 277.45547671 -57.49761814 272.18924209 -55 266.9375 C-54.514104 265.91527344 -54.02820801 264.89304687 -53.52758789 263.83984375 C-44.72609979 245.81739986 -44.72609979 245.81739986 -39 242 C-35.29514168 241.51675761 -33.47407944 241.73662253 -30.1875 243.5625 C-27.31785945 246.76009947 -27.20710155 248.74065779 -27 253 C-28.13647461 256.12353516 -28.13647461 256.12353516 -29.90234375 259.2890625 C-30.21536942 259.86601364 -30.52839508 260.44296478 -30.85090637 261.03739929 C-31.51991402 262.26955927 -32.19633227 263.49772001 -32.8795166 264.72207642 C-34.66947993 267.94156308 -36.38861854 271.19811594 -38.10546875 274.45703125 C-38.61734238 275.42702309 -38.61734238 275.42702309 -39.13955688 276.41661072 C-46.84402528 291.15798577 -55.98194894 311.47429419 -52.484375 328.51171875 C-50.45757585 334.57114471 -50.45757585 334.57114471 -46 339 C-30.37550861 345.12725153 -11.61435974 337.44192594 2.87109375 331.2890625 C8.29064032 328.90709702 13.63028787 326.37196336 18.9375 323.75 C19.77200684 323.3379834 20.60651367 322.9259668 21.46630859 322.50146484 C25.69581789 320.3549519 29.41459058 318.15805759 33 315 C32.00033203 313.83597656 32.00033203 313.83597656 30.98046875 312.6484375 C24.554584 305.13116485 18.32515752 297.48854909 12.28466797 289.65820312 C11.08729045 288.11267136 9.87430999 286.5792627 8.66015625 285.046875 C-10.07504664 260.94464562 -20.19285436 234.5064917 -20.3125 203.875 C-20.31792313 202.81301895 -20.31792313 202.81301895 -20.32345581 201.72958374 C-20.35040287 188.57291276 -19.06198129 175.87104472 -15.14453125 163.2421875 C-14.77288293 160.87387858 -14.77288293 160.87387858 -16.4140625 158.73828125 C-17.14367187 157.93777344 -17.87328125 157.13726562 -18.625 156.3125 C-33.21810547 139.43427259 -45.7141194 120.22759308 -56.88037109 100.93359375 C-57.64655923 99.61039051 -58.4179783 98.29020618 -59.19384766 96.97265625 C-73.78968602 72.11981376 -89.64276984 40.68284022 -83.56933594 10.88720703 C-81.26421629 3.19866394 -77.10970461 -3.12940838 -70.125 -7.1875 C-68.89136719 -7.92033203 -68.89136719 -7.92033203 -67.6328125 -8.66796875 C-46.49578828 -19.36192314 -19.91792016 -8.66084716 0 0 Z " fill="#333332" transform="translate(148,60)"/>
<path d="M0 0 C12.19978302 10.64912147 23.40093139 23.69568785 29.48828125 38.9140625 C29.3962644 44.25103983 25.8844154 47.36410595 22.48828125 51.1015625 C21.90030762 51.76357666 21.31233398 52.42559082 20.70654297 53.10766602 C18.97632325 55.05162431 17.23398125 56.98400834 15.48828125 58.9140625 C14.62460937 59.87828125 13.7609375 60.8425 12.87109375 61.8359375 C11.48004882 63.38582147 10.0850545 64.93218421 8.68359375 66.47265625 C6.81550719 68.55015465 4.97499405 70.64675442 3.140625 72.75390625 C-6.45617384 83.73534961 -16.65315741 94.15431134 -26.94921875 104.4765625 C-27.87226807 105.4042041 -28.79531738 106.3318457 -29.74633789 107.28759766 C-34.26457747 111.7956196 -38.83328594 116.16901456 -43.67749023 120.32495117 C-46.64120695 122.89261151 -49.47209978 125.59896763 -52.32421875 128.2890625 C-68.08781152 143.02774473 -68.08781152 143.02774473 -74.51171875 145.9140625 C-75.14078125 145.34558594 -75.76984375 144.77710938 -76.41796875 144.19140625 C-80.42784525 140.57406284 -84.4391723 136.96084988 -88.51171875 133.4140625 C-93.22622994 129.29940959 -97.88578869 125.12809468 -102.51171875 120.9140625 C-103.27403809 120.22159424 -103.27403809 120.22159424 -104.05175781 119.51513672 C-112.75914116 111.58005586 -121.17275598 103.35795217 -129.51171875 95.0390625 C-130.00626556 94.54710388 -130.50081238 94.05514526 -131.01034546 93.54827881 C-136.16015388 88.41976164 -141.21146654 83.25026324 -145.94238281 77.72851562 C-148.50146279 74.76972869 -151.20277913 71.9466207 -153.88671875 69.1015625 C-158.64746735 64.01805128 -163.16728127 58.83801977 -167.49609375 53.37890625 C-169.95791076 50.36842848 -172.63018075 47.59691674 -175.39453125 44.86328125 C-176.51171875 42.9140625 -176.51171875 42.9140625 -176.44140625 40.1640625 C-175.29451877 36.15477516 -173.58727039 32.8268413 -171.51171875 29.2265625 C-171.10945068 28.52321777 -170.70718262 27.81987305 -170.29272461 27.09521484 C-166.62097528 20.83286223 -162.41411096 15.2750118 -157.51171875 9.9140625 C-156.75375 9.07488281 -155.99578125 8.23570312 -155.21484375 7.37109375 C-140.79674365 -7.82445293 -122.77220595 -17.2326649 -102.51171875 -22.0859375 C-101.66996094 -22.29863281 -100.82820313 -22.51132813 -99.9609375 -22.73046875 C-65.8605691 -30.91691298 -26.96066921 -22.39035359 0 0 Z " fill="#FEC928" transform="translate(329.51171875,177.0859375)"/>
<path d="M0 0 C3.05500765 0.69192112 4.10761159 2.00841117 6.03515625 4.4609375 C7.08800985 6.96746296 7.99693932 9.39028628 8.84765625 11.9609375 C15.94788471 31.86592857 28.12975865 45.54978902 47.03515625 54.9609375 C48.12828125 55.46625 49.22140625 55.9715625 50.34765625 56.4921875 C53.03515625 58.4609375 53.03515625 58.4609375 54.59765625 61.8046875 C55.12886602 66.24408341 54.67103185 67.87069315 52.03515625 71.4609375 C48.99609375 73.33203125 48.99609375 73.33203125 45.41015625 74.8984375 C39.2627461 77.73436464 34.1269999 80.94282271 29.03515625 85.4609375 C28.44605469 85.95722656 27.85695313 86.45351563 27.25 86.96484375 C17.49437567 95.83157292 12.11594557 107.73197842 7.68579102 119.88354492 C7.38084717 120.70830322 7.07590332 121.53306152 6.76171875 122.3828125 C6.36847412 123.49027832 6.36847412 123.49027832 5.96728516 124.62011719 C5.03515625 126.4609375 5.03515625 126.4609375 2.03515625 128.4609375 C-5.0192761 129.1327882 -5.0192761 129.1327882 -8.33984375 126.7734375 C-10.00669106 124.40138556 -11.04991707 122.20571755 -11.96484375 119.4609375 C-12.95484375 119.7909375 -13.94484375 120.1209375 -14.96484375 120.4609375 C-15.25617187 119.65011719 -15.5475 118.83929688 -15.84765625 118.00390625 C-22.76614408 99.31528661 -31.66660766 86.33280954 -49.96484375 77.4609375 C-49.96484375 76.4709375 -49.96484375 75.4809375 -49.96484375 74.4609375 C-51.09921875 73.8421875 -52.23359375 73.2234375 -53.40234375 72.5859375 C-56.83984375 70.7109375 -56.83984375 70.7109375 -57.96484375 68.4609375 C-58.54960181 61.20993754 -58.54960181 61.20993754 -56.3515625 58.39453125 C-53.54403248 56.12001838 -50.77082633 54.85411226 -47.46484375 53.3984375 C-29.51558705 44.94812445 -18.51779379 28.13418731 -11.67578125 10.0546875 C-11.04062206 8.21224098 -10.42805166 6.36163815 -9.8515625 4.5 C-7.9053011 0.02445617 -4.37450186 0.18543168 0 0 Z M-2.96484375 32.4609375 C-4.60513295 34.52801573 -4.60513295 34.52801573 -6.15234375 37.1484375 C-6.70277344 38.01855469 -7.25320312 38.88867188 -7.8203125 39.78515625 C-9.18850128 42.98382286 -9.07797088 44.20363001 -7.96484375 47.4609375 C-5.12677503 53.20892479 -1.77496278 58.1974229 3.03515625 62.4609375 C3.82535156 63.20730469 4.61554687 63.95367187 5.4296875 64.72265625 C10.45856421 70.12696366 10.45856421 70.12696366 17.03515625 72.4609375 C19.70789426 71.12645316 19.70789426 71.12645316 22.28515625 69.1484375 C23.1771875 68.51292969 24.06921875 67.87742187 24.98828125 67.22265625 C25.66375 66.64128906 26.33921875 66.05992187 27.03515625 65.4609375 C27.03515625 64.8009375 27.03515625 64.1409375 27.03515625 63.4609375 C25.69554495 62.57961428 24.35358287 61.70176778 23.00390625 60.8359375 C12.50276984 53.50181048 5.01327143 43.66990346 -0.96484375 32.4609375 C-1.62484375 32.4609375 -2.28484375 32.4609375 -2.96484375 32.4609375 Z " fill="#333332" transform="translate(57.96484375,383.5390625)"/>
<path d="M0 0 C3.05500765 0.69192112 4.10761159 2.00841117 6.03515625 4.4609375 C7.08801073 6.96746504 7.99730109 9.39015275 8.84765625 11.9609375 C13.09762869 23.91949937 19.05714282 33.43558833 28.03515625 42.4609375 C28.61394531 43.07453125 29.19273437 43.688125 29.7890625 44.3203125 C34.88037165 49.28633216 41.00349105 52.28844006 47.30859375 55.44165039 C48.03175781 55.80508545 48.75492187 56.16852051 49.5 56.54296875 C50.15605225 56.86499268 50.81210449 57.1870166 51.48803711 57.51879883 C53.03515625 58.4609375 53.03515625 58.4609375 54.03515625 60.4609375 C54.61455539 67.64548686 54.61455539 67.64548686 52.34765625 70.8359375 C49.97560431 72.50278481 47.7799363 73.54601082 45.03515625 74.4609375 C45.36515625 75.4509375 45.69515625 76.4409375 46.03515625 77.4609375 C45.34550781 77.80125 44.65585937 78.1415625 43.9453125 78.4921875 C27.19551207 87.13131639 17.95920828 100.16636506 11.8671875 117.8515625 C11.59261719 118.71265625 11.31804687 119.57375 11.03515625 120.4609375 C10.37515625 120.4609375 9.71515625 120.4609375 9.03515625 120.4609375 C8.70515625 119.8009375 8.37515625 119.1409375 8.03515625 118.4609375 C7.85339844 119.01523437 7.67164063 119.56953125 7.484375 120.140625 C7.23300781 120.86507812 6.98164063 121.58953125 6.72265625 122.3359375 C6.47902344 123.05523437 6.23539062 123.77453125 5.984375 124.515625 C5.03515625 126.4609375 5.03515625 126.4609375 2.03515625 128.4609375 C-5.06193216 129.13685068 -5.06193216 129.13685068 -8.046875 126.90234375 C-10.44625171 123.84814732 -11.52493044 120.66271502 -12.71484375 117.0234375 C-18.61577964 100.3088795 -29.61171198 84.57878846 -45.796875 76.5 C-46.81080322 75.99073975 -46.81080322 75.99073975 -47.84521484 75.47119141 C-49.18932315 74.81110119 -50.54510547 74.17413806 -51.91259766 73.56396484 C-55.46786274 71.84367529 -56.85936373 70.67948602 -58.59375 67.0859375 C-59.04710008 62.65742301 -58.6281783 61.02034722 -55.96484375 57.4609375 C-53.45611734 56.01035294 -51.17406811 54.88045712 -48.52734375 53.7734375 C-29.29901741 44.91771532 -18.45550253 27.73405706 -11.27734375 8.3359375 C-10.90222656 7.26085937 -10.52710938 6.18578125 -10.140625 5.078125 C-7.96939667 0.24515828 -4.91115669 0.20818005 0 0 Z M-2.96484375 32.4609375 C-4.37308971 34.5399213 -5.67706901 36.62150178 -6.96484375 38.7734375 C-13.06131395 48.58367726 -20.24803821 57.02830366 -29.96484375 63.4609375 C-28.83307134 66.85625473 -27.93172362 67.58643934 -25.15234375 69.7109375 C-24.12173828 70.52304687 -24.12173828 70.52304687 -23.0703125 71.3515625 C-21.06468576 72.64610653 -21.06468576 72.64610653 -18.96484375 72.3125 C-9.16337516 68.13921845 -1.29916338 58.15812932 3.66015625 49.0234375 C5.17474365 45.12604116 5.17474365 45.12604116 4.03515625 41.4609375 C3.22422631 39.85503035 2.36770048 38.27152744 1.47265625 36.7109375 C0.79009766 35.51210938 0.79009766 35.51210938 0.09375 34.2890625 C-0.25558594 33.68578125 -0.60492188 33.0825 -0.96484375 32.4609375 C-1.62484375 32.4609375 -2.28484375 32.4609375 -2.96484375 32.4609375 Z " fill="#333332" transform="translate(457.96484375,383.5390625)"/>
<path d="M0 0 C2 1 2 1 2.62182617 2.81933594 C4.05742695 9.9879189 4.34782192 16.95013562 4.3125 24.25 C4.30512817 26.04679199 4.30512817 26.04679199 4.29760742 27.87988281 C4.18531343 36.34512223 3.52463062 43.88218366 1 52 C0.52433594 53.73056641 0.52433594 53.73056641 0.0390625 55.49609375 C-6.40091124 77.07685683 -19.42366225 96.22280065 -34.7578125 112.51171875 C-39.47704302 117.74891359 -43.69783765 123.41925108 -48 129 C-64.9967052 122.78615079 -81.32765647 107.61381091 -95 96 C-91.73217129 91.81309446 -88.26661235 88.35564469 -84.23046875 84.91015625 C-81.82707026 82.85190431 -79.47385852 80.74524121 -77.125 78.625 C-72 74 -72 74 -69.85658264 72.09812927 C-63.97287514 66.85531382 -58.30282468 61.45008727 -52.73828125 55.87109375 C-51.90338669 55.03715591 -51.06849213 54.20321808 -50.20829773 53.3440094 C-48.46014719 51.59653373 -46.71323615 49.84781727 -44.9675293 48.09790039 C-42.31216041 45.43715972 -39.65147383 42.7818207 -36.99023438 40.12695312 C-35.28092919 38.4169873 -33.57193414 36.70671138 -31.86328125 34.99609375 C-31.0777034 34.21254013 -30.29212555 33.42898651 -29.48274231 32.62168884 C-24.78708445 27.90624302 -20.33137101 23.05060823 -16 18 C-14.50429773 16.32947538 -13.00495734 14.66219168 -11.5 13 C-7.62300718 8.70405255 -3.79497102 4.36848754 0 0 Z " fill="#EAB100" transform="translate(364,238)"/>
<path d="M0 0 C6.15022373 5.95182942 11.76613691 12.41671774 17.375 18.875 C27.35697451 30.28083646 37.89719698 41.05436108 48.62573242 51.75610352 C51.19631311 54.32129463 53.76146593 56.89182731 56.32617188 59.46289062 C57.98145008 61.11750844 59.63703825 62.77181625 61.29296875 64.42578125 C62.42607735 65.56192619 62.42607735 65.56192619 63.58207703 66.72102356 C67.68669099 70.80778356 71.87629281 74.73404064 76.26885986 78.51040649 C78.74729744 80.64302675 81.15225516 82.85340823 83.5625 85.0625 C87.64613518 88.78782178 91.77696174 92.43387881 96 96 C86.68118763 105.50056226 75.9616441 113.05278097 65.04638672 120.58398438 C63.1385924 121.90409975 61.24230412 123.23924749 59.34765625 124.578125 C58.28417969 125.31546875 57.22070312 126.0528125 56.125 126.8125 C54.73667969 127.78123047 54.73667969 127.78123047 53.3203125 128.76953125 C52.55460937 129.17558594 51.78890625 129.58164062 51 130 C47.4268441 128.80894803 46.74996175 127.70545823 44.5 124.75 C41.78181812 121.24810874 39.01644604 117.81795865 36.11865234 114.46264648 C25.25355481 101.85905582 15.52153529 88.88576221 8 74 C7.67128906 73.35595215 7.34257812 72.7119043 7.00390625 72.04833984 C-3.99839278 50.07135801 -5.9965832 24.99818792 -1 1 C-0.67 0.67 -0.34 0.34 0 0 Z " fill="#FDC828" transform="translate(147,237)"/>
<path d="M0 0 C2.74520942 1.29139884 5.08948372 2.71352015 7.4765625 4.58203125 C8.13825439 5.09548096 8.79994629 5.60893066 9.48168945 6.13793945 C10.18898193 6.69054443 10.89627441 7.24314941 11.625 7.8125 C24.40913381 17.6900773 37.44537405 27.20278198 51 36 C49.06985294 40.82954545 49.06985294 40.82954545 48.18359375 42.9921875 C47.93738281 43.61351562 47.69117188 44.23484375 47.4375 44.875 C47.18871094 45.49117188 46.93992187 46.10734375 46.68359375 46.7421875 C45.77469148 49.74416185 45.44357532 52.89497274 45 56 C15.96 56 -13.08 56 -43 56 C-43.66 52.7 -44.32 49.4 -45 46 C-46.31824638 43.32584305 -47.6480517 40.65727768 -49 38 C-47.88606878 34.65820634 -47.46366217 34.36810719 -44.6328125 32.57421875 C-43.92133057 32.11442627 -43.20984863 31.65463379 -42.47680664 31.1809082 C-41.70071045 30.6880835 -40.92461426 30.19525879 -40.125 29.6875 C-26.1636128 20.60254455 -12.69984069 10.78772985 0 0 Z " fill="#EBB100" transform="translate(255,344)"/>
<path d="M0 0 C3.02299638 0.68467096 4.10888021 2.059958 6.03515625 4.4609375 C7.03157775 6.63445034 7.94180595 8.84857875 8.78515625 11.0859375 C13.30232254 22.23642006 19.3955999 28.96843925 30.03515625 34.4609375 C36.91794927 38.22652353 36.91794927 38.22652353 38.03515625 40.4609375 C38.62200991 47.7379229 38.62200991 47.7379229 36.3515625 50.53515625 C33.89639928 52.57629532 31.50674323 53.95919675 28.66015625 55.3984375 C16.44891238 61.9413321 10.89787546 71.24110977 6.17578125 84.02734375 C5.03515625 86.4609375 5.03515625 86.4609375 2.03515625 88.4609375 C-5.08729693 89.13926637 -5.08729693 89.13926637 -8.046875 86.8515625 C-10.34336007 83.98914119 -11.42140586 81.26735215 -12.71484375 77.8359375 C-17.23201004 66.68545494 -23.3252874 59.95343575 -33.96484375 54.4609375 C-40.84763677 50.69535147 -40.84763677 50.69535147 -41.96484375 48.4609375 C-42.53664362 41.37061911 -42.53664362 41.37061911 -40.58984375 38.2734375 C-38.15492559 36.59218449 -35.81093523 35.36869777 -33.15234375 34.0859375 C-20.6388127 27.99430655 -14.83567257 17.702724 -10.10546875 4.89453125 C-7.9108364 0.21214785 -4.77491008 0.20240467 0 0 Z " fill="#333333" transform="translate(473.96484375,167.5390625)"/>
<path d="M0 0 C2.99331075 0.67794754 4.1203751 2.10214913 6.03515625 4.4609375 C7.23828125 7.08984375 7.23828125 7.08984375 8.28515625 10.0234375 C13.42434881 22.83236729 21.31135383 30.7511712 33.59765625 36.7734375 C37.03515625 38.4609375 37.03515625 38.4609375 38.03515625 40.4609375 C38.60695612 47.55125589 38.60695612 47.55125589 36.66015625 50.6484375 C34.22523809 52.32969051 31.88124773 53.55317723 29.22265625 54.8359375 C16.7091252 60.92756845 10.90598507 71.219151 6.17578125 84.02734375 C5.03515625 86.4609375 5.03515625 86.4609375 2.03515625 88.4609375 C-5.08729693 89.13926637 -5.08729693 89.13926637 -8.046875 86.8515625 C-10.34336007 83.98914119 -11.42140586 81.26735215 -12.71484375 77.8359375 C-17.23201004 66.68545494 -23.3252874 59.95343575 -33.96484375 54.4609375 C-40.84763677 50.69535147 -40.84763677 50.69535147 -41.96484375 48.4609375 C-42.55169741 41.1839521 -42.55169741 41.1839521 -40.28125 38.38671875 C-37.82608678 36.34557968 -35.43643073 34.96267825 -32.58984375 33.5234375 C-20.37859988 26.9805429 -14.82756296 17.68076523 -10.10546875 4.89453125 C-7.9108364 0.21214785 -4.77491008 0.20240467 0 0 Z " fill="#333333" transform="translate(41.96484375,167.5390625)"/>
<path d="M0 0 C2.99662876 0.67869903 4.11905578 2.09748299 6.03515625 4.4609375 C7.2734375 7.16015625 7.2734375 7.16015625 8.34765625 10.1484375 C12.57452149 20.66436586 18.11572549 26.198217 28.03515625 31.4609375 C32.90050278 34.19163057 32.90050278 34.19163057 34.03515625 36.4609375 C34.6097971 43.58648403 34.6097971 43.58648403 32.59765625 46.6484375 C29.63683384 48.74267774 26.574198 50.45823079 23.3515625 52.1171875 C14.07162109 57.50049247 9.32011183 66.55010148 5.95703125 76.46484375 C5.03515625 78.4609375 5.03515625 78.4609375 2.03515625 80.4609375 C-5.10488555 81.14094148 -5.10488555 81.14094148 -8.07421875 78.79296875 C-10.18224226 76.19278273 -11.14744788 73.91660238 -12.27734375 70.7734375 C-16.50420899 60.25750914 -22.04541299 54.723658 -31.96484375 49.4609375 C-36.83019028 46.73024443 -36.83019028 46.73024443 -37.96484375 44.4609375 C-38.5394846 37.33539097 -38.5394846 37.33539097 -36.52734375 34.2734375 C-33.56652134 32.17919726 -30.5038855 30.46364421 -27.28125 28.8046875 C-18.00130859 23.42138253 -13.24979933 14.37177352 -9.88671875 4.45703125 C-7.84984824 0.04668875 -4.37549838 0.18547392 0 0 Z " fill="#333332" transform="translate(477.96484375,-0.4609375)"/>
<path d="M0 0 C2.99662876 0.67869903 4.11905578 2.09748299 6.03515625 4.4609375 C7.2734375 7.16015625 7.2734375 7.16015625 8.34765625 10.1484375 C12.57452149 20.66436586 18.11572549 26.198217 28.03515625 31.4609375 C32.90050278 34.19163057 32.90050278 34.19163057 34.03515625 36.4609375 C34.6097971 43.58648403 34.6097971 43.58648403 32.59765625 46.6484375 C29.63683384 48.74267774 26.574198 50.45823079 23.3515625 52.1171875 C14.07162109 57.50049247 9.32011183 66.55010148 5.95703125 76.46484375 C5.03515625 78.4609375 5.03515625 78.4609375 2.03515625 80.4609375 C-5.10488555 81.14094148 -5.10488555 81.14094148 -8.07421875 78.79296875 C-10.18224226 76.19278273 -11.14744788 73.91660238 -12.27734375 70.7734375 C-16.50420899 60.25750914 -22.04541299 54.723658 -31.96484375 49.4609375 C-36.83019028 46.73024443 -36.83019028 46.73024443 -37.96484375 44.4609375 C-38.5394846 37.33539097 -38.5394846 37.33539097 -36.52734375 34.2734375 C-33.56652134 32.17919726 -30.5038855 30.46364421 -27.28125 28.8046875 C-18.00130859 23.42138253 -13.24979933 14.37177352 -9.88671875 4.45703125 C-7.84984824 0.04668875 -4.37549838 0.18547392 0 0 Z " fill="#333332" transform="translate(37.96484375,-0.4609375)"/>
<path d="M0 0 C-0.5680448 5.79797452 -1.69549823 10.98792855 -3.5625 16.5 C-3.82426025 17.27609619 -4.08602051 18.05219238 -4.35571289 18.85180664 C-10.57137092 36.63484221 -20.38185304 52.09491664 -33 66 C-33.75966064 66.86890869 -33.75966064 66.86890869 -34.53466797 67.75537109 C-36.08984375 69.44921875 -36.08984375 69.44921875 -39 72 C-43.08492401 71.54722402 -45.67391304 69.20986835 -48.875 66.75 C-49.40512695 66.34467041 -49.93525391 65.93934082 -50.48144531 65.52172852 C-54.06460353 62.76829056 -57.57611167 59.94834829 -61 57 C-57.73217129 52.81309446 -54.26661235 49.35564469 -50.23046875 45.91015625 C-47.82707026 43.85190431 -45.47385852 41.74524121 -43.125 39.625 C-38 35 -38 35 -35.92675781 33.18286133 C-27.82237455 26.01948884 -20.28294766 18.32850328 -12.70996094 10.61401367 C-10.98801488 8.86207761 -9.26006768 7.1162452 -7.53125 5.37109375 C-6.74071228 4.56036659 -6.74071228 4.56036659 -5.9342041 3.73326111 C-2.22660732 0 -2.22660732 0 0 0 Z " fill="#FCC727" transform="translate(330,277)"/>
<path d="M0 0 C26.4 0 52.8 0 80 0 C80 5.28 80 10.56 80 16 C53.6 16 27.2 16 0 16 C0 10.72 0 5.44 0 0 Z " fill="#E3EEF7" transform="translate(216,416)"/>
<path d="M0 0 C26.4 0 52.8 0 80 0 C80 11.55555556 80 11.55555556 77 15 C73.59866333 16.13377889 70.97595778 16.14084176 67.38891602 16.16113281 C66.72190674 16.16609772 66.05489746 16.17106262 65.36767578 16.17617798 C63.16307542 16.19077284 60.95854697 16.19759638 58.75390625 16.203125 C57.2207794 16.20887777 55.68765257 16.21463549 54.15452576 16.22039795 C50.94082301 16.2308997 47.72714522 16.23674806 44.51342773 16.24023438 C40.39631983 16.24572358 36.2795419 16.26976389 32.16253757 16.29820633 C28.99609919 16.31683097 25.82974041 16.32203816 22.66325188 16.32357025 C21.14539723 16.3265967 19.62754399 16.334625 18.10974312 16.34775543 C15.98639915 16.36481624 13.86386327 16.3629364 11.74047852 16.35644531 C10.53263199 16.36009094 9.32478546 16.36373657 8.08033752 16.36749268 C4.7216871 15.96679651 3.35437859 15.38881028 1 13 C0 10 0 10 0 0 Z " fill="#C3DBEF" transform="translate(216,448)"/>
<path d="M0 0 C2.2412005 2.89014513 4.19040251 5.85908963 6.0625 9 C6.56910156 9.845625 7.07570313 10.69125 7.59765625 11.5625 C9 14 9 14 9.93359375 16.1875 C11.29413241 18.49991735 12.58476308 18.90095641 15 20 C16.38634771 21.1282369 17.74014522 22.29739603 19.0625 23.5 C21.33432007 25.55815561 23.43707257 27.29138171 26 29 C24.44519228 32.53739322 22.30262965 35.18484692 19.8125 38.125 C15.56900812 43.22680335 11.70965893 48.5011165 8 54 C5.35352187 51.59915307 3.69827796 48.99831686 1.875 45.9375 C-3.53477991 37.33413152 -9.96127686 30.38467165 -18.15234375 24.375 C-20 23 -20 23 -22 21 C-21.16597656 20.32195312 -20.33195312 19.64390625 -19.47265625 18.9453125 C-12.34296928 13.0744924 -5.9533458 7.09171166 0 0 Z " fill="#FDC827" transform="translate(48,427)"/>
<path d="M0 0 C0.639375 0.639375 1.27875 1.27875 1.9375 1.9375 C2.39511719 2.39125 2.85273438 2.845 3.32421875 3.3125 C4.57130521 4.56830735 5.80031808 5.84211419 7.01953125 7.125 C11.4746042 11.74391976 15.83678201 15.50206921 21.34765625 18.80859375 C21.89292969 19.20175781 22.43820312 19.59492188 23 20 C23 20.66 23 21.32 23 22 C21.41584424 23.20166948 19.7797646 24.33508757 18.125 25.4375 C7.74182541 32.84452043 0.88805129 41.82830005 -5 53 C-9.09333759 51.46615341 -10.81880382 48.87414739 -13.3125 45.375 C-16.57516537 40.85662657 -19.98729003 36.60549779 -23.78515625 32.5234375 C-25 31 -25 31 -25 29 C-23.39242623 27.8010805 -21.73638851 26.66694495 -20.0625 25.5625 C-10.70342992 18.90154022 -4.52926004 10.49240643 0 0 Z " fill="#FCC827" transform="translate(463,427)"/>
<path d="M0 0 C1.28003906 -0.03738281 2.56007812 -0.07476562 3.87890625 -0.11328125 C8.00238528 0.38008781 9.60869579 1.31854902 12.4375 4.3125 C13.19369581 8.47157693 12.89173925 10.50884594 10.8125 14.1875 C6.301043 17.028047 2.62954894 16.81224509 -2.62109375 17.03125 C-16.7883402 18.04219325 -29.37567305 23.60317252 -41.328125 31.03125 C-44.31085141 32.74162459 -46.17911118 32.81640897 -49.5625 32.3125 C-51.9375 30.8125 -51.9375 30.8125 -53.5625 28.3125 C-54.15249058 24.98709852 -54.40645925 23.43332772 -53.5625 20.3125 C-42.13386872 6.59814246 -17.02541071 0.32642059 0 0 Z " fill="#363532" transform="translate(251.5625,167.6875)"/>
<path d="M0 0 C2.99291115 1.39082342 5.50012472 3.02282365 8.109375 5.0390625 C8.86347656 5.61914062 9.61757813 6.19921875 10.39453125 6.796875 C11.56048828 7.70179688 11.56048828 7.70179688 12.75 8.625 C13.54277344 9.23601562 14.33554687 9.84703125 15.15234375 10.4765625 C17.10390608 11.98138165 19.05300989 13.48927284 21 15 C17.7624062 18.67908386 14.09879962 20.76220163 9.75 22.875 C9.04109619 23.22159668 8.33219238 23.56819336 7.60180664 23.92529297 C-3.56136743 29.28154218 -14.92739495 33.14136408 -26.875 36.375 C-28.30114624 36.76969482 -28.30114624 36.76969482 -29.75610352 37.17236328 C-35.94908468 38.77909154 -41.61013746 39.32826421 -48 39 C-48 37.68 -48 36.36 -48 35 C-46.64916992 33.66650391 -46.64916992 33.66650391 -44.73046875 32.4765625 C-44.01576416 32.01999268 -43.30105957 31.56342285 -42.56469727 31.09301758 C-41.78022217 30.60857178 -40.99574707 30.12412598 -40.1875 29.625 C-38.53127935 28.56259707 -36.87771917 27.49603752 -35.2265625 26.42578125 C-34.36579102 25.86842285 -33.50501953 25.31106445 -32.61816406 24.73681641 C-21.26526529 17.20562265 -10.38034673 8.81746306 0 0 Z " fill="#FCC827" transform="translate(255,344)"/>
<path d="M0 0 C11.85171502 9.95593842 22.18801634 22.47004086 28 37 C27.9079847 42.33688744 24.39624278 45.45016024 21 49.1875 C20.41565186 49.84516357 19.83130371 50.50282715 19.22924805 51.18041992 C17.49492954 53.12834671 15.74844116 55.06475304 14 57 C13.06817207 58.04352283 12.13710047 59.08772187 11.20703125 60.1328125 C5.6635274 66.3364726 5.6635274 66.3364726 3 69 C3.02356567 67.25033936 3.02356567 67.25033936 3.04760742 65.46533203 C3.3183142 43.44570892 3.52274601 21.80167543 0 0 Z " fill="#EAB000" transform="translate(331,179)"/>
<path d="M0 0 C2.5 1.5 2.5 1.5 4 4 C4.76636559 8.18017597 4.99987848 10.45607 2.671875 14.05078125 C0.86851601 16.14251522 -1.02066433 18.07436724 -3 20 C-3.64453125 20.66773438 -4.2890625 21.33546875 -4.953125 22.0234375 C-10.60557995 27.84214113 -10.60557995 27.84214113 -15.3125 28.375 C-19 28 -19 28 -21.9375 25.9375 C-24 23 -24 23 -24.75 19.6875 C-23.67061359 14.38051682 -20.76974029 11.7332118 -17 8 C-16.35546875 7.33097656 -15.7109375 6.66195312 -15.046875 5.97265625 C-10.23892496 1.03339665 -7.2293741 -0.98582374 0 0 Z " fill="#323232" transform="translate(379,137)"/>
<path d="M0 0 C4.32314223 1.16543725 7.10138906 4.45011431 10.14453125 7.578125 C10.81226563 8.22265625 11.48 8.8671875 12.16796875 9.53125 C17.98667238 15.18370495 17.98667238 15.18370495 18.51953125 19.890625 C18.14453125 23.578125 18.14453125 23.578125 16.08203125 26.515625 C13.14453125 28.578125 13.14453125 28.578125 9.83203125 29.328125 C4.52504807 28.24873859 1.87774305 25.34786529 -1.85546875 21.578125 C-2.52449219 20.93359375 -3.19351563 20.2890625 -3.8828125 19.625 C-9.7475624 13.91616369 -9.7475624 13.91616369 -10.16796875 8.703125 C-10.10887502 5.74843847 -9.92111839 4.68754107 -8.35546875 2.078125 C-5.54298177 0.39063281 -3.29122435 -0.17097269 0 0 Z " fill="#323232" transform="translate(138.85546875,136.421875)"/>
<path d="M0 0 C2.97410411 1.80262155 5.62500219 3.92413737 8.3125 6.125 C9.40401367 6.9603125 9.40401367 6.9603125 10.51757812 7.8125 C14.09447866 10.70602252 15.779007 12.22002472 17.0625 16.75 C16.99112611 20.46144212 16.2909902 22.11504938 14 25 C10.74544976 26.62727512 7.51363061 26.59206059 4 26 C1.24439278 24.58112555 -0.98198467 22.71614836 -3.3125 20.6875 C-4.22225586 19.93823242 -4.22225586 19.93823242 -5.15039062 19.17382812 C-6.79406121 17.80862319 -8.41260746 16.43017888 -10 15 C-10.54938232 14.51893799 -11.09876465 14.03787598 -11.66479492 13.54223633 C-13 12 -13 12 -13.4375 8.625 C-12.93390767 4.45237781 -11.98298361 2.89775551 -9 0 C-5.28338638 -1.23887121 -3.7799314 -1.07238382 0 0 Z " fill="#323232" transform="translate(380,350)"/>
<path d="M0 0 C2.91614255 2.60918017 3.85954476 4.4783091 4.875 8.25 C3.44920805 14.36053693 -1.1997719 17.2524535 -6 21 C-6.67546875 21.54398437 -7.3509375 22.08796875 -8.046875 22.6484375 C-11.23008105 25.08513948 -13.92518316 27 -18 27 C-21.56214097 25.74277377 -23.46261238 24.88785781 -25.4375 21.625 C-26.10062726 18.5304061 -26.11438316 16.97168843 -25 14 C-21.68717455 10.45850164 -18.12027585 7.32463417 -14.375 4.25 C-13.43398437 3.47140625 -12.49296875 2.6928125 -11.5234375 1.890625 C-7.45240109 -1.15950135 -4.82767018 -1.37933434 0 0 Z " fill="#323232" transform="translate(141,350)"/>
<path d="M0 0 C10.56 0 21.12 0 32 0 C32 11.55555556 32 11.55555556 29 15 C24.56039131 16.47986956 20.21322847 16.22497927 15.5625 16.25 C14.13067383 16.2809375 14.13067383 16.2809375 12.66992188 16.3125 C11.74888672 16.31765625 10.82785156 16.3228125 9.87890625 16.328125 C9.0391626 16.3374707 8.19941895 16.34681641 7.33422852 16.35644531 C4.44742792 15.9156202 3.1057398 14.99722064 1 13 C0 10 0 10 0 0 Z " fill="#C2DAEE" transform="translate(240,480)"/>
<path d="M0 0 C1.10214844 -0.02900391 2.20429688 -0.05800781 3.33984375 -0.08789062 C4.40074219 -0.09626953 5.46164062 -0.10464844 6.5546875 -0.11328125 C7.52647949 -0.12786377 8.49827148 -0.14244629 9.49951172 -0.1574707 C12.85591423 0.44333596 14.01982446 1.69094339 16.125 4.3125 C16.65625 6.3125 16.65625 6.3125 16.625 8.3125 C16.6353125 8.9725 16.645625 9.6325 16.65625 10.3125 C15.8811666 13.23046104 14.43395833 14.4056088 12.125 16.3125 C9.53125 16.83007812 9.53125 16.83007812 6.625 16.84375 C5.573125 16.84890625 4.52125 16.8540625 3.4375 16.859375 C2.344375 16.84390625 1.25125 16.8284375 0.125 16.8125 C-1.5146875 16.83570313 -1.5146875 16.83570313 -3.1875 16.859375 C-4.239375 16.85421875 -5.29125 16.8490625 -6.375 16.84375 C-7.3340625 16.83923828 -8.293125 16.83472656 -9.28125 16.83007812 C-12.59621601 16.16858265 -13.77346684 14.90471004 -15.875 12.3125 C-17.25249054 8.82285729 -16.98614829 7.58772434 -15.5625 4.0625 C-12.13259625 -1.52697278 -5.96035496 0.05191947 0 0 Z " fill="#323232" transform="translate(415.875,255.6875)"/>
<path d="M0 0 C1.051875 -0.00515625 2.10375 -0.0103125 3.1875 -0.015625 C4.280625 -0.00015625 5.37375 0.0153125 6.5 0.03125 C8.1396875 0.00804687 8.1396875 0.00804687 9.8125 -0.015625 C10.864375 -0.01046875 11.91625 -0.0053125 13 0 C14.43859375 0.00676758 14.43859375 0.00676758 15.90625 0.01367188 C19.21298564 0.673525 20.40908706 1.94238555 22.5 4.53125 C23.03125 6.53125 23.03125 6.53125 23 8.53125 C23.0103125 9.19125 23.020625 9.85125 23.03125 10.53125 C22.2561666 13.44921104 20.80895833 14.6243588 18.5 16.53125 C15.90625 17.04882812 15.90625 17.04882812 13 17.0625 C11.948125 17.06765625 10.89625 17.0728125 9.8125 17.078125 C8.719375 17.06265625 7.62625 17.0471875 6.5 17.03125 C4.8603125 17.05445313 4.8603125 17.05445313 3.1875 17.078125 C2.135625 17.07296875 1.08375 17.0678125 0 17.0625 C-0.9590625 17.05798828 -1.918125 17.05347656 -2.90625 17.04882812 C-6.21298564 16.388975 -7.40908706 15.12011445 -9.5 12.53125 C-10.03125 10.53125 -10.03125 10.53125 -10 8.53125 C-10.01546875 7.54125 -10.01546875 7.54125 -10.03125 6.53125 C-8.65240655 1.34030994 -4.94094259 0.02324368 0 0 Z " fill="#333333" transform="translate(89.5,255.46875)"/>
<path d="M0 0 C0.66 -0.0103125 1.32 -0.020625 2 -0.03125 C4.91796104 0.7438334 6.0931088 2.19104167 8 4.5 C8.51757812 7.09375 8.51757812 7.09375 8.53125 10 C8.53640625 11.051875 8.5415625 12.10375 8.546875 13.1875 C8.53140625 14.280625 8.5159375 15.37375 8.5 16.5 C8.51546875 17.593125 8.5309375 18.68625 8.546875 19.8125 C8.54171875 20.864375 8.5365625 21.91625 8.53125 23 C8.52673828 23.9590625 8.52222656 24.918125 8.51757812 25.90625 C7.857725 29.21298564 6.58886445 30.40908706 4 32.5 C2 33.03125 2 33.03125 0 33 C-0.99 33.01546875 -0.99 33.01546875 -2 33.03125 C-4.91796104 32.2561666 -6.0931088 30.80895833 -8 28.5 C-8.51757812 25.90625 -8.51757812 25.90625 -8.53125 23 C-8.53640625 21.948125 -8.5415625 20.89625 -8.546875 19.8125 C-8.53140625 18.719375 -8.5159375 17.62625 -8.5 16.5 C-8.51546875 15.406875 -8.5309375 14.31375 -8.546875 13.1875 C-8.53914062 11.6096875 -8.53914062 11.6096875 -8.53125 10 C-8.52673828 9.0409375 -8.52222656 8.081875 -8.51757812 7.09375 C-7.60329874 2.51200272 -4.67433964 -0.07303656 0 0 Z " fill="#333333" transform="translate(256,87.5)"/>
<path d="M0 0 C0.42410156 0.37511719 0.84820312 0.75023437 1.28515625 1.13671875 C5.36517338 4.69664579 9.5513476 7.91317997 14 11 C12.44519228 14.53739322 10.30262965 17.18484692 7.8125 20.125 C3.56900812 25.22680335 -0.29034107 30.5011165 -4 36 C-6.78993417 33.47536632 -8.63500313 30.61726096 -10.625 27.4375 C-11.23601563 26.46683594 -11.84703125 25.49617188 -12.4765625 24.49609375 C-14 22 -14 22 -15 20 C-14.34 20 -13.68 20 -13 20 C-12.59201172 19.12601562 -12.59201172 19.12601562 -12.17578125 18.234375 C-11.01444021 16.0274412 -9.72277345 14.21061306 -8.1875 12.25 C-5.18235643 8.32190079 -2.54640153 4.23649104 0 0 Z " fill="#EAB000" transform="translate(60,445)"/>
<path d="M0 0 C0.66 0 1.32 0 2 0 C3.26171875 1.50390625 3.26171875 1.50390625 4.6875 3.5625 C7.75148894 7.80669209 11.20555451 11.40762557 15 15 C13.55313358 18.36602602 11.72022925 20.43814568 9.0625 22.9375 C6.124123 25.78023363 4.01259941 28.42204549 2 32 C1.34 32 0.68 32 0 32 C-1.2265625 30.49609375 -1.2265625 30.49609375 -2.625 28.4375 C-5.47397411 24.46727123 -8.6660624 21.5011108 -12.4609375 18.4453125 C-12.96882813 17.96835938 -13.47671875 17.49140625 -14 17 C-14 16.34 -14 15.68 -14 15 C-12.4609375 13.5546875 -12.4609375 13.5546875 -10.375 11.875 C-6.6754895 8.75927751 -3.9374622 5.49453234 -1.2265625 1.50390625 C-0.82179688 1.00761719 -0.41703125 0.51132813 0 0 Z " fill="#DFEAF3" transform="translate(471,196)"/>
<path d="M0 0 C0.66 0 1.32 0 2 0 C3.26171875 1.50390625 3.26171875 1.50390625 4.6875 3.5625 C7.75148894 7.80669209 11.20555451 11.40762557 15 15 C13.55313358 18.36602602 11.72022925 20.43814568 9.0625 22.9375 C6.124123 25.78023363 4.01259941 28.42204549 2 32 C1.34 32 0.68 32 0 32 C-1.2265625 30.49609375 -1.2265625 30.49609375 -2.625 28.4375 C-5.47397411 24.46727123 -8.6660624 21.5011108 -12.4609375 18.4453125 C-12.96882813 17.96835938 -13.47671875 17.49140625 -14 17 C-14 16.34 -14 15.68 -14 15 C-12.4609375 13.5546875 -12.4609375 13.5546875 -10.375 11.875 C-6.6754895 8.75927751 -3.9374622 5.49453234 -1.2265625 1.50390625 C-0.82179688 1.00761719 -0.41703125 0.51132813 0 0 Z " fill="#DFEAF3" transform="translate(39,196)"/>
<path d="M0 0 C15.18 0 30.36 0 46 0 C39.47677477 6.52322523 26.13200535 8.66304166 17.4375 10.875 C16.60557129 11.09003174 15.77364258 11.30506348 14.91650391 11.52661133 C10.14662308 12.69045455 5.9080758 13.22399272 1 13 C0 10 0 10 0 0 Z " fill="#E3EEF7" transform="translate(216,448)"/>
<path d="M0 0 C3.37591285 1.12530428 4.28446799 2.16053617 6.5625 4.8125 C7.46162109 5.84310547 7.46162109 5.84310547 8.37890625 6.89453125 C9.89648749 8.86555845 10.97902958 10.73964261 12 13 C11.44570313 13.54269531 10.89140625 14.08539063 10.3203125 14.64453125 C9.23363281 15.71767578 9.23363281 15.71767578 8.125 16.8125 C7.40570313 17.52019531 6.68640625 18.22789063 5.9453125 18.95703125 C3.84641063 21.04399194 3.84641063 21.04399194 2 24 C-1.37591285 22.87469572 -2.28446799 21.83946383 -4.5625 19.1875 C-5.16191406 18.50042969 -5.76132812 17.81335938 -6.37890625 17.10546875 C-7.89648749 15.13444155 -8.97902958 13.26035739 -10 11 C-9.44570313 10.45730469 -8.89140625 9.91460937 -8.3203125 9.35546875 C-7.23363281 8.28232422 -7.23363281 8.28232422 -6.125 7.1875 C-5.40570313 6.47980469 -4.68640625 5.77210937 -3.9453125 5.04296875 C-1.84641063 2.95600806 -1.84641063 2.95600806 0 0 Z " fill="#F7C428" transform="translate(475,28)"/>
<path d="M0 0 C3.37591285 1.12530428 4.28446799 2.16053617 6.5625 4.8125 C7.46162109 5.84310547 7.46162109 5.84310547 8.37890625 6.89453125 C9.89648749 8.86555845 10.97902958 10.73964261 12 13 C11.44570313 13.54269531 10.89140625 14.08539063 10.3203125 14.64453125 C9.23363281 15.71767578 9.23363281 15.71767578 8.125 16.8125 C7.40570313 17.52019531 6.68640625 18.22789063 5.9453125 18.95703125 C3.84641063 21.04399194 3.84641063 21.04399194 2 24 C-1.37591285 22.87469572 -2.28446799 21.83946383 -4.5625 19.1875 C-5.16191406 18.50042969 -5.76132812 17.81335938 -6.37890625 17.10546875 C-7.89648749 15.13444155 -8.97902958 13.26035739 -10 11 C-9.44570313 10.45730469 -8.89140625 9.91460937 -8.3203125 9.35546875 C-7.23363281 8.28232422 -7.23363281 8.28232422 -6.125 7.1875 C-5.40570312 6.47980469 -4.68640625 5.77210937 -3.9453125 5.04296875 C-1.84641063 2.95600806 -1.84641063 2.95600806 0 0 Z " fill="#F7C428" transform="translate(35,28)"/>
<path d="M0 0 C4.0743356 0.84881992 5.54405875 2.30225596 8 5.625 C8.625 8.625 8.625 8.625 8 11.625 C5.54405875 14.94774404 4.0743356 16.40118008 0 17.25 C-4.0743356 16.40118008 -5.54405875 14.94774404 -8 11.625 C-8.625 8.625 -8.625 8.625 -8 5.625 C-5.54405875 2.30225596 -4.0743356 0.84881992 0 0 Z " fill="#3C3A32" transform="translate(184,207.375)"/>
<path d="M0 0 C13.21794561 6.06051033 21.98970299 17.71838537 28.9375 30 C29.62585937 31.18916016 29.62585937 31.18916016 30.328125 32.40234375 C32.51043353 36.40580412 33.39329145 39.4420855 32.9375 44 C31.9475 44.33 30.9575 44.66 29.9375 45 C29.64617188 44.18917969 29.35484375 43.37835938 29.0546875 42.54296875 C22.13619967 23.85434911 13.23573609 10.87187204 -5.0625 2 C-5.0625 1.34 -5.0625 0.68 -5.0625 0 C-3.0625 -1 -3.0625 -1 0 0 Z " fill="#F8C526" transform="translate(13.0625,459)"/>
<path d="M0 0 C0 0.66 0 1.32 0 2 C-0.68964844 2.3403125 -1.37929688 2.680625 -2.08984375 3.03125 C-18.83964418 11.67037889 -28.07594797 24.70542756 -34.16796875 42.390625 C-34.44253906 43.25171875 -34.71710938 44.1128125 -35 45 C-35.66 45 -36.32 45 -37 45 C-38.5419488 38.72558067 -37.36057184 35.36206456 -34.25 29.8125 C-33.84386475 29.0707251 -33.43772949 28.3289502 -33.01928711 27.56469727 C-27.76275737 18.34710002 -11.99227811 -4.28295647 0 0 Z " fill="#E8B006" transform="translate(504,459)"/>
<path d="M0 0 C4.06698246 3.52596185 6.27639255 7.6856204 8.75 12.375 C9.16121094 13.1175 9.57242188 13.86 9.99609375 14.625 C12.28113706 18.92179241 13.53939765 22.00263939 13 27 C12.01 27.33 11.02 27.66 10 28 C9.69707031 27.20078125 9.39414062 26.4015625 9.08203125 25.578125 C6.49903364 18.80669741 3.81272725 12.10552162 0.91796875 5.4609375 C0 3 0 3 0 0 Z " fill="#EFB911" transform="translate(33,476)"/>
<path d="M0 0 C0.33 0 0.66 0 1 0 C1 5.28 1 10.56 1 16 C-2.63 16 -6.26 16 -10 16 C-9.52949219 15.26394531 -9.05898438 14.52789062 -8.57421875 13.76953125 C-7.95160156 12.79371094 -7.32898438 11.81789063 -6.6875 10.8125 C-6.07261719 9.84957031 -5.45773437 8.88664062 -4.82421875 7.89453125 C-3.62740153 5.99551293 -2.46191463 4.07630778 -1.33203125 2.13671875 C-0.89246094 1.43160156 -0.45289063 0.72648437 0 0 Z " fill="#C4DCF0" transform="translate(295,416)"/>
<path d="M0 0 C4.5565527 3.71274665 6.57400393 8.79007402 9 14 C8.01 14 7.02 14 6 14 C4.9923048 12.2335343 3.99408286 10.46166177 3 8.6875 C2.443125 7.70136719 1.88625 6.71523438 1.3125 5.69921875 C0 3 0 3 0 0 Z " fill="#DFAA04" transform="translate(33,476)"/>
<path d="M0 0 C0.66 0.33 1.32 0.66 2 1 C0.515 3.475 0.515 3.475 -1 6 C-1.99 5.67 -2.98 5.34 -4 5 C-2.25 1.125 -2.25 1.125 0 0 Z " fill="#DDA807" transform="translate(459,474)"/>
</svg>
