<?xml version="1.0" encoding="UTF-8"?>
<svg version="1.1" xmlns="http://www.w3.org/2000/svg" width="512" height="512">
<path d="M0 0 C0.80034668 -0.0049649 1.60069336 -0.00992981 2.42529297 -0.01504517 C5.07479714 -0.02965783 7.72424143 -0.03646752 10.3737793 -0.04199219 C12.21599835 -0.04774466 14.05821738 -0.05350238 15.9004364 -0.05926514 C19.76484455 -0.06977277 23.62923192 -0.0756169 27.49365234 -0.07910156 C32.44008146 -0.08458383 37.38623497 -0.10860714 42.33257771 -0.13707352 C46.13904111 -0.15571829 49.94543838 -0.16090649 53.75194359 -0.16243744 C55.57516167 -0.16546066 57.39837869 -0.17347805 59.2215519 -0.18662262 C61.77551725 -0.20372061 64.32881277 -0.20179376 66.8828125 -0.1953125 C68.00755226 -0.20913467 68.00755226 -0.20913467 69.15501404 -0.22323608 C73.87756726 -0.18578614 77.13238005 0.64184592 81.13549805 3.16113281 C82.35794907 5.60603486 82.26936042 7.19645321 82.28266907 9.9303894 C82.29340202 11.44039017 82.29340202 11.44039017 82.30435181 12.980896 C82.30704071 14.08950989 82.30972961 15.19812378 82.3125 16.34033203 C82.3190712 17.50462738 82.3256424 18.66892273 82.33241272 19.86849976 C82.35217821 23.73427386 82.36381437 27.6000091 82.3737793 31.46582031 C82.37785482 32.78290104 82.38193035 34.09998177 82.38612938 35.45697403 C82.40518007 41.70615822 82.41941217 47.95533058 82.42774135 54.20453823 C82.43751824 61.42094107 82.46384962 68.63703754 82.50424224 75.8533324 C82.53438533 81.42961257 82.54920842 87.00580481 82.55252236 92.58216488 C82.55487471 95.91354488 82.5658239 99.24452221 82.58898354 102.57583237 C82.61321579 106.2918542 82.61243886 110.00706862 82.60546875 113.72314453 C82.62468384 115.37999268 82.62468384 115.37999268 82.64428711 117.0703125 C82.63387138 118.58877274 82.63387138 118.58877274 82.62324524 120.13790894 C82.62563359 121.01654539 82.62802195 121.89518185 82.63048267 122.80044365 C81.96681192 125.96563358 80.61999259 127.15611778 78.13549805 129.16113281 C74.99719228 130.07647199 73.02467356 130.43282533 69.88549805 129.47363281 C67.7510839 127.8728222 67.14596191 126.62051238 66.13549805 124.16113281 C65.88940239 121.98226547 65.88940239 121.98226547 65.89498901 119.58001709 C65.89086502 118.20867615 65.89086502 118.20867615 65.88665771 116.80963135 C65.89384827 115.81413269 65.90103882 114.81863403 65.90844727 113.79296875 C65.90815521 112.73899902 65.90786316 111.6850293 65.90756226 110.59912109 C65.90895588 107.11449966 65.92451883 103.6300919 65.94018555 100.14550781 C65.94391556 97.72983924 65.94676258 95.31416916 65.94876099 92.89849854 C65.95639837 86.539549 65.97604787 80.18069079 65.99816895 73.82177734 C66.02222143 66.19261563 66.03140785 58.56342339 66.04307556 50.93423462 C66.06247209 39.34313717 66.10079413 27.75224009 66.13549805 16.16113281 C44.68549805 16.16113281 23.23549805 16.16113281 1.13549805 16.16113281 C1.13549805 100.97113281 1.13549805 185.78113281 1.13549805 273.16113281 C22.58549805 273.16113281 44.03549805 273.16113281 66.13549805 273.16113281 C66.0890918 264.62882812 66.04268555 256.09652344 65.99487305 247.30566406 C65.9718405 241.21862519 65.95133477 235.131619 65.93448257 229.04456425 C65.91230711 221.15648344 65.88414337 213.26857161 65.83374023 205.38061523 C65.79385631 199.13590794 65.76806147 192.89132808 65.75914407 186.64649695 C65.75393181 183.34018224 65.73959194 180.03431685 65.71257782 176.72809792 C65.68360668 173.03603993 65.67953959 169.34474097 65.68139648 165.65258789 C65.66701538 164.55782639 65.65263428 163.46306488 65.63781738 162.33512878 C65.67823439 154.92482617 65.67823439 154.92482617 68.03887939 150.98222351 C70.30162776 149.0168351 71.18103673 148.50053546 74.13549805 148.59863281 C74.79549805 148.59734375 75.45549805 148.59605469 76.13549805 148.59472656 C79.01890198 149.41131557 80.22927924 150.88035841 82.13549805 153.16113281 C82.62768936 155.5274086 82.62768936 155.5274086 82.61651611 158.19781494 C82.6247641 159.72061066 82.6247641 159.72061066 82.63317871 161.27416992 C82.61160706 162.9357312 82.61160706 162.9357312 82.58959961 164.63085938 C82.59018372 165.80187195 82.59076782 166.97288452 82.59136963 168.17938232 C82.58858072 172.05380798 82.5574488 175.92746638 82.52612305 179.80175781 C82.51644289 182.48646618 82.51277251 185.17117371 82.50897217 187.855896 C82.49654317 194.20243655 82.46372289 200.54870126 82.42357421 206.89512038 C82.3788539 214.12115515 82.35686886 221.34720313 82.33679247 228.57334185 C82.29498997 243.436088 82.22463963 258.29859219 82.13549805 273.16113281 C83.10898193 273.14018555 84.08246582 273.11923828 85.08544922 273.09765625 C88.71013581 273.02505095 92.3347586 272.97925946 95.95996094 272.94140625 C97.52647728 272.92133723 99.09291914 272.89407531 100.65917969 272.859375 C102.91579599 272.81064527 105.17141888 272.78811811 107.4284668 272.77050781 C108.12449509 272.74986267 108.82052338 272.72921753 109.53764343 272.70794678 C113.04602574 272.70634151 115.04667162 273.10790226 118.07873535 274.9249115 C120.30213314 277.34230731 120.76000643 278.12433168 120.75073242 281.33129883 C120.76003784 282.14216446 120.76934326 282.95303009 120.77893066 283.78846741 C120.7625354 284.65523605 120.74614014 285.5220047 120.72924805 286.41503906 C120.72928833 287.31230209 120.72932861 288.20956512 120.72937012 289.13401794 C120.72401579 291.02781187 120.70643668 292.92160529 120.67749023 294.81518555 C120.63559385 297.71699723 120.63642488 300.61649126 120.64331055 303.51855469 C120.63281937 305.35906564 120.61988165 307.19956461 120.60424805 309.04003906 C120.60404663 309.90883194 120.60384521 310.77762482 120.6036377 311.67274475 C120.58772583 312.48045822 120.57181396 313.28817169 120.55541992 314.12036133 C120.54700073 314.82999527 120.53858154 315.53962921 120.52990723 316.27076721 C119.99293185 318.844439 119.24386437 319.58376438 117.13549805 321.16113281 C114.26566315 321.5371803 114.26566315 321.5371803 110.68395996 321.53865623 C110.02293148 321.54301656 109.361903 321.54737688 108.68084335 321.55186933 C106.4500285 321.56287977 104.21982475 321.55237722 101.98901367 321.54208374 C100.37988721 321.54553803 98.7707631 321.55030105 97.16164398 321.55626547 C92.72753616 321.56883662 88.29362102 321.56257745 83.85951233 321.55330682 C79.08235338 321.54654159 74.30522844 321.55698497 69.52807617 321.56524658 C60.1647633 321.57861319 50.80152241 321.57569317 41.43820667 321.56700866 C33.83103149 321.56024401 26.22387654 321.5593101 18.61669922 321.56258011 C17.53558097 321.56303981 16.45446273 321.56349951 15.34058332 321.56397314 C13.14457511 321.56493228 10.94856691 321.56590491 8.75255871 321.56689091 C-11.85792281 321.57545338 -32.46836434 321.56559724 -53.0788393 321.54948981 C-70.77824688 321.53608586 -88.47759544 321.53841371 -106.17700195 321.55224609 C-126.71180952 321.56828679 -147.24658201 321.57462933 -167.78139496 321.5654093 C-169.96949768 321.56445362 -172.1576004 321.56351051 -174.34570312 321.56258011 C-175.42239903 321.56211728 -176.49909493 321.56165446 -177.60841799 321.5611776 C-185.20981975 321.55858318 -192.81119933 321.56296844 -200.41259766 321.57001877 C-209.67134548 321.57841721 -218.93001696 321.57618862 -228.18875599 321.56017654 C-232.91616329 321.55227144 -237.64344314 321.54924015 -242.37084961 321.55912399 C-246.69356437 321.56802529 -251.01603285 321.56321399 -255.33872509 321.54719134 C-256.90731658 321.54382406 -258.47592862 321.54558092 -260.04450703 321.5528187 C-262.16762685 321.56186816 -264.28988972 321.55266061 -266.41296387 321.53865623 C-267.59492592 321.53816918 -268.77688797 321.53768212 -269.99466705 321.5371803 C-272.86450195 321.16113281 -272.86450195 321.16113281 -274.74282074 319.77230322 C-276.22324028 317.64584507 -276.26524912 316.23584936 -276.23950195 313.66113281 C-276.25110352 312.50097656 -276.25110352 312.50097656 -276.26293945 311.31738281 C-275.75213032 308.55300396 -275.11617829 307.8353688 -272.86450195 306.16113281 C-270.0681594 305.78853732 -270.0681594 305.78853732 -266.59199238 305.79198933 C-265.6294922 305.78679703 -265.6294922 305.78679703 -264.64754757 305.78149983 C-262.48259931 305.77351559 -260.31831119 305.78705295 -258.15339661 305.80036926 C-256.5916313 305.79906185 -255.02986664 305.79643662 -253.46810549 305.79260176 C-249.16500497 305.78587218 -244.86212711 305.79792329 -240.55905497 305.81293595 C-235.92307249 305.82585654 -231.2871032 305.82150968 -226.65110779 305.81922913 C-218.61512576 305.81765387 -210.57921664 305.82708942 -202.54325294 305.84394264 C-190.92452077 305.86829391 -179.30582395 305.87613394 -167.68706902 305.87990662 C-148.83774606 305.88647719 -129.98846199 305.90645477 -111.13916016 305.93481445 C-92.82568558 305.96233935 -74.51222155 305.98358061 -56.19873047 305.99633789 C-54.50628623 305.99752015 -54.50628623 305.99752015 -52.7796512 305.99872629 C-47.11948424 306.00264132 -41.4593172 306.00643246 -35.79915011 306.010162 C11.17909314 306.04127677 58.15729298 306.09435159 105.13549805 306.16113281 C105.13549805 300.55113281 105.13549805 294.94113281 105.13549805 289.16113281 C-53.92450195 289.16113281 -212.98450195 289.16113281 -376.86450195 289.16113281 C-376.86450195 294.77113281 -376.86450195 300.38113281 -376.86450195 306.16113281 C-374.51736084 306.14542236 -372.17021973 306.12971191 -369.75195312 306.11352539 C-362.00471907 306.06385875 -354.25747805 306.03069556 -346.51012707 306.0056963 C-341.81200439 305.99002754 -337.11404457 305.96876726 -332.41601562 305.93481445 C-327.88377083 305.90226404 -323.35168286 305.88428892 -318.81933022 305.87650108 C-317.08851972 305.87094979 -315.35771799 305.86010968 -313.62697411 305.84394264 C-311.20620419 305.82222544 -308.78608572 305.81916344 -306.36523438 305.82055664 C-305.28737671 305.8043779 -305.28737671 305.8043779 -304.18774414 305.78787231 C-301.27014726 305.80609103 -299.33781822 305.82353064 -296.92060852 307.5476532 C-295.52592676 309.67839517 -295.4641652 311.12745715 -295.48950195 313.66113281 C-295.47790039 314.82128906 -295.47790039 314.82128906 -295.46606445 316.00488281 C-295.96370014 318.69797006 -296.76050119 319.45197015 -298.86450195 321.16113281 C-301.78677449 321.45741878 -304.49592677 321.57080627 -307.41918945 321.54931641 C-308.29263 321.55457336 -309.16607056 321.55983032 -310.065979 321.56524658 C-312.95733445 321.57846605 -315.84814076 321.56970162 -318.73950195 321.55957031 C-320.74585069 321.56159049 -322.75219871 321.56450145 -324.75854492 321.56826782 C-328.96515895 321.57269382 -333.17158198 321.56625122 -337.37817383 321.55224609 C-342.77557579 321.53515412 -348.17253024 321.54499382 -353.56991577 321.56296349 C-357.71341333 321.57379385 -361.85680445 321.57035841 -366.00030518 321.56258011 C-367.99066216 321.56057604 -369.98102874 321.56304461 -371.97137451 321.57001877 C-374.75111563 321.57762092 -377.53012776 321.56604645 -380.30981445 321.54931641 C-381.13588196 321.5553891 -381.96194946 321.56146179 -382.81304932 321.56771851 C-388.44641869 321.50477081 -388.44641869 321.50477081 -390.57468414 319.75547123 C-392.1941692 317.7536325 -392.25412099 316.67451696 -392.28442383 314.12036133 C-392.30033569 313.31264786 -392.31624756 312.50493439 -392.3326416 311.67274475 C-392.33284302 310.80395187 -392.33304443 309.935159 -392.33325195 309.04003906 C-392.34086548 308.14373276 -392.348479 307.24742645 -392.35632324 306.32395935 C-392.36712772 304.42848496 -392.36997593 302.53295102 -392.36547852 300.63745117 C-392.36450658 297.73743351 -392.40611382 294.84006487 -392.45043945 291.94042969 C-392.45564675 290.09863833 -392.45833464 288.25683778 -392.45825195 286.41503906 C-392.48284485 285.11488609 -392.48284485 285.11488609 -392.50793457 283.78846741 C-392.49862915 282.97760178 -392.48932373 282.16673615 -392.47973633 281.33129883 C-392.48179077 280.62086929 -392.48384521 279.91043976 -392.48596191 279.17848206 C-391.48068956 275.91522207 -389.74840843 274.88935662 -386.86450195 273.16113281 C-384.14824826 272.81821339 -381.85807785 272.69040415 -379.1574707 272.77050781 C-378.43207596 272.7761676 -377.70668121 272.78182739 -376.95930481 272.78765869 C-374.65618187 272.80994182 -372.35464972 272.86011794 -370.05200195 272.91113281 C-368.48496723 272.93120847 -366.91790797 272.94945738 -365.35083008 272.96582031 C-361.52144676 273.00977944 -357.69324349 273.07874658 -353.86450195 273.16113281 C-353.86911092 272.55760137 -353.87371988 271.95406992 -353.87846851 271.33224964 C-353.98891829 256.64303912 -354.07164412 241.95385314 -354.12356281 227.26432514 C-354.14933818 220.16052139 -354.18447531 213.05699491 -354.24169922 205.95336914 C-354.29688175 199.0998846 -354.32591175 192.24668852 -354.33888817 185.39299583 C-354.34813747 182.77625172 -354.36619889 180.15952364 -354.39315224 177.54290199 C-354.42936937 173.88184966 -354.43445006 170.22199323 -354.43212891 166.56079102 C-354.45010529 165.47538025 -354.46808167 164.38996948 -354.48660278 163.27166748 C-354.45482409 158.64936854 -354.36485908 155.95329639 -351.85968018 151.98710632 C-347.99581887 149.63155087 -344.76945943 149.47203405 -340.37402344 149.54589844 C-339.53115784 149.54034943 -338.68829224 149.53480042 -337.81988525 149.52908325 C-335.04120562 149.51729774 -332.26416061 149.5415483 -329.4855957 149.56738281 C-327.55176366 149.56909412 -325.61792929 149.56902802 -323.68409729 149.56726074 C-319.63471227 149.5689133 -315.58588133 149.58760124 -311.53662109 149.61914062 C-306.3455938 149.6588445 -301.15529123 149.66318241 -295.96414089 149.6556778 C-291.97241066 149.65260894 -287.98084345 149.66472517 -283.98915291 149.68180847 C-282.07499273 149.68884011 -280.16081407 149.69196281 -278.24664116 149.69111633 C-275.57261602 149.69291342 -272.89946072 149.7142865 -270.22558594 149.74121094 C-269.43430801 149.73828033 -268.64303009 149.73534973 -267.82777405 149.73233032 C-264.60908768 149.78235252 -262.25851323 149.94671568 -259.4044342 151.49987793 C-256.72285219 154.39272677 -256.74022307 157.20893074 -256.74424744 160.96366882 C-256.74218544 162.44653885 -256.74218544 162.44653885 -256.74008179 163.95936584 C-256.74367706 165.04261642 -256.74727234 166.125867 -256.75097656 167.24194336 C-256.75083054 168.38354919 -256.75068451 169.52515503 -256.75053406 170.70135498 C-256.75123202 174.48353968 -256.75901904 178.26567544 -256.7668457 182.04785156 C-256.76871029 184.66673251 -256.770134 187.28561381 -256.77113342 189.90449524 C-256.77424242 196.09865648 -256.78245002 202.29280008 -256.79248291 208.48695356 C-256.80365742 215.53888167 -256.80915787 222.59081062 -256.81417835 229.64274538 C-256.82463298 244.14888384 -256.84242536 258.65500749 -256.86450195 273.16113281 C-251.58450195 273.16113281 -246.30450195 273.16113281 -240.86450195 273.16113281 C-240.8733844 271.07782654 -240.88226685 268.99452026 -240.89141846 266.8480835 C-240.97308307 247.24745648 -241.03265057 227.64685185 -241.07175064 208.04609299 C-241.09238777 197.96832316 -241.12053034 187.89067806 -241.16625977 177.81298828 C-241.20609231 169.03065479 -241.23192639 160.24841161 -241.24085593 151.4659903 C-241.24607676 146.81447055 -241.25837141 142.1632092 -241.28742218 137.51177216 C-241.31453475 133.13528654 -241.32295542 128.75916622 -241.31693268 124.3826046 C-241.31803479 122.77493239 -241.32601356 121.1672482 -241.34132385 119.55964851 C-241.36118772 117.36668685 -241.35645569 115.1751095 -241.34552002 112.9821167 C-241.34920719 111.75428844 -241.35289436 110.52646019 -241.35669327 109.26142502 C-240.76754988 105.55043582 -239.82271411 104.4046255 -236.86450195 102.16113281 C-233.19474913 100.93788187 -229.80587426 101.00564005 -225.98413086 101 C-225.18217789 100.9950351 -224.38022491 100.99007019 -223.55397034 100.98495483 C-220.89965966 100.9703438 -218.24540874 100.96353322 -215.59106445 100.95800781 C-213.74644977 100.95225579 -211.90183511 100.94649806 -210.05722046 100.94073486 C-206.18861614 100.9302281 -202.32003259 100.92438321 -198.45141602 100.92089844 C-193.49592074 100.91541231 -188.54070004 100.89138041 -183.58529091 100.86292648 C-179.77457885 100.84429766 -175.96393292 100.83909439 -172.15317917 100.83756256 C-170.32634351 100.8345364 -168.49950901 100.8265091 -166.67271805 100.81337738 C-164.11615377 100.7963106 -161.56026034 100.79819847 -159.00366211 100.8046875 C-158.25024033 100.79547272 -157.49681854 100.78625793 -156.7205658 100.77676392 C-152.25448973 100.81224945 -149.39839095 101.3804763 -145.86450195 104.16113281 C-143.43657104 107.80302919 -143.61744536 109.4861416 -143.62399292 113.82389832 C-143.62228407 114.50433128 -143.62057522 115.18476425 -143.61881459 115.8858164 C-143.61551478 118.17064743 -143.62653127 120.45518616 -143.63745117 122.73999023 C-143.63801518 124.37587985 -143.63769893 126.01176998 -143.63656616 127.6476593 C-143.63599124 132.09366501 -143.64776803 136.53956328 -143.66171408 140.98554397 C-143.67419828 145.630031 -143.67539011 150.27452038 -143.67776489 154.91902161 C-143.68398646 163.71627179 -143.70040643 172.51347239 -143.72046387 181.31070071 C-143.74280182 191.32508308 -143.753811 201.33946778 -143.76385474 211.35386884 C-143.78477208 231.95631861 -143.82036304 252.55872085 -143.86450195 273.16113281 C-138.58450195 273.16113281 -133.30450195 273.16113281 -127.86450195 273.16113281 C-127.86911092 271.99584455 -127.87371988 270.83055628 -127.87846851 269.62995625 C-127.98673761 241.9737145 -128.06919435 214.31749397 -128.1198286 186.6610841 C-128.1260822 183.25769828 -128.1325538 179.8543129 -128.13916016 176.45092773 C-128.14047171 175.77336973 -128.14178326 175.09581173 -128.14313456 174.39772167 C-128.16489624 163.42410134 -128.20432189 152.45061186 -128.25026593 141.47706918 C-128.29700948 130.21874364 -128.32441856 118.96048353 -128.33494443 107.70205611 C-128.3414716 101.37765931 -128.3568473 95.05355938 -128.39315224 88.72925758 C-128.42703208 82.77932718 -128.43757094 76.82981659 -128.43004036 70.87979889 C-128.43141848 68.69363564 -128.44139824 66.50745868 -128.46052933 64.32137871 C-128.48534159 61.34046772 -128.47944984 58.36114972 -128.46577454 55.38020325 C-128.48033874 54.51152219 -128.49490295 53.64284114 -128.5099085 52.74783641 C-128.45624458 48.43172385 -128.25153116 46.6730599 -125.56882763 43.1246233 C-121.91360407 40.47072819 -118.74303885 40.45822536 -114.38989258 40.51416016 C-113.54863327 40.50539856 -112.70737396 40.49663696 -111.84062195 40.48760986 C-109.06680336 40.46564847 -106.29458602 40.48015651 -103.52075195 40.49707031 C-101.58931167 40.49370123 -99.65787346 40.48884784 -97.72644043 40.48257446 C-93.68127225 40.47520756 -89.63665662 40.48590279 -85.59155273 40.50927734 C-80.40934518 40.53776499 -75.22843234 40.52136004 -70.04627228 40.49141502 C-66.0587592 40.47333713 -62.07155251 40.47910234 -58.08403015 40.49205399 C-56.17347561 40.49538664 -54.26289315 40.49130587 -52.35237122 40.47965622 C-49.68053644 40.4669393 -47.01079069 40.48633499 -44.33911133 40.51416016 C-43.55142868 40.504039 -42.76374603 40.49391785 -41.95219421 40.48348999 C-38.27087552 40.55442733 -36.16255463 40.94473004 -33.16017628 43.1246233 C-30.01311847 47.28726556 -30.17796259 50.29447262 -30.26322937 55.38020325 C-30.25895725 56.31144176 -30.25468512 57.24268027 -30.25028354 58.20213813 C-30.24204437 61.32413075 -30.26955452 64.44478145 -30.296875 67.56665039 C-30.29828526 69.80381234 -30.29749391 72.04097661 -30.29466248 74.27813721 C-30.2932261 80.35429583 -30.32265246 86.42996236 -30.35753226 92.50600648 C-30.38875843 98.85478369 -30.39172357 105.20357179 -30.3976593 111.55241394 C-30.4114413 122.20943738 -30.44268625 132.86626615 -30.48730469 143.52319336 C-30.53321078 154.49909563 -30.5685975 165.47494882 -30.58984375 176.45092773 C-30.59115737 177.12766211 -30.59247098 177.80439649 -30.59382441 178.50163797 C-30.60034967 181.89666867 -30.60666819 185.29169971 -30.61288393 188.68673098 C-30.66470439 216.84499066 -30.7531307 245.0030505 -30.86450195 273.16113281 C-25.58450195 273.16113281 -20.30450195 273.16113281 -14.86450195 273.16113281 C-14.86818913 271.78969525 -14.8718763 270.41825769 -14.8756752 269.00526142 C-14.96227754 236.46145898 -15.02824942 203.91768478 -15.06876327 171.37379329 C-15.07376619 167.36955665 -15.07894347 163.36532026 -15.08422852 159.36108398 C-15.08527776 158.56390139 -15.086327 157.7667188 -15.08740804 156.94537916 C-15.10482064 144.03183262 -15.13636302 131.11835719 -15.17311314 118.20485286 C-15.21049879 104.95769778 -15.23273277 91.71057999 -15.24085593 78.46337432 C-15.24634865 70.28690607 -15.26370645 62.11063882 -15.29616782 53.93423244 C-15.31978037 47.66806873 -15.3223278 41.40205875 -15.31693268 35.13585663 C-15.31803583 32.56269021 -15.32602815 29.98951638 -15.34132385 27.41639519 C-15.36114883 23.91023295 -15.35646766 20.40493917 -15.34552002 16.89875793 C-15.35717139 15.87443895 -15.36882275 14.85011996 -15.38082719 13.794761 C-15.34384148 9.42930088 -15.28273685 6.86673973 -13.02193832 3.05253124 C-9.07455233 -0.40809442 -4.97407523 0.00735589 0 0 Z M-111.86450195 57.16113281 C-111.86450195 128.44113281 -111.86450195 199.72113281 -111.86450195 273.16113281 C-90.41450195 273.16113281 -68.96450195 273.16113281 -46.86450195 273.16113281 C-46.86450195 201.88113281 -46.86450195 130.60113281 -46.86450195 57.16113281 C-68.31450195 57.16113281 -89.76450195 57.16113281 -111.86450195 57.16113281 Z M-224.86450195 117.16113281 C-224.86450195 168.64113281 -224.86450195 220.12113281 -224.86450195 273.16113281 C-203.41450195 273.16113281 -181.96450195 273.16113281 -159.86450195 273.16113281 C-159.86450195 221.68113281 -159.86450195 170.20113281 -159.86450195 117.16113281 C-181.31450195 117.16113281 -202.76450195 117.16113281 -224.86450195 117.16113281 Z M-337.86450195 166.16113281 C-337.86450195 201.47113281 -337.86450195 236.78113281 -337.86450195 273.16113281 C-316.41450195 273.16113281 -294.96450195 273.16113281 -272.86450195 273.16113281 C-272.86450195 237.85113281 -272.86450195 202.54113281 -272.86450195 166.16113281 C-294.31450195 166.16113281 -315.76450195 166.16113281 -337.86450195 166.16113281 Z " fill="#000000" transform="translate(391.864501953125,190.8388671875)"/>
<path d="M0 0 C1.32759338 -0.01073296 1.32759338 -0.01073296 2.68200684 -0.02168274 C5.60916718 -0.03859615 8.53480105 -0.01914547 11.46191406 0.00219727 C13.49969611 0.00136852 15.5374781 -0.0010911 17.57525635 -0.00511169 C21.8492034 -0.0079719 26.12262709 0.00674819 30.39648438 0.03417969 C35.86189031 0.0681761 41.326355 0.06227499 46.79180527 0.04351711 C51.00245937 0.03291901 55.2128966 0.04191194 59.42353058 0.05690193 C61.43765874 0.06206942 63.4518097 0.06161942 65.46593475 0.05535698 C68.29027986 0.04987435 71.11330543 0.07038036 73.9375 0.09765625 C74.76272156 0.09113037 75.58794312 0.08460449 76.43817139 0.07788086 C83.00026429 0.18502451 88.16798376 2.05242134 93.21582031 6.30688477 C93.6528125 6.84700195 94.08980469 7.38711914 94.54003906 7.94360352 C95.21486328 8.74217773 95.21486328 8.74217773 95.90332031 9.55688477 C99.77214714 15.61690555 100.6707639 20.57462152 100.6315918 27.62402344 C100.64188667 28.93265099 100.64188667 28.93265099 100.65238953 30.26771545 C100.67059425 33.13250292 100.66683086 35.99673976 100.66113281 38.86157227 C100.66569596 40.85980914 100.67100193 42.85804444 100.67701721 44.85627747 C100.68593457 49.03478391 100.68353882 53.21309905 100.67358398 57.39160156 C100.66206547 62.74852677 100.68235693 68.10479563 100.71150112 73.46163464 C100.7298306 77.58372695 100.72957768 81.70566076 100.7238636 85.82778358 C100.72371015 87.80336748 100.72977396 89.77896196 100.74215508 91.75450706 C100.75701081 94.51221634 100.74643014 97.26869675 100.72924805 100.02636719 C100.73891602 100.84255524 100.74858398 101.65874329 100.75854492 102.49966431 C100.71224627 106.04313517 100.52686899 108.20917596 98.4500885 111.1365509 C96.07942857 112.73070037 94.98205239 113.13568257 92.16503906 113.14868164 C90.98361328 113.1675946 90.98361328 113.1675946 89.77832031 113.18688965 C88.9365625 113.17879272 88.09480469 113.1706958 87.22753906 113.16235352 C85.91849609 113.16809387 85.91849609 113.16809387 84.58300781 113.1739502 C82.74054814 113.17666842 80.89804982 113.16931346 79.05566406 113.15258789 C76.23707972 113.13117599 73.42104422 113.15239153 70.60253906 113.17797852 C68.81086678 113.17533522 67.01919607 113.17021021 65.22753906 113.16235352 C63.96490234 113.1744989 63.96490234 113.1744989 62.67675781 113.18688965 C61.49533203 113.16797668 61.49533203 113.16797668 60.29003906 113.14868164 C59.60039062 113.14549927 58.91074219 113.14231689 58.20019531 113.13903809 C55.2870922 112.38895009 54.12523177 110.93116823 52.22753906 108.63110352 C51.68164062 105.97387695 51.68164062 105.97387695 51.61816406 102.99047852 C51.56982422 101.3855957 51.56982422 101.3855957 51.52050781 99.74829102 C51.50632812 98.63711914 51.49214844 97.52594727 51.47753906 96.38110352 C51.43306641 94.69114258 51.43306641 94.69114258 51.38769531 92.96704102 C51.31704995 90.18832331 51.26432629 87.41044203 51.22753906 84.63110352 C50.31600571 85.54707809 49.40447235 86.46305267 48.46531677 87.40678406 C39.86382128 96.04886698 31.25701626 104.68563064 22.64501858 113.31724834 C18.2179482 117.75474472 13.79275302 122.19407765 9.37182617 126.63769531 C5.10333752 130.9279543 0.8299464 135.21327372 -3.44685173 139.49524879 C-5.07562837 141.12771365 -6.70264708 142.76193446 -8.32785225 144.39795494 C-10.60884173 146.69351474 -12.89606763 148.9826858 -15.18481445 151.27050781 C-15.85160217 151.94448608 -16.51838989 152.61846436 -17.2053833 153.31286621 C-23.62468765 159.70425721 -29.63977895 165.21286603 -39.06639099 165.85574341 C-40.85340172 165.83953445 -40.85340172 165.83953445 -42.67651367 165.82299805 C-43.33914215 165.82019333 -44.00177063 165.81738861 -44.68447876 165.8144989 C-46.11347692 165.80803509 -47.54246139 165.79748685 -48.97140312 165.78323746 C-51.23812314 165.76363874 -53.50421534 165.76158542 -55.77101135 165.7651062 C-62.21230077 165.77476041 -68.65296866 165.77518288 -75.09399414 165.71020508 C-79.04364211 165.67163695 -82.99166182 165.67214331 -86.9413929 165.69778061 C-88.44005076 165.70018637 -89.93880706 165.68820765 -91.43722343 165.66119766 C-99.74176976 165.30114292 -99.74176976 165.30114292 -107.18783569 168.36169434 C-108.95571109 170.36757122 -110.35773647 172.36844912 -111.77246094 174.63110352 C-112.72327569 175.71947259 -113.69370683 176.79147384 -114.69433594 177.83422852 C-115.38765015 178.58265015 -115.38765015 178.58265015 -116.0949707 179.34619141 C-116.56604248 179.8527124 -117.03711426 180.3592334 -117.52246094 180.88110352 C-118.56821294 182.00984387 -119.6137818 183.13875393 -120.65917969 184.26782227 C-121.17915527 184.82904785 -121.69913086 185.39027344 -122.23486328 185.96850586 C-124.60954168 188.53623528 -126.97294239 191.11423171 -129.33496094 193.69360352 C-130.00930176 194.42981934 -130.00930176 194.42981934 -130.69726562 195.1809082 C-131.60276887 196.16961634 -132.50820528 197.15838568 -133.41357422 198.1472168 C-135.69888589 200.64274758 -137.98575674 203.13684879 -140.27246094 205.63110352 C-141.18913497 206.63109676 -142.10580164 207.63109676 -143.02246094 208.63110352 C-170.52246094 238.63110352 -170.52246094 238.63110352 -171.89794922 240.1315918 C-172.81304727 241.12991013 -173.72808649 242.12828238 -174.64306641 243.12670898 C-176.95824946 245.65288772 -179.27450104 248.17807184 -181.59277344 250.70141602 C-182.0569165 251.20729248 -182.52105957 251.71316895 -182.99926758 252.234375 C-183.9263399 253.24335733 -184.85519686 254.250703 -185.78588867 255.25634766 C-187.95286298 257.60542064 -190.06303724 259.97892189 -192.11230469 262.43188477 C-192.84578125 263.30200195 -193.57925781 264.17211914 -194.33496094 265.06860352 C-194.955 265.83043945 -195.57503906 266.59227539 -196.21386719 267.37719727 C-203.7512952 274.01703843 -211.33484107 275.36758891 -221.11938477 275.27807617 C-222.31250275 275.28683777 -223.50562073 275.29559937 -224.7348938 275.30462646 C-227.97662094 275.32274126 -231.21731112 275.31867114 -234.45902085 275.30273104 C-237.86395159 275.28998234 -241.2688181 275.30183548 -244.67375183 275.30966187 C-250.38378154 275.31872641 -256.09348651 275.30684874 -261.8034668 275.28295898 C-268.39761547 275.25568804 -274.99099251 275.26461704 -281.58512288 275.29209101 C-287.26270509 275.31479506 -292.9400554 275.31797797 -298.61766833 275.30489767 C-302.00202924 275.29711843 -305.38602741 275.2960201 -308.77036476 275.31258011 C-312.53828046 275.32526101 -316.30470533 275.30594952 -320.07250977 275.27807617 C-321.18896378 275.28819733 -322.30541779 275.29831848 -323.45570374 275.30874634 C-330.97000338 275.20562305 -330.97000338 275.20562305 -334.96426392 272.34593201 C-336.69686606 269.74460173 -337.39917797 268.60112845 -337.40356445 265.546875 C-337.41609756 264.7793541 -337.42863068 264.01183319 -337.44154358 263.22105408 C-337.42828537 262.40633133 -337.41502716 261.59160858 -337.40136719 260.75219727 C-337.40377914 259.90311295 -337.4061911 259.05402863 -337.40867615 258.17921448 C-337.40769934 256.38977371 -337.39434529 254.6003021 -337.36938477 252.81103516 C-337.33502343 250.07358202 -337.34874538 247.33934949 -337.36816406 244.60180664 C-337.36126662 242.86025646 -337.35159514 241.11871459 -337.33886719 239.37719727 C-337.34382706 238.56045029 -337.34878693 237.74370331 -337.35389709 236.90220642 C-337.28278453 233.46983264 -337.20098122 231.19100242 -335.07809448 228.41726685 C-332.26999697 226.24184707 -330.86918794 226.1205508 -327.34887695 226.09765625 C-326.26417618 226.08181992 -325.1794754 226.06598358 -324.06190491 226.04966736 C-322.31181374 226.05710716 -322.31181374 226.05710716 -320.52636719 226.06469727 C-319.32310287 226.05849869 -318.11983856 226.05230011 -316.88011169 226.0459137 C-314.33569142 226.03881032 -311.79122472 226.04199843 -309.24682617 226.0546875 C-305.35280787 226.06854003 -301.46119763 226.03450048 -297.56738281 225.99633789 C-295.09537702 225.9953866 -292.62336821 225.99724605 -290.15136719 226.00219727 C-288.98666397 225.98893906 -287.82196075 225.97568085 -286.6219635 225.96202087 C-277.63105884 226.06560474 -277.63105884 226.06560474 -274.5300293 228.97900391 C-272.3823735 232.2197297 -272.12292302 233.81506826 -272.77246094 237.63110352 C-274.55230498 240.76701922 -275.29554301 241.47213087 -278.77246094 242.63110352 C-280.16901553 242.71699654 -281.56931871 242.74883067 -282.96850586 242.74462891 C-283.80915085 242.74455338 -284.64979584 242.74447784 -285.51591492 242.74440002 C-286.41912979 242.73923874 -287.32234467 242.73407745 -288.25292969 242.72875977 C-289.18091873 242.72734482 -290.10890778 242.72592987 -291.0650177 242.72447205 C-294.03003152 242.71887288 -296.99496993 242.70632056 -299.95996094 242.69360352 C-301.96972547 242.68858841 -303.97949119 242.68402552 -305.98925781 242.67993164 C-310.91702126 242.66890373 -315.84472831 242.65163968 -320.77246094 242.63110352 C-320.77246094 247.91110352 -320.77246094 253.19110352 -320.77246094 258.63110352 C-306.646821 258.59308323 -292.52144686 258.53377456 -278.39601612 258.44720078 C-271.83716129 258.4076728 -265.2784418 258.37551027 -258.71948242 258.36010742 C-252.39103782 258.34497614 -246.06296515 258.31059275 -239.7346859 258.26279449 C-237.31897907 258.24794436 -234.90321914 258.24006043 -232.48746681 258.23921967 C-229.10655574 258.23685928 -225.7266803 258.20985272 -222.34594727 258.17700195 C-221.34469315 258.18203232 -220.34343903 258.18706268 -219.31184387 258.19224548 C-214.93734019 258.12637905 -212.47335198 258.07314428 -208.70707703 255.69781494 C-208.06865372 255.01580017 -207.43023041 254.3337854 -206.77246094 253.63110352 C-206.2684375 253.0987207 -205.76441406 252.56633789 -205.24511719 252.01782227 C-204.77976563 251.45708008 -204.31441406 250.89633789 -203.83496094 250.31860352 C-200.304382 246.18543123 -196.61660223 242.21862218 -192.89746094 238.25610352 C-188.22146312 233.26784186 -183.5953454 228.24410762 -179.03808594 223.14672852 C-175.84240033 219.59841554 -172.59870829 216.09532626 -169.35620117 212.58984375 C-165.96543822 208.92399434 -162.58287017 205.25088744 -159.20996094 201.56860352 C-158.76023926 201.07763184 -158.31051758 200.58666016 -157.84716797 200.08081055 C-156.94183492 199.09225837 -156.03656131 198.10365175 -155.13134766 197.11499023 C-152.84603598 194.61945945 -150.55916513 192.12535824 -148.27246094 189.63110352 C-147.3557869 188.63111027 -146.43912023 187.63111027 -145.52246094 186.63110352 C-140.02246094 180.63110352 -140.02246094 180.63110352 -138.64672852 179.13037109 C-137.73241476 178.13289361 -136.81818913 177.13533534 -135.90405273 176.13769531 C-133.57711183 173.59842261 -131.2485362 171.0606821 -128.91699219 168.52563477 C-127.97290814 167.49835868 -127.02889689 166.47101568 -126.08496094 165.44360352 C-125.63000244 164.94884521 -125.17504395 164.45408691 -124.70629883 163.94433594 C-121.18677963 160.10735241 -117.74096502 156.21014669 -114.33105469 152.27563477 C-112.10667578 149.9286084 -111.12392752 149.6444775 -107.85238647 149.51998901 C-105.97663437 149.52834274 -105.97663437 149.52834274 -104.06298828 149.53686523 C-102.63316875 149.53965243 -101.20334899 149.54232224 -99.77352905 149.54489136 C-99.0138319 149.54794155 -98.25413475 149.55099174 -97.47141647 149.55413437 C-93.44541507 149.56547566 -89.41952669 149.54497036 -85.39355469 149.52954102 C-80.27143804 149.51127612 -75.14992192 149.50248178 -70.02783203 149.53149414 C-65.88832343 149.55410428 -61.75012166 149.54250875 -57.61070633 149.5084877 C-56.03756716 149.50174023 -54.46432211 149.50733871 -52.89127731 149.52584457 C-50.67884008 149.55018336 -48.47059752 149.53067957 -46.25830078 149.50170898 C-45.00302582 149.50250458 -43.74775085 149.50330017 -42.45443726 149.50411987 C-37.21021493 148.2606866 -34.51356098 145.37819587 -30.77246094 141.63110352 C-29.75229857 140.64239604 -29.75229857 140.64239604 -28.71152687 139.63371468 C-26.48439818 137.45922653 -24.28678052 135.25793358 -22.09326172 133.04956055 C-21.26625259 132.22109116 -20.43924347 131.39262177 -19.58717346 130.53904724 C-17.80569413 128.7537841 -16.02537019 126.96736739 -14.24609756 125.17990494 C-11.43288231 122.35386583 -8.61656805 119.53093691 -5.79928589 116.70895386 C0.17097751 110.72764809 6.13696268 104.74208342 12.10253906 98.75610352 C18.56521169 92.27138292 25.02863752 85.78742301 31.49692357 79.30830085 C34.74962051 76.0498176 37.99840097 72.78745887 41.24655151 69.52444458 C42.93912311 67.82824288 44.6318339 66.13218006 46.32470703 64.4362793 C47.48728783 63.26594902 47.48728783 63.26594902 48.6733551 62.07197571 C49.73294182 61.01228325 49.73294182 61.01228325 50.81393433 59.93118286 C51.42851942 59.31437716 52.04310452 58.69757145 52.6763134 58.06207466 C55.60051375 55.36456493 58.26953369 55.38852596 62.15722656 55.10766602 C65.49362904 55.95120928 66.42000558 57.76610939 68.22753906 60.63110352 C68.57044706 63.62454284 68.69670561 66.23232962 68.61816406 69.21313477 C68.61250427 70.02731369 68.60684448 70.84149261 68.60101318 71.68034363 C68.5787068 74.26870704 68.52852351 76.85566192 68.47753906 79.44360352 C68.45746653 81.20334908 68.43921708 82.96311645 68.42285156 84.72290039 C68.38226969 89.02660767 68.30397584 93.32728807 68.22753906 97.63110352 C73.50753906 97.63110352 78.78753906 97.63110352 84.22753906 97.63110352 C84.18722686 87.79075551 84.13018123 77.95089581 84.04363632 68.11084366 C84.00412008 63.54173593 83.97195207 58.97282212 83.95654297 54.40356445 C83.94140351 49.99426796 83.90700678 45.58550444 83.85923004 41.17644501 C83.84438814 39.49398174 83.83649644 37.8114424 83.83565521 36.12891388 C83.83329214 33.77261985 83.80626865 31.41780667 83.7734375 29.06176758 C83.77846786 28.36549255 83.78349823 27.66921753 83.78868103 26.95184326 C83.71698404 23.6280922 83.43118494 21.89598787 81.38092041 19.22918701 C77.44012345 16.30461325 73.95603487 16.48325407 69.18579102 16.42578125 C68.47334229 16.41588165 67.76089355 16.40598206 67.02685547 16.39578247 C64.67321083 16.36420851 62.319546 16.33942633 59.96582031 16.31469727 C58.33342465 16.29412419 56.70103428 16.27312762 55.06864929 16.25172424 C50.7729826 16.19654008 46.47726812 16.14711469 42.18151855 16.09887695 C37.79772694 16.04863525 33.41400468 15.99296311 29.03027344 15.93774414 C20.42941904 15.83020725 11.8285057 15.7292542 3.22753906 15.63110352 C3.22753906 21.24110352 3.22753906 26.85110352 3.22753906 32.63110352 C7.14693359 32.5440918 7.14693359 32.5440918 11.14550781 32.45532227 C13.6839698 32.41629768 16.22239802 32.38595555 18.76098633 32.35644531 C20.52155583 32.3313429 22.28202153 32.29725324 24.04223633 32.25390625 C26.57692085 32.19306237 29.11022481 32.16485239 31.64550781 32.14282227 C32.42903122 32.11701584 33.21255463 32.09120941 34.01982117 32.06462097 C38.24665791 32.06246496 39.77221606 32.27245995 43.21704102 34.98583984 C45.22753906 37.63110352 45.22753906 37.63110352 45.97753906 40.44360352 C44.17365621 48.11010562 35.59691145 54.41043781 30.15258789 59.85131836 C29.37770523 60.62955963 28.60282257 61.4078009 27.80445862 62.20962524 C25.2671164 64.75639272 22.72608958 67.29944243 20.18457031 69.84204102 C18.41046462 71.61936266 16.63643318 73.39675843 14.86247253 75.17422485 C11.15659029 78.88607543 7.44866653 82.59587288 3.73950195 86.30444336 C-0.54419417 90.58753645 -4.82225418 94.87620315 -9.09777087 99.16745985 C-13.22445396 103.30879015 -17.35664949 107.44458318 -21.49096107 111.57829666 C-23.24488144 113.33339812 -24.99717809 115.09012376 -26.74782372 116.84849167 C-29.18907237 119.29950792 -31.63653915 121.74414269 -34.08569336 124.18725586 C-34.80837402 124.91555603 -35.53105469 125.6438562 -36.27563477 126.39422607 C-36.94414963 127.05854645 -37.61266449 127.72286682 -38.30143738 128.40731812 C-38.87860599 128.98503149 -39.45577459 129.56274487 -40.05043316 130.15796471 C-44.13581655 133.65287745 -47.41765315 133.8750187 -52.72485352 133.85473633 C-53.41645065 133.8551442 -54.10804779 133.85555206 -54.82060242 133.85597229 C-56.31891685 133.85616947 -57.81723651 133.85214367 -59.31553078 133.84436798 C-61.69129873 133.83412371 -64.06654352 133.83953852 -66.44230652 133.84979248 C-73.19576217 133.87773243 -79.94892333 133.89029742 -86.70239258 133.86108398 C-90.83759455 133.84431864 -94.97186081 133.85672574 -99.10696983 133.8875351 C-100.6781443 133.89362333 -102.24940193 133.88881216 -103.82050514 133.87265778 C-113.57903359 133.44853336 -113.57903359 133.44853336 -122.09936523 137.4621582 C-123.53185214 138.98490709 -123.53185214 138.98490709 -124.77246094 140.63110352 C-125.79178627 141.77827856 -126.8124959 142.92422597 -127.83496094 144.06860352 C-128.40601563 144.74020508 -128.97707031 145.41180664 -129.56542969 146.10375977 C-132.5136368 149.47984827 -135.58006536 152.73845772 -138.64746094 156.00610352 C-143.32349902 160.99432637 -147.94957754 166.0181006 -152.50683594 171.11547852 C-155.70252154 174.6637915 -158.94621358 178.16688077 -162.1887207 181.67236328 C-165.57948366 185.3382127 -168.9620517 189.01131959 -172.33496094 192.69360352 C-172.78468262 193.1845752 -173.2344043 193.67554688 -173.69775391 194.18139648 C-174.60308696 195.16994866 -175.50836056 196.15855529 -176.41357422 197.1472168 C-178.69888589 199.64274758 -180.98575674 202.13684879 -183.27246094 204.63110352 C-184.18913497 205.63109676 -185.10580164 206.63109676 -186.02246094 207.63110352 C-191.52246094 213.63110352 -191.52246094 213.63110352 -192.89892578 215.13256836 C-193.81088672 216.12752326 -194.72267206 217.12263915 -195.63427734 218.11791992 C-197.99648969 220.69649233 -200.36215522 223.27176885 -202.73339844 225.84204102 C-203.22130859 226.3718457 -203.70921875 226.90165039 -204.21191406 227.44750977 C-205.56189887 228.91320755 -206.91322839 230.37766646 -208.26464844 231.84204102 C-210.04030154 233.81683278 -211.69607424 235.78390524 -213.34277344 237.85766602 C-216.37587651 241.31988978 -218.12243658 242.47722161 -222.7175293 242.90576172 C-226.38201877 242.93396024 -230.04534716 242.95283428 -233.70996094 242.94360352 C-234.98548828 242.9597168 -236.26101562 242.97583008 -237.57519531 242.99243164 C-238.80431641 242.99307617 -240.0334375 242.9937207 -241.29980469 242.99438477 C-242.9819104 242.9988562 -242.9819104 242.9988562 -244.69799805 243.00341797 C-248.13200501 242.58756308 -250.01195775 241.6807904 -252.77246094 239.63110352 C-254.19908312 236.77785914 -254.08279961 234.79655803 -253.77246094 231.63110352 C-252.47949219 228.94360352 -252.47949219 228.94360352 -249.77246094 226.63110352 C-245.89729571 226.09774492 -242.0494824 226.32591186 -238.14746094 226.44360352 C-229.76526575 226.67639439 -229.76526575 226.67639439 -222.21386719 223.63891602 C-219.74568224 221.10527219 -217.74530801 218.5624362 -215.77246094 215.63110352 C-214.70764879 214.3858578 -213.62498862 213.1555831 -212.52246094 211.94360352 C-211.97847656 211.3080957 -211.43449219 210.67258789 -210.87402344 210.01782227 C-207.95125481 206.69846979 -204.92281607 203.48184759 -201.89746094 200.25610352 C-197.22166455 195.26764919 -192.59535033 190.24411314 -188.03808594 185.14672852 C-184.84240033 181.59841554 -181.59870829 178.09532626 -178.35620117 174.58984375 C-174.96543822 170.92399434 -171.58287017 167.25088744 -168.20996094 163.56860352 C-167.76023926 163.07763184 -167.31051758 162.58666016 -166.84716797 162.08081055 C-165.94183492 161.09225837 -165.03656131 160.10365175 -164.13134766 159.11499023 C-161.84603598 156.61945945 -159.55916513 154.12535824 -157.27246094 151.63110352 C-156.3557869 150.63111027 -155.43912023 149.63111027 -154.52246094 148.63110352 C-152.6891276 146.63110352 -150.85579427 144.63110352 -149.02246094 142.63110352 C-148.5685498 142.13545898 -148.11463867 141.63981445 -147.64697266 141.12915039 C-146.73381957 140.13392706 -145.81879039 139.14042172 -144.90185547 138.14868164 C-142.53775975 135.58680647 -140.21794787 132.99928865 -137.95214844 130.34985352 C-137.48228516 129.81102539 -137.01242188 129.27219727 -136.52832031 128.71704102 C-135.23226706 127.22850461 -133.95103717 125.72709834 -132.67089844 124.22485352 C-128.18303182 120.20875724 -123.91700126 117.55500284 -117.72207642 117.70492554 C-114.11168375 118.18522062 -110.5292761 118.7794859 -106.93652344 119.37719727 C-84.29411129 122.32680827 -60.023563 124.65736413 -40.92089844 110.02563477 C-19.43510824 92.69827826 -1.18061032 70.93918794 16.22753906 49.63110352 C15.55698486 49.616521 14.88643066 49.60193848 14.19555664 49.58691406 C11.14315084 49.51222052 8.09181322 49.41563053 5.04003906 49.31860352 C3.98494141 49.29604492 2.92984375 49.27348633 1.84277344 49.25024414 C0.31040039 49.19707031 0.31040039 49.19707031 -1.25292969 49.14282227 C-2.65901489 49.10354614 -2.65901489 49.10354614 -4.09350586 49.06347656 C-7.27630929 48.54978433 -9.19713838 47.55373505 -11.77246094 45.63110352 C-13.0243795 41.87534782 -12.97357449 38.3355182 -13.01074219 34.42016602 C-13.01881393 33.61501556 -13.02688568 32.80986511 -13.03520203 31.98031616 C-13.04902394 30.2773452 -13.05975455 28.57434675 -13.06762695 26.87133789 C-13.08485229 24.27249557 -13.12875481 21.67492182 -13.17285156 19.07641602 C-13.18297807 17.42017535 -13.19149431 15.76392389 -13.19824219 14.10766602 C-13.21575027 13.33355377 -13.23325836 12.55944153 -13.251297 11.76187134 C-13.23761289 8.34404709 -12.9421093 5.94097984 -11.29136658 2.92576599 C-7.75661738 -0.29430554 -4.54961181 -0.0638351 0 0 Z " fill="#000000" transform="translate(373.7724609375,-0.631103515625)"/>
</svg>
